<?xml version="1.0" standalone="no"?>
<!DOCTYPE svg PUBLIC "-//W3C//DTD SVG 1.1//EN" "http://www.w3.org/Graphics/SVG/1.1/DTD/svg11.dtd" >
<svg>
<metadata>
Created by FontForge 20090914 at Fri Jan  8 01:50:50 2016
 By www-data
COPYRIGHT ESSELTE LETRASET LTD., 1990 
</metadata>
<defs>
<font id="RubberStampLetPlain" horiz-adv-x="400" >
  <font-face 
    font-family="Rubber Stamp LET"
    font-weight="400"
    font-stretch="normal"
    units-per-em="1000"
    panose-1="0 0 4 0 0 0 0 0 0 0"
    ascent="800"
    descent="-200"
    x-height="665"
    cap-height="663"
    bbox="-113 -284 1042 912"
    underline-thickness="0"
    underline-position="0"
    unicode-range="U+0020-U+F002"
  />
<missing-glyph horiz-adv-x="500" 
d="M63 0v781h375v-781h-375zM125 63h250v656h-250v-656z" />
    <glyph glyph-name=".notdef" horiz-adv-x="500" 
d="M63 0v781h375v-781h-375zM125 63h250v656h-250v-656z" />
    <glyph glyph-name="space" unicode=" " horiz-adv-x="247" 
 />
    <glyph glyph-name="exclam" unicode="!" horiz-adv-x="393" 
d="M301 525l-4 -36l-7 -35l-11 -41l-11 2l-1 -17l-6 -1l2 -21l-2 -9l2 -3h-6l-1 -5l-6 -8l1 -4l5 -1l-5 -7l3 -6h-7l-2 -11l6 -2l-7 -9l1 -16l-4 -3v-9h2l-5 -30l-4 1l-3 -6v-21l3 -1l-2 -11l-5 -6l-10 -5l-21 -4l-26 6l-6 5l-4 10l-16 101l-8 13l9 8l-2 4l5 10h3v11l-14 14
l-2 7l-8 21l-5 18l-7 10l-8 -2l-5 27h10l-1 14l-9 25l3 3v5l-3 -1l-4 15l-6 1l1 22h11v6l-10 4l-3 6l5 2l2 18h2l3 4l-5 6l4 1v11l2 9h6l3 2l3 7l-4 15l10 8l37 12l17 1v-6l7 -3l-2 10l12 1v-4l8 -1l-5 4l11 1l4 -9l11 4l-4 -8l5 -5l6 9l12 -12l-1 -10l11 -3v5l7 2v8l5 1v3
l11 -2l12 -9l-8 1l-2 -4l2 -9l4 -2l-4 -7l-3 3l-1 8l-6 4v-9l-22 -23l3 -7l11 8l6 4l11 7h4l3 8l5 -1l5 5l4 -10h-4l-1 -10l-13 2l15 -12l-1 -22l-2 -8l9 -7v-29zM292 78l-24 -6l-7 -5l-7 -2l-11 -8h-7l-7 -4l8 -2l3 3h12l8 2l2 -3l19 1l-1 12l11 2v-16l-12 -3l-4 -11l-4 -1
l-4 2l-9 -6l1 -12h-4l-6 8l-13 -2l-5 -6l6 -10l-10 -3h-6l-10 -6h-5l-3 -4l-29 1l-37 9l-19 16l-6 9l5 4h-7l-3 8l2 9l3 -2l3 6l-2 1l-5 14l1 37l-4 10l11 16l-2 -12l11 -4l-5 21l21 12l-2 5l10 4l-2 -6l5 -8l7 4l11 2l3 3l3 -5l10 1v13l33 1l42 -10l19 -19l12 -40v-20z
M237 625l-6 9l-7 -1l-3 -3zM216 637l-4 11l-7 -2l-3 -10zM155 515l-3 3l-10 -6l10 -4zM138 515l-4 5l4 20l-1 9l-5 7l-6 -2l2 4h-4l-2 -15l-7 -9l4 -11l-10 -4l6 -6l-4 -11l5 -5l6 7v12l7 -1l-1 -3l7 -1zM99 537l-4 6l-1 -14l3 -3zM142 485l-2 9l-4 4l-5 1h-3l-7 -6l1 -5
l9 -4l3 4l1 -14h4zM122 450l-6 2v-3l-4 -5l8 -1zM256 152l-1 5l-7 1l-2 -4zM206 5l-11 1l4 -6zM189 3l-3 12h-5l-1 -3l4 -9h5zM140 16v10l-6 5v-5z" />
    <glyph glyph-name="quotedbl" unicode="&#x22;" horiz-adv-x="508" 
d="M447 636l-3 -7l-6 -4l5 -7l-1 -8l-7 -9v-5l-4 -7l6 -2l-4 -5l-3 -2l2 -12l-2 -6l-8 -2l-10 -12l-5 -11l7 -4l-10 -10l-3 -1l15 -13l-8 -12l-1 -13l-10 -13l-32 -9l5 7l13 4l12 13l-4 1l-10 -7l-15 -5l-7 -13l-14 -1l-27 4l-7 14l4 1l4 6l-3 7l-6 1l-7 -3l-10 18l4 21
l-3 6l-6 3l8 8h-3l-4 8l5 11l-4 4l5 4l-9 9l7 7h-4l-13 9l10 7l-17 -4l3 8l1 12l5 20l25 17h5l19 7l1 -5h9l6 3l16 1l-3 3l7 5l27 -7l6 -9l-3 -7l10 2l4 5l21 -7l2 -4l8 3l3 -11zM242 610l-3 -8l-3 3l-8 1l4 -7h-10l3 -9h-4l-6 -7l4 -9l-1 -4l2 -4l-2 -11l2 -8h5l1 -8l-6 -3
l-3 -6l-6 -42l-7 6l-6 -1l-3 -7l4 -6l4 -1l1 -11l-8 -3l-27 -4l-14 1l-7 13l-15 5l-10 7l-4 -1l12 -13l13 -4l5 -7l-32 9l-10 13l-1 13l-8 19l14 -6l7 4l-6 8l3 1l5 -8l4 -2l16 9l-11 14l-10 1l-11 11l-17 12l-8 2l-2 6l2 12l-3 2l-4 5l6 2l-4 7v5l-7 9l-1 8l5 7l-7 4l-1 7
l5 2l-2 10l7 -4l-2 5l8 -3l2 4l21 7l4 -5l10 -2v4l7 1l-4 11l27 7l6 -5l-2 -3l9 -1l7 -4l2 4l4 -3h9l-2 5l22 -7h5l25 -17l5 -20zM361 492l-18 15l-5 -8l-14 4l2 -5l-11 2v-3l6 -6l9 1l16 -3zM190 492l-15 14h-9l-7 -6l-7 3l2 -5l-11 2v-3l6 -6l10 1l15 -3z" />
    <glyph glyph-name="numbersign" unicode="#" 
d="M367 0h-334v667h334v-667zM360 7v653h-320v-653h320z" />
    <glyph glyph-name="dollar" unicode="$" horiz-adv-x="626" 
d="M551 465l-9 -9l-6 -3h-3l-33 2l-4 4l-3 8v13l-10 10l3 8l3 -1l-2 13l-13 5l1 -16l-7 12l-31 43l-55 40l-2 8l2 6l-3 7l2 37l2 6l3 3l9 2l24 -4l13 -6l9 -6l8 3l7 -2l-3 -8l6 -2l3 4h6l2 -8h5l3 8l-7 6l27 23l7 1l7 -1l19 -8l10 -7l-5 -11l2 -19l8 -3l-10 -7v-6l3 -1l5 -9
l-1 -15v-12l-7 -4l3 -9v-12h4l5 -58h-3l-1 -4h4l3 -9l-8 3l-7 -3l-1 -13zM290 710l-9 -3v7l5 3zM589 199l-10 -53l-5 -10l-10 -2l-12 -3l-2 -2l-3 -10l10 -3l-13 -2l-9 -7l-9 -6l8 -15l-9 -20l3 -2l-27 -26v8l-14 -3v-3l5 -4l-7 -2l-3 -5h-5l-15 -12l-10 1l-2 -4l-2 3l-6 -1
l-1 6l-4 5l-11 -6l-9 6l3 5l-9 5l-6 -5l5 -6l-12 -14l-7 -2l-1 4l3 3l-9 2l-1 -10l-5 -9l-20 -5l-4 -3l-3 -2l-9 -60l-1 -1l-10 -2l-36 1l-7 2l-5 4l-1 6l3 92l3 10l-5 1l-1 37l7 38l6 1l-5 25l-8 1v30l3 9l4 3l6 2l27 -6l14 -6l6 -5l3 -13v-20l-4 -3l-3 -8h8l-3 -4l1 -12
l2 -5h-5l-3 -11l2 -6l1 -10l7 3l-7 -8l9 1l2 -4l25 -1l1 4h-4l8 5l-3 -6l4 -3l3 3v7l5 4l3 8l4 1v13l14 2l-3 13l16 -5l15 2l-25 24l5 1l-4 9l-15 2l-5 9l-21 25l-24 16l-120 44l-19 10l-11 3l-3 12l-41 33l8 -2l2 6l11 -7l1 12l-18 1l-21 10l-2 6h-4l-1 3h-15l-2 6h-9l-2 7
l-9 3l-3 6l3 6l13 -4l-2 15l-7 7l-1 5l-4 5v10l14 -4l-5 -15l7 -5v-7l6 -7l6 -12h6l5 -4l-7 -1l8 -7h13l-5 -6l2 -4l10 -1l1 9h5l2 5l-11 6l7 4l-7 3v6h-6l-2 -17l-6 3l2 10l-4 -1l8 14l-3 13l-12 5l-14 27l-5 -5l-2 -7h-10l-6 3l-2 16l-7 -2l-15 8l1 6l4 -2l1 4l4 2h-5v11
l-13 1l-1 15l8 44l9 26l10 10l4 2l3 7l16 7l6 7l3 -6h5l1 6l-2 3v10l6 2v17l3 4l11 3l5 7l-8 3l10 9l18 11l14 7l2 -3l9 8l19 8l13 4l49 11l7 9l12 11v17l10 1l8 5v5h6l2 -6l-3 -5h8l-1 11l13 -1l6 -3l2 -2l4 -18v-23l-5 -1l4 -4l-1 -87l-9 4v-3l-9 -6l9 -8h6l-4 -3l5 -6
l1 -4l-2 -12l4 -30l-1 -17l-3 -1l-6 -11l-11 1l-31 9l-8 9l-7 33l2 52l7 -2l-4 19l-11 3l-2 -4l-8 -1l-1 -8l-10 -5l-8 -9l-8 -13l-3 -10h-6l-8 -14l5 -18l8 -4l19 -33l15 -14l25 -15l124 -38l46 -18l32 -31l-20 11l-9 -8l5 -5l2 -9l19 -2l1 6l4 1l2 -11l8 -2l2 5l5 1l3 -11
l-7 -17l5 -4l-1 -5l-6 -2l9 -12l2 -9h3l19 18l4 -1l2 4l9 -3l-4 -6h-3l5 -7l3 4l7 -6l-2 -8l-3 1l-4 -6l11 -17h15l-3 -10l2 -6l7 -6zM68 215l-9 -6l-1 10l3 -4h7zM250 26l-3 -17l-4 -5l-6 -2l-41 12l2 10l-3 8h-7l-3 6h-2l-1 -8l-4 -8h6l-1 -4l-14 -1l-1 10l-5 2l-1 19
l-7 4l-2 -12l-6 -4l-4 5l-1 -16h4l-5 -10l-10 -14l-6 -4l-8 -1l-37 10l-9 9l-4 15l3 13l5 13l-4 6l2 57l5 -2l1 6l5 3l-7 12l8 3l-4 23l7 23l-11 8l-8 23l-10 7l7 7l6 3l17 1l18 -2l3 -3l35 -68l29 -38l22 -22l48 -29l2 -2l3 -12zM204 647l-6 1l-2 -7l-6 -1l2 -7l-6 -3l6 -2
l9 5zM537 293l-6 6l-2 -6h8zM292 526l-3 6l-3 -4l3 -7zM467 350l-3 13l-17 3l1 -8l-10 -2l-2 -3l-5 -3l7 1l-8 -11l15 4l13 -1l-1 8l6 2zM417 359l-9 7v-6zM408 337l-6 1l-7 -3l-4 3l-25 -4l-1 -4l10 -3l9 -1l15 2zM104 545l-8 -4l-2 -4l7 -1zM509 51v6l-8 -7zM117 422l-1 5
l-5 2l-2 -4zM193 312l-8 4l-2 -5l2 -4zM306 87l-9 3l-4 -2l-1 -2v-12l-3 -10l6 -8l6 6z" />
    <glyph glyph-name="percent" unicode="%" horiz-adv-x="750" 
d="M706 168l-8 -9l7 -7l-2 -11v-23l-6 -15l-7 5l-8 -14l-3 -11l-12 -4l2 -9l-9 -8l-6 -9l-21 -11l2 -8l13 -7l-8 -7l-24 -16l-12 -4l-12 8l1 -5l-25 -8h-5l-3 5l-2 14l2 11l19 29l4 31l10 45v10l6 6l-4 10h6l1 23l-16 32l-4 56l-20 31l-4 15l3 9l6 6l13 3l24 -5l20 -10
l17 -12l6 -12l6 -2v-4h8l4 -5v-5l7 -2l6 -7l-1 -16l3 -8h4l-8 -19l5 2l7 -9l5 -2l1 -9l8 -1v-14l4 -11l-6 -3zM371 454l-2 -11l-23 -57l-34 -36l-13 -2l-7 -7l-12 -1l-9 -9l-13 -8l-12 -3l-12 3l-7 7l-1 15l21 40l20 17l4 12l5 3l-2 7h4l3 13l-4 8l-5 -8l-1 -8l-9 7v18l4 1
l8 9v9h-9v4l8 1l1 6l10 -7l4 12l-4 7l5 13l-4 6l-8 3l5 11l1 -1v-8l5 -2l-3 22l-7 12l-9 -2v-5l5 3v-4l7 -5l-5 -11l-3 6h-5l-9 -33l6 -2v-5l-10 2l-4 100l-26 38l-1 5l3 10l9 9l10 3l32 -10l39 -25l23 -24l25 -54l2 -11h-7l4 -36l3 -7l1 -27l-11 -9l2 -7zM594 627l-6 -24
l-27 -34l-4 -17l-4 -3v-7l-5 -3l-2 -7l3 -3l-12 -13l4 -8l-9 -9l-19 -28l-17 -35l-6 -9h-5l-12 -10l-2 -7l-6 -3v-6l-2 -2v-3l-14 -15l-14 -19l-1 -11l2 -10l-118 -180l-4 -1l-3 -10l-3 -2l-2 -7l-11 -13l-2 -5l-8 -8l-23 -33l-3 -16l-14 -14l-2 -5l-6 -1v-5l-5 1l-1 -6
l5 -5l-3 -8h-9l1 -8l-5 -5l-1 8l-21 -10v-2l-37 -2l-19 4l-3 7l30 52h5l8 9v9l6 1l-2 7l15 11l1 16h3v-3l4 2l-5 7l8 -3v7l44 35l13 3v6l28 16l11 3l-7 1l-31 -8l-2 -9l-7 2l-4 -3h-19l16 22l9 10l2 4l13 12l3 6h7l3 9l7 8l4 15l4 5l1 10h4l1 6l14 9l4 3l-2 7h-5l2 4l7 3
l2 -3l3 5l-3 3l8 7l6 13l-5 4l93 146l8 -1l4 8l-4 5l12 20l7 5v7h5l1 8l12 10l5 -2l-4 -7l7 4l2 7h10v9l-7 2l-1 4h5l12 20l6 15h7l1 4h5v7l5 3l-2 1v5l5 -2l5 3l-2 14l-5 4l15 9l43 2l-5 -9v-9zM534 20l-3 -17l-7 -7l-10 -2l-21 6l1 11l-6 4h-10l6 -6h-17l-7 4l-9 10l4 1
l-27 14l-4 7l-1 10l-8 16l-2 10l-5 1l2 5l-5 1l-2 10l-16 31l-3 31l1 27l10 41l29 50h4l3 9h4l15 16l14 7l9 7l8 4l-1 -10l-4 -5l14 -6l8 15l18 12v3h10l3 -2l5 -24l-22 -32l-8 -104l-4 -12l2 -2l-1 -40l7 -5l-5 -16l1 -24h5l4 -19zM201 640l-2 -9l-21 -32l-4 -35h-5
l-10 -23l7 -19l-5 -2l5 -29l-3 -3l2 -8l5 -1l1 -12l-9 -22l1 -4l9 -2l2 -46l12 -35h5l6 -14l-4 -20l-14 -4l-52 18l-21 14l-8 34l-5 4l-10 2l-2 17l-10 2l-6 4l-13 53v35l11 4l1 -11l-3 -7l6 -2l4 -5l7 1l4 -3l2 45l-7 4l1 5l-21 6l4 12h9l1 10l-6 2l3 5l12 -1l-4 8l4 17h4
v3l10 7l6 12l13 -1l-3 5l13 2l8 5l3 5v12h10l5 8l31 10l12 -3l6 -6zM232 153l-12 -8l9 14zM285 464l-9 -3l1 -6l5 -4zM410 144l-4 11l-9 10l-1 10l-4 -3l-1 -9l5 -4l1 -8z" />
    <glyph glyph-name="ampersand" unicode="&#x26;" horiz-adv-x="800" 
d="M574 560l-2 -19l-16 -41l-37 -38l-17 -12l-14 -3l-12 3l-11 13l-12 27l14 29l9 2l2 3l10 -1v16l-11 5l-11 40l-30 33l-1 29l3 12l7 6l24 5l29 -4l33 -13l10 -7l-4 -8l3 -13l-9 4l5 -7l10 -1l11 -7l3 -14l7 -1l-1 11l2 3l5 -12zM770 325l-1 -7l-6 -7l-79 -24l-5 -7l-4 -10
l-8 -57l-6 -16l-17 -13h-2l-11 11l-23 41l-8 39l-19 44l1 19l3 7l6 5l26 6h17l-1 -8l3 -7l20 1l9 -6l8 5l17 -5l25 2l7 -5v7l-18 14l31 1l23 -6l8 -9zM758 33l-3 -10l-10 -10l-64 -13l-33 2v5l-5 -3l-6 4l-4 -4l-21 2l-8 6l-12 -5l-1 4h-5l-3 14l-4 5l-11 -5l-5 4l-3 11l7 3
l-2 6l-4 -5l-17 2l-9 5h-2l-2 -6l-18 3l-1 -4l-5 3l3 -12l11 -6l-13 -6v5l-7 6l-2 -20l-12 -5l-3 -3l-6 3l-2 -7l-11 1l-20 8l-22 27l-23 34v12l-6 4v8l-4 1l-9 22l-8 7l-4 10l-9 8l3 4l-7 13l-10 10l1 8l3 1l-1 7h7l-13 10l-3 9l-8 4l-2 -3l-8 2l5 2l-3 9l1 9l-5 6l1 12
l-5 2l4 2l-7 1l-2 4v14l-9 9v4l-9 1l-4 4l10 3l-13 5v8h-7l-4 6v-5l-9 -3l-7 9l-8 5l-46 73l2 5l-5 -1l-22 44l3 1v7l9 1v5l-10 2l-9 11l7 3l1 8l-10 12h-3l9 22l-7 24l3 4v10l-2 2l2 5l-3 4l7 20h7l3 3l9 24l7 10l2 -7l10 2l5 9l1 -3l18 24l15 -5l6 6h9l13 -3l32 17l-6 13
l11 3h42l32 -4l6 -6l5 -23l-6 -26l-26 -39l1 -18l6 -15l79 -129l-3 -4l6 -7l2 -14l7 -26l-8 4l-7 -2v-10l6 -7l-1 -10l9 -8l3 6l12 -3l-8 -4l5 -1l1 -8l10 -3l3 -12h-6l-1 -28l4 -9l-6 -2l2 -13l-3 -9l9 -4l3 -11h3l7 -6l-5 11l3 3l9 1l9 6l2 -4l-2 -9h7l5 14l-11 2v4l-3 3
l2 7l-16 -4l-2 7l10 8l4 -2l5 12l12 -10l12 -3l103 -167h-3l-5 -7l8 -6h15l37 -17l45 -16l9 -13zM393 17l-2 -9l-6 -6l-12 -3l-62 5l-49 -2l-8 2l12 6l4 6l-4 -1l-7 12l-4 3l-27 3l-11 -8l-11 3l-9 -13l-17 2l-3 2l-6 12h-9l-4 10l-7 6l-12 -2l-21 5l-2 6l-8 -2l1 14l-13 5
v3l-18 7l-2 11l-8 13l-7 20l-8 12l2 13l-6 8l-4 2l4 53l-5 2l6 29l15 3l8 8l4 -4l5 12l1 12l5 10l-4 6v3l-7 4l25 26l29 21l11 6l2 -3h15l6 5l-2 4l12 6l6 -1l14 -17l11 -24l-4 -30l3 -14l16 -33l46 -81l-7 -7l-10 -3l-1 -8l11 -2l1 -3l11 3l3 -6h3l-1 -12l7 -4l4 -7l-4 -3
l5 -5l26 -5l-5 -2l3 -11l10 -3l13 5l10 -3l38 -51zM546 596l-18 17l-3 -2l10 -21l10 -1zM555 208l-14 3v-7l3 -3h4zM217 558l-9 1l1 3l-14 4l-7 -8l6 -6v-5l5 -7l-4 -1v-9l6 1l3 -3l4 1l-7 4l5 17l9 -3zM537 200l-5 5l-11 -1l-11 -6l2 -9l10 3l2 4h9zM289 396l-7 6l-10 -3
l-11 5l-9 -14l1 -5l7 -3l4 -5h-7l10 -10l9 1l-2 6l-9 9l20 -1zM304 343l-12 14l-19 -1l1 -4l-4 -5l9 -4l4 -21l5 -6l7 1l7 11l-10 15h12zM208 421l-2 6h-17l-2 -4l5 -2l4 -9l5 -4l5 9l-4 3z" />
    <glyph glyph-name="quotesingle" unicode="'" horiz-adv-x="305" 
d="M240 610l-3 -8l-3 3l-7 1l3 -7h-10l3 -9h-3l-7 -7l4 -9l-1 -4l3 -4l-2 -11l2 -8h4l1 -8l-6 -3l-3 -6l-5 -42l-7 6l-6 -1l-4 -7l4 -6l5 -1v-11l-8 -3l-27 -4l-13 1l-8 13l-15 5l-9 7l-4 -1l11 -13l14 -4l4 -7l-31 9l-11 13l-1 13l-8 19l14 -6l7 4l-5 8l3 1l4 -8l5 -2l15 9
l-11 14l-10 1l-11 11l-16 12l-9 2l-2 6l2 12l-3 2l-3 5l6 2l-5 7l1 5l-8 9l-1 8l5 7l-6 4l-2 7l5 2l-1 10l6 -4l-1 5l7 -3l2 4l21 7l5 -5l9 -2l1 4l7 1l-5 11l27 7l7 -5l-3 -3l9 -1l8 -4l2 4l4 -3h8l-2 5l22 -7h6l24 -17l6 -20v-12zM188 492l-18 15l-6 -1l-7 -6l-7 3l3 -5
l-12 2l1 -3l6 -6l9 1l17 -3z" />
    <glyph glyph-name="parenleft" unicode="(" horiz-adv-x="418" 
d="M382 -7l-4 -15l-10 -10l-14 -3l-15 3v-3l-18 2l-8 5l-6 -3l-9 9l-9 -5l-7 1l-2 9l6 1l8 12l14 -16l1 7l-10 8l-1 5l1 4l2 2l5 -1l-1 15h-11l-5 -6l3 -12l-6 -1l-5 -5l4 -4l-3 -8l-9 1v-7l-16 5l-40 18l-8 27l-14 13h9l-2 7l-8 -3l-1 6l3 8l-21 7l5 18l-16 8v9l3 1l-7 7
h-5l-3 -7l-4 1v9l-3 5h5l6 4h-6l3 9v18l4 1l1 8l-5 5l2 3l-11 12l-15 2l1 5l-7 12h2l-1 8l-6 2l-12 -2l-13 -1l-3 13l-12 85l-1 30l5 85l11 40l10 13l2 -5l10 -5l2 14l-2 13l4 1l-5 3l-2 4h8l2 6l10 5l5 -5l-1 -5l16 -5v7l3 3h5l2 9l-5 1l-1 12l-8 -3l-7 -9h-9l2 13l-2 8h8
l1 20l8 1l6 9l7 2h19l-9 11l-3 8l3 13l11 -1l-1 13l3 2l-1 5h10l5 16l4 1v4l4 -1l5 6l-5 5l9 8l27 17l24 25l71 14l17 -1l15 -4l5 -5l5 -41l-1 -9l-35 -41l-5 -8l-13 -201l-16 3l-2 -7l5 -13l-3 -5l4 -7l-3 -12l1 -14l-1 -13l4 -8l-5 -14l8 -3l-4 -7l1 -5l-6 -4l-3 -7l5 -4
l-8 -12l-1 -10l10 -2l-2 -8l5 -3v-7l2 -5v-13l6 -4l-5 -10l8 -3l6 -76l-2 -9l-11 -29l8 -10l8 10l3 -12l5 -14l32 -34zM142 482l-13 -1l3 -3l2 -6l4 1v-6zM103 428l-1 3l-7 4l-6 -13h10l2 2zM99 370l-2 34l-8 9l-8 -17h13l2 -4l-5 -11h-4l1 -18l3 6zM106 353l-11 8l-9 -4
l14 -4h6zM357 -1l-9 8v-10l-4 -3l5 -3l2 6zM208 108v6l-5 3l-13 -2l-1 -8l7 -3l1 -7l5 -1l-2 -11l6 8l-1 7l-5 1zM222 64l-3 6l2 3l-7 12l-9 -2l-2 -5l-7 -1l6 -2l-7 -6l-2 -8l8 -2l16 4v-5z" />
    <glyph glyph-name="parenright" unicode=")" horiz-adv-x="425" 
d="M122 494l-4 -10l-1 -13l-5 1l-3 6l1 7l-3 7l2 17h7zM345 300l-5 -36l-8 -44l-19 -57l-10 -21l-8 -12l-3 3l2 10l-12 11l-6 -4v-8l-11 -8l-2 -13l-15 -16v-7l-10 -4l1 -10l1 -8h5l-5 -10h-13l-1 7l-19 7l-11 -10l-4 -9h-4v-5l-11 -12l8 -10l2 -7l-2 -10l-5 -8l-27 -16
l-45 -18l-40 -8l-13 2l-10 11l-4 17l3 31l30 31l14 44l10 6l-6 3l6 5l1 14h7l-1 22l1 7v13l2 10v8l6 32l8 8l-4 4l2 3l3 10l7 12l-8 14l7 9l-8 14l13 17l-5 6l-5 -1l-5 6l2 3l-16 3l-4 5l-3 -13l-2 19l5 1v9h3v12l2 23l-5 14l-7 10l2 2l7 -1l2 6l-3 7l-6 -8l-3 63h5l-2 -9
l4 -4l1 -16l-4 -4v-4l9 -5l3 9l-3 15l10 7l11 -5l6 2l-1 5l3 3l-3 6l3 3v14l-4 4l5 10l-1 17l2 10l-1 3l-2 3l-12 6l-12 3l-2 -8l6 -10l-5 -3l-2 -15l-13 7l-2 3l-3 48l-7 26l-7 15l-28 30l-3 5l-2 15v12l5 24l5 6l7 1l7 -1l11 -11l3 3h4l6 -9l5 -3l2 -1l8 13h6l7 8l4 -7
l12 -1l-5 -3l15 -13l41 -17l-6 -3l8 -5l7 1l3 -3l-7 -7l5 -3l-2 -8l8 -2l2 -6l-3 -3l2 -7l19 -3l7 -6l3 4l5 -7l11 -7v-10l11 -2l11 -12l4 -9l-2 -17l8 -7l5 -6l1 -3v-5l9 -4l6 -24l8 -5v-6l-4 -1l3 -4l5 3l9 -11l1 -23l3 -12l4 -1v-32h9v-19l3 -18l-3 -26l4 -2l-3 -27
l5 -14zM258 57l-10 -3l-3 4l11 1z" />
    <glyph glyph-name="asterisk" unicode="*" horiz-adv-x="371" 
d="M341 548l-2 -13l-6 -10l-8 -7l-11 -4l-2 4l-8 -6l-4 4l-8 -7h-10l-1 7l-10 1l-26 -8l-11 -5v-8l7 -2l12 -10h-7l9 -23h6l6 13l17 -15l15 -21l2 -17l-8 -10l2 -3l-6 -6v6l-10 -2v19l-5 7l2 -18l-4 -6h5v-5h-5l-8 -7l-17 -3l-2 -6l9 -1l8 7l3 -5v6l9 -5l5 14l6 -10l-10 -7
l-20 -9l-17 2v16l-9 2l1 -12l-7 8l-30 53l-5 14l1 12l-7 -3l3 -1l-2 -11l-29 -64h-15l-16 -6l-3 4l-15 2l-1 12l-5 15l-3 3l-18 -3l-4 5l4 14l25 32l17 13l13 3l2 4l7 5h-4l1 4h-6l-2 5l-25 -4l-44 6l-12 5l-15 14l-4 13l4 25l8 18l10 10l16 4l12 -2l18 -7l3 -9h10l7 -11
l18 -7l-1 -5l13 4l11 -9l-1 5l4 3l4 -5l11 3l-4 12l3 7l-4 1l-2 -3l-12 3l-12 10l-1 23l-5 23l3 23l9 6v7l5 -6l5 3h6v-3l8 4l-3 2l1 6l15 -4l1 4l9 -4l14 1l10 -11l7 -35l-3 -21l-15 -51l36 27l31 15l22 5l12 -3l20 -23zM219 521l-3 9h-7l3 4l-6 1l-1 -7l2 -8zM204 523
l-2 6h-6l7 -15zM178 505l-6 5l-7 -4l-9 3l-15 -5l-1 -6l35 -6l-4 3v4l5 -1zM82 582l-1 5l-34 -9l30 1z" />
    <glyph glyph-name="plus" unicode="+" 
d="M367 0h-334v667h334v-667zM360 7v653h-320v-653h320z" />
    <glyph glyph-name="comma" unicode="," horiz-adv-x="373" 
d="M289 82l-2 -10v-27l-1 -21l-5 -10l-1 -10l-8 -7l1 -6l-6 -10l-26 -25l-9 -6l-1 2l8 4l-2 11l-2 -8l-9 -3l-3 -11l-1 7l-6 -10l-1 4l-6 4l-3 -6h-7l-5 -9l-4 4l-9 -4l-19 -3l-9 -6l-3 3l-10 -1l-2 5l-10 -7l2 -9h-19l-9 3l-4 5l-3 19l-1 14h4l2 6h-5l9 12l15 3l4 4v-3
l14 -2l-5 9l8 2h-2l7 9l-5 2l3 3l-5 2l4 14l-2 3l-7 -1l-2 4l-14 5h-9l-5 7h6l3 5l-13 -2l1 11l-2 1l-5 31l11 4l2 6l-12 -2l1 18h5l-4 11l7 4l3 14l16 16l2 -6l20 7l6 8h47l2 4l12 -4l22 -1l19 -9l12 -2l8 -12l10 -20l-3 -18l-19 -3l-2 -3l-1 -3l2 -6l6 -7l10 3l1 3h8z
M280 69l-11 3l2 -7l6 -2zM240 86v3l-23 10l-5 -7l6 -7l6 -1zM262 46l-11 3l1 -10l7 1l-2 4zM270 12l-3 10l-11 -1l-1 -10h6l4 3v-3zM117 75l-4 6l-7 1l-8 -9h17zM175 -1l-1 9l-6 -7zM172 11h-11l-8 -5l7 -6l-4 -3l7 -1l1 9zM124 38l-9 3l2 -9l6 1z" />
    <glyph glyph-name="hyphen" unicode="-" horiz-adv-x="406" 
d="M323 283l-39 -2l-6 1l3 5l10 -1l13 2l2 -6l16 5zM376 341l-17 -2l-4 -19h13v-6l7 -3l-3 -10l-4 -7l-7 -4l-23 -6l-11 -1v15h-10l-2 5l-14 2l-10 -5l-21 2l-10 -1l2 -14l9 1l1 -6l-45 -2v4l-11 2l-7 4l-34 -2l-3 3l-12 -1l-9 3l2 4h-7l-2 -6l-5 -4l1 -5h-19l-2 -2l-12 4
l3 4l8 -5l9 4l1 -1l-2 11l-8 -10l-1 7l-16 4l-3 -8l-4 9h-3l-7 -5l1 -9l-12 -2l-24 6l-12 12l-4 14l1 7l4 10l-6 11l7 8l-5 2l-1 12l4 12l9 9l19 6l15 1l-2 -4l8 -3l18 3l24 -1l7 2l12 -2l2 4l4 -1l2 2l13 -6l2 5h34l3 5l7 -4l30 3l7 -3h-4v-6l14 -2l3 10l55 3l39 -8l11 -10
l7 -21v-18zM362 358l-7 2l2 -11h4zM338 333l-15 -1l-3 -11l-6 -2l9 -3l7 1l4 2l2 3zM191 370l-6 7l-8 2v-7zM259 305l-10 4l-5 -8l-21 -2l-6 6l-5 -5l2 -4l14 -1v-2l12 -3l-1 5l4 2v-6l10 -2l2 3l-6 1v9z" />
    <glyph glyph-name="hyphen" unicode="&#x2010;" horiz-adv-x="406" 
d="M323 283l-39 -2l-6 1l3 5l10 -1l13 2l2 -6l16 5zM376 341l-17 -2l-4 -19h13v-6l7 -3l-3 -10l-4 -7l-7 -4l-23 -6l-11 -1v15h-10l-2 5l-14 2l-10 -5l-21 2l-10 -1l2 -14l9 1l1 -6l-45 -2v4l-11 2l-7 4l-34 -2l-3 3l-12 -1l-9 3l2 4h-7l-2 -6l-5 -4l1 -5h-19l-2 -2l-12 4
l3 4l8 -5l9 4l1 -1l-2 11l-8 -10l-1 7l-16 4l-3 -8l-4 9h-3l-7 -5l1 -9l-12 -2l-24 6l-12 12l-4 14l1 7l4 10l-6 11l7 8l-5 2l-1 12l4 12l9 9l19 6l15 1l-2 -4l8 -3l18 3l24 -1l7 2l12 -2l2 4l4 -1l2 2l13 -6l2 5h34l3 5l7 -4l30 3l7 -3h-4v-6l14 -2l3 10l55 3l39 -8l11 -10
l7 -21v-18zM362 358l-7 2l2 -11h4zM338 333l-15 -1l-3 -11l-6 -2l9 -3l7 1l4 2l2 3zM191 370l-6 7l-8 2v-7zM259 305l-10 4l-5 -8l-21 -2l-6 6l-5 -5l2 -4l14 -1v-2l12 -3l-1 5l4 2v-6l10 -2l2 3l-6 1v9z" />
    <glyph glyph-name="period" unicode="." horiz-adv-x="366" 
d="M276 67l-3 -8l-2 -14l-7 -13l-6 -7l-2 7l-6 -1l2 -12l-15 -10l8 8l-3 16l-9 -1v-6l-15 -9v-4l-24 -5l-21 1l-5 -6v5l-33 -3v4h-9l-7 4l-2 -7l-3 11l-13 3l3 9h-4v7l-9 2l-6 26l1 40h5v6l4 6l-3 3l7 8l5 2v11l11 3v10l7 4h21l2 3l10 2l14 7l18 -6l11 4l25 -2l24 -18
l13 -13v9l9 -14l6 -29v-10l-15 -1l2 -13l9 -8l2 11zM237 9l-8 -5l-20 -3l1 4l17 6zM267 112l-2 5l-6 3v-9l-6 -4l-2 -4l9 -1l3 2l3 3zM239 124l-14 9l-1 -5l7 -5zM259 87l-7 -3l-3 -3l-1 -4l1 -3l5 -7zM245 75l-3 -3v8l-5 -5v-9l5 2l1 -5zM232 70l-3 1l-1 6h-5l-4 -15h12z
M218 65v8h-6v-11zM97 76l-7 8l-3 -4l9 -8zM116 21l-3 16l-7 4l-1 -11z" />
    <glyph glyph-name="slash" unicode="/" horiz-adv-x="456" 
d="M422 680l-2 -10v-13l-18 -29l-3 -13v-10h-4v-10l-6 -4l1 -6l4 -1l-9 -14v-4l5 -4l-7 -9l-5 -12l-11 -19l-8 -31l-6 -11h-5l-6 -4v-3l6 -4l-8 -9l-5 -12l-11 -19l-8 -32l-46 -94l1 -2l-107 -227l-4 2l-1 -2l1 -8l-3 -3l-2 5l-3 -3l-10 -25v-14l-9 -11l-4 -7l-7 -2l2 -5
l-7 -1l8 -10l-4 -9l-6 2l2 -10l-3 -3l-1 5l-4 2l-18 -9l1 -2l-48 -2l-13 8l2 9l19 46h5l6 9l-1 9l6 2l-1 7l5 3l1 3h4l1 3l-4 3l3 11l-1 3h2l17 40h5l6 9v6h-4l9 18l9 15l-1 5h3v-2l3 4v3h3l-1 7l16 13v2l5 7l2 11l5 8v2l-10 1l9 17l17 26l2 1l5 11l4 1l2 9l-6 4l111 240
l8 -2l2 9l-5 5l9 19l6 6l-1 7h5l1 9l7 5l-3 1l7 7l5 2l11 1v4l-7 1l-2 5l4 -1l5 13v4l6 6l1 12l13 5v4l-5 3h9l-5 9l12 -2l-6 17l-5 4l7 6l5 2l44 2l-4 -8l1 -9z" />
    <glyph glyph-name="zero" unicode="0" horiz-adv-x="628" 
d="M598 438l-9 -11l-3 -21h-3v-21l4 -2l-3 -11l5 -20l-2 -15l6 -13l-6 -6l5 -15l5 -2l-4 -2l1 -9l-4 -2v-7l-13 -10l-4 -9l9 -5l1 -3l7 -5v-3l6 -4l1 -15l-10 -7l-1 -3l-6 -1l2 9l-13 -9l2 -5l8 -3l8 2v5l5 -6l-11 -12l-15 -42l-19 -19l-6 -10h5l-3 -15l2 -12l-8 -8l-6 -3
l-19 -25l-10 -6l-19 -6l-1 -4l-13 -5l-27 -21l-6 -3l-11 -4l1 -4l-14 -6l-45 -9l-17 3l-8 9l-4 17l3 26l4 6l12 11l8 -5l14 9v6l10 6l6 7l-3 2l9 2l2 5h6l3 4l-1 2l-8 -4l-5 7l5 5l-2 5l3 2l-2 6l1 8l-6 3l5 3l-6 8h-7l1 28l-2 3l2 11l8 30l-4 23l7 6l-4 11l-5 7h8l8 11
l10 -2l-1 7h-6l13 8l2 25l-14 5l-2 -5l-3 5l5 6v9l-8 1l-2 6v11l-8 4l1 3l-6 4l-1 40l5 45l-1 11l-6 1l3 9l-2 2l5 15l3 23l10 29l-5 13l5 11l-3 9l5 2l1 5l-8 5l-11 4l1 13l-2 2l-4 2l-10 1v-7l-6 -10l-9 8l-18 19l-3 13l1 16l4 20l5 4l12 3l47 -9l12 -4l4 -14l5 -3l5 5
l3 -3l2 -14l15 -5l2 -6l10 6v11l10 -5l24 -19l37 -37l33 -48l13 -28l5 -14l-3 -3l6 -1l4 -14l-6 -12l10 -6h-13l1 -7h7zM404 273l-11 -2l1 7h6zM308 18l-3 -12l-7 -7l-13 -3l-84 24l-13 7l-4 11l-13 18l1 13l-12 10h-8l-5 8l-9 8l-1 -4l-8 3l-5 9l-5 3l-3 7l-16 13l6 25
l-1 10l-4 6l-8 7l-6 -4l-11 8l-6 -10h-9l-10 23l-3 21l-4 8l7 7l3 8l-6 3l-7 -1l-2 11l-6 48v9l4 14l-1 10l-2 4l9 3l-5 14l-7 -4l1 14l14 -3l4 8l-2 8l2 1v4l6 4l-1 15l3 2l4 15l-2 8l6 8l9 46l4 15l-16 12l6 -3l13 18l-2 10l16 -2l7 15l6 17l12 7l-2 6l11 5l2 8l6 3l19 15
l15 19l9 18l4 5l22 11l29 9l48 9l13 -3l6 -5l3 -18l-2 -27l-31 -37l-5 -11l-23 3v-16l13 2l9 -15l-4 -4l-16 3l-6 -2l4 -6l-2 -6l4 -5l-4 -8l6 -5l-7 -4l6 -5l2 -7h3l-1 11l4 6v10l5 1l-2 -49v-13l-4 -28l2 -2l2 -75l-6 -39l4 -8l-2 -5h-6l6 -6l-4 -3l1 -8h-5l-2 -10l-6 -8
v-5l-14 -15v-4l2 -4l8 -7h-10l1 -9l15 -3l5 5l5 12l-1 -10l6 -2l-5 -2l-6 -7l-2 -31l-4 -12l8 -3v-3l-5 -3l2 -6l-7 -2l-4 -20l19 -8l-5 -1l-3 -4l3 -4h4l2 -10h-3l-5 2h-4l6 -6l14 -4l-2 -3l9 -4l6 -15l29 -31zM584 441l-11 5l-3 -1v-2zM570 417l-1 15l-9 5v4h5l-6 5l-7 -3
l5 -4l-5 -2l-3 -4l-1 -4l2 -5l3 -2zM592 241l-6 1l-4 -7l8 -3zM427 198v5l-5 7l-1 13l-4 -3v-4l-8 -3l-1 -7zM404 150l-3 3l2 13h-5l-2 -15l3 1l2 -4zM231 214v9l-6 -2l-1 4l-4 -5l6 -5zM71 287l-4 7l-11 3v-6l7 -4v-7zM65 265l-1 3l-4 4l-10 2l-1 -12l11 -3l3 1zM58 247
l-6 3l-1 3h-4l-2 -3l4 -7h4v3z" />
    <glyph glyph-name="one" unicode="1" horiz-adv-x="394" 
d="M371 32l-3 -14l-7 -7l-35 -10l-23 -2l-42 1l2 5l-9 2l-1 -5l-4 4l1 6l-6 -2l-2 14l-4 -1l-1 -7l-17 2l-22 -5l1 -3l-17 -1l-37 -8l-35 1l-10 -2l-1 6l-11 -2l-14 2l-28 2l-10 6l-8 11l-3 12l2 10l3 4l43 15l9 6l4 4l6 49l5 -1l7 -6l8 -4h11l1 3l-8 13l2 8l-1 7l-3 -4
l-2 3l7 10l-8 10l6 9l-5 1l-1 4l-4 1v-10l2 -2l-6 -6l5 -6l-3 -9v-9l6 -1l2 -9h-4l-6 -6l-3 11l-4 32l-4 10l4 27l-1 10l3 4l8 -3l-1 -4h-4l6 -12l7 -4l4 7l9 3l-4 9l2 19l-1 13h-7l6 10l-4 9l-12 -2v8l3 -1l-1 4l12 7l-3 15l-7 3l10 4l-4 4l8 7h-4l10 9l7 11l-1 4l2 3
l-5 10l-11 2v5l7 -4l10 2l-10 11l-9 1v-5l-6 -4l3 -11l8 -4l-5 -2l-2 4l-6 -8l3 -2h8l-5 -4h-12v11l-10 6l1 25l4 1l1 12l-2 8h-6l4 11l-6 2v2h5v8l-8 43l3 4l-3 3l2 20l-1 60l-3 45l-5 7l-19 11l-24 11l-3 11v5l3 13l8 8l26 8l36 3l1 -9l29 -2l9 5v-3l13 -2l7 10l10 -5
l17 2l10 -6l1 6l42 2l-1 -7l5 -5l3 11l14 2l24 -4l7 -7l3 -20v-45l-5 1l-7 -24l2 -2l-1 -7l9 -1l-5 -18l1 -8l2 -2l-1 -17l3 -10l3 -6l-1 -198l-7 -4l-4 -11l4 -1l-4 -17l3 -10l-8 -10l2 -8l-3 -9l1 -10l-5 -6l2 -11v-19l6 -7l-3 -15h8l1 -12l7 -22l3 -41l-6 -7v-14l-13 -6
l-6 -4l-3 -14l14 2l11 7l7 7l6 -3l12 2l4 6l2 1l17 -5l9 -5l8 -6zM276 625l-10 -1l-5 -6l8 5l1 -4zM271 591l-4 7l-9 -1l-1 8l-18 -14h-7l-1 -8l11 -8l5 2v-3l7 -2l4 6h4l6 10l-1 3h4zM134 380v5l-4 4h-5l-8 -8l2 -8l3 3l6 -2zM105 357l-3 11l-2 -10zM114 181v7l-8 -3l4 -4
h4z" />
    <glyph glyph-name="two" unicode="2" horiz-adv-x="557" 
d="M508 435l-12 -37v3h-5l2 -6l2 -2l-5 -15l-34 -47l-29 -23l-121 -51l-78 -42l-81 -18l-46 -18l-12 4l3 8l22 31l31 29l7 1l3 7h5l3 4l5 -2l-2 5h5l3 -5l4 3v8l8 -4l11 5l8 -4v3l-6 4l2 6l-4 3h3l7 -4l3 -1l5 -5l6 8l2 11l-6 3l4 2l1 -3l9 -3l-2 9l3 -4l10 10l3 -1l8 11
l-1 6l16 14l21 32l6 6l5 8l4 -1l-1 9l4 10l-5 2l-1 -3l-5 -2l1 17l6 -6v5l18 10l-4 3l-11 -7l-7 -1l7 14l-8 6l1 59l-3 79l-5 17l-3 4l-28 20l-2 11l-2 18l3 17l6 6l31 5l13 -1l45 -6l51 -15l17 -9l-10 -4l1 -8l10 -5l8 -2l8 -7h6v6l4 4l11 -11l-2 -15l14 -12l-5 -5l14 -7
l5 -8l9 -6l-3 -3l9 -7l1 -3l5 -39l1 -19h-3l-7 -6l-2 -10l-4 -7l-7 -8l6 -2l-1 -4l-7 -7l7 -9l7 4l4 -10l-6 -1l-1 -5l3 -3l-4 -6v-5l4 -1l3 5l-1 7l5 -1l-1 9zM230 492l-4 -25l-8 -16l-6 -8l-12 8h-22l-6 -10h6v-8l-7 -2l-9 -10l-38 -1l-46 12l-15 14l-3 15l4 14l-6 3
l-2 -11l-8 22h5l-3 9l8 7v6l-2 17l-1 3l-8 8l-3 10l6 26l9 -4l4 9l10 -2l10 10l-11 -2l-12 1l-1 -6h-6l5 16l9 13l12 -12l8 6l5 -4l13 15l2 9h-6l1 9l4 -1l5 7v-11l6 2l2 5l-3 9l2 5l12 8l8 4l64 15l11 -3l5 -5l7 -18l2 -13l-2 -10l-5 -8l-23 -16l-13 -7v-13l26 -9l8 -7
l-3 -3l7 -8l8 -54v-10zM527 163l-4 -25l-5 -3l1 -7l-6 -2l-1 -10l-7 -5l-1 -18l-5 -5l-6 -12l4 -1l-3 -6l-8 -5v-5l-8 -2v-3h-6l-2 -10l4 -4l-9 -3l-2 -5l-5 -4l-37 -21l-50 -11l-11 1l-55 6l-14 5l5 4l-1 4l-5 3l-25 -6l24 19l7 7l3 -1l3 5l21 7l-3 15l-13 -2l3 -11l-11 -7
l-8 4l-10 -1l-20 -6l-12 -10l-10 1l-1 -11l-11 -2l-33 5l-18 1l-26 -2l-39 -10l-30 -14l-18 5l-11 4v4l-10 2l-6 7l7 8l-6 7l-5 -4l3 16h6l3 -11l11 -9l7 -4l-2 -4l7 5l-2 13l5 1l3 4l-10 8l3 3l-2 4l-7 6l6 6l1 7l11 11l-4 9l-11 -6l-12 2l5 11l44 37l52 23l27 6l29 4l40 1
l21 -2l27 -7h12l-5 -5l14 1l4 -10h-7l7 -10l5 -1l-2 7l15 -10l21 -3l3 -3l13 7l13 -2l4 5l10 1l26 12l20 11l8 10l18 29l4 4l23 5l20 -4l3 -2l4 -10l-5 -2l-1 -6l3 -1l-1 -8l-13 -7l13 -14zM57 47l-9 1l-5 9h4l4 -4l6 -1v-5zM448 608l-5 5l-2 -10l2 -9zM332 417v6l-6 3
l-13 -15l12 1l1 5h6zM180 458l-1 6l-6 -6h7zM173 453h-4l-4 -5h7z" />
    <glyph glyph-name="three" unicode="3" horiz-adv-x="553" 
d="M512 470l-2 -13l-16 2l1 4h9zM524 175l-2 -33l-11 -6l-2 -7l5 -3l-8 -5l-1 -7l6 1v-5l-17 -4v-5l14 -4v-9l-9 -2l2 6l-5 3l-20 -13l-2 -6l1 -4l-3 1l-2 -2l2 -7l-8 -1l-6 -9l-8 -5l13 -10l-13 -10l-52 -21l-57 -11l-8 1l-12 15l-11 -10l-44 -6l-5 2l-8 9l-6 21l3 10l4 5
l30 22l16 17l10 2l-1 12h5l7 8l1 14l4 9l1 10l-6 -2l-1 16l-2 8l-6 9h8v7h-3l-3 -4l-9 15v66l-4 26l-5 17l-7 9l-12 6l-58 17l-8 25l4 15l5 6l18 7l37 9l10 -1l11 9l8 2l11 12l10 -1l3 5l-4 7l10 14l-9 3l-11 -11v5l-5 3v6l7 4l-1 5l6 4l-1 4l10 -2l8 3l-5 7l-11 -1l1 -7
l-16 13l-5 1v68l-4 31l-7 27l-3 4l-34 24l-3 7l-1 12l7 1l8 10l-5 -3l-4 10l5 5l6 -4h7l6 -16h9l16 5l5 -4l9 7l6 -7l16 10l-8 9l-10 -2l7 6l9 1l48 -7l58 -25l29 -26l5 -11l3 3l2 -21l2 -2l-1 -5l6 -6l2 -17l7 -5l-10 -15l5 -6l3 -8l3 2l1 -5l6 1l-6 -9l6 -1l-7 -4l3 -5
l-6 -9l-4 -10l-9 -10l4 -10l-12 -10l-1 -4l6 -1l3 -5l3 3h20l-5 -15l-10 -19l-55 -46l-17 -12v-6l3 -4l23 -11l40 -28l5 -8l1 -9l6 -4l-9 -39l1 -11l22 4l-1 -6l5 -2v-11l3 -10h-4l1 -4l-9 -18l5 -4l9 1zM218 634l-4 -11l-2 -2l-41 -22l-2 -4v-13l-7 2v-10l17 -1h13l7 -1
l7 -9l9 -38l-11 -51l-18 -16l-25 -10l-34 -2l-39 2l-8 9l-14 11l-7 -2l-12 17l3 6l-5 9l2 5l-3 3l8 13l1 13l-11 -3l-1 9l4 1l2 9l-5 1l-2 7l15 15v3h5l5 7l5 -1l4 4l5 -1v3l4 -1l5 3l-15 19l3 4l-2 7l3 6l-4 3l8 6l14 11l30 16l21 7l41 8h13l3 -16l6 -9l8 1zM488 61
l-21 -19l-2 2l3 1v4l7 2l1 11l6 1l5 4zM317 133h-6l-1 11l3 14l3 -9l-5 -1zM216 38l-1 -23l-19 -7l5 -3v-7l-11 -2l2 7h-4l-21 12l13 -17h-17l-27 7l-40 18l-23 15l-25 27l-11 35l-1 13l10 -2l-1 -13l3 14l-5 16h-11l3 5l-3 3l8 -4l1 12l-6 9l1 5l5 1l1 5l-6 12l4 -1l2 -7h3
v10l-7 5v5l7 -3l2 6l-6 17l14 11l11 5l52 10l60 -12l14 -10l10 -10l1 -5l-6 -8l-8 -8l3 -2l-10 3l2 -9l9 1l5 3l11 -1l3 -30l-10 -36l-10 -11l-17 -7l-20 10l-5 -2l-9 -5l7 -14l11 1l12 -10l38 -22l4 -3zM338 123l-4 4l-4 1l6 -10zM332 92l-4 4l-3 -2l5 -7zM133 98l-6 7
l-7 2v-11l7 -2z" />
    <glyph glyph-name="four" unicode="4" horiz-adv-x="601" 
d="M577 194l-6 -28l-2 -4l-3 -1l-56 -6l-16 -7v-6l-4 -2l-9 -7l6 -9l9 1l1 -11l-1 -11l6 -27l5 -6l51 -19l5 -15l1 -6l-3 -11l-12 -11l-17 -6l-58 -4h-12l-33 5l-9 5h-3l-4 -6l-16 1l-8 9l-7 3v-10l-12 4l-11 -5l-3 9l4 5h9l-6 7h-8v-6l-14 4v-5l-11 -3l-2 2l-4 -6l-8 -3v-4
l-16 -2l-1 -5l-16 1l-52 12l-9 9l-3 12l2 12l3 4l45 18l10 6l2 4l4 36l-1 50l1 18h4l-1 25l3 4h-5v10l7 25l-1 17l3 6l-2 9l6 6l-1 12l3 2l-6 16l-2 11l6 3l-4 3v5l5 1l-1 7l-8 3l9 1l1 6l-4 4l4 3l-1 4l-4 -2l4 5l-2 4l3 3l-4 4l3 1l-6 5v4l5 1l-3 3l-1 9l4 2l-1 10l-10 -1
l-2 13l-4 186l6 4l1 6l-5 -5l2 16h2l4 11l-6 4l14 12l15 4l19 2l94 3l4 -4l-25 2l-2 -11l-16 11l-3 -1l-4 -3l-5 -12l9 2l5 3l3 -2l5 3l4 -4l5 1l11 -5l1 9l9 -5l-2 4h4l1 -3h4l3 5l2 -6l13 1l1 -3l8 -2l-1 14l4 -7l7 3l2 -5l1 8l13 -6l4 -5l1 -15l1 -48h-4l-1 -9l-5 -1
l1 -8l-9 -6l5 -8l-3 -4v-13l-2 -11h6l-4 -6l1 -12l-5 -5l8 -4l-10 -8l-2 -10l11 -2l-2 -5l4 -6l-4 -5v-6l4 -1l-3 -12l4 -2l-4 -10l5 -5l-3 -4v-7h2l-3 -10l4 -1l-4 -4v-8l4 -1l-4 -6l4 -8l-4 -5l2 -5h4l-4 -7l4 -3l-3 -9l7 2l1 -6l-11 -4l5 -7l-2 -4l4 -12l3 -2l-3 -5l7 -5
l2 -64h-37l2 -8h-4l2 -7h6l2 -3l11 5l9 -5l13 2l9 -5l15 6l11 1l30 -6l7 -7zM253 201l-2 -29l-2 -11l-4 -4l-20 -3l-43 1l-3 13l-4 7l-6 4l-9 2l-11 -3l-2 -3h-5l-6 -4l-4 4l-18 3l-9 -7l-12 -5l-9 -7l-7 -2l-29 7l-17 7l-5 5l-4 21l-1 11l2 14l16 42l8 -3l4 16h4v5l-5 3
l11 22l6 -2l4 7v6h4l-2 9l13 26l13 -5v12l7 7l3 17l9 5l3 6l-4 8l6 10l11 17l8 8l-1 5l7 -1l7 11l4 1l6 8l-8 4l9 2v7l13 -3v7l3 1l-1 8l3 -1l8 2v5l-3 2l5 3v5l6 3l-2 2l10 9l5 16h8l2 13l-8 7l8 12l8 6l8 2l5 -1l3 -3l3 -11l3 -46l-2 -25l-5 -22l-7 -18l-81 -130l-4 3v8
h-6l-4 -29l2 -3l-21 -46l-11 4l10 -12l-1 -3h2l4 -8l39 -2l46 1l31 -3l5 -5zM359 618l-1 4l-9 5l2 -11zM365 593l-24 13l-2 -4l7 -5l8 -2v-10l4 4l6 -3zM301 635h-11l9 -5zM370 573h-6l1 5l-7 3l-6 -2l-5 -9l6 2l-5 -8l-1 4l1 -17h-8l-5 -17l5 -3h-3v-8l8 2l5 22l-3 3l8 3
l5 -3l5 3zM477 404l-3 16l-4 -4l3 -13zM482 382l-3 6l-5 3l6 1l-1 5l-5 2l-3 -15zM342 515v5l-10 2zM516 17l-9 7l-3 1l-2 -2l13 -11zM144 348l-4 5l-2 9h-3l-1 -5l4 -3l-2 -5zM383 18l-4 9l-6 -4l4 -6zM165 197h-4l-9 7l-8 -3l6 -7l-5 -7l-8 -4v-3l6 -1l12 7zM77 163l-8 9
l-10 4v-5z" />
    <glyph glyph-name="five" unicode="5" horiz-adv-x="543" 
d="M489 647l-5 -29l-3 -12l-9 3l4 -16l-2 -7l-9 5l-7 -9l-6 -4l-5 -9l-13 -7v-3l-10 -5l-35 -10l-44 3l-3 -3l-15 1l-4 -7l2 -10l-4 -5l-3 -1l-11 3l-28 1l-13 3l-18 6v-4l6 -4l-1 -6l-53 7l-15 -1l-18 -3l-12 -12l-6 -12l-12 -35l-6 -59l-3 -12l-6 -1l9 -11l11 4l21 19
l24 8l10 1l6 -1l6 -6l3 -15l-2 -13l-4 -13l-2 -3l-51 -23l-55 -28l-15 -4l-12 2l-18 7l-5 5l-1 8v7l12 60l8 28l3 28l8 40l9 -1l-1 17h-3l6 21l4 -2l3 27h6l-3 10h4l5 21l-2 6l5 4l-2 1l1 11h7l2 12l-4 6v3l3 2l-5 15v1l8 8v5l8 5l41 7l47 -2l5 -4l15 4l15 -6l17 1l19 -4
l17 1l10 -4l9 -2l14 -7h3l4 1l11 5l5 -10l11 1l15 5l13 6l-1 -6l13 2l9 6l-4 10l11 5l19 5l27 -11l11 -9zM514 191l-8 -70l-17 -38l-6 -10l-8 5l1 -6l-7 -1l-8 -8l-16 -8l-5 -10l-7 -8l-15 -7l-4 -4l-13 -3l-3 5l4 3l-3 6l-6 -1l-5 -11l-13 -7l10 -12l-10 4l-3 -3v-4l-20 -4
l-64 -6l-26 5l-6 6l-5 27l1 8l35 28l9 11l5 9l8 1l1 10l5 -2v5l10 8l-2 4h6l-4 2l2 5l-11 3l4 6l-5 3l1 8h15l18 6l4 4l1 2l-2 5l-14 3l-18 13l-12 -3l-4 18h4v6l-5 2l12 7l1 9l4 1l-1 14l-13 6l-2 -4l-2 11l-2 65l-8 29l-6 9l-38 27l-2 10l-1 9l4 16l9 10l35 6l41 -3l-2 -5
l-12 5l-2 -11l26 -6l2 4l3 -4l5 4v-4l10 1l2 -4l3 4l4 -5l3 3l4 -3h6l2 -5l13 1l4 -8l6 4v-5l11 -2v-6l6 1l6 -8h14l7 -2l12 -11l-4 -7l2 -2l-1 -5l9 -2l-3 -8l9 3l-5 -10v-9h4l-2 9l9 -3l1 -15l-3 -6l11 -6l2 -29l4 -1v-19l2 -4h4l1 21l2 -11zM219 21l-4 -17l-7 -7l-14 -3
l-23 2l-38 9l-27 11l-22 13l-7 9l3 1l-10 14l-3 -1v5l-8 8l-9 -3l-7 14l6 4l-3 7l-9 6l8 11l-2 6l-8 7l-4 -1l6 3l-3 7l9 3v7l-6 12l5 8l-2 15l4 4l-8 5l2 10l9 17l20 16l32 8l21 1l5 -14h13l2 13l11 -1l33 -11l19 -22l9 -43l-4 -32l-4 -11l-9 -13l-12 -6l-21 15l-15 -5
l3 -4h5l4 -8l-6 -4l8 -7l4 1l5 -11l43 -24l3 -4l3 -16v-4zM420 368l-2 6l-4 -4v-2h6zM227 560v18l-15 -6h-5v-2l16 -3v-7h4zM175 542l-1 20l-4 3v6h-10l-1 -13l-5 -9zM115 385l-4 2l-3 -3l6 -3zM437 47l-9 10h-2l-6 -1l-12 -7l11 -3l-4 -5l16 6h6zM162 224l-8 3l3 -10z
M152 79l-6 5l-7 -1l-1 -2l4 -3zM134 91l-13 14l1 -9z" />
    <glyph glyph-name="six" unicode="6" horiz-adv-x="607" 
d="M541 536l-7 8l-3 1l-4 -1l-2 -2l-1 -3l12 -29l-8 -11l1 -6l10 1l-6 -8l-3 -1l-1 -5l5 -3l-5 -10l-23 -20l-21 -8l-37 -3l-56 10l-18 19l-10 25l-3 20l5 26l3 10l1 14l2 5l2 3l16 8l1 -8l-10 -1v-7l-3 -3l3 2l3 -6l6 1l-3 2l21 6l2 1l4 9l8 -1l3 5l6 1l-5 16h-17l-42 26
l-5 9l-5 22l4 17l5 5l16 3l42 -8l37 -12l5 -4l1 -10h8l6 -13h9l-2 12l10 -7l29 -35l14 -42v-20zM573 158l-6 -9l-2 -6l3 -11l-3 -12l-5 -11l-31 -19l-11 -3v-8l6 1l4 -12l12 6l-6 -10l-52 -42l-95 -25h-5l-30 7l-9 8l-3 16l-1 10l4 19l10 11v-6h5l1 11l7 -3l7 2l1 6l4 -2
l1 10h-5l10 5h4l4 7l4 -4l3 9l-6 4l-8 2l-2 6l8 1l-1 8l-16 5l1 3l-2 1l1 11l4 6l-7 9l3 40l-1 25l-4 25l-5 45l-8 14l-48 29l-3 9v10l3 14l6 7l17 5l71 6l50 -4l41 -14l52 -41l14 -28l1 -13l3 -1l2 -10l-13 10l-4 -10l10 -9l2 5l1 -7l3 -2l-1 -3l-12 7l-1 -4l4 -4l-3 -7
l6 -6l-7 -1l-4 -9l-8 -6l6 -3l6 3l4 -4h8l3 -7l-7 -8l2 -5l2 3l-2 -9l-5 2l3 7l-14 8v6h-18l-6 -2l-1 5l-11 -3l-1 -3l1 -4l6 -7l30 -9l10 -2l-4 -16l14 -9l6 -6h-5l1 -7zM326 637l-1 -4l-3 -4l-45 -38l-3 -5l-5 -16l-8 -55l-4 -97l-10 -3l5 -10l2 -9l5 4l-2 -90l-2 -13
l-4 7l-2 7l4 2v5l-7 -2l2 -12h-6l-3 -3l5 -6h12l3 -37l-11 2l-3 -5l7 -5l-13 -5l4 -6h6v-5l-7 -7l1 -8l-11 -14l6 -10v-6l7 -3v-3l-4 -4l8 -2l-1 20h9l1 -5l-4 -8l3 -2l-3 -9l5 -4l-4 -8l6 -16l13 -56l31 -36l4 -25l-2 -21l-7 -6l-24 -5l-34 5l-33 18v-11l-39 15l-8 9l5 -3
v5h4l1 -6l6 -3l8 1l-3 7l-7 6l3 8l-9 6l-11 5l-9 11l-2 9l-16 1l-4 4l-1 3l3 9l-19 16l2 2l-7 2l-6 -3l3 -17l12 1l1 -10l-5 -2l-6 1l-1 3l-4 -4l-6 7l-24 39l-22 50l-5 24l-9 79v31l-3 14l4 47l9 -4l1 7l-9 4l2 18l6 -2v-5l-7 -5l14 -7l-2 9l9 11v7l-5 9l-1 6l9 -2l-1 5h4
l-3 13l-10 6v6l-3 3l3 9l4 -3l6 8l1 8l-4 2l-2 10l7 -4l2 9l-3 4l11 6l8 12l3 -1l3 10l-2 16h7l-1 4h5l23 28l19 10l7 11l10 8l-6 2l14 6l-1 5h6l4 4l-1 7l-3 3l8 -2l12 9l-5 6l10 6l29 14l13 5v-6l7 -1l19 14h10l-2 -5l5 -8l1 -7l-9 4h-7l1 -7l6 -9l14 6l5 -4l6 9l-7 1
l21 12l14 2l4 -12zM314 650l-5 14l-2 -10zM256 279l-1 5l-8 6v-6l-4 -1l-2 -4h15zM110 429h-11l-7 -2l-5 -3l5 -4l2 -7l12 3zM409 90l-1 6l-4 3l-4 -2l-2 -6v-11l3 -3l3 12zM101 347l-6 6l-3 -6l5 -4zM98 331l-2 7l-4 5l-7 -4v9l5 12l-3 2l8 2v15h3l-5 2l4 14l-6 11l-5 -6
l3 -1l-5 -1l-3 -8l9 -3l1 -4l-7 -10l1 -3l-17 -2v-3l13 -8l-5 -1l-1 3h-7l-2 -8l1 -4l-9 -4v-4l6 -8l10 10v-4l9 -4l-1 -6l10 -5zM90 320h-12l-7 -10l15 -5zM66 298l-1 7h-8l-2 -2zM190 39l-5 5l-6 -4l7 -3z" />
    <glyph glyph-name="seven" unicode="7" horiz-adv-x="489" 
d="M472 646l-9 -33l-10 -21l-18 -26l-30 -25l-17 -9l-81 -16h-40l-1 4h-5l-3 6l-8 6l-11 -1l-8 -3l-16 1l13 4l-7 10l-2 11l-17 9l-3 1l-18 -6l-11 -6l-2 6l-44 -21l4 -11v5l3 3l8 -2v-5l-37 -16l-12 -8l-35 -46l-3 -2l-17 -2h-6l-13 3l-11 9l18 110l11 4l5 3l3 4l1 5l-1 11
h18v6l-18 3l-6 6l-3 -4h-5l1 12l7 19l10 10l40 11l25 4l14 1l1 -3l4 -1l1 -5l18 3l3 -3l2 -7l1 -11l16 2l8 -4l6 2v7l2 -4l15 2l1 -15l15 -1l-1 6l5 5l3 -2h4l2 6l5 -2l5 3l10 -12l3 8l8 -5l12 -1l10 10l7 -2l-4 10l13 2l5 -1l13 -5l-2 -3h-5l-4 5l-1 -8h8l10 9h32l25 4
l48 16l24 -7l17 -14zM390 474c0 -4 -3.66406 -14.3389 -10.9971 -31.0059l-9 -20c-0.666992 -1.33301 -2 -4.33301 -4 -9l-12 2l-14 -1h-11l10 -5l-3 -9l10 -8l-5 -7l10 -6l-6 1l-2 -4l6 -5c-0.666992 -2.66699 -1.33398 -6 -2.00098 -10l-18 -56v-1v-3l1 -9l-3 -118v-17
c-0.666992 5.33301 -3 8 -7 8h-4l-3 -13l-6 -1l-2 -5l11 -2l4 3l-2 7l6 1l3 -6l-3 -9l-7 -1l-2 -6c-3.33301 2.66699 -5 5.33398 -5 8.00098l-4 1l1 -4l-11 1l2 -11l10 -4v-6l10 -2l-1 -4c3.33301 0 5.66602 1.33301 6.99902 4l9 -10l-1 -9l6 -1l2 -11l3 -37l-7 -29l-11 -10
l-35 -7l-44 3l10 4l11 1l-3 5l6 11l-6 3l2 6l-7 2v-11h-10l-2 -3l-5 5l-22 -14l-3 -3l-11 -3l-7 -5l-35 -3l-20 5l-10 10l-7 40l2 29l11 57l11 -4l1 5c-6 5.33301 -9 10 -9 14c0 2 1.33301 7.66699 4 17c0.666992 2.66699 2 6.66699 4 12h5
c-2.66699 -6.66699 -4.33398 -14.334 -5.00098 -23.001h5l3 17l8 3v14c10 0 17.667 3.66699 23 11c-2 10 -3 15.333 -3 16v1c0 0.666992 0.333008 1.33398 1 2.00098l5 11v1l-2 24c0 2 1 4.33301 3 7c4 -1.33301 8.33301 -2 13 -2c8 0 12 9 12 27h6c1.33301 10 5 18 11 24
l-1 8c4.66699 4 7.66699 9 9 15c0 0.666992 0.666992 4.33398 2 11.001c4.66699 0.666992 7.33398 3 8.00098 7l-5 5l7 9c4 6 10 14.333 18 25c6.66699 8.66699 10.334 14.334 11.001 17.001c4 8.66699 8.33301 13.334 13 14.001l7 -9l-5 14c0.666992 2 2 4.66699 4 8
c8.66699 15.333 15.5 24.833 20.5 28.5s15.833 6.83398 32.5 9.50098l18.999 4c1.33301 0 4.66602 0.666992 9.99902 2c2 -5.33301 3.33301 -9.66602 4 -12.999zM333.003 127.994l-11 1l3 1l2 4h5zM317.003 109.994l-9 5l-3 -5l7 -5zM336.003 92.9941l-10 -10l8 -2z
M326.003 89.9941l-3 8l-5 -4l-2 -7l4 -1zM283.003 49.9941l-1 7l-4 -1l1 -7zM278.003 33.9941l-3 12l-1 -7l-6 -2h5l1 -9z" />
    <glyph glyph-name="eight" unicode="8" horiz-adv-x="594" 
d="M365 465l-9 -4v6zM565 172l-15 -71l-7 -13l-6 6h-3l1 -5l6 -4l-6 -7h-9l1 3h-8l-6 7l-8 3h-3l-8 -13l-7 -1l-1 -9l-5 -1l4 22l-5 3l-8 -11l-9 1l-3 -4v-6l-11 -2l-11 -14l-32 -32l-7 -10h-8l-1 -3l-9 1l-4 -4l-5 2l-6 -4l1 -4h-27l-17 4l-5 6l-3 19l3 26l29 33l7 49l1 85
l-3 36l-5 36l-31 38l-4 7l-2 10l1 6l27 38l8 20l2 10l6 1l4 8l12 3l-2 10l-9 5v4l3 -1l7 5l-2 6l6 2l-9 4l-5 6h4v11l2 34l-9 6v4h8l-1 8l-11 6l-3 -4l-5 36l-29 32l-2 30l3 11l6 6l25 5l62 -7l12 -4v-5l6 -5l3 3v4l4 -1l-1 -8l4 -4l-1 -9l12 -2l8 9l13 -2l-4 -4l4 -9l-4 -4
l3 -5l-13 -7l-1 -3l7 -12l12 -2v-5l9 -5l1 -3l7 -6l14 -4v-5l19 2l4 -17l1 5l4 -1l-5 -20l6 -3l-1 -18l3 -2l-4 -4v-4l-3 -8l10 -7v-9l-5 -27l-15 -34l-13 -16l-52 -33l-9 -9l9 -9l-10 -3l4 -9l14 1l12 2h3l7 -11l4 -5l6 5l7 -18l19 -17v-7l4 -2l-1 -9l6 -2l1 -6l10 -7
l6 -20l6 -9l9 3l2 -11zM529 70l-11 -3l-19 -15l4 -3l-6 1l-2 7h-3l10 5l11 2l5 6l9 5zM492 62l-6 -3l-4 2v3zM283 40l-2 -14l-5 -16l-4 -4l-26 -3l-68 6l-41 13l-39 21l2 2l-3 14l6 -7l8 2l-1 10l-12 5l-3 -6l-10 9l-2 10l3 11l-12 17h-11l1 10l-3 8l-13 1l-5 2l2 3l-2 13
l-12 36l1 24l7 41l5 17l21 34l24 21l65 35l-2 6l-2 2l-30 16l4 16l4 5v6l-7 2l-5 -4l3 -6l-7 3l-6 -6l6 -2l-1 -4l-10 5l-25 26l-19 63v18l12 5v14l4 6l-3 17h6l2 7l-4 3l6 5v5h4v6l6 -1l2 2l4 -5l-1 -7l15 -11l6 16h6l3 9l-10 6l-6 7l-1 7l3 12l-2 3l6 3l-2 8l4 1l6 10
l15 13l50 16l60 7l23 -4l6 -5l3 -7l2 -22l-3 -16l-25 -28l-4 -28l-3 -71l1 -28h-3l-2 -14l-11 -3l-1 -20l4 -1l-8 -1l14 -12l-4 -6l4 -6l10 5l-5 6l6 5l5 -9l24 -34l-1 -36l-9 -7l-14 -14l-8 -21l-2 -11l-12 -3l-4 -5h-7l-1 -5l9 -9l-3 -6l-11 2l3 -18l6 -14l-3 -7l4 -4v-4
l9 -3l-3 -4h-4v-13l8 1l1 6l4 -6l-1 -14l-5 4l-4 -9l8 -3l2 -19l-7 1l8 -5l6 -48l28 -34l3 -7zM416 647l-11 5l2 -5h9zM535 481l-7 -5l-2 -9l8 1zM530 450l-7 -1l-1 -4h6zM101 420l-1 8l-10 2v-7zM118 135l-5 11l5 5l-6 5l-3 -4l-8 2l-7 -3l9 -6l5 -11zM166 101l-5 8l3 3
l-7 8l3 -8l-5 2l2 9l-11 3l-7 -6l1 4l-14 2l-5 8l-3 -6l2 -8l-4 1l-6 -3l-1 -5l-11 7v-10l15 -4l20 -23l6 5v-6l4 5h5v5l10 4z" />
    <glyph glyph-name="nine" unicode="9" horiz-adv-x="601" 
d="M570 264l-9 -8l-2 -4v-15l2 -12l6 -1l-1 -12l-15 -55l-36 -64l-7 -8l-9 3l-13 -2l-14 4l-3 5l1 6l-3 -1l-6 7l3 -11l-6 -7l-4 1l-7 -8l1 -9l-7 -3l1 -4l-3 1l1 -2v-7l-16 -12l1 -12l-10 -2l1 -9l7 -3l-13 -3l-55 -21l-17 -2l-14 -1l-29 4l-3 4l-3 8v8l14 13l-3 12l-3 -1
l-3 5l3 3l7 -7l5 -3h2l6 13h6v5l4 1l-4 3l-5 -5l-1 10l4 1l9 10l10 16l4 15l8 -6l1 5l-7 5l1 8l9 -4l3 5l-3 6l-1 -3l-5 6l12 1l6 9l-2 3l4 11l4 18l-1 3l-6 12l8 7l-4 12h-13l5 -16l-9 -1l-2 11l5 6l-2 14l1 15l-4 10l1 226l10 6l4 13l-1 8h6l4 4h3l-1 9l3 1l-1 7l-13 10
l3 -11l-11 3l-2 -4l-9 2l-1 10l-11 50l-8 12l-23 21l-3 13l-2 22l3 13l7 7l28 5l69 -14l40 -17l27 -16l4 -6l7 -14l8 -9l4 -19h10l1 -10l7 -4l-2 -14l6 -1v-4l8 -7v-25l-6 -11l6 3l4 -6l1 -13l-2 -20l4 -4l-3 -20l10 -5l-5 13l1 16h10l4 -3l-1 -9l3 -1l-1 -11l4 -25l-1 -16
l3 -18l-1 -7l-6 -14l-17 -2l-3 -11l10 -7l1 -2l-3 -9l-5 -3l2 -4l21 8l-6 -16v-12l-4 -3l-2 -7l7 2v-5l-4 -3l6 -2v5l5 -1l2 3h4v-18zM306 313l-4 -15l-8 -8l-17 -6l-12 -2l-12 5l-10 -7l-11 -1v3l-5 3l-10 15l-8 -2l-6 -6l2 -5l-10 -2l-5 -4h-12l-37 7l-38 15l-23 18
l-14 19l-10 15l3 10l-10 5l-4 5l-5 31l-9 34v16h7l1 8l-6 10l11 9l-5 7l3 4l9 -4l7 2l-5 10l-13 2l8 30l5 -5l8 9l1 3l7 1l10 12l6 10v18l8 9v6l5 4l1 4l-6 4l3 14l11 6l-4 2l8 6l48 24l58 12l12 -1l28 -5l7 -8l4 -41l-22 -34l-17 5l-1 -9h-11l-3 -20v-8l-10 -14l9 -7l-6 -3
v-11l1 -11l-2 -6l-14 -7l2 -8l-12 2l4 -8l3 3l9 -9l-5 -1l3 -13l14 -7v1h5l12 -14v3l7 3l-1 -18l2 -7h-3l-6 9l2 -11l8 -1l-4 -11l9 -2l1 -13l11 -28l11 -12l38 -19zM465 85l-4 -10l-1 -8l-4 8l2 8zM256 21l-3 -14l-9 -8l-18 -3l-67 15l-26 12l-52 49l-5 11l-10 47l4 12l5 5
v6l7 -8l1 12h4l3 -11l4 -5h2l9 7l8 -2v6l5 4l1 11l-5 -1l-2 8l15 6l-5 6l-9 -4l1 -5l-9 1l-4 14l-6 9l-5 -2l-8 3l6 9l11 10l24 9l11 2l2 -4l9 2l-2 -9l8 3v5l5 -1l4 3l6 1l2 -3l-3 -3l4 -1l9 6l7 2l29 -9l24 -23l11 -47l-6 -38l-5 -10l-11 -10l-16 5l-11 -3l4 -1l-3 -12
l-7 -2l-1 -10l15 -3v-6l8 -3l2 2l11 -3l15 -10l8 -12zM380 547v6h-4l-6 10l7 2l-13 5l-2 -6l1 -8l4 -5l-6 -1l2 -9l1 7l8 3zM359 529l-4 9l-2 -8zM560 269l-2 13l-4 -11zM539 283l-1 6l-5 1v-5zM216 441l-1 8l-5 -2l-7 3l-4 -7l8 -2v-11h4l-1 9zM375 247l-5 4l-6 -1l5 -3
l-6 -4l5 -3l6 1zM487 107l-6 6l-10 3v-3l8 -4v-7l5 -3zM61 513l-9 3l7 10l-2 6l-9 -14h-3l-2 -4l11 -10zM242 302l-8 6l-10 -2l-2 -6l3 -6zM141 218l-3 4l-11 2v-6l7 -5l-10 -2l-2 -8l-5 -3l3 -11l14 7l-1 7h-3l-2 5h5z" />
    <glyph glyph-name="colon" unicode=":" horiz-adv-x="366" 
d="M276 352l-3 -9l-2 -13l-7 -13l-6 -8l-2 8l-6 -2l2 -12l-15 -10l8 9l-3 16l-9 -1v-7l-15 -8v-5l-24 -5l-21 2l-5 -6v5l-33 -3v4h-9l-7 3l-2 -6l-3 11l-13 2l3 10h-4v6l-9 2l-6 27l1 40l5 -1v6l4 6l-3 3l7 8l5 2v11l11 3v11l7 3l21 1l2 2l10 2l14 7l18 -5l11 3l25 -2
l24 -17l13 -14v9l9 -13l6 -29v-11l-15 -1l2 -13l9 -8l2 11zM237 294l-8 -5l-20 -4l1 5l17 5zM276 67l-3 -8l-2 -14l-7 -13l-6 -7l-2 7l-6 -1l2 -12l-15 -10l8 8l-3 16l-9 -1v-6l-15 -9v-4l-24 -5l-21 1l-5 -6v5l-33 -3v4h-9l-7 4l-2 -7l-3 11l-13 3l3 9h-4v7l-9 2l-6 26
l1 40h5v6l4 6l-3 3l7 8l5 2v11l11 3v10l7 4h21l2 3l10 2l14 7l18 -6l11 4l9 1l16 -3l24 -18l13 -13v9l9 -14l6 -29v-10l-15 -1l2 -13l9 -8l2 11zM237 9l-8 -5l-20 -3l1 4l17 6zM267 396l-2 6l-6 2v-8l-6 -4l-2 -5h9l3 1l3 4zM239 409l-14 9l-1 -5l7 -6zM259 372l-7 -3l-3 -4
l-1 -4l1 -3l5 -6zM245 360l-3 -3v7l-5 -5v-9l5 2l1 -4zM232 355l-3 1l-1 6l-5 -1l-4 -15l12 1zM218 350v8l-6 -1v-11zM97 360l-7 8l-3 -4l9 -7zM116 306l-3 15l-7 5l-1 -12zM267 112l-2 5l-6 3v-9l-6 -4l-2 -4l9 -1l3 2l3 3zM239 124l-14 9l-1 -5l7 -5zM259 87l-7 -3l-3 -3
l-1 -4l1 -3l5 -7zM245 75l-3 -3v8l-5 -5v-9l5 2l1 -5zM232 70l-3 1l-1 6h-5l-4 -15h12zM218 65v8h-6v-11zM97 76l-7 8l-3 -4l9 -8zM116 21l-3 16l-7 4l-1 -11z" />
    <glyph glyph-name="semicolon" unicode=";" horiz-adv-x="366" 
d="M275 354l-3 -10l-2 -13l-4 -9l-9 -12l-1 8l-6 -1l1 -12l-3 -4l-28 -12l-12 -2l10 6l17 5l9 5l-3 15h-8l-1 -7l-11 -4l-4 -9l-22 -4l-23 1l-4 -6l-1 5l-32 -3v4l-7 -1l-10 4l-1 -5l-3 9l-14 3l4 10h-5l1 7l-9 2l-7 26l2 40h4v6l5 6l-3 3l7 8h4l1 14h10l2 5l-1 7l7 4l30 3
l11 7h20l3 -4l38 -1l23 -15l13 -13v8l10 -19l4 -23l1 -10l-11 2l-5 -2l3 -14h4l-1 -6l5 -3l3 12zM282 82l-2 -37l1 -9l-3 -12l-5 -9l2 -9l-10 -9l1 -5l-1 -3l-6 -8l-18 -19l-9 -7l-2 14l-3 -10l-7 -1l-11 -18l-1 8l-8 2l-2 -5l-6 -1l-6 -8l-5 3l-6 -4h-3l-17 -3l-9 -6l-4 3
h-8l-5 3l-9 -6l3 -9h-19l-9 3l-4 5l-4 12v21h4l1 6h-3l8 13l6 1l12 4v-2l14 -2l-1 10l6 1l3 8l-3 3l1 5l-5 1v4l4 4l-1 8l-6 -1l-3 4l-11 4h-11l-7 7l8 1l1 5l-11 -2v11l-3 2v9l-4 20l11 5l1 7l-11 -3l1 18h5l-5 12l7 2l4 16l16 15l2 -6l16 7l4 -1l7 9h46l2 5l2 -4l18 -2v-1
l14 1v-2l11 -3l11 -5l9 -1l6 -8l11 -24l1 -7l-3 -12l-19 -2l-2 -5v-3l6 -12l10 4l3 4h7l1 -4h4zM230 -47l-8 -5l2 4zM267 397l-1 3l-2 3l-5 3v-9l-8 -8h10l3 2l2 2zM238 410l-3 4l-10 3l-1 -3l3 -5zM258 372l-7 -4l-2 -3v-6l5 -7zM245 361l-4 -3v6l-5 -3l2 -9l3 2l2 -5z
M231 356l-2 1l-1 6l-6 -1l-3 -14l7 2l4 -2zM218 360l-7 -2v-10h4zM116 307l-3 16l-8 4l3 -12zM272 69l-10 -1l8 -5zM234 88l-11 4l-11 6l-4 -1l-3 -7l5 -5l17 -1zM255 46l-12 3l2 -10l7 1l-2 4zM263 12l-3 11l-11 -1l-1 -11l9 2l1 -2zM110 76l-5 5l-6 1v-5zM168 -1l-2 9
l-6 -7zM170 8v4l-6 2l-7 -4l-12 -2l7 -8l-2 -2l7 -2l1 9l8 6zM118 37l-10 5l2 -10z" />
    <glyph glyph-name="less" unicode="&#x3c;" 
d="M367 0h-334v667h334v-667zM360 7v653h-320v-653h320z" />
    <glyph glyph-name="equal" unicode="=" 
d="M367 0h-334v667h334v-667zM360 7v653h-320v-653h320z" />
    <glyph glyph-name="greater" unicode="&#x3e;" 
d="M367 0h-334v667h334v-667zM360 7v653h-320v-653h320z" />
    <glyph glyph-name="question" unicode="?" horiz-adv-x="542" 
d="M483 526l-7 -14l-2 -7l2 -30l-8 -30l-4 -4l-9 4l-1 -5l6 -2l2 -4l-4 -3l1 -8l-6 -18h-7l8 -12l-7 -11l3 -4l-10 -14l1 -7l-10 -9h-15l-31 -17v-5l-4 -1l-1 -6l-22 -8l-8 -11l-42 -20l-22 -12l-6 -7l-26 -40l-5 -5l-43 -7l-23 2l-8 3l-9 8l-2 10l4 41h5l-1 7l9 -2l2 7l3 1
l2 8l15 7l8 8l10 12l3 -2l4 10l-9 18l7 11l4 -5l4 7l5 -2l8 3l-1 7h4l3 4l5 -1l2 5l10 13l1 11l4 -1l-2 -13l16 -13l14 14l6 4l-1 7l9 7l-5 11l-3 6h-14l-2 7l5 1v9l7 1v4l-9 4l6 12l9 54l-1 35l-8 44l-21 22l-2 6l-3 15v7l4 17l4 4l29 6l32 -2l11 -2l1 -12l13 2l15 -12
l22 2l3 -3h5v-5l-4 -3l5 -5l4 3l14 3l5 -23l-10 -1v-4l11 -2l2 3l4 -1l13 -10l-2 -5l8 -14l5 -2v-19l7 -1l-1 -16h3l-1 -13zM242 655l-1 -36l-4 -5l-22 -10l-10 6l-7 -8v-12l15 -5l11 -7l4 -6l3 -22l-4 -41l-4 -12l-17 -19l-33 -13l-14 -1l-8 14l-11 -5l-11 -3l-13 2l2 -8
l-15 2l-17 7l3 2l-2 15l3 4v7l3 4l-3 9l-10 -2v-10l-11 -2l-4 -8l-8 12l-6 20l2 30l-5 1v12l3 20l9 15v6h4l8 11l4 -1l7 2l3 11l5 -2l11 6l-1 6l9 6l28 6l17 13l4 -12l14 2h11l-1 12l35 -1l19 -6zM301 409l-5 -1l-5 6v4zM308 80l-3 -34l-6 -14l-10 -9l1 -4h-16l-25 -4l-5 4
l-7 -1l-8 13l-10 7l-11 3l9 -10l8 -4l2 -9l-8 7h-5l3 -10l-5 -6v-7h-7v-3l-28 2l-18 14l-3 -8l-5 9l-1 12l-1 3h-4v-2l6 -3l-2 -7l-6 -4l-10 8l-5 10l10 2v9l-10 6l-6 6l-2 60h5v5h-4l1 4l6 2l1 7l14 2v6l24 9l2 4h8l11 4l12 -11l8 5l9 10l6 -5l2 -7h6l-5 18l12 -3h-4v-7
l19 1l-3 8l5 -1l2 -7l7 -6l6 8l9 -6l17 -21zM465 483l-9 -6v-5h5zM450 428l-6 11l-9 -6l4 1l2 -9l8 -4zM443 383l-1 10l-5 -16zM190 587l-8 2l-3 6l-7 -1v-3l5 -6l4 2l3 -3zM323 437l-1 6l-5 -1l1 -6zM281 364l-6 8l-7 1l5 -11l5 -2zM168 468v9h-7l-2 -6l4 -3h5zM59 556v8
l-7 4v-4zM244 341l-2 8h-7l1 -5l4 -6zM264 33l-11 -1l10 -12zM142 84l-9 2l-3 -6l2 -4zM156 35l-6 6l-5 2l-3 -1l-1 -3v-1l5 -4z" />
    <glyph glyph-name="at" unicode="@" 
d="M367 0h-334v667h334v-667zM360 7v653h-320v-653h320z" />
    <glyph glyph-name="A" unicode="A" horiz-adv-x="676" 
d="M664 28l-3 -14l-9 -8l-41 -9l-11 -1l-4 8l-9 1l-2 -6l-11 -3l-19 2l-7 10l-14 -3l-10 -6l-3 5l-9 -2l-6 4l-1 -4l-1 4l-13 -1l-20 -4l-14 2l-21 10l-28 -4l-6 -7l-5 4h-7l-8 -4l-23 -7l-20 3l-19 5l-6 2l-7 7l-4 13l1 8l4 12l41 21l8 19l7 7h-4l1 9l5 1l-2 8l-11 6l-5 18
l3 1l-4 16l4 1v4l5 3h-3l1 8l11 -6l3 1l3 3l2 5l-3 7l-10 5l-6 9l-15 -8l-1 10l-25 -11l-47 3v4l-7 3l-5 -2l-1 7l3 5l-1 2l-5 6l-8 2l-7 -2l-6 -5l-2 -3l3 -13l-6 -5l-8 3l-4 4l-1 8l2 15l12 22l6 10h53l26 4l5 4l1 14l-17 63l3 6l-5 11l-1 23l2 1l1 4l-7 4l-1 12l-8 4
l-3 38l2 2l-1 10l4 11h-5l-7 9l2 4l11 3l-2 7h-11l-4 7l6 -1l1 5h-4l-6 10l5 3l2 -3v16l-16 3v14l-5 1l-6 12l3 8l-7 21h-1l-2 6l6 2l-10 12l-2 6l3 12l7 10l9 5l10 2l-4 -15l14 -4l1 4l19 3l18 -4l5 4l4 -5h7l5 10l-1 3l-10 1l-10 -4l5 13l1 -6l8 -1v9l11 1l84 32l10 2
l9 -2l16 -13l7 -14l34 -127l-15 -1l-10 -3l4 -6l6 -2l-4 -22l10 -15l-4 -17l4 -11l14 2l2 -24l3 -1l-1 -23l20 -7l-6 -2l1 -9l6 -7l-10 -13l5 -13l4 1l2 -3l6 -2l1 -21l1 -1l7 -5l1 -28l3 -1l3 -5l9 -2l2 -5l-9 -2l-2 -5l4 -1l1 -17h6l2 -4l7 -1l2 -11l-7 -3l9 -3l13 -52
l-10 1l5 -8l8 -2l14 -56l19 -39l6 -5l34 -21zM243 425l-3 -25l-6 -17l-11 1l-2 -1l-6 -8l-1 -4l7 -12l-6 -2l4 -4l-3 -17l5 2l-70 -239l-9 -1l-3 -9l17 -4l2 3l7 -14l6 -8l37 -15l8 -6l5 -12v-3l-4 -14l-12 -12l-33 -8l-83 4l-1 10l-33 -5l-14 -5l-15 2l-14 5l-6 6l-3 9
l-2 9l1 8l3 6l38 21l18 23l8 7l7 11l2 11l10 2l13 17l4 8l2 11l-5 5l-1 8l-5 3l1 8l8 1l1 12h8l10 29l1 38l9 22v12l9 15l-1 14h14l9 4l1 3l6 55l5 10l-1 7l3 9l5 1l1 13l-7 5l19 63l8 20l4 4l4 1l4 -1l4 -4l7 -19zM490 528h-14l-4 -6l17 -2zM351 626l-1 8l-13 -4l11 -7z
M355 609l-5 7l-1 -14l5 -2zM492 425h-19v-6l2 -3l6 -3l3 1zM514 381l-1 7l-4 -7h5zM588 142v10l-7 3l-2 -5h-4v-9l6 -3zM559 158l-13 1l6 -8zM377 325l-3 5l-7 -3l5 -4zM585 103l-6 2l5 16l-4 -1l4 9l-9 4l-21 4l-3 -6l17 -7l6 -5l-12 2l3 -20l-4 -4l8 -15l-6 -6l3 -6h14
l-2 13zM376 284l-4 7l1 6l-3 5l-16 -3l-2 -7l-8 -4l-1 -14l-7 1l-1 -7l4 -8l4 4l2 -4l6 5l13 -3l-6 4l9 4l4 13z" />
    <glyph glyph-name="B" unicode="B" horiz-adv-x="683" 
d="M663 175l-5 -36l-14 -46l-10 -11l-12 -3l1 -7l-6 -3v-8h-3l-5 -5h-25l-13 -3l1 -7l-11 -2l-23 -7l-11 -6l-11 -3l-10 -7l-11 -1l-1 -7l-2 6h-6v-8l-3 3l-5 -3l1 -8l-6 -2l-8 5l-2 -3l-29 -3l-3 1l2 3l-10 4l-7 -4l1 -4l-31 1l-26 8l-8 8l-2 16l2 21l3 4l35 20l3 -2l17 9
l14 13l-7 4l6 3l6 -5l6 6l-4 1l4 9l4 -1l6 9l-4 14l-13 -3l-2 -10l-11 -1l-6 -7l-1 -12h-3l6 55l-1 32l-5 86l-6 24l-3 7l-43 24l-1 2l-2 12l4 26l34 20l8 8l7 16l7 34l3 11l4 -4l13 1l10 15l-8 5v9l-23 12l-8 69l-4 8l-23 21l-23 12l-2 5l-1 17v8l4 14l7 7l19 5h16l3 -7
l3 -2l5 -2h10l9 13l4 -5l17 5l15 -8l25 4l30 -5l7 -7l9 1l7 -6l9 3l3 -4v-16l18 -5l-2 -17l11 -6l8 -10l3 1v4l16 -7l1 -10l4 -3l1 3l11 -3l1 -4l-3 -2h-7l-1 -4l-7 1l-5 -14l6 -10l-4 -4v-5l6 -6l11 2l16 -1v-11l-9 -4l14 -4l2 -13l-6 -5l6 1l-6 -22l-2 2l-7 -6l-1 -7h-8
v-9l5 -6l-13 -9l9 -4l7 2l-8 -12l-7 8l-1 -6l-4 -2l4 -5l-6 -1l2 -9h6l-8 -8l-27 -20l-22 -10l-35 -9l-7 -9l47 -15l12 -9l1 -4l4 -3l-3 -10l16 -5l-2 -4l14 -12l2 -4l6 -5l5 -8l5 5v15l5 -3l2 -8l5 2l8 -12l15 -34l2 -12l-8 2l-5 -5l15 -3l2 -12zM586 36l-12 3l9 4zM567 27
l-6 -7l-19 -5l14 12h11zM319 61l-2 -17l-1 -25l-10 -10l1 -5l-12 -2h-16l-82 4l-7 14l-8 -1l-2 -13l-1 4h-7v-5h-5l-6 22l-32 -9l2 -5l-13 -2l-4 3l-3 -1l3 -11h-35l-20 3l-23 9l-8 9l-2 9l3 14l42 24l3 3l5 13v17h3l1 10l4 10l-6 14l7 2v22l-7 8l4 18l-2 12v13l5 5v7h3v7
l-4 6l11 9l-1 9l16 -1l2 10l14 5v-4l5 5l-2 12l2 -3l6 13l-9 2l-9 -18v12h2l2 8h3l8 12l1 5l-8 -1l-8 2l-7 -1l-5 5l4 -1l7 18h4l1 -3l6 -1v4h-5l-3 8l6 -1l2 -4h4l-2 8l5 4l-5 11l-5 4l-11 -9l2 -9h-7v-18l-7 -3l2 -3h-9l-10 -7h12v-10l-7 -15l9 -11l-5 -13l-2 3l-4 -8
l-9 -10l-4 28l-1 78l12 -6l6 12l15 11l5 9l7 -3l1 -5l5 -1l-1 -7l5 1v11l7 8l-7 6l2 3l-8 3l-1 -7l-11 2l-1 -5l-8 -13l-3 4l-11 -10l-4 -10l-9 2v27l3 15l-2 2l2 5h4l3 10l2 13l-1 7l-2 3l-10 8l5 40l6 14l-3 9l5 7l2 10l-15 4v20l-3 29l-5 8l-5 4l-35 17l-4 10l-1 7l4 15
l9 8l30 7h29l-9 -6l11 -2l5 -5l11 2v6l9 2l3 -12l18 -2l-5 8l3 3v5l7 -1v-6l6 -3l5 -6l8 1l7 12v-5l8 -2v-7l22 11l-4 3l10 -1l81 7l14 -3l6 -7l2 -58l1 -76l-17 -35l-3 -12l-7 -2l8 -9l8 -4l1 6l8 -3l-2 -12l2 -2v-14l-4 2l4 -7l-1 -9l3 4l1 -12l-4 -8l3 -3v-6l-6 -2l6 -4
l-2 -10l3 -11v-27l-4 -16l4 -4v-45l-2 -20v-40l-4 -18l5 -8l-4 -10h4v-16h-6l-6 -11l-2 -9l-1 -12l-7 -34l-1 -13l7 -1l1 -13l-24 -11l6 -17l10 4l7 8l8 3l4 13zM163 5l-16 -2l-1 5l13 10zM617 517l-8 6l-8 -2zM426 545l-2 6l-2 3l-9 4l2 -33l8 -7zM433 511l-12 4h-5l-2 -9
l8 -6l9 1zM535 210l-14 2l-9 -4l1 -4l-6 -4l21 5zM510 186l-3 12l-9 5l-1 -12l8 -1zM499 183l-9 10l-10 -4l-7 -6l-5 -16h8l-1 -8l10 10l2 -3l11 7zM470 155v5l-5 -1l-3 -5zM138 412l-7 4v-9zM111 354l-6 2v-8zM142 319l-2 6l-13 4l-3 -6zM447 4l-4 13l-8 -3l-1 -2l1 -5z
M101 331l-3 7l-5 -4zM142 254l-17 2l-1 5l-2 -10l8 -1v-5l9 4zM90 273l-2 7l-3 2l-2 -2z" />
    <glyph glyph-name="C" unicode="C" horiz-adv-x="605" 
d="M582 447l-2 -12l-3 -4l-4 -3l-17 -3l-24 3l-8 8l-8 18l-1 13l-7 1l1 7l5 1l3 7l-11 3l-8 5l-27 49l-25 28l-26 21l-54 30l-4 24l2 19l2 6l6 6l16 4l52 -11l11 -4l-9 -15l2 -16h-5l4 -7l6 -1l13 17l4 3l7 1l-1 8l14 -2l-3 -8l-8 -7l-2 3l-7 1v-12l-4 -2l6 -11l6 -2l4 1
l8 7l6 8h-7l-4 6l12 15v2l13 5l24 23h2l22 -6l11 -5l10 -8l1 -3l-3 -85l6 -70l-6 -12v-10l7 -2l2 -27l-4 -2zM520 154h-4l-2 7l4 -1zM590 167l-4 -20l-22 -50l-7 -11l-14 4l-2 -18l-11 -4l-23 -23l-15 -7l-17 -23l-39 -16l-38 -3l-22 4l-5 5l-3 20l1 23l5 10l65 27l26 16
l17 16l23 31l4 -10l8 -3l5 10l3 17l4 1l-1 4l-7 1l-2 6h3v7h5l-2 7l11 1v4l-5 3l11 3l6 1l22 -6l16 -15zM335 24l-4 -20l-5 -5l-28 -5l-54 8l-36 13l-43 23l-35 26l-7 12l4 6l-6 4h-9l-14 13l2 26l-14 7l10 1l-9 2l5 21l-10 5l-10 -1l5 -1l-1 -10l-9 -1l-3 44h-4l3 6l-3 7
l-1 15l-8 4l-3 7h-12l-3 12l-3 16l-5 71l3 63l4 32l15 56l40 78l7 8l8 -8l-1 6l3 5l-6 1l5 9l44 42l51 31l10 4l2 -4h-3l-1 -5l-9 -7l-3 -8l14 -10l15 -5l3 3l-4 7h-9l5 4v7l15 11l6 -1l6 9l13 13l5 2l21 3l25 2l14 -5l4 -5l3 -42l-33 -41l-4 -8l-4 -23l-1 -11l-7 2l-4 -3
v-5l-10 -1l-2 -8l4 -3l-8 -5l-14 10l-7 -1l3 -10l-2 -5l-13 -5l-7 -8l8 -5l3 -9l-11 -5l-3 -4l-1 -4l2 -7l2 -1h10l-8 7l-1 3l10 -2l7 9l-5 5l22 -3l22 31l5 6l3 -25l-6 -43v-6l3 -4l-4 -4l-6 -22l-4 -4l-8 11l5 1l3 12l7 4l-6 5l-10 1l-3 -7l-1 -17l-7 -3v-6l5 -7l2 -9
l5 -2l-5 -13h7l-8 -8l6 -20l10 -1l4 -2l1 -3v-11l7 -14v-18h-3l4 -17l-8 -15l9 -3l-3 -11l3 -33l-3 1v-9l4 -2l6 -106l11 -34l7 -10l-6 -6l5 -6l13 6l7 -9l6 -24v-5zM521 490l-2 17l-17 -1l3 -11zM195 618l-3 4h-4l-1 -6l5 -4zM253 555l-7 7l-5 -6l6 -4zM262 539l-9 6l-2 -3
l5 -5zM243 545l-7 7l-3 -3l7 -7zM183 607l-2 3l-14 -6l-3 -4l10 -3zM236 526l-1 7l-7 1v-3zM535 175l-7 4l-2 -5l4 -5zM225 455l-2 2l-13 -10l-3 -5v-5l6 -5l5 2l-1 6h4zM244 390l-7 7l-1 10l-8 4l-1 -6l9 -20v2zM218 423l-6 1l-1 4h-10l-1 -5l13 -3zM95 535l-6 8h-4l-4 -4
l-8 -19l-4 -14l6 -2l5 16l7 3l3 10zM235 365v7l-2 2l-3 1l-4 -1l-3 -4v-4l4 -5zM96 244l-5 14l-15 7l4 -8l-2 -6zM52 269v5h-4l-3 -7zM97 170l-9 4h-3l-3 -3v-4l5 -4l5 -1z" />
    <glyph glyph-name="D" unicode="D" horiz-adv-x="689" 
d="M436 425l-6 -1v8l6 -1v-6zM665 370h-8l-1 -6l8 -8l-5 -21h4l1 -4l-8 -8l3 -11l-4 -17l1 -9l-8 -11v-3l4 -5l9 -5l-2 -12l-7 -30l-7 -22l-6 -13l-15 6v-9l-7 -2l-11 12l-7 3v-27l-8 -10l-1 -4l1 -5l8 -8h6l5 -3l-3 -7v-13l-11 -4l-4 -10l-5 -9l-3 -2l-9 1l-2 -7l-5 -1
l3 -7l-38 -31l-44 -24l-45 -17l-11 -2l-6 5l5 2l4 7l-13 -6l-12 -12l-27 -2l-19 4l-9 9l-6 23l4 17l3 4l19 10l11 5l-1 -5l9 10l12 24l6 26l7 11l-7 8l6 16l-5 17l5 150h4l-1 4h5l1 11h-6l-2 -2v3l8 8l2 4l1 9l-2 11l2 1l4 8l-5 2l28 23h12l1 4l21 7l-2 3l-5 -4h-18l-16 -5
l-1 4l-8 6l1 7l-9 4l3 14l-2 10l5 23l3 3l-11 7l-1 6l-15 6l-6 50l-9 25l-9 10l-18 12l-6 9l-4 -3l-8 7l-4 7l-2 9l6 19l11 12l21 5l40 -6l58 -19l12 -6l-2 -5l1 -17l28 -16l1 -10l24 -6l2 -15l12 -6l3 -11l9 12l2 -10l11 -5l-6 8l10 7l11 -24l-6 1l2 -4l-2 -6l20 -4l10 -14
l11 -24l18 -59l1 -11h-4l5 -16h2zM322 317l-8 -3l4 -11l-4 -4h5v-50h-6l-5 -13l-8 7l-1 -8l9 -10l11 -4v-9l-5 1l-2 5l-6 1v-4h-8v-4l11 -10l1 -5h-5l-7 7l-2 -9l7 -8l-5 -9l-6 -15l-4 -17l-4 1l-1 -7l5 -15l12 6l-1 9l7 11l2 14l8 5l3 -11v-30l2 -33l-6 -12l5 -8l1 -44
l-4 -19l-5 -6l-20 -3l-36 1l-37 -1l-37 3l-12 5l-4 5l-9 -10l-66 -3l-28 4l-26 7l-9 8l-3 13l1 8l3 8l41 19l11 14l10 10l4 11l-6 3l-1 10l-10 8l1 90l8 1l-4 10l8 38l-5 15l-2 18l-5 9l5 2l-4 9l6 9l-5 9l-2 14l-1 28l1 10l3 10l9 1l4 5l-5 37l1 9l6 13l2 11l-4 20l5 8h-12
l-9 4l1 59l-1 20l-4 5l-43 22l-4 11l-2 10l3 12l8 8l29 9l16 3h22l6 -3h5l6 -7v-4l8 5l-1 6l6 -3h42v-5l-8 -3l9 -4l10 -2l6 1l2 2l3 10l8 1l11 -3l20 -2l10 -2l6 7l42 3l15 -3l8 -8l2 -7v-141l-8 2l-3 -15l12 -12v-47h-9l9 -40l-4 -49l-5 -9l7 -4l-3 -3zM440 504l-1 4l-9 2
v-4zM526 431h-15l-7 -2l-8 -6l4 -4l18 6zM317 568l-13 7l-5 -3l3 -5h4l3 -5l5 1zM455 374l-5 -1l-7 -6h10zM307 537l-1 5l-8 3l1 8l-5 -4l-3 6l-17 4l-5 -9l-5 -24l-5 -9l4 -21l3 -1l-5 -26l6 -10v-5l-3 -24l13 -2l5 5l-2 20l1 8l4 6l-3 8l4 3l-8 2l6 10l-7 6l-1 6l6 4l12 1
l-6 7l-2 6l-5 1l1 13l8 8zM458 322l-8 1l-4 -4l11 -1zM259 497l-3 5l-2 6h-5l-3 -4l-10 1l7 -5l5 -9h10zM241 478l-2 9l-6 6v-5zM314 273v5l-3 2l-3 1l-4 -1l-3 -3v-3l5 -7l7 4zM291 110l-7 13l-3 -5l4 -3l-6 -1v-3l-6 -2l13 -10l-2 8zM123 272l-8 -4v-7l-14 -14l5 -1l12 9z
M197 29l-4 3h-5l-5 -9l-5 1l-3 -4l13 2z" />
    <glyph glyph-name="E" unicode="E" horiz-adv-x="627" 
d="M567 484l-4 -13l-7 -7l-16 -3l-22 5l-4 3l-30 43l-42 46l7 5l-6 5l-2 -3l-7 -1l-12 9l13 -1l-11 3l-9 -1l-56 24l-3 3l-4 10l-4 16l1 14l3 14l3 4l7 3l12 1v-3l10 -3l3 4l5 -4l10 5l11 -7l1 4l7 1l5 -8l4 1l2 -2l10 8l48 1l52 3l5 -1l7 -7l4 -14v-19l-7 -2l-2 -7l4 2
l-6 -9l-4 -15l3 -13l3 -3l9 -3l1 -17l-4 8l-8 -7l-3 14l-3 -12l7 -3l1 -9l10 2zM475 235l-3 -18l-9 -8l-18 -5l-13 3l-5 4l-34 59l-38 35l-6 12l-2 16l7 27l6 8l25 19v-5l9 -2v11l16 5l1 19l-3 6l19 37l3 2l14 3l20 -4l6 -6l4 -28l-2 -54l-3 -37l1 -17l-3 -4l-3 -14h6l2 -11
zM588 205l-8 -118l-1 -71l-3 -8l-6 -5v6l2 3l-2 4l-9 -2l-4 6h-8l-4 -11l-12 11l-14 -7l-34 -5l-13 10l-4 1l-26 -4l1 -4l-9 -1l-1 -3l-21 -1l-30 -7l-12 -1l-12 8l-5 7l-4 25l5 26l4 4l51 21l9 5l3 -7l9 1l7 -3l6 11l13 3l1 6l9 3l16 1l3 3l2 3v11h-8v4l5 5h6v8l9 1l-3 4
l-5 -2l4 10l6 -12l2 9l-6 5l16 25l22 29l8 5l12 2l20 -4l10 -6zM565 7l-3 -5h-10zM320 616l-4 -127l-15 3l1 -8l-15 8v-3h-3l10 -12l24 -3l-1 -6l-4 2l4 -12l-9 2l1 -11l9 -16l1 -4l-2 -39l-9 4l-3 -8h8l5 -9l-1 -5l-7 4l-7 -2l1 -12l-5 -5l1 -8l-3 -5l5 -5l-8 -8l-7 1
l-8 -26l10 -3l18 12l-2 3l4 14l7 7l2 -79l-2 -179h-9l-3 -1l1 -4l-4 -11l5 -4h13l-1 -37l-3 -14l-6 -5l-23 -4l-26 1l-3 11l-4 7l6 15l-1 13l-7 1l2 -3l-5 -1l-5 -9l2 -11l-4 -19l-108 -1l-2 6l1 8l-4 2l-10 -7l-14 -6l-5 -5l-38 3l-24 8l-9 9l-3 13l2 10l2 3l39 19l10 -8
l3 3v4l7 2l5 5h5l8 6l1 15h4l-3 9l-7 7v7l-10 8l-1 31l-11 10l7 1l-3 14l1 25l13 -1l3 4l4 1l4 6l-4 15h-9l4 5l-20 4v38l2 23l-3 80l1 6l7 18l-1 13l3 5h3l-1 17l2 15l-13 8l3 22v-8l10 12l-13 3v24l-5 73l-3 5l-30 15l-9 4l-5 11l-2 9l3 10l11 11l19 6l20 4l101 -3l5 -12
l5 2l1 6l3 2l20 -1l5 -8l9 -2l15 1l2 2l6 10l14 1l6 -12l9 6h7v6l13 -1l11 -3l5 -6zM101 109l-5 -5l-3 -1l-1 8l-2 6v4l5 -1l1 -6zM296 562v4l-12 6l-6 -6l-4 2l-5 -11l7 -9l6 -7l13 4v4l-6 4l-1 4l7 3zM285 373l-7 8l5 -12zM85 473h-5v-6h4zM95 287l-4 1l-2 -8l3 -2z
M239 30v8l-11 5l-3 -4l1 -5l5 -4h8zM239 16v4l-16 4z" />
    <glyph glyph-name="F" unicode="F" horiz-adv-x="580" 
d="M566 477l-2 -6l-6 -6l-16 -3l-25 6l-5 4l-27 42l-31 36l-8 7l7 5l-4 11l-6 8l-5 2l-8 -3l-7 -7l-63 28l-5 7l-5 28l4 23l3 3l12 3l29 1l2 -5l17 2l11 -11l10 1l13 -3l11 3v-5l7 2l8 -3l7 6v8l49 5h7l13 -4l5 -12l2 -9v-4l-13 -27l2 -2l-2 -4l4 -4l5 6l4 -29v-3l-10 -9
l3 -15l-3 -6l6 -6h6v-16zM443 565l-9 -2l-3 1l-1 2l3 4zM476 286l-3 -15l2 -32l-5 -25l-4 -5l-10 -3l-9 -1l-12 3l-11 8l-8 13l-4 19l7 1v6l-3 1l-3 8l-12 -1l-2 9l-8 2l-13 13l-22 19l-3 4l-3 21l2 29l48 48l20 42l7 10l11 3l14 2l11 -3l6 -6l5 -28v-10h-10v-5h2l-3 -6
l2 -12l4 4v-5h3v-8h-4l-2 -5l7 -7l-2 -10l-8 -8l-3 -8l6 -23l-2 -25v-13h4l1 4l3 1zM374 35l-2 -10l-5 -12l-4 -2l-4 2l-11 -8l-23 -5h-28l-9 8l-8 4l-20 -1l-34 6l-3 -5l-10 9l-31 2l-1 -8l-14 3l-2 -9l-11 -3l-42 -1v3h-12l-2 4l-6 -1l-1 -7l-19 1v5l-11 3l-29 5l-2 2
l-5 18l4 15l35 16l7 5l4 5l4 33l-1 44l34 6v8h-2l1 6h6v-6l10 5l1 -4h7l-8 -7l-3 -9h11l9 3l5 22l8 9l-11 1l-28 -10h-18l-10 -3l-4 4l-7 -1l-1 4l11 2l7 6h-18v21h4v12l-6 20l6 45l-3 22l2 22l4 -3v-5h13l-1 19l10 13l-4 7l2 2v7l4 11l-12 6l-5 7l9 2l-4 17l3 14l-9 10
l-1 4l5 30l-15 10l-1 38l1 15l-3 50l-5 8l-43 23l-2 12l1 9l3 10l9 8l19 6l35 2l8 -2l8 -7l12 9l15 -16l30 5l-1 6l42 1l3 -2l3 3l10 -1l-2 -4h6v5l6 -5l24 3v3l27 3l24 -6l6 -6l3 -12v-71l-9 -9l6 -15l-6 -6l-1 -9l-8 -5l6 -9h-8l-2 -7l6 -2v-3h-2l3 -11l-6 -2l-1 -19l12 2
l9 -2l-6 -9l-5 -7l-3 -9l-11 -2v-9h17l-2 -4l5 -9l-1 -8l8 -5l-1 -13l-6 -1v-6h3l1 -10l5 -7l-8 -9l5 1v-179l-6 2l-7 -6l3 -4v-5l2 -5l6 2l2 -4l-1 -53l2 -33l-8 2l-4 25l-5 -17l1 -6l3 -16l19 -2l17 -5l23 -11l7 -8zM280 243l-9 9l-1 -4l9 -10zM310 198l-1 4l-4 4l-3 1
l-4 -1l-3 -7l1 -2l5 -5l3 -1l3 1l2 2zM269 205v6l-5 4l-1 -3zM252 174l-2 13l-7 2v-9l3 -7zM234 171c0 4.66699 -2.33301 7.33301 -7 8v-7zM116 195.999l-1 4l-13 -3l-1 -4l9 -1l4 1zM97 103.999l-15 4l-1 -4l8 -5l7 1z" />
    <glyph glyph-name="G" unicode="G" horiz-adv-x="666" 
d="M596 451l-3 -19l-3 -4l-15 -4l-29 4l-18 21l9 6l-6 13l-5 -1l-4 9l7 5v-3h6l-2 11l-8 7l-5 -8l-9 4l-21 37l-29 33l6 4l-10 7l-83 46l-6 23l-1 9l2 15l2 5l5 5l13 3l17 -3l12 -5l6 -7l7 4l8 -1l-3 -5l8 -9l10 3l1 -5l12 -7l-1 13l18 -6v-4l4 -4l5 4l-1 -9l3 -4l2 -1h8
l2 19l13 5l20 20l13 -1l29 -10l8 -8l2 -12l1 -8l-3 -29v-75l-8 -2v-4l5 -13l-6 -26l2 -4h3l3 4l4 -10zM281 467l-2 -19l-4 3l1 16h5zM650 306l-3 -13l-2 -2l-23 -15l-10 -10l-9 -52v-35l-6 9l1 3l-5 -1l2 -6l-3 -3l6 -10l4 3l-4 -12l-12 -2l2 -13l-1 -3l-5 3v-8l-5 10
l-1 -11l12 -8l8 -14l3 2l-3 6l5 5l2 -8l6 1l2 -12l3 -23l-3 -15l-12 -13l-14 -5l-45 -4l-35 -8l-9 5l-4 -10l-36 -17l-16 4l-7 -9l-10 -6l-40 -10l-6 2l-7 7l-5 16v14l3 24l22 22l4 6l6 23l4 19l1 48l2 20l-2 11l12 12l-5 7h-4l-1 5l10 9l-9 11l-4 -5l-3 11l2 2v8l17 -7
l-3 17l5 15l-14 8v-3l-9 4l-1 -7l8 -5l-7 -1l3 -3l-14 -8l-5 -2l-17 7l-19 10l-2 4l-2 13l3 15l7 6l20 7l46 5l160 -4l59 -12l8 -8zM335 12l-8 -12l-6 5l-9 1l-4 7l-10 -3l1 -5l-12 -6l-40 6l-17 6l10 8v6l6 5l4 -7l12 -6l-15 15h-7l-10 -5l5 -4l-13 4l-1 -10l-10 1l-48 26
l-8 7v5l-5 3v-7l-3 6l-6 2v7l-11 2l-34 37l-10 21l-12 10l-8 20l-6 10l4 10l-3 12l4 3v11l-16 -8l-2 12l21 7l-2 12l-12 7v11l-6 24l-1 2l-17 4l-2 12l-3 60l4 53l2 11l8 10l1 24l11 39l8 -3l3 10l8 19l4 2l3 5l-5 5h5l-1 4l9 -1l-1 3l2 5l6 -2l1 -4l16 5l2 -4l-2 -4l7 -4
v-5l10 7l-8 14l-7 -1l1 5l6 3l-3 10l7 -1l2 4l-8 13l4 12h5l4 4l-4 3l1 7l6 -2l5 5l15 7l-3 6l2 7l-4 5l15 13h10l1 -7l7 -2l2 2l2 6l8 2v16l39 13l-5 -3v-6l11 4l19 14l47 6h6l12 -4l-6 -3l-3 -5l2 -4l2 -2l6 3l-2 8l5 -5h8l2 -30l-3 -17l-32 -35l-9 -35v-15l-9 -1l-4 -14
l6 1l-9 -14l-3 -15l-4 -9l7 -9l-5 -5l-7 1l-2 -6l4 -1v-10l-3 -11v-8l12 -3l2 -4l6 -2l-3 -4l2 -4h4v-10l-7 -1l-3 -10l-3 -2l5 -7l8 -4l1 -31l-4 -115h6l-1 -10l-8 -25h8l-5 -13l4 -6l-1 -2l-1 -14l-2 -3l4 -5v-7h3l4 -48l4 -7l9 -19l26 -27l3 -8l-3 -16zM487 564l-1 5
l-6 -4v-3zM547 438v7l-5 4l-2 -3zM591 194l-1 9l-3 4l-5 -4l-1 -3v-2zM595 173l-9 1l-7 4l-3 8l-5 -1v-17l2 -1l6 5l2 -6l8 1zM569 168h-8l3 -8zM458 189l-11 9v-5l-5 -4l-1 -3v-2l6 -3l4 2v4zM464 165l-3 6l-8 3l-8 -13l3 -3l7 5l6 -1zM436 152l-7 -3v-6l5 -1zM450 124
l-12 9l-11 -8l16 -14h4zM235 221l-2 11l-12 -13l-10 -6v-2l1 -6l5 -5h9l2 14zM228 175l-1 18l-7 4l-6 -8l-1 -7l-3 -3l-1 -4l-7 -3l4 -20l4 -4l6 9l-2 10zM167 71l-1 6l-5 4v-4l3 -6h3zM89 145l-8 1l-1 -3l6 -3z" />
    <glyph glyph-name="H" unicode="H" horiz-adv-x="750" 
d="M726 23l-3 -10l-6 -5l-52 -12l-42 2l6 9l-15 -1h-40l-13 -4v5l-13 -4l-5 1l-6 -2l-3 5l-10 -5l-54 -4l-14 7h-13l2 -6h-7l1 4l3 1l-6 2l-6 -8l1 14l-23 -5l-6 2l-8 9l-4 13l2 10l11 13l18 9l21 5l13 5l-1 5l3 -1l4 5l-2 7v12l-3 4v8l-5 6l4 -1l3 4l-8 11l-8 -16l1 10
l-3 6l5 5l-9 16l1 7l2 1l-2 7l5 24l-9 8l8 -1l-3 13l3 14l4 4l-4 13v5l6 17l-4 7l1 7l-10 8v9h5l2 -7l3 4l-29 23l-18 4l-39 5l-5 5l-4 22l2 13l5 6l5 1l43 6l34 9l14 -5l1 9h5l2 -6l4 15v3l-2 2h-14l1 -5l-3 -6l-5 10l2 11l3 -1l8 11l-21 8v10l18 5l11 -3l-8 18h4l-2 11v14
l-4 2l4 6l1 24l-8 8h-6l-2 3h-7l-4 57l-34 26l-3 3l-3 19l3 13l6 6l34 9l34 1l16 -3l9 -7l5 4l-5 3l15 -2l-3 -4l7 2l9 -5l18 5l4 -1l3 -3l2 -5v-6l-20 1l4 -13l13 4l8 -6l26 16l8 10h4l4 4l4 1l46 2l70 -11l7 -7l3 -11l-3 -17l-41 -22l-4 -6l-5 -21l-1 -14l-9 2l-5 -34
l-4 -11l3 -3l-8 -37l2 -9l6 -1l1 -16l5 -7l-5 -6l2 -6l8 -5l-1 -3h4l-2 -5l-3 3l-4 -15l5 -13l5 3l3 -12l-6 1l-4 -13l2 -11l6 -1l-2 -7l3 -1v-16l-1 -7l3 -9l-1 -14l-6 -5l5 -6l3 -179l-4 -31l-4 -9l7 -8v4l5 2l-1 -15l8 -6l-2 5l6 7l33 -16l3 -4v-17zM361 33l-3 -10
l-15 -14l-38 -10l-20 3v1l12 -1l4 8l-18 2l-3 -3l-13 10l-18 3l-17 7l-13 -1l-5 5h-6l-2 -1l-7 -18l5 -4l-3 -3h-19l-34 4l-83 -5l-28 7l-9 9l-3 14l4 15l45 25l3 14l2 11l8 -3l8 9h4l9 15l-5 4l-3 -1l-13 9l3 3l-5 3l2 2l9 -1l10 -10l-5 9h5l4 11l-6 5v-4l-3 -4l-5 8l-5 -2
l-3 3v-3l-9 -8l-2 51l6 2l-4 6v7l4 1v6l-5 4v29h7l2 4l-5 4h-4v8l10 1v7l-10 5l1 33l7 -3l-1 -8h8l-2 22l4 1l1 10l-6 29l-1 14l-3 6l-6 7l7 14l1 6l-4 37l11 2l3 14l-6 29v18l-2 17l-4 6l-9 5l-1 40l-3 15l-45 27l-3 15l4 13l8 9l23 7l25 3l33 -2l1 -3l12 2l11 -2h19l6 -8
l14 7l17 -2l10 -3v5h25v-10l12 1l3 -6l26 7l2 10l7 -6l7 5l4 -7l6 5l2 -4l11 -2l2 9l11 -1l21 -7l7 -8l5 -20l-1 -7l-34 -25l-5 -5l-3 -10v-406l5 -101l3 -4l31 -25l5 -6zM86 361l-8 -8l3 13zM276 2l-9 4l1 7l8 -7v-4zM520 643l-14 1l7 -5zM453 560l-4 3l-4 -4l6 -2z
M631 205l-10 7l-5 -7l-6 2l-3 -6l-4 -1l-2 -4l9 -7l8 -1v6zM449 305l-3 10l2 5l-2 6l2 3l-2 3l-4 -2l3 -8l-5 -3l-5 3l-2 -7l13 -13zM608 172l-7 1l1 8l-10 -9l-10 -1l5 4l-2 8l5 11l-5 -2l1 -4l-9 -8l-1 -2l-8 -5l-15 -2l11 -7l-4 -5l11 -7l13 13l18 3zM281 436l-13 13
l4 -8l-8 -10l7 -4l5 9l4 -5zM307 396l-1 6l-5 2v3l-5 2l-1 -4l-7 1l-1 -8l6 3l3 -12l8 -2l-3 5zM259 432l-4 4l-5 -6l-3 -1l4 -8zM126 582l-6 9l-15 5l-6 -10l2 -9l-4 3l-11 -9l-1 -3l1 -5l13 -9l9 13l6 6l-1 9l4 -2l3 3zM299 379l-8 13l-7 2l-3 -6l8 2zM278 383l-5 1l-4 -9
zM462 144l-3 7v-6l-4 -3l-2 -9l5 -3l2 4l-4 1v3l4 -1l-1 6zM488 10l-7 5l-8 -3l4 -3l3 3zM114 160l-5 -1l-1 -3l3 -3z" />
    <glyph glyph-name="I" unicode="I" horiz-adv-x="392" 
d="M371 35l-4 -16l-11 -10l-36 -8l-84 3l-106 -2l-11 2l4 3l-7 5l5 2l5 -6l4 4l6 -4l3 10h7l4 5l-7 -2l-7 7l-1 -5l-27 -2l-1 -4l-5 6v-4l-22 -5l-9 7v-7l-28 -3l-6 2l-6 6l-5 18l3 11l38 19l6 4l3 5l4 38v61l6 -1l1 3l6 2l-10 23l4 4l-6 6l-2 6l1 6l5 14l-1 15l-5 1l-1 11
l12 44l-8 16l4 39v11l26 6l3 3v8l-4 12l9 2l4 8l-6 1l-4 -7l-8 3l5 2l-2 3l-10 -6l-10 -8l-6 -1v13l-4 46l-2 122l-6 13l-40 19l-4 11l-1 7l3 12l8 8l26 8l11 1l1 -6l20 -2l8 5l13 -2l-12 -7l2 -11l-6 -11l5 -4l9 5l9 -7h4l6 13l12 2l4 10l14 2l5 5l14 -4l5 6h15l18 4l62 4
l2 -7l12 -3l3 5l8 1l8 3l11 -2l34 -9l5 -4l4 -11l1 -8l-3 -10l-2 -3l-37 -18l-6 -5l-2 -4l-2 -20l-2 -97l-7 -31l4 -18l-5 1l-1 -4l5 -5v-8h5v-16l-6 6l1 7l-5 1l-1 -5l4 -4l1 -8l-4 -3l3 -26l-6 -2l4 -12h-7l-2 -11l1 -12l-7 -3l5 -7l10 -7l1 -9l-10 4l-1 -3l-6 -2l10 -11
l-1 -10l4 1l9 -9l-8 3l-5 -2l-7 12l-4 2l-6 -1l5 -9l-2 -10l-4 -1l-1 -6l10 -9l-6 -9h-5l11 -14l10 4l4 12l-11 2l6 6l7 -7l4 10h6l-1 -10l-13 -22l-1 6l-4 -6l1 -6l-4 -1v-5l7 -4l-6 -7l-14 -6l7 -13l12 -11l-4 -5l4 -15l2 2l4 -2l6 5l3 -7l-2 -5l-2 -1l-13 6l3 -11l5 -3
l3 3l8 -4l-1 -31l4 -16l5 -9l5 -3l34 -17l4 -6zM315 483l-1 12h-3l1 -14zM101 648l-7 1l-8 -4l12 -3zM283 454l-1 3l-4 4l-6 -2l-2 9l-11 -4l2 -26l12 3l5 4l4 5zM294 394l-3 11l-4 -5l-5 -1l-1 -3l8 -3zM271 401l-8 4l-1 -8l8 -3zM115 449l-11 -2l-6 -3l-4 -7l-2 -7l1 -10
l6 1l-2 5h4l2 5l8 -3v12zM164 19l-7 6l-3 -6l5 -2z" />
    <glyph glyph-name="J" unicode="J" horiz-adv-x="560" 
d="M536 622l-3 -6l-31 -15l-10 -10l-8 2l1 3h-11l-11 -6l-2 3l2 2l-11 1l-9 -2l2 -5h9l3 -4h4l-12 -7l8 -4l6 3l9 -4l-2 -2l6 -17h-12l-1 -13l14 -15l3 5l1 -10l-6 5l-5 -3l3 -10l1 -12l9 -16l1 -4l-1 -13l-1 -59l-5 2v-5h6l-1 -240l-9 -56l-24 -40l-14 -15l-19 -9l-8 -7
l-4 4l-13 -7l-24 1l-17 -6l-18 -3l-30 -16l-4 -10l-47 -3l-38 8l-8 7l-4 10l-1 11h8v6l6 2v5l14 12l-9 -2l-6 6l11 10l13 20l5 24l3 171l10 -5l1 17l2 6l-3 2l-2 7l3 2l6 45h3l-3 13v12l5 -7l5 2l3 -3l13 13l7 14l2 10l3 -2l9 6l-3 15l-35 -34l-3 1l-2 5l-1 13l-7 2l1 17
l-9 3v9l-4 1l1 3l-3 3l5 10l1 8l-5 23l5 8l4 14l4 -1l7 4l-18 20l-4 35l-2 7l-6 7l-7 4l-43 16l-7 15v7l2 11l7 7l26 7l32 5l123 -6l83 5l29 -4l13 3l13 -4l-10 -9h23l-1 -9l3 -5l4 3l2 -5h5l4 -1v-12zM177 162l-13 -45l-6 -9l-12 -5l-11 -2l-2 4l-10 -5l11 1l-8 -9l1 -8
l19 -10l16 -10l4 -7l3 -21l-4 -20l-9 -9l-16 -4l-32 5l-13 3l-5 2l-5 7h-12l-18 11l-3 10v-7l-18 13l2 17l-1 5l-10 15l-17 3v-7l-6 10l-11 62l2 31l2 11l24 19l-3 8l2 19l6 6l14 8l25 7l11 1l7 -8l29 2l2 5l10 -3l32 -16l9 -11l5 -15l-9 5h-7l13 -13h7l2 -11zM464 328l-8 3
l5 -23zM451 292l-5 8l-1 -8h6zM268 468l-1 3l-3 3h-5l1 -8l-3 -3l5 -2l3 1l2 3zM288 428l-3 10l-5 -2l-4 -11l4 -1zM466 256l-13 12l-11 -2l-3 -5l9 -8l3 2l7 -3zM463 238l-4 11l-6 -5v-4zM275 417v6l-4 -2v-3zM479 212l-2 7l-3 4l-14 3l-6 9l-5 -13l10 -5l-3 -7l7 1l-5 -14
l-23 2l-1 -4l4 -7l7 -4l5 9l7 -1l8 -6l9 8l-6 9l2 5zM462 162l-12 -3l-6 1l2 -11h12zM288 183l-1 7h-9v5l-4 2l-4 -4l6 -3l-3 -14l-4 -4h-6l16 -8l3 14zM30 236l-1 7l-3 2l-5 -11zM214 21l-7 11l-1 -11h8zM120 99h-4l-2 5l-5 -3l-1 -3l1 -5l6 1zM63 50l-13 3l-7 -1l-3 -2v-2
l2 -5l7 6z" />
    <glyph glyph-name="K" unicode="K" horiz-adv-x="753" 
d="M749 33l-3 -13l-10 -8l-20 -6l-41 -6l-6 2l-5 11l-7 4l-5 -4v-4l-11 -4l-12 7l-1 -8l-35 3l-134 -6l-43 10l-12 10l-4 15l3 12l25 19l6 8l4 19l-3 14l-5 10l7 15l-6 10l1 10l3 6l-11 16l3 9l-6 2l3 8l11 3l-3 9h-13l-13 3l-7 -2l-2 6l-3 2v8l-4 5l3 4l-11 4l-4 9l-7 28
l-9 10l-10 23l-9 38l3 15l31 41l13 14l-1 3l8 -3l6 12l11 4l-3 -17l1 -3l2 -3h5l3 4l6 -3l4 9l-3 15l-9 2l5 9l10 7l4 -4l14 8l3 5l4 10l2 10l9 4l-1 17l2 8l25 38l3 6l2 10l-3 14l-4 8l-5 4l-55 31l-2 18l1 8l4 5l9 7l3 -3l18 3l4 -11l5 9l4 4l15 1l10 4l3 -2l25 -3l1 3
l9 -1l5 3l24 -3l94 5l49 -10l12 -12l4 -13l-1 -7l-4 -6l-10 -8l-7 5l-7 -5v-4l-9 2l-7 7l-11 -6l5 -6l-1 -5l-17 2l-15 -2l-29 -19l-8 -6l7 -20l-8 2l-2 -6l-10 -1l-4 -15l-27 -24l-26 -47l-1 -8l3 -14l6 -22l-7 -11l12 -3l4 -5l-9 2l-10 -14h7l5 -11l9 -1l2 12l6 -12l7 -20
l12 -49l7 -11l-2 -7l5 -1l2 -5h8l3 -10l-8 -4l-1 -6l4 -3l-2 -18l19 -7l-3 -9l1 -5l3 -3l12 -3l3 -8l-10 4l-4 -7l4 -15v-8l7 -7l-4 1l-2 -7l4 -20h-3l1 -10l14 -9l3 9l4 -11l12 -3l6 -7l5 4l2 -3l-4 -2l1 -8l3 -4l4 3l3 -6l-7 -3l11 -3l5 -11l8 -10l3 -2l34 -14l10 -10
l-10 -2v-11l-7 -7l2 -6l8 2l-5 6l7 -1l-3 8zM619 250l-11 1l1 16l5 -1zM652 172l-8 -1v16l-9 6l7 6zM370 35l-2 -10l-5 -8l-7 -5l-10 -3l-3 3l-18 -9l-12 2l-13 -4l-30 4l-31 1h-68l-71 -4l-35 6l4 11l-3 8l-5 1l-5 -5l-14 7l-4 -12l13 -8l-15 4l-6 6l-4 17l1 8l5 7l32 15
h14l-2 6l7 5v3l-5 5v7l5 -1l-4 7l-1 22l7 2l-7 -1v11l10 -2l1 8l6 8v-9l7 -6l7 26l-5 5l4 6l-6 1l-2 -2l-11 4v13l-4 2l4 1l1 5l-11 10l2 22l4 1l-6 8l2 11l-3 6l7 2v6l-6 3l3 27l9 -11l-1 -12l7 -4l5 -9h8v10l-6 1v5h4l6 10l-8 24h-3l2 -7l-8 3l-2 4l1 2l8 8l-7 11l-8 35
l5 1l-1 4l-14 1l-1 164l-5 61l-3 4l-41 22l-4 15l4 16l7 8l31 8l14 1l4 -14l27 6l3 7l8 1l5 -6l14 5l8 -9l10 1l5 7h9l1 -5l-4 -5l18 -3l15 2l11 4v6l10 1l1 -7l7 -9l13 5l12 1l-2 11l61 -1l-1 -3l11 -6l3 8l11 -1l18 -6l7 -7l2 -11l-1 -8l-2 -9l-31 -15l-20 -16l-11 1
l-27 -12l-13 -3v-4l-5 -2l-3 7h-5v5l-10 3l-7 -3l-2 -22l2 -11l3 -3l3 -1l14 4l12 6l-1 -5l5 -5l10 3l-1 6l9 3l1 9l15 2l-7 -8l-4 -8l-3 -11l16 1l-1 -11l10 -4l2 -10l-2 -16h-10l-2 -11l11 -2l-1 -4l2 -2v-7h-6l2 -5h5l-1 -11l3 -39l-1 -18l1 -287l-13 10h-7l5 -22h3
l-9 -5l1 -9l8 -6l-9 -6v-9l16 -4l4 10l-7 3v5l3 -2l5 9l5 -9l7 -8l35 -17l4 -8zM321 107l-9 -13l5 17zM560 355l-2 12l-10 -11l-2 -4v-7l5 -10l5 18zM556 311l-9 7v6l-7 -1l-6 -10l3 3h6l2 3l2 -5zM554 308l-7 -8l5 -2zM248 593l-3 3h-6l-4 -6l12 -2zM307 514l-11 1l5 -3z
M288 517l-3 4h-7l-3 -4h-5l-2 -4h11zM288 498h-4l-3 -4l4 -1zM656 118l-1 4l-11 4v-8h12zM266 513l-4 -1l-2 -9zM658 103l-3 9l-4 -4zM286 482l-7 1l-2 -8l5 -4zM673 15l-5 10l-8 2l-1 -4l9 -8h5zM121 311l-5 13l-6 4l-6 -10l7 -3v-7zM100 128h-5l-2 -9zM69 43l-5 2l-3 -13
l5 4z" />
    <glyph glyph-name="L" unicode="L" horiz-adv-x="592" 
d="M311 364l-6 -11l-2 10l4 -3zM279 370l-3 -3l-4 5v6zM282 355l-8 6h7zM569 200l-2 -27l-6 -3l-9 -2l-1 -13l5 -1l-12 -3l3 7l-10 -9l2 -17l8 3l11 8l1 -2l5 1l-3 -99l-12 -3l-10 -15h9l3 -3l3 5l4 1v-6h4l-2 -12l-4 -5l-5 -3l-14 -2l-53 3v7l-10 5l-16 2l-10 3l-3 -3l6 -3
v-9l-3 2l-16 -3l-65 -5l-7 2l-4 5l-4 18l-1 25l5 12l10 8l24 6h11l5 4l10 -1l9 2l1 16l8 6l41 41l14 24l16 33l11 7l-1 7l5 -1v-5l10 5l1 -3h4l1 16h17l10 -4l3 -4zM369 642l-2 -12l-4 -11l-11 -6l-31 -20l-5 -17v-46l-7 -6l-10 -2l-3 -32l7 2l6 -5l4 4l-3 -6l5 -2l-9 -3
l2 -10h-5l-3 -5l2 -14l12 -1l-10 -7l-1 -10l4 1l-6 -9l-6 -1l-2 6l-8 -1l6 -12l8 -5l6 6l-2 -16l5 -3l-1 -9l2 -16l-4 1l-1 7l-6 8l-6 -2v-4h-5l-4 6l-1 11l-9 3l3 -11h2l-14 -15l5 -15l6 2l-3 -5l3 -13l-12 -14l2 -7l-1 -4l-3 -4l-9 -6l4 -13l9 4l3 15h7l8 5l6 -2l-1 10
l5 1l-2 11l-7 16l-1 9l16 -4v-3l-5 -6l10 -2l2 -6l8 1l-9 -37v-2l9 -7l-1 -9l-5 1l7 -4l3 -24l-1 -10l-4 -1l-1 -13l5 2v-12h-5l-6 -24l11 -1l1 -47l-5 -2l-7 8l-6 -10l2 -9l-3 -6l4 -5l5 8l8 2l3 -8l1 -111l-5 -20l-5 -5l-19 -4l-18 -1l-14 3l-7 5l-5 -5h-3l-2 4l-12 -3
h-14v5l-9 1l-21 -6l-11 -1l1 9l2 -6l4 4l-5 10l-11 -3h-14l-30 -9l-5 2l-8 -4l-6 7l-12 -5l-11 6l-14 -5h-14l-17 4l-5 5l-2 11l2 14l3 5l42 23l4 8l1 12l11 1l-1 4l-6 1v5l13 2l2 7h-4l-2 4l5 5l-1 4l8 5l1 4l-1 5l-10 12l-8 -11l-6 -2l-1 11l2 13l-3 5l6 5l-4 48l4 2
l-3 10l2 30l-2 28l6 16l-8 17v21l5 -2l1 7l-7 6l10 12l-4 13l4 1v5l-5 3l6 11l13 -5l-1 13l-11 4v25l-4 25l5 4l-7 20l4 4l-2 5l2 13l-4 1v6l9 3l4 10l-11 5l1 11v27l4 12l-11 6l1 5l-11 9l5 -2l4 4h12v7l-4 4l-34 -5l-15 5l-11 10l-3 13l4 14l8 8l27 7l48 3l108 -4l33 3
l12 2l3 -2l2 -6l-5 -4l15 2l4 -5l22 4v-4l7 2l9 -4l11 4l9 -6h5v6l5 -4l15 -4zM256 657l-10 1l7 -6zM225 633l-2 10l-19 -2v5h-4l-2 -16l4 2l8 -7l3 -1l6 2l5 4zM288 490l-11 -8l-9 -2l3 -13l12 7l-1 4h5zM544 205v9h-5v-3zM447 99l-3 3h-4l-2 -2l-1 -3v-3l8 -4zM103 365v11
l-5 6l-4 -8l5 -1v-8h4zM286 177l-1 4l-9 7l1 -18l-2 -13l3 -2zM109 333l-7 17l3 2l-4 7l-6 -5l5 -7l-3 -20l6 4v-3h5zM281 142l-2 8l-4 -6zM107 317l-1 5l-8 4v-13zM299 111l-7 6l-1 -1l-1 -3l3 -4zM116 255v11l-4 20l-2 20l-6 7l-10 -10l-2 -13l5 -9l-1 -7l4 -6l7 -3l1 -7z
M309 69l-1 15l-6 3l-1 5l-6 4v-8h-5v-5l5 -1l3 -9l-5 -2l5 -11l5 2zM119 167l-7 5l-4 -10l-3 -2l8 -3zM212 17l-5 8l-2 -10l3 -2zM195 16l-2 5l-8 -5h10z" />
    <glyph glyph-name="M" unicode="M" horiz-adv-x="814" 
d="M794 32l-2 -10l-11 -9l-30 -10l-29 -3l-5 1l-10 3l5 2l-2 12l-5 2v-8l-17 -3v-3h-5l-9 -3l-9 -1l-24 1l-52 1l-3 7l-7 6v3l-11 1l-5 -10l-3 9l-27 -6l1 -8l-6 -1l1 -6h-26l-42 10l-11 11l-4 12l3 12l5 8l33 15l5 3l4 7l4 23v26l2 4l8 2l-2 11l-3 5l-3 -5l-3 18l8 9v6
l12 3v35l4 -3l3 6l-10 9l-1 -4l-4 -1l-3 8l-5 4l9 3l1 21l11 4v-3l5 2l-10 18l-6 2l4 7l-2 7l-4 -3l-4 14l5 8h10l-2 25l-4 -2l1 -15l-4 -3l-3 2l-4 8l-2 9l-5 4l-1 180l5 2v18l-6 2v37l2 13l-3 27l2 13l4 10l-3 1l3 15l12 5l-1 -3l-7 -1l3 -17l7 1l12 12l1 -3l29 13l11 -7
l8 -1l10 2l7 3l8 -4l4 3l9 -4l6 4l6 -4h19l7 -2l8 4l8 1l-2 -7l7 -6l2 13l8 -12l8 11l11 3v4l26 1l34 -6l17 -6l5 -5l5 -20l-1 -6l-4 -5l-39 -21l-4 -3l-3 -5l-3 -28l1 -41h-14l2 -9l3 -3l-1 -10l-5 -18l5 -7l-1 -11l-6 -14l-1 -17l-3 -6l-8 -7l1 -8l-9 -12l4 -8l7 1v-4l6 6
l1 5l-3 2l-3 10l10 -2l3 -12l6 -2l4 3l2 -4v-22l-2 4l-6 -8l6 -5l-9 -12l10 -13l-4 -15l5 -24l-3 -13l-8 -23l4 -4l4 1l-2 -9l4 -2l-3 -11h5l1 -153l-16 11l-7 -8l9 -13l-1 -16l1 -11l6 1l7 13h7l2 -4l7 6l22 -7l12 -7l5 -7zM350 560l-5 -2l-1 -3l-5 4l3 7zM391 446l-1 3
l-8 -2v6l9 -1v-6zM466 411l-2 -25l-8 -36l-20 -60l-8 -15l-2 -11l-4 -1v-14l-2 -10l-6 -15l-4 -12l-12 -22l-3 -10l4 -3l-7 -2l-2 -13l1 -8l-6 1l-19 -22v-8l-11 -7l-3 -5l-18 -14l-1 -10l-3 -2v-5l-3 3l-6 1l-4 -7h-6v-5l4 4l10 -4l-8 -14v-12l6 -1l4 -5l9 2l-2 -7h4l4 10
h5l3 14l7 4v3l8 1l-6 -21l-9 1l-2 -8l-8 -10l-8 -7l-9 6l-5 1l-9 -12l-11 28l5 8l-6 6l13 7l-7 8l9 4v6l-17 -6l-3 7l6 3v7l-12 11l-2 22l-5 8l3 3l-4 22l2 16l-5 3l4 9l-5 5l-1 2h-8l-5 -2l-1 -4l4 -4l-2 -3l1 -10l-18 9l9 3l-1 18l-13 5h-6l-62 164v22l-14 7l1 6l-7 14
l7 -1v8l-8 11l-1 8l-4 1l2 4l-5 9h-1l1 5l-4 5l1 4l-4 7l1 3l-5 7l4 2l-13 30l3 2l-2 8l-10 4l6 2l-3 13l4 7l-5 15l-18 3l-1 -3l5 -2l4 -5h-13l-25 24l-41 18l-8 6l-6 9l-2 11l3 14l5 6l27 7l12 2l-1 -3l-6 -2l-2 -6l-6 4v-17l11 2l15 6l8 -1l4 4h9l-1 5l4 3l30 -12l11 -1
l7 2l9 6l2 -3l7 -2l4 6l21 -3v4l13 1l6 7l5 -1l1 -5l31 -11l5 1l2 9l-6 5l12 2l17 -2l-1 -5l5 2l1 4l12 -1l17 -6l10 -8l16 -35l9 -28l-8 -1v-6l-9 4l1 -13l13 -3l-1 -4h-4l5 -5l-2 -6h3v-6l8 -9l-1 8h4v-5l4 -1l-3 -3h7l-5 -7l-2 2l-2 -6l4 -4l13 5l2 -5h-4l-3 -6l6 -2
l-4 -11l6 -3h3v12l6 -22l-5 7l-9 -3l-3 3l-1 -6l8 -1l5 -30l3 -6l-5 -1l4 -7l-7 -5l9 -12l9 1l3 9l1 -7l10 -1l12 -14l5 3l5 9l29 85h5l-1 11l13 6zM238 27l-2 -11l-9 -8l-23 -7l-24 -3l-61 3l-67 -2l-33 13l-9 11l-2 7l5 18l58 25l5 4l5 8l9 60v35l11 5l-3 19l-8 4l6 2
l3 19l-4 25l1 2l4 1l-4 29l3 1v13l1 20l-10 7v44l9 1l4 4l-13 13l1 24l5 2l-3 9l2 13l-3 3l1 12l7 2l2 -1l5 -12l18 -48l-5 -6l3 -8h4v-4l2 -2l-2 -7l4 -4l5 1l8 -18h-5l-3 -3l13 -6l2 -3l5 -37l-5 -4l3 -16l9 -186l-17 -9l4 -19l-6 -1l17 -9l3 5l10 -1l13 8l2 -5l19 1
l17 -7l11 -11zM724 611l-12 3l2 -3l-5 -6zM683 641l-9 6l-1 -5l3 -5zM675 636l-7 7l-2 6l-10 -2l-8 -4l-4 -7l8 -17v5h8l1 5l5 -1l3 8h6zM704 601l-5 3l-1 6l-3 4h-19l-20 -6l-10 -2v-4l19 -13l12 1l11 -3l11 2l-2 6l-3 2h6zM643 615v14l-4 2l-1 -7zM640 604l-3 6l-1 14
l-6 4l-3 -4l6 -7l-40 1v-9l-11 -2l-9 -3l-6 -9l9 -3l3 -5l4 -3l2 8l5 -2l5 4l6 -2l2 2h8l6 4l5 1l17 -2zM723 469v8l-5 -2l-1 -4zM517 568l-9 5l3 -7l-7 -9l12 2zM355 514v4h-6l1 -5zM527 347h-13v-4l12 -3zM733 108l-3 6l-3 -2v-5l3 -5zM396 420l-4 3l-8 -2v-3l4 -1l-1 -15
zM729 28l-10 1l-9 -8l10 -12v7l4 -1zM186 481l-6 9l6 2l-3 9l-16 3l4 -5v-8l5 -1v-16l2 7h8zM193 451l-2 3l2 1l-9 7h-5l3 3l1 9h-6l1 -6l-6 -17l1 -3l18 -11zM190 421v4l-3 2v6l-7 -10l5 -3zM193 409h-3l-2 5l-7 1l-4 -6l2 -8l4 -4l5 -1l4 6zM193 379v11l-2 1h-4l-2 -2
l-1 -3l1 -4zM271 225l-13 2l9 -5zM275 204l-5 12l-2 1h-5l-2 -2v-6l3 -2zM148 317l-5 5l-7 1l-1 -6h13zM143 58l-10 3l-3 -1l-1 -3l1 -3z" />
    <glyph glyph-name="N" unicode="N" horiz-adv-x="697" 
d="M554 662h-5l-4 -9l-16 -1l-12 2l-2 4v8zM680 634l-1 -8l-5 -7l-50 -22l-12 5l3 6l-3 5h7l5 -6l5 -1l-6 8l-3 1v7l3 5l-2 8l-11 -4v-15l-10 -4l-2 -3l-1 -8l9 -12l-3 -9l-6 -51l1 -50l-4 -4l1 -36l-7 -21l9 -9l-1 -109l-3 -3h-2l-4 1l-43 64l-13 37l-1 153l-5 25l-9 14
l-10 6l-48 20l-4 6l-4 15l3 9l7 8l31 10l20 1l-3 -3l4 -15l24 -2l25 3l7 -4l-2 16l65 4l36 -8l10 -10zM465 415l-6 -1l1 6l4 1zM597 36l-3 -22l-4 -5l-12 -5l-5 9h8l-2 8l2 2l3 11l-17 5l-5 -20l-5 -7v-7l-3 2l-1 -7l-57 -2l-42 9l-6 4l-32 43l-20 31l-6 42l-4 6l-11 8l1 -8
l-3 -1l-2 -6l-4 5h2v6l-5 3v3h2l5 4l3 -2l10 1l-2 9l-8 3l-3 -6l-3 9l17 4l-6 11v19l-10 -5l2 -3h4l-2 -5l-11 -2l-15 2l-4 3l-4 13l-5 9l2 6l-5 8l-15 38l-5 7l-5 3l-18 1l-5 12l-9 17l-5 3l-11 2l-10 14l11 6l2 -4h5l1 8l-17 -2l-5 8l4 2l-13 3l-155 242h11l8 6l7 -1v16
l-15 1l-28 -5l-6 1l-21 7l-15 8l-7 9l-2 11l3 13l9 9l57 9l35 -1l7 -13l1 6l14 -5l11 7l7 -2l11 -1l1 5l25 -2l3 3h4l5 -4h7l1 4l22 2l2 -10l4 2l14 -7l2 10l-6 4l-11 -2v3l38 3l30 -9l33 -43l6 -10l-11 -5l10 -16v-10h15l-3 3v9h-4l1 5l8 -8l1 -11h5l21 -32l-16 -4l3 -4
l7 -2l8 -10l12 -5v-8h7l-9 -5l10 -10l3 -12h5l1 -10l7 -11l7 -13l13 -6l1 -9l-10 -3l1 -5l3 -1l1 -5l5 -4h-5l-4 -9l6 1l2 -5l7 1l5 -3h8l4 -6l11 2l96 -150l17 -35v-6l-10 -72l-3 -1v-31l3 -7l-1 -8l4 -4l4 7zM237 34l-3 -13l-13 -13l-37 -8l-75 3l4 4l1 -2h4l5 6l2 -5l5 1
l3 5l-7 -1l9 11l-5 3v4l-7 -7l-12 -3l-2 -4l-7 -3v-4l-10 -2l-7 -4l-11 -2l-22 2l-32 8l-8 8l-3 13l2 12l5 7l4 3l31 11l24 9l29 3l-3 16l-6 1l-6 7l-1 4l3 37l5 3l2 10l-3 17l4 -4v31h11l-1 11l-3 14l-7 14l-9 9l1 7l9 -1l7 6l-6 5l-4 -1l-3 4l1 15l7 1l4 5v6l4 5l-14 14
l-6 4l2 168l2 2l3 1l5 -2l3 -2l37 -60l15 -43v-13l-4 2l-4 -9l2 -9h-8l-1 -11l10 4l-2 4l8 -3v-237l5 -20l7 -11l47 -22l15 -5l5 -11v-5zM288 653l-8 7l-15 1l-1 -5l20 -13zM335 597l-4 5l2 7l-11 7l-25 1l-1 -19l20 -7l-7 -14l9 -7l13 15zM317 565l-6 4l-10 -2l4 -9z
M436 422l-2 7l-8 7l1 -8h-4l2 -11zM441 404l-7 6l-2 -6l-17 3l5 -7h3zM471 371l-10 8l-3 9l-11 -1l-3 -2l-3 -3v-4l3 -12l4 -3l-2 -5l4 -10l8 2l-1 9l-7 9l8 -4l2 8l7 -5zM486 320l-7 11l2 8l-3 2l1 8l-11 2v7l-3 4l-5 -6l1 -7l7 -15l-4 -11l2 -2zM492 308v6h-10l1 -5z
M502 288v9l-13 7l-4 1v-12l8 -2l3 -4zM496 284l-5 4v-5l-5 -3l9 -3zM504 260l-6 11l-13 -3l4 -4zM592 75l-8 2v-9zM586 49l-8 5l3 -11l4 1zM277 318l-9 24l1 -12zM150 326v11l-11 -4l7 -1zM155 25l-11 9v-7l10 -7zM122 53l-3 5l-13 3l2 -10l6 3zM144 13l-2 10l-4 -6z" />
    <glyph glyph-name="O" unicode="O" horiz-adv-x="696" 
d="M439 477l-3 -9l-2 -11h-4l-3 6l1 6l-3 6l2 16h6zM673 300l-4 -33l-8 -41l-17 -52l-9 -19l-7 -11l-3 3l2 9l-11 11l-6 -5v-7l-10 -7l-2 -12l-13 -15v-6l-9 -3l1 -17h5l-4 -9h-12l-1 6l-18 6l-10 -8l-4 -9h-3v-4l-10 -12l7 -8l2 -7l-2 -9l-5 -7l-24 -15l-42 -16l-36 -8
l-23 -2l-19 5l-10 9l-3 17l3 27l27 28l13 41l9 5l-5 3l5 4l1 13h6v20l3 17l-3 2l3 13l-1 17l4 6l2 9l7 8l-4 3l2 3l3 9l6 12l-7 12l6 8l-7 13l12 16l-5 5l-5 -1l-4 6l2 3l-15 2l-4 5l-2 -12l-2 17l5 1v9l3 -1l1 33l-4 12l-7 10l2 1l6 -1l2 6l-3 6l-5 -7l-2 57h4l-1 -8l3 -3
v-15l-3 -3v-5l9 -4l2 9l-2 13l9 6l10 -4l5 1l-1 5l3 3l-3 5l3 3v13l-4 4l4 9l-1 15l3 9l-3 6l-11 6l-11 2l-2 -7l6 -9l-5 -3l-2 -14l-12 7l-1 2l-3 44l-6 25l-7 13l-26 27l-3 5l-2 15l1 9l4 23l5 5l7 1l5 -1l10 -10l3 3h4l6 -9l5 -3h1l7 12h6l6 7l4 -6l11 -2l-4 -2l8 -10
l6 -2l6 2l8 6l53 -23l-6 -3l8 -4h6l3 -2l-6 -7l4 -2l-2 -8l7 -2l2 -5l-2 -3l2 -7l17 -2l6 -5l3 3l4 -7l11 -6v-9l10 -2l10 -11l3 -9l-1 -15l7 -6l5 -6l1 -3l-1 -4l9 -3l5 -22l7 -5v-5l-3 -1l3 -4l5 3l7 -10l1 -22l3 -10l4 -1v-29h8v-18l3 -16l-3 -24l4 -2l-3 -24zM563 78
l-9 -3l-3 3l11 2zM542 78h-7v4zM334 20l-4 -14l-8 -9l-13 -3l-14 4v-3l-17 2l-6 4l-6 -3l-8 9l-9 -5l-6 1l-2 8l6 1l7 11l13 -15l1 7l-10 7l-1 4l2 5l1 1l5 -1l-1 14l-10 -1l-5 -5l3 -11h-6l-4 -5l4 -3l-3 -9l-8 2v-7l-15 5l-37 17l-37 25l-13 11h8l-2 7l-7 -3l-1 5l3 8
l-19 6l4 17l-15 7v8l3 1l-6 6l-5 1l-2 -7l-5 1l1 8l-3 4l4 1l6 4h-6l4 7l-1 17l4 1l1 7l-5 5l2 2l-10 12l-14 2l1 4l-6 11h2l-1 7l-5 2l-12 -2l-12 -1l-2 12l-12 78v27l4 78l10 37l10 12l2 -5l9 -4l1 13l-2 11l5 2l-5 1l-2 4h7l2 6l9 5l5 -5l-1 -5l14 -4v6l3 3h5l2 8l-5 2
l-1 10l-8 -2l-6 -8h-8l2 11l-1 8h7l1 18l7 1l6 8l6 2l17 -1l-9 11l-2 7l3 12l10 -1l-1 12l2 1l-1 5h9l6 15l3 1v4l4 -2l4 7l-5 4l9 7l25 16l52 23l68 13l13 -1l14 -4l4 -5l4 -38l-1 -7l-32 -38l-4 -7l-12 -184l-15 2l-1 -6l4 -12l-2 -4l3 -7l-3 -10l1 -13l-1 -12l4 -8
l-5 -13l8 -3l-3 -6v-4l-6 -4l-2 -6l4 -4l-7 -11l-1 -9l9 -2l-1 -7l5 -3l-1 -6l2 -5v-12l5 -4l-4 -9l7 -3l6 -69l-2 -8l-10 -27l7 -10l7 10l3 -11l5 -13l29 -31zM84 468l-12 -2l4 -2l1 -6l4 1v-5zM49 418l-1 3l-6 4l-7 -12h10l2 1zM45 365l-2 31l-8 8l-7 -15h12l2 -4l-4 -10
h-4l1 -16l3 5zM52 349l-11 8l-8 -3l13 -5h6zM281 25l-9 8v-9l-3 -3l4 -3l2 6zM145 126v5l-5 2l-11 -2l-2 -6l6 -3l2 -7l4 -1l-2 -10l6 7l-1 7l-5 1zM157 85l-2 6l2 2l-7 11l-8 -2l-2 -5h-6l5 -2l-6 -5l-2 -7l8 -2l13 3v-5zM144 96l-2 -8h-5v3l4 1v4h3z" />
    <glyph glyph-name="P" unicode="P" horiz-adv-x="665" 
d="M642 468l-11 -31l6 -4l-5 -7v-17l7 -1l-2 -19l-5 -6l3 -3l-4 -6v-7l-8 -9l5 -1l-5 -13l-16 -5l-6 16l-8 -2l-15 -8l-2 -6l-23 -11l3 -3l8 2l10 -5l6 6l3 -10l-12 -6l-2 -4l-4 -3l-2 -5l2 -4l-8 6l-5 -4l-3 -7h-4v-3l11 -3l3 -3v-5l-2 -2l-21 -6l-6 7l-9 -8l-13 -3l-10 -4
l1 -3l-12 -3l-62 -5l-30 2l-34 8l-8 8l-4 17l4 23l40 28l3 3l8 30l2 12l8 -1l2 24l8 5l-7 6h-8l7 16l1 -11h12l-2 14l7 3l-9 8l-1 9h6l-2 9h4l2 4l5 3l-5 37l-4 2l-2 6l-10 1l4 7l3 1l2 5l5 3l6 -5l11 3l1 10l-1 19l-2 6l-9 7v5l-9 1l-6 -12l-12 8l-12 -5l-13 22l-29 13
l-4 8l-3 17l6 24l7 7l51 6h43l67 -10l25 -7l11 -4l-1 -5l4 -5l-3 -17l6 -1l-5 -3l-2 -7l8 -3h18l-3 5h6l2 6l-11 7l-3 15l9 -5l31 -30l21 -52l3 -20l1 -10l-10 1l-5 -13l7 -7l-2 -7l10 -7v-6l-3 -3zM95 539l-8 -4v6zM370 32l-4 -14l-12 -11l-38 -9l-106 6l-5 11h-10l-5 -9
l8 4l1 -6l-13 -1v9l-2 -2l-3 4l-4 -4l-10 2l5 -9l-77 -2l-33 2l-25 6l-8 9l-4 14l3 13l4 5l46 13l-1 4h-7l1 4l24 6v4l-7 2l2 6l-7 4l3 6l-3 2v7l-5 1l4 69l-4 3l1 42l-2 34l2 8l6 13l8 -2l2 16l-3 5l-11 7l11 3l-2 8h-11l1 9h5l5 -6l-1 6l5 9l-6 7l1 18l-5 -7h-5v18l12 1
l-1 11l2 5l-10 29h-2l-1 6h4l1 7l-3 5l2 13l16 2l2 14l-6 8l-1 6l-6 3l-4 -11h-4v20l9 -3l-1 -2h9l10 4l-3 3l1 14l-9 3l-4 10l-12 -11v16l8 3l18 1l-5 25l2 9l-3 2v10l-2 4l-3 2l-15 4l-5 10l-6 6l-40 22l-2 14l3 14l10 9l40 9h12l-1 -10l15 -2l15 7l-13 4h17l6 -13l11 2
l15 8l4 -9l10 3h11l1 -4l8 4l13 1l2 -6l5 2l12 -3l4 4l3 -3l6 4l14 -4l6 3l7 8l4 -6l8 3l4 5h11l2 -13l13 -22v-9l-3 -10l6 1l-1 6l5 3l5 -4v-111l-7 -5l6 -8v-9l-7 -1l-2 -17l10 -7l-1 -265l-12 -20l-4 -18l1 -3l2 -3h5l2 1l2 10l4 1l-1 -8l1 -8l-7 -7l1 -12l-3 -11l-3 -3
l-8 3v-4l8 -7l-5 -19v-8l-10 -1l1 7l-5 3l9 4l1 7l3 1v8l-12 -4l1 -12l-5 -1l-4 3l-4 -6l1 -13l11 -5l-12 -5l2 -4l4 -3l15 13l2 -3l7 3l-4 -7l17 -4l6 11l8 -5l30 -13l3 -2l3 -5zM84 384l-5 -9v10zM569 590l-6 8l-3 -5zM594 555l-7 11l-3 -5l4 -5zM588 514l-2 18l-4 -2
l-2 -7l-4 -7h6zM450 390l-7 4l-6 -3l-1 -4l7 -1zM447 372v4l-7 2l-5 -3zM409 357l-6 -6v-5l5 -4zM232 493l-5 4v8l-4 1v3l-14 -3l-5 -15l12 -6l15 2zM207 470h-5l-13 -15l9 -3l7 5zM179 452l-8 15l-11 -11l4 -4l-5 -8l15 -2zM173 430v5l-6 2l-3 -5zM155 418h-5l-4 -6l-7 1
l-3 -3l18 -3zM193 22l-8 10l-9 1l3 -7l-24 2l-6 -1l-3 -3l-1 -4l4 -3l-1 -7l9 -1l2 -5l6 1l-1 6l-5 3l19 6z" />
    <glyph glyph-name="Q" unicode="Q" horiz-adv-x="696" 
d="M734 38l-3 -14l-16 -21l-15 -12l-31 -17l-13 -4l-4 5l-13 -2l1 -7l-11 -2l-4 10h8l-15 5l-4 8l-9 6l-22 -8l-17 -2l-23 3l-5 -3l-9 4l-35 21l-8 7l-38 -16l-53 -6l-20 3l-7 7l-3 19l3 23l3 9l16 19l6 1v8l7 -1l7 3l1 5l-5 6l-12 -5l-7 4l-7 -4l-21 10l-14 9l-5 9l-3 13
l2 12l6 8l16 8l24 8l7 -7l12 6l5 1l4 5l2 7l8 -2l-1 14l4 26l5 1v6l-14 4v92l5 4l4 -1v12l5 6v10l-5 27l5 28l-5 9l3 3l-7 21l3 17l-9 3l-7 101l-4 15l-2 4l-33 41l-3 27l1 12l3 7l5 5l24 4l13 -1l44 -10v-7l38 -12l3 -3l4 -9l2 -9l16 -3l-1 -3h4l3 -9l10 -2l3 -5l5 1
l12 -12l10 1l13 -4l3 2l3 -7l11 -7l9 -10l19 -28l6 -10l-6 -1l-4 -7l5 -6l-7 -9v8l-10 -3l-3 -6l4 -5h7l7 -5l5 -1l-1 14h7l3 7l10 -19l3 -17l5 -11l-15 2l6 -9l-2 -10l6 -14v-8l5 -13l-2 -18v-10l12 -4v9l7 -5v-11l-4 -12l1 -10l-7 -9l4 -4l-3 -12l-1 -19l-3 -8l4 -25
l-6 -13l12 -12v-4h-8l2 -8l-7 -7l9 -5l-9 -36l-26 -55l-26 -39l-2 -2h-9l3 16h-5l-3 -5l-7 2l-9 -4l3 -8l-14 -6l2 -13l6 3l5 -5h8l5 10l8 -4l6 -12l11 -8l46 -9h16l3 -3l-7 -2l6 -9l-2 -6l17 2l-3 3l4 1l5 -4l13 5l3 3l2 4l-1 10h12l5 -2l3 -5zM333 20l-5 -18l-5 -6l-33 -3
h-6l-22 3l-10 5l5 2l-2 9l-9 -6l-9 -2l-19 5l-36 18l-15 8l-16 18l-10 6l-2 11l-8 4l3 4l-3 1l1 4h12l3 -2l1 7l-5 8v7l-15 1l-13 6l-4 -1l8 -7h-8l-5 19l-10 1l-5 -1l2 -4l-5 -7l-6 8l-7 18l-2 25l-5 9l3 3l-1 11l-7 -2v5l-4 1l-1 15l2 3l-12 7l5 5v14l3 1l5 9l-9 9h5l1 7
l5 1l-15 12l-12 -9v14l-7 1l-4 21l3 17l-1 7l4 7l-2 3l3 2l-4 18l11 7l-2 14l-8 -2l-1 6h6l-4 16l2 8l9 6l-1 25l-3 8l5 1v11l5 2l1 14l10 1v6l6 3l-2 15l-6 -6l3 10l13 1l-8 12l8 -4v9l-8 3l3 8l5 -1l-3 -6l6 -3l7 9l6 -2l2 15l-11 4l16 24l32 35l14 12l32 23l13 4l3 -11
l3 5l10 3l27 13l20 7l35 17l8 1l18 -2l14 -3l5 -9l2 -17l-2 -26l-24 -25l-10 -18l-13 1l-7 -24l6 -1l-8 -12l4 -3l-2 -6l-5 -1l-5 -18l7 -10l1 -9h-4l1 -7l-14 -11l1 -7l-9 -8l4 -8h-14l-2 -9l-3 -2v-6h12l6 5l7 1l7 -9l9 8v14l9 -1v-12l-5 -22l4 -2l-5 -11l6 -4l-3 -4l3 -4
l-2 -9v-24l-5 -19l6 -5l-1 -25l6 -175l5 -33l5 -18l19 -23l13 -14zM136 65l-2 2l-4 -3l-5 10l9 -3zM614 470l-2 15l-12 -3l-2 2l-10 -5l1 -13h4l-1 -6l11 7l-2 -6zM615 450l-3 5l-12 -4l-4 -4v-4l7 -8l-2 -5l8 -9l5 5l-2 9zM593 446v5h-6l-3 -5h9zM580 449l-18 -6h-9l-3 -10
l10 -7l9 -1l1 7l8 6zM599 397l-11 -4l-5 -6l5 -8l8 3zM638 164l-7 14l-6 -13l1 -11l-5 1l-2 -3l1 -7l10 7l-1 5zM619 136l-6 11l-6 -6l4 -8l-9 -7l5 -6l2 9zM430 282l-7 13l-4 -13l10 -7zM433 262l-7 6l-7 -6h14zM434 247l-16 1l1 -13l9 -1zM223 414l-2 5l-9 -4l6 -11z
M386 105l-10 -3l6 -6zM446 2l-2 10l-14 -1v-4l5 -9h4l3 5zM288 10l-5 10l-19 -3l-2 -2l-4 -8l9 -1l6 4h15zM272 25v8l-9 4h-7l-4 -3l-3 -7l-7 2l-3 -5l6 -7l-3 -5l7 4l1 4l7 -1zM158 110l-7 6l-4 -6h11zM163 72l-4 3l-20 5v-4l2 -3l5 -4l4 -1z" />
    <glyph glyph-name="R" unicode="R" horiz-adv-x="736" 
d="M423 520h-8l4 4h4v-4zM732 34l-4 -16l-10 -10l-36 -9h-12v7l-4 6l-8 -2h-10l-10 -1l-3 14l-17 -2l-11 3l-3 -3l-3 6l-10 4v-10h-8l3 -17l-49 3l2 3l-4 3l-2 -2l-12 -1l-15 -3l-1 -6l-40 -2l-20 2l-29 8l-10 9l-3 19l1 8l33 27l3 4l4 13v24l11 1l2 14l-6 9l-10 22v7l-6 9
l-9 27l-6 6h3v11l-10 1l2 5l3 2l-3 17l4 1l-1 3l-5 4l-8 31l-10 3l-2 -6l4 -4l5 -1l-2 -14l4 2l7 -4l-7 -3l-9 9l2 8h-4l-6 10l-35 34l-1 10l1 14l4 16l5 5l31 20l18 39l2 -3l5 5l1 12l-7 -1l-2 11l1 6l10 26l-3 3v3l5 2l3 11h3l1 -11l-2 -13l-2 -3l1 -4l-3 -4l1 -5l-5 -5
l1 -5l-3 -8h5l3 5l3 13l10 9l2 14l-3 39l7 3l2 6l8 3l6 5l7 -2l-9 16l-19 -7l-14 5l-4 -2l-3 -2l-2 -14l-9 -1l2 8l-4 9l-5 22l-6 13l-14 15l-25 13l-4 11l-2 18l4 17l7 7l48 8l61 -4l3 -9l13 -3l3 -5l20 3l-1 -2l18 2l11 -4l10 -3v6l5 -8l14 -3l5 -12l3 3l-4 4h9l2 -19
l20 -12l-2 -3l9 -5l3 -13l4 -5l-1 -8l7 -3l1 -8l5 -1l3 -4l-4 -7h4l-3 -9h8l2 -5l6 -2v-3h-7v4l-31 5l-2 -7l3 -8l-4 -6l2 -12h-7l3 -13l2 -3v-5l12 -3v5h-5v6h5v-4l14 1v13l-3 -1v4l-6 2l-1 4l14 -1l-3 7l-8 4h13l1 -13l-3 -15l2 -3l8 3v-21l-8 -39l-10 -23l-9 -9l-3 5
l-5 -1l-3 -9l-2 7l-11 -6v3l4 4l-5 2l-19 -12l-5 -4l-1 -4l1 -6l-8 9l-10 -9l4 -5l-4 -5l7 -17l-12 -4l-5 -8l11 -7l27 -20l18 -24l12 -24l-7 -1l5 -11l8 -10l-2 -15l6 -2l-4 -2l6 -12l-1 -5l7 -7l-2 -10l5 -5l-2 -4l3 -1l1 -9h4l2 -9l-4 -6l1 -4l-8 -4l7 -3v-2h4l4 -8
l-3 -3l1 -5l14 3l4 15l1 -12l10 -15l18 -37l4 -7l8 -6l34 -19l1 -3zM370 31l-2 -12l-9 -8l-17 -7l-24 -5l-123 6l-41 -1l4 5l-1 12l5 1l-23 -2l-8 9l-26 -8l-18 -10l-3 4l-9 -13l-10 1l-29 7l-6 7l-4 17l1 11l4 3l32 15l8 6l14 53v5l4 12l-5 6l4 5l14 -3l6 14l-6 3l6 7l2 11
l-4 5v5l-10 3l-2 -12h-8l7 2l-14 6v78l4 2h-3v7l10 3l-2 16l-3 3l3 7l-3 4l14 -4l-9 8l5 9l-7 1l7 10l-5 4v13l4 4l-4 13v11l-4 1l2 2v8l5 1l-2 11l-3 9l-9 7v56l5 1l1 13h2l-1 8l-6 -2l-1 25l5 4l2 1l7 -3l5 10l1 5l-1 6l-2 4l-7 8l8 3l-7 3l-1 7l5 -1l-2 7l8 9h4l-21 19
l-2 1l-14 -3l-10 7l-26 9l-6 18l3 15l8 8l21 6l12 1l4 -14l6 5l-2 10l10 2l46 -3l2 -4l2 3h6l7 -6l1 5h8l7 -7l-9 -6l5 -6l2 4h5l3 4l7 -3l7 7l11 5v-3l18 -5l3 4l11 -1l7 3l8 -9l7 -1v7l11 -3l6 -5l3 4l-1 13l11 1l25 -3l9 -10l1 -4l2 -196l-7 -6h6v-10l-4 -6v-10l-15 -5
l3 -10l6 1l7 11l3 -239h-5l5 -6l-3 -59l-3 -3l-6 -16l-10 4l-2 -9l8 -3l-2 -19l-9 3l8 9l-4 6l-6 -12l-12 -2l6 -3l-1 -6l6 -7h4l1 7h5l11 -6l1 12l14 -3l1 -6l12 -3l5 5l11 -7l13 -6zM623 472l-1 5l-5 3l1 -3zM548 354l-2 9l-11 7l1 -9l4 -11zM260 595v5h-4v-5h4zM256 593
l-5 1l-3 -6h6zM233 603l-3 6l-14 -10v-4l2 -3l2 -2l3 -1l9 4l-2 6zM251 580l-3 4l-5 -2l-5 -14l6 -3h6v4l-5 2zM243 558l-8 5l2 -6l-11 3l-3 -10l9 -9l-9 -2l-4 -7l8 -4l8 11l1 8h-2l-2 5l4 -4h6zM103 661h-7v-9l6 2zM650 114l-5 -1l2 -11zM630 128h-4l1 7l-7 2l2 9l-7 -5
l-4 -15l9 2l-5 -8l14 1zM94 655l-4 4l-9 -3l8 -3zM111 608l-8 5l3 5h3l-3 6l-7 5l-7 -19l-2 4l-8 -1l-4 11l-6 -3l1 -3l12 -12l14 -2v-8l6 -3l2 12zM406 297l-7 8l-1 10l-8 2l-5 -3l1 -11l-4 -3v-7zM297 400v4l-4 5l-19 -14l-2 -11l7 -1l3 1l2 4l-4 8l11 -3zM630 31l-1 9h-8
l-2 -8zM576 27l-15 1l-1 -6zM559 18l-1 3l-2 2l-6 -1v-5l-7 1l-3 -5l10 -2l6 2l2 3zM268 22l-7 8h-5l-2 -3l2 -5h12zM226 27l-8 5l-11 -9h5l6 -5l7 4zM181 24l-5 4l-10 -8h11z" />
    <glyph glyph-name="S" unicode="S" horiz-adv-x="618" 
d="M529 652l-3 -4l-7 11l6 3zM540 471l-1 -6l-5 -5l-13 -4l-15 -2h-3l-16 11l4 4h8l-3 3v4l-8 4l-5 -7l-1 -5l-31 56l-24 30l-14 14l-23 16l-64 28l-2 3l-5 30l4 20l6 6l13 4l52 -10l17 -7l9 -6l1 3l13 -4l4 -6l11 -22l10 -5l-3 26l4 1l-3 4l23 18l6 4l9 1l9 -2l5 -4l4 -10
l3 -3l-1 -6l7 -6h7l4 -9l2 -11l-4 -34l-12 -12l7 -4v-20l-7 -11h7l2 -8h5zM162 646l-3 -7h-8zM582 209l-5 -46l-3 -9h-5l-4 -8l-4 8l-5 -2v-5l6 2l-2 -15l-13 -9l1 -5l4 -2l5 9l9 3l-4 -10l-15 -27l-7 -8l-5 10l5 2v9l8 1l-2 13l-12 -4l-3 -3l-6 -1v-5l-3 -2v-7l-8 6h-7
l-21 -20l-13 -5l1 -7l9 -8l-9 1l-1 -4h-2l7 -20l-13 2v-4l-6 -1l-6 -6l-4 2l-5 -2v-3l-23 -5l2 -12l21 4l-13 -6l-56 -12l-11 -1l4 9l-22 -1l1 -8l-10 3l4 2v17l-19 4l-1 10l3 19l2 4l3 3l43 24l5 4l14 23l4 24l-5 24l-18 26l-30 20l-50 21l3 3l-19 2l-8 4v5h6l7 4l4 -2l4 4
l-2 5h6l3 9l2 3l-3 6h-4v-12l-16 -8v9l-5 8l-10 -2l-5 2l-9 -2l-39 3v10l9 1v5l6 2v8l-6 5l19 10l-8 13l-9 -1l-5 -5l-18 -6l2 -11l-2 -9l-3 1l3 -17l-10 -1l-1 4l-16 4l5 3h5v7l-28 3l-7 -6l-5 9l-15 6l1 5l13 1l1 6h11v15l10 -11v-8l22 6l6 -7l3 3l-15 25l-33 -8l-2 1
l-16 -7l1 -9l-16 1l-20 21l-10 17l-10 10l-15 37l-2 9l-6 37l4 47l8 2v6l-5 2l2 1l-1 4l6 5l1 5l-4 2l5 9l9 7l8 10l-5 3l14 20l5 -1l22 23l5 10l5 7l-6 7v4h15v10l13 -6l-5 -1l-3 -12l7 5l4 12l13 5l6 6l8 1l2 5h-6v4h20l13 4l1 5l17 -1v10h10v8l25 3l18 -5l8 -8l4 -16
l-3 -19l-3 -11l-52 -32l-8 -12l-4 -25l7 -33l21 -29l35 -22l139 -45l39 -15l24 -13l6 -9h8v-11l6 -4l3 -7l-5 -2l-1 -13l14 -4l5 -4l3 -6l2 -11l-3 -10l10 -5l7 -7l9 -6l1 11l-14 3l-4 11l10 -8l12 8h4l2 -4l-2 -4l8 -9l-3 -3l8 -11l3 -11zM531 92l-7 2v-6l-3 -1l-3 4l3 6h6
zM492 77l-3 -5l-6 2l1 4zM496 62l-5 1l-1 -4l-2 10zM290 27l-1 -3l-10 -7l-1 -12l-4 -2v-6l-19 -1l-10 2l-11 3l5 10l-7 1l-10 -9l-2 10l-17 4h-8l-1 2l-18 1l-4 11l-38 -16l-27 -18l-19 3l-15 4l-8 6l-6 10l4 2l-1 16l3 2l-2 6l4 5l-2 6l4 8l-3 13l8 5l-4 9l-10 3v12l1 25
l-7 52l-7 39l2 8l5 5l20 3l20 -2l6 -3l13 -25l8 -24l-2 -10l-5 -10h-6v-11h8l3 -11h10l4 19l9 -9l25 -33l28 -24l24 -14l59 -25l12 -22v-8zM396 637l-1 7l-8 -1l-2 -4zM222 647l-9 4v-6zM194 643l-6 1l-3 -5l6 -2zM216 609l-1 13l-10 -12zM528 284l-4 10v-12zM520 301l-7 6
l-11 -4l-7 11l-4 -1l-1 -6l-5 -3l-2 -6l6 -6l2 -7l7 6l-1 5l2 -4h5l5 8l7 -3zM520 272v7l-6 -2v-8zM483 288l-7 8l-4 -6l7 -8zM497 269l-5 5l3 -11zM534 240l-14 13l-6 -7l-12 -1l1 -5l14 -11l-3 -17l1 -15l-2 -2l-2 4l-3 -12l5 -6l4 12l12 9l1 4l-2 7l-7 13l10 1zM310 251
l-7 1l-8 -6l10 -1zM207 332v7l-13 -5l4 -3zM192 332l-6 8l-8 -3l1 -5l3 -4zM189 289l-6 -1l-3 -4l8 -3zM144 331l-7 15l-8 5l-4 -5l-13 1l-1 -5l7 1l5 -10l2 3l10 -4zM90 359h-5l-4 -5l7 -1zM119 322l-4 2l-3 -8zM268 12l-9 2l-12 -2l-2 -3l1 -5l6 -2l5 7l7 -3z" />
    <glyph glyph-name="T" unicode="T" horiz-adv-x="649" 
d="M632 450l-1 -11l-3 -5l-10 -5l-23 -4l-15 2l-5 4l-3 5l-23 59l-23 48v7l-3 15h3l5 7l-13 6l-26 10l-15 35l-1 13l3 15l11 11l4 1l55 -5l59 4l12 -6l3 -3l2 -52v-80l-2 -7l-2 -5l-12 -15l-6 -11l7 -2v-3l13 -1l-5 -11l7 2l3 -3l-6 -21l6 1v4zM512 29l-2 -9l-11 -10
l-48 -12l-102 6h-53l-7 1v7l-23 2l-21 -3l-51 -9l-40 8l-6 3l-5 6l-1 6l2 21l57 25l2 3l4 38l2 36l5 -3l2 19l4 14l-5 9l-5 1l1 9l7 1v9l-10 -3l2 49l4 -4l-2 8h6l2 -5h4l3 9l-6 39l-3 9l3 4l-3 22l4 1l-4 14l3 3l2 13l-11 4l6 19l-4 9l-7 11l5 4l-3 2l4 5v4l-6 1l1 214
l30 15l-2 9l62 -6l112 6l25 -5l5 -5l4 -21l-2 -9l-8 -9l1 -11l-1 -9l6 -15l-3 -3l7 -7v-4h-8l-3 -7l4 -1l1 -4l-5 -6l11 -15v-15l-7 -5l5 -11l-1 -9l4 -6l-1 -48l-13 4l-3 -4l9 -6l-3 -2l2 -13l-1 -12l3 -11l-7 -15l4 -9v-10l3 -10h-3l-4 -8l4 -2l-2 -9l12 -4v-4h-7l-1 -6
l3 -3l-5 -3l1 -4h7l-1 -4l3 3v-4l-10 -2l8 -7v-7l-6 7l1 -9l7 -1l-1 -3l-8 -2l3 -9l1 5l7 -11v-3l-3 -48l1 -24l-5 -2l-3 1l-3 -21l1 -7l3 -11h4l1 -13l2 -6h-4l-1 -5l-7 -5l8 -5v-3l-5 -3l4 -15l-17 1l3 -7l-2 -5l-8 2l-5 -3l10 -15l13 -5l7 -7h-15l4 -7l7 1l7 3l-2 8h6
l3 13l12 -8l43 -15l3 -8zM171 614l-2 -6l-10 -13l-3 5l-9 -4l-12 -8l-3 -5l-14 -32l-6 -6l-1 -11l-13 -22l6 -6l-21 -66l-5 -4l-12 -5l3 5h-6l3 7l-10 3l-6 -10l-5 -2l-2 -5l-19 7l-4 5l-3 17l11 103l-4 43l3 9l-3 7l4 4l-4 -2v10l7 -4l6 5l-3 2l3 3l4 -2l4 12l-6 3l-2 6
l-5 3l82 -4l10 5l8 -12l4 9l7 2l1 5l8 -11l-8 -1l-9 -7l8 -8l-1 5l4 4l5 -10l-10 -7l3 -6l5 -2l3 1l19 9v-18zM612 465l-3 10h-11l1 -9zM602 459l-8 -3l5 -3zM416 605l-8 6l-2 -15l7 -2zM426 546l-5 12h-4l-1 6h5l1 4l-6 -1l-2 16l-4 -4l-5 4l-10 -12v-14l10 -6l-2 -8l14 -3
zM413 510v7l-5 -8zM248 485l-18 -4v-6l12 2zM228 486l-13 -2v-2l1 -9l7 11zM219 220l-6 -7l5 -1zM252 170l-1 9l-4 -7l-1 -7zM255 162l-21 -24l4 -5l5 4v8l11 4zM216 126l-2 11l-3 -11h5zM216 110v10h-4l-3 -7z" />
    <glyph glyph-name="U" unicode="U" horiz-adv-x="699" 
d="M690 634l-3 -15l-56 -26l-10 -7l-7 -10l-5 -37v-41l-4 -25l2 -11l-4 -3l1 -8l-8 -18l-1 -9l14 -8v-3h-8l-4 -18l4 -7v-4l-3 1l3 -12l9 3v-228l-5 -7l1 -5l-3 -5l2 -9l-8 -17h-3l-5 -9l-8 3l-6 -6l-16 -3l-13 2l1 -5l8 -9l-7 -11l2 -10l8 -7l-7 -8l-55 -31l-50 -12l-8 1
l-10 2l-5 5l-5 15l-1 10l4 23l4 4l60 26l16 11l9 8l4 -7l7 -1l-7 14l9 13l11 23l5 56l-1 50l9 -4l-4 -2v-3l3 -3l7 8l3 1l-7 17l-11 -3l-1 41l2 21l5 15h12l1 7l-7 11h9l-1 6l-9 4h8l-6 10l4 -1l-1 5l-6 5l8 1l1 3v13l-3 6l-9 5l-7 -1l-1 6h6l-1 11h-4l-1 12h8l-3 8l-3 -3
l-1 63l5 2v13l5 21l-4 11h7l-1 24l-4 2l2 6l-5 4v4l-4 4l-3 8h-4l-5 -6l9 -3l-2 -8l-25 7l-4 4l5 9h5l-2 -3l7 -3l1 6l-4 4h-6v3l-6 -4l-2 -13l-10 1l-23 7l-10 11l-4 12l3 10l9 8l21 8l18 3l63 -2l73 3l35 -8l10 -10zM382 34l-6 -21l-10 -10l-37 -5l-51 2l-59 6l-12 3l1 6
l-20 16l8 -1l1 -4l8 2l2 7l-6 4l4 -6h-6l-1 6l-12 8v9l-18 9l-3 -18l-6 -4l-3 -4l11 -13l-17 6l-31 23l-33 48l-12 52l1 42h3l2 -4l6 -2l2 11l-9 13l-2 19l4 1v6l-6 8l9 20l-1 19l-4 17v8l20 7l3 3l1 4l-1 11l4 3v4l6 3l2 4l-23 11l-5 20l3 1l-4 14l3 1v4l-6 7l6 1l-1 11
l-4 1l2 5l-1 7l5 10l-2 12l-11 1l-3 12l9 2l-1 5l4 3l-11 4v84l-1 12l-5 13l-8 6l-33 15l-5 12l-1 6l4 14l10 10l48 10l29 -3l2 -10l27 -4l3 9l-4 1l5 3l2 -10l22 3v4h24l8 -3l8 3l2 -2l-1 -6l5 -4l-1 12l7 2l3 -9l8 2l2 6l3 -1l1 -5l16 3l-2 -8l6 1l1 8l3 -1l1 -6l7 -2h4
l19 10l10 -3l5 7l12 -1l34 -8l8 -8l3 -16l-1 -11l-12 -7l-34 -23l-5 -8l-1 -149l-8 -1l-1 -17l-11 -37l2 -5l7 -8v-5h-7l2 -4l13 -8l1 -12l-8 2l-2 -8l5 -6l-3 -9l8 -5l-4 -9l7 -9l-12 -13l-2 -15h7l3 -7l-14 -10l3 -4h3l-4 -9h-17v-3l-8 9l-9 -6l13 -19l-12 -8l5 -16l-5 1
l-9 -5l5 -6l7 -2v5l8 -2l-9 -8l5 -6h5v3h14l8 11h7l10 -15l-3 -17l2 -18l13 -38l13 -16l38 -24l3 -13zM555 323l-1 7l-4 2l5 4h-11l3 -2l-3 -6l3 -3zM556 319l-11 1v-6l8 -2zM552 300l-4 9l-5 -7l4 -4zM592 112l-10 9l4 -12zM116 579l-2 5l-8 2l-4 -2zM93 586l-8 4l2 -5
l-6 1l-4 -6l10 -6l3 3v7zM282 238l-4 10l-4 -3l4 -7h4zM258 174l-4 10h-2l-11 -11l-6 -3v-5l9 -2zM223 14l-13 10l-5 -4z" />
    <glyph glyph-name="V" unicode="V" horiz-adv-x="611" 
d="M616 639l-3 -17l-39 -24l-10 -8l1 6l-14 6l4 -14l-9 2l-17 -24l6 -5l7 -12l-6 -2v-5l-7 -5l7 -12l-12 -42l-3 -3l-3 -17l-10 -19l-3 -12l3 -3l-41 -139l-14 -31l-4 -1l-8 7l-14 43l-8 30l2 20l4 12h4l-2 -13l5 -5l6 2l-9 29l7 5l10 12l-3 16l8 1l4 22l8 -3l4 17l-11 6v13
l24 93l-5 20l-7 11l-6 4l-45 17l-1 2l-3 16l2 16l8 8l24 9l25 -8l15 3l26 2l9 -2l1 2l43 2l20 -2l20 -6l8 -8zM427 166l-14 -11l-9 -12l-3 -1l-1 4l-5 -3l-1 -5l-3 -1l4 -14l-1 6h5v-10h-8v-3l-17 -16l3 -3l-13 -7l-7 -9l7 -1l2 -5l-5 -5l5 -14l6 4l3 -12l16 -2l-2 -12
l-11 -19l-11 -9l-41 -7l-42 2l-19 3l-17 5l-9 6l-20 45l-13 46l-8 25l8 4l6 -8l7 4l-8 17l-4 14l3 18l3 1v8l4 1l3 12l-4 3l-8 -3v6l-20 -9l-4 2l-7 10l4 3l-7 13l7 3l-2 11l-6 3l-3 17l-5 11l-12 9l2 6l4 -3l-3 12l-6 12l-4 20l-6 9v4l-15 27l3 6l-2 8l-22 38l-58 165h6
l1 4l-8 6l-6 -1l-8 8l6 -4l-7 10l-11 -2l-19 11l-2 3l-2 12l3 16l6 6l19 7l10 1l1 -9l6 -1l8 5l2 -5l14 1l13 -10l-1 6h6l-1 8l19 -4l23 7h64l106 9l29 -3l11 -3l7 -13l11 1l5 -2l2 -3l2 -9l-3 -18l-41 -21l-4 -6l-3 -8l2 -20l-9 1v-13l5 -12l-2 -12l3 -8l1 -20l6 -10l10 5
l3 -3h4l2 -6h-6v-4l8 -9l8 -16l3 -14l1 -20l-5 -12l10 -21l14 -9l55 -172l4 -21l-5 -13l5 -6v-3zM454 652l-9 -1l-2 -7zM298 644v3l-7 6l1 3l-14 3l-6 -4l-8 -8l7 2l15 -4zM262 645h-6l-4 -4l6 1zM305 584l-1 7l-9 -3l-9 4l-9 -5l-13 1l-3 -2l-2 -3v-4l4 -5l-2 -2h11l8 3v-3
l6 -2l6 5l1 6l4 5zM260 609l-4 4l-20 -7l-8 1l4 -10h8l3 3v4l15 -1zM253 596l-3 6h-5v-4l3 -3zM233 579l-4 5l-6 -6l5 -5zM258 568l-22 -6l-1 5h-6v4h-4l-2 -4l-10 -1l1 -4l-7 -6l14 -9l22 11l11 4zM80 593l-3 10l-6 5h-2l-2 -4l1 -4l3 -4l3 -2zM229 91l-10 13l-3 -7l5 -7z
" />
    <glyph glyph-name="W" unicode="W" horiz-adv-x="846" 
d="M850 629l-3 -12l-2 -3l-49 -31l-18 -38l-12 -13l-11 -9l-1 -14l-13 1l-9 -6l4 -7l-1 -9l4 -1l4 4l11 -2l1 -3l4 1v5l4 2l-4 -8l-12 -3l1 -12h6v4l4 -6l-48 -156l-3 -2l-3 -1l-4 1l-3 3l-9 31l-15 60l38 137l3 19l-4 18l-13 15l-10 7l12 1l6 5l-14 13h-2l-26 -2l-1 -9
l-10 5l-6 17l3 14l12 10l18 6l87 -2l-3 -11l2 -7l15 -7l1 7h4l-1 -6h5v14l-18 -5l-3 10l6 -2l5 -5v4l10 2l13 -6l6 2v11l12 -1l21 -7l6 -6zM684 223l-1 -8l-20 -72l-4 3l-9 -15l4 -3l-1 -5l-4 -1v-6l-5 -3l-2 -5h2l-9 -6l-9 -12l-3 -11l1 -5l8 -8l9 1l-8 -28l-12 -29l-7 -5
l-50 -8l-30 2l-12 2l9 4l-4 10h-3l-4 -14l-10 4l-9 9l-10 29l-1 12h19l-14 18l-11 -6l-38 130l19 2v-5h7l1 14l-3 13l-4 6l-2 1l-9 -4l-18 5l-2 3l-1 5l1 23l-12 18l5 3l-3 8h-5l-3 9l4 6l-9 14l-22 76l-4 32l3 17l8 14v11l7 15l4 -1l1 22l5 1l1 18l4 1v13l3 1l2 16l-2 2
l6 8l3 9h4l3 -5l8 6v14l-11 -7l-1 4l8 7l7 -1l6 10l-5 1l-6 -4h-12l16 58l4 3l33 9l63 -4l14 -10l4 -7l30 -103l-16 -20l11 -6l6 6l-4 5l7 3l11 -42l-11 -4l-5 -13l4 -1l1 -5l7 -1l4 -12l11 -1l59 -204zM397 226l-3 -20l2 -3l-5 -7l-4 -22l-15 -54l-10 -15l-3 -12l-8 -3
l-13 -15l-9 -9l-22 9l1 -10l3 -6l20 -1l2 3l16 -5l3 4l-1 -10l-8 -34l-13 -11l-23 -6h-32l-51 5l-7 6l-7 15l-2 12h4v5l9 -2l5 3v5l-16 -3l-3 7l7 6l-5 15l-11 -4l-12 40l10 -5l4 -10l8 3l1 20l-13 16l-10 -2l-1 -16l-5 13l-1 9h12l6 3l-1 7l-10 4l-2 15l-15 4l-2 3l12 1v7
l7 -2l1 5l-8 9l-2 8l-5 5l-7 9l-2 11l-1 13l-6 8v13l-13 12l3 3l-1 4l3 3l-9 18l-4 3l1 4h-4l7 10l-7 5l2 10l-5 14l-1 10l-12 23l1 6l-3 8l6 -1l11 16l9 7v6l11 7l1 7l10 1l6 2l14 19l-3 3l-33 -29l-3 3l-7 -3l-15 -1l-15 -8l-9 11l-12 30l-2 24l-5 9l4 7l-6 14l-7 8h4v1
l-5 4l2 8l-13 20l-17 34l-8 7l-32 16l-2 5l-2 13l3 13l7 7l60 12l51 -4l1 -3l13 1l2 -2l23 1l8 -7l10 3v-4h19l19 6l9 -4l10 6l3 -6l13 7l4 -8l4 5l8 -4h10v12l28 1l41 -9l13 -12l3 -14l-1 -9l-3 -4l-4 -3l-36 -16l-8 -12l-1 -10l3 -22v-11l4 -2l-5 -6l1 -8l4 -1v-12l4 -1
l-7 -1l4 -12l-1 -11l4 -3l4 -14l12 -3l63 -234l-3 -9h5zM121 415l-6 -8l-4 6zM185 151l-6 -1l-3 -4l-6 19l15 -8v-6zM715 605l-1 4l-3 -6l-5 8l-1 -14l2 -3zM731 505l-26 -4l-5 -25l14 4l4 6l2 -3h4v8l-5 3l-1 8l9 -2zM581 511l-2 9l-5 -5v-7zM481 621l-2 10l-10 -1l2 -7
l-10 -3l-7 1l-10 -7l7 -2l2 -3l15 3zM298 483v12l-4 22l4 11l-3 -1l-7 14l-19 -3l8 -10l2 -4v-4l-10 -10l9 4l-1 -8l5 -6l-7 -11l11 -7zM298 458v15l-8 3l-1 -5h-2v6l-7 -2l-4 -3v-5l4 -5l4 -2zM301 416l-8 10h-5v-6l9 -8zM620 52l-4 4l-9 -5l-6 -8zM470 186l-3 -1l-2 5
l-4 -1l-1 -13h5zM501 80l-1 11l-9 12l4 15l-8 8l2 4l-13 1v-9l10 -10l-5 -10v-14h5l2 -8h13zM246 45l-3 3l-4 -1l-3 3l-4 -4z" />
    <glyph glyph-name="X" unicode="X" horiz-adv-x="662" 
d="M610 635l-3 -12l-33 -21l-12 -10l-11 1l-4 -3l1 -5h-6v-6l-14 -5l-2 -12l-5 -9l3 -3l-14 -18l-5 4l-7 -7l7 -4l-22 -31l-9 2l2 -11l-10 -15l-13 -13l-5 -2l-4 2l-10 10l-18 38l1 7l5 8l7 7l4 -4l12 -4v3l4 2l-3 10l1 10l-3 2l4 9l8 2l8 -10l7 8l-12 13l7 1v5l-5 1l2 15
l-3 8l-36 23l-2 22l5 9l9 7l26 5l55 -2l2 -4l17 4v-6l7 -6l2 3l6 1l2 -1l11 9l4 -8l6 1l7 6l10 -1l10 -5l7 -9zM658 25l-3 -9l-6 -7l-19 -6l-12 -2l-2 4l-18 -4v-2l-9 2l-2 5l-9 3l-2 -4l-13 5l-14 -6l-11 6l-10 6l-3 -3h-11l-12 -5l-10 1l-27 -4l-7 1l-14 -1l-3 2l-9 -3
l-7 5l-10 1l-2 -8l-17 -2l-6 -3v13l-30 -1l-13 -7l-22 -3l-23 6l-12 10l-4 9l2 21l29 16l9 13l8 -1l2 -2l13 6l-5 9l-5 4l4 2l-3 9l-3 7l-16 12v14l-11 8l3 3l-18 25l-9 24l-12 -3l1 7l4 1v6l-6 9l-9 -4l-5 10l-2 8l-10 13l-31 53h3v9l6 1l5 -8l15 -1l6 -10l10 -3l1 11l-8 8
l3 10l-27 7l-7 -1l-5 12l-3 -1l-11 6l-2 11v6l9 -2l-2 9l31 4v6l-5 4l7 3v4l-4 7l2 7l-14 -1l2 -11l4 -2l-5 -3l-3 -8l-5 -1l-9 19l-10 11l-3 -2l-1 -10l-5 17h4l-1 10l-9 25l-7 15l-8 10l5 6l1 3l-3 13l-3 8l-6 7l-12 1l-6 6l3 2l6 -3l6 9l-6 3v5l-4 6l-1 6l-18 -1l-2 -4
l8 -3l4 -23l-12 -2l-3 18l-6 9l-9 -11l4 -1l4 -19l-11 8l-4 12l-16 29l-3 11l-13 -1l-6 11l-17 23l-12 11l-30 19l-3 12l3 14l7 8l33 8l33 1l-1 -7l2 -2l-1 -11l5 -7l4 5l16 4v5l25 5l2 -3l13 -2l27 3v-5l7 -1l3 -4l9 3l6 -3l5 2l10 1l16 -2l34 7l15 -2v6l3 3l12 -3v6h7l4 4
l8 -1l-5 -5l21 -2l2 5l12 -1l18 -7l11 -13l4 -13l-2 -8l-17 -14l-15 -11l-4 -11l-10 -4l1 -7l5 2l5 -3l-9 -13l2 -4l9 -1l-2 -10l5 1l12 -4l106 -195l-15 -1l9 -11v-8h-6l1 -12h5l5 -6l7 1l5 -9l-5 2l-1 -8l7 -2v-8l3 -2l3 -8h4l-2 -6l4 -2v-6l3 -7l3 -1l4 -6l6 -5l-5 -28
l15 1l9 -3l4 -4l2 -11l-1 -10l13 -11l2 -9l8 -1l3 -13l10 -9v-6l6 2l1 7l5 2l4 -10l-14 -1l-3 -15l6 -6l7 -3l9 6l9 -15l25 -36l23 -15l13 -6l4 -9zM234 193l-60 -88l-8 -15l-1 -10l2 -10l4 -6l45 -21l2 -11l-6 -19l-11 -11l-24 -5l-82 5l-4 10l-12 -3l-8 3l-19 -4l-2 -5
l4 -5l-11 1l-16 5l-8 9l-3 13l2 11l2 5l43 25l3 -4l-7 -5l11 -11l4 1l5 12l-4 2h7l5 5l6 1l-4 16l-5 3v6l5 5l4 -3l8 1v9h-7l4 6l6 -5l4 4l-5 6l6 6l2 12h6l7 -2l-8 6l39 55l13 -2l5 10l16 4v13l4 5l10 6l-4 8l-8 2l10 6l3 -1l7 -5l18 -34zM246 635l-12 3v-6zM526 121
c0.666992 10 -2.33301 16 -9 18l-4 -18l-7 1l2 -9zM594 86l-5 14l-1 -8l-15 3l1 -9h-4l-4 5h-21l-5 7h-8l-1 -7l-14 -3l1 -9l-3 -5l5 -12l23 9l-3 5l-15 -1l-2 4l10 7l2 -4l17 -2l1 -4l10 -2l-7 10l9 -2l7 -4zM263 301v6l-4 -5l2 -3zM272 265l-11 7l-9 -2l-1 -6l14 -8l-1 2z
M293 220l-7 24l-11 1l-2 -7l-10 -3l-2 -11l19 -6l2 -5z" />
    <glyph glyph-name="Y" unicode="Y" horiz-adv-x="653" 
d="M650 641l-4 -18l-46 -28l-17 -18l-8 8l-23 -13l6 -14l-4 -9l-11 -11l2 -16h6l-2 -5h-5l-2 -13l-16 -11l-2 -5l6 -11h-4v-7l-5 -3l2 -6l-9 -4l-8 -17l5 -3l-29 -60l-5 -3l-3 -1l-3 1l-5 3l-5 8l-19 45v3l4 15l49 104l6 25l-4 15l-4 7l-44 20l-4 10l-1 10l2 10l7 7l13 7
l16 4l48 -1h56l-10 -5v-7l12 2l5 -4l15 -3v7l5 -3l-1 -7l6 -3l4 3l7 -5l9 3v14l10 -8l1 -3zM521 33l-3 -13l-8 -7l-18 -6l-40 -6l-22 1l-3 13l-10 -5h-9l-3 4l-16 -1v-10l-5 9l-7 5l-12 -1l-17 1l-23 -6l1 -3l7 2l3 -2l2 4l19 -7l-45 2l6 2l-5 5l-16 -8l-36 -6l-18 4v-4h-25
l-4 8l-8 -2l-1 5l6 2l-4 3l1 6l-8 2l-7 -4v3h-7v-9h-6l-1 -7l-16 3l-7 6l-5 7l-2 9l2 10l6 9l43 15l12 7l2 -2l2 1v-7l5 -4l-4 -9h14l6 3l-9 4h7l-7 4v4l6 1l-5 1l-3 11l4 -2l1 7l10 5v8l-5 -1v14l4 4l-4 5l3 4v8l7 8l-7 9l-7 -4h5l-10 -7l-3 -4l-1 -6l3 -12l-1 -3l-2 -3
l-7 -1l-1 47l2 24l-5 86l-33 73l-10 38l-10 15l4 8l-12 14l5 3l-6 14l-8 6l1 4l-4 6l-1 5l-9 7l-16 18l-5 10l12 5l-1 13l-20 -1l-9 16l-2 12l-10 8l-26 51l-16 11l-27 14l-4 18l2 12l3 5l7 4l15 3l1 -7l4 -4l2 9l-6 4l7 1l6 -13l9 -3l1 4h14l19 4h4l3 3h16l1 7l41 -3v-4
l10 -1l1 -5h18l-7 9h13l11 -10l13 6l4 -2l10 10l12 -7l3 -6l10 9l-1 3l10 3l41 3l43 -4l12 -3v-7l18 -7l1 -1l1 -16l-1 -7l-4 -5l-34 -19l-5 -14l5 -23l14 -34l2 -10l-4 -1l-2 6l-1 -13l-5 -10l-16 2l-2 -11h24l9 -6l17 1l5 -10l-5 -1l-8 6l4 -13l15 -1l12 -28l44 -83
l12 -46v-11l-13 -1l-9 3l-6 -3l-3 -9l5 -5l-10 -3l1 -11l7 1l8 -5l-1 -15l4 -4v-6l6 9l-4 12l12 -6l-3 -10l2 -5l-4 -8h-4l-2 7h-5l5 -8l-10 -5l8 -7l7 3l3 -7l-4 -11l9 2l2 -5l-5 -4l-3 -11l2 -3l-4 -6l-1 -9l-6 -2l-2 -7l5 -5l5 8l8 -1v-8l-4 -4l-3 -9l-9 -1l3 -3l-1 -13
l7 -9l-1 -7l8 -3l-7 -6h9v-12l4 -10l4 -6l52 -18l5 -12zM222 102l-1 -5h-4l-1 8zM304 458l-4 8l-6 -2l2 -8zM141 537l-10 -2l1 8l-19 1v-14l11 -3l4 -9h9zM217 287v4l-3 3l-5 -1l-1 -9l7 -1zM239 2l-3 6h-9l8 -7z" />
    <glyph glyph-name="Z" unicode="Z" horiz-adv-x="578" 
d="M488 535l-10 -17v13zM268 651l-10 -29l-7 -11l-51 -22l-8 2l-8 -4l1 -7h-8l5 5h-15v-15l-1 -2l-27 -19l-20 -21l-44 -58l-18 -3l-23 7l-4 3l-1 6l2 10l5 7l5 2l1 14l7 1l5 15l5 1v7l8 7l-8 7l-4 -8l-6 -4l1 9l-6 -1l-10 -10l3 12l6 10h-7l-1 19l2 16l-2 48l7 14l4 3
l74 -1l101 3l17 -6l28 5zM560 646l-15 -38l-15 -29l-10 5l-9 -3l3 -7l-11 -4l-4 -4l5 -4l-11 -13l2 -11l-15 10l-6 -4l-2 -5l-11 -7l3 -11l-5 -8l5 1l-5 -9l-12 -9l-3 -10h4l4 -8l8 -3l-5 -5l4 -2l-4 -10l-16 -28v-13l-4 -10l-4 -2l-4 -11l-5 -7l-1 -9l-16 -26v-5l-7 -4
l-1 -17l-6 -7l-1 -9l-6 -5l-4 -8l6 -6l-5 -6l3 -2l-6 -6l4 -9l-5 -1l-9 5l-8 -7l3 -2l-3 -6l-9 6l7 16l-1 5l4 -2l4 8l-5 1v5l-8 1l-11 -8l-8 -1l3 -7l-2 -14l-5 -4l2 -5l-10 -4l-13 -23l-15 -6l4 -2l-1 -5l5 1l-4 -3l-2 -9l-6 -2l6 -6l-11 -3l-5 -5l7 -13l27 24l3 1l1 6
l21 8l3 6l-3 4l21 -4l-3 -3l4 -7l-72 -151l-34 -54l-12 -8l-20 -2l-68 4l-12 3l-10 -1l-3 6l-8 -1l-8 1l-8 -3l-5 10l-4 2l-16 1l-21 -2l-4 -2l-7 -10l-10 3l-5 -8l-13 5l-4 6l-2 8l7 27l41 83l11 -6v3l6 4l-3 7l9 4l-5 -17l6 -2l14 2v24l-4 5h11l4 10v9l-11 -3l-7 7l6 8
l-1 12l9 -8l3 1l1 5l4 1l-1 5l11 -1l5 3l-7 5h-8l-2 -2l-3 3l5 11l-4 2l-2 12l9 -2l-4 -4l3 -7l6 -3l4 13l-4 -1v14l-4 2l5 3l10 15l-2 -18l8 13l-4 18l9 -1l2 6l7 4l-2 14l12 3v14l6 -2l3 11l8 13l1 11l13 6l3 7l6 3l1 -4l14 7l2 8l8 14v14l-6 2v5l12 5l-2 11l16 3l4 6
l-4 6h-6l-1 5l-10 -1l-2 6h6l-1 14l-3 2v6l11 8l-2 15l-5 1l2 2l12 -1v3l-8 7l10 -1l2 4l5 -1v9l-11 7l59 119l9 10l11 6l15 -10l16 3h11l7 9l-1 -8l10 -4l11 7l14 -1l8 3v-5l14 1l9 3h38l2 -4l11 4l-1 -4h6v5l6 -8h5l-2 8l14 2l31 -5l6 -6zM218 376l-4 -7l-5 11h-5l12 7z
M562 184l-8 -73l-3 -60l-21 -4l-1 -6l8 -11l14 5l2 -10l-6 -14l-9 -9l-21 -4l-106 8l-62 -4l5 5l24 5l2 6l-1 3l-2 2l-4 1l-18 -6l-31 -4l-19 -5l3 21l24 38l11 6l32 12l16 7h8l6 7l10 1l8 6l-13 -17l13 8l2 7l5 2l1 4l12 1l2 5l5 -1l-1 -5h13l5 8l4 3l9 -4l3 9l-7 7l7 -4
l6 1l-7 12h-4v3l-3 -2v-7l-5 -1l2 11l20 40l21 17l20 4l21 -5l5 -5zM340 1h-10l10 4v-4zM91 156l-5 -8l-3 4zM162 581v5l-11 14l-3 -9l-9 -11l-3 -5v-5l3 -13l7 2l3 14zM251 461l-1 16l-8 -1v-6l4 -11zM367 305l-1 7l-6 2l-5 -8l9 -4zM60 579l-8 6l2 7l-6 -1v-5l-6 -5l-2 -5
l3 -10l12 5zM505 28l-7 1l-5 -9l-10 7l-12 -4l2 -5h14l7 -2zM289 213h-11l-2 -4l4 -3h4zM119 185l-10 4l-4 -4l3 -3h6l2 -4z" />
    <glyph glyph-name="bracketleft" unicode="[" horiz-adv-x="425" 
d="M371 6l-4 -29l-4 -5l-9 -3l-19 2v6l-47 3l-3 -15l-59 3l-11 3l-6 7l-52 7l-15 6l-2 -15l-4 1v8l-13 8l13 -1v6l-5 1l4 4l-13 1l1 3l-14 5l-10 61l-4 66l-1 105l-3 36l1 23l3 1v7l3 1l-1 7l-3 3l7 2v15l-4 9v7l4 4v3l4 2l-4 22l6 1l-4 25l9 5l2 30l-7 -1l-3 8l10 -3l7 3
l-2 18h-7l1 4h3l1 3l7 -1l-2 27l-11 -1l-1 -7l-5 12l-10 5l7 5l2 -2v3l8 2l-1 7l-4 5l7 3l1 17l-7 -2l-2 1l-2 -7l5 -4l-1 -5l-13 -13v15l6 11v11l13 -5l8 4l1 10l-5 5l-10 2l2 -2l-12 -2l4 55l4 5l11 1l3 3l-3 15h4l3 14l11 -1l3 5l-2 9l1 -1v3l11 12l7 3l144 9h26l4 4v-9
l5 4l9 -3l-8 -4v-10l-2 -9l13 -6l3 1l11 16v11l6 -12l3 -14l-6 -27l-29 -35l-8 -28l-22 -2l-9 -5l8 -7l-9 -4l-1 -8l6 3v-10l10 1l2 -10h9l-6 -7l-14 -2l-1 -6h3l1 -3l19 11l-3 -162l2 -28l-13 -31l-1 -24h-2l-6 -12l15 -28l-4 -5l2 -5l-3 -6l1 -8l-5 -2l-1 -9l-4 -6l2 -3
v-13l-3 -1l1 -6l13 -7v-3h-5l-4 -9l3 -3l-6 -9l3 -4l-5 -11l-1 -30l-4 -27v-11l10 -4l4 -11h3l-2 -4l-5 -2v5l-7 3l-8 -6l1 -5l2 1l4 -7h4l2 3l9 -1l4 10l10 -1l-9 -17l6 -8l6 10l4 -10l4 8l4 -1l2 -9l6 6l1 -4l6 2v-6l12 2zM300 546l-9 -3l-3 3l-5 -10l5 -10h7l-2 6z
M171 311l-14 13l-1 -14l10 -12zM137 335l-3 5l3 6l-5 -1l-2 6h-4v-9l-3 -2l-2 -10l-8 -18l4 -11l-4 -8l4 -14l11 -4l2 5l-3 5l6 18v10l-4 3l-2 5l5 3l1 5zM129 213l-7 7l-9 1l-3 -6l12 -3z" />
    <glyph glyph-name="backslash" unicode="\" horiz-adv-x="448" 
d="M418 -28l-14 -8l-47 2v2l-18 9l-3 -2l-1 -5l-4 3l2 10l-5 -2l-4 9l7 10l-7 1l3 5l-7 2l-13 18v14l-9 25l-4 3l-1 -5l-4 3l2 8l-1 2l-4 -2l-17 41l-4 5l-4 13l-79 168l1 2l-45 94l-9 32l-15 31l-7 9l5 4v4l-5 3h-6l-5 11l-8 31l-15 31l-8 9l5 4l1 4l-10 14l4 1l1 6l-6 4
l1 10h-4l-3 23l-17 29l-2 23l8 4v9l-3 8l44 -2l11 -8l-5 -4l-6 -17l12 2l-4 -9h8l-4 -3l-1 -4l13 -5l1 -12l6 -6l4 -17l5 1l-2 -5l-7 -1v-4l11 -1l11 -9l-2 -1l7 -5l1 -9h5l-1 -7l5 -6l9 -19l-5 -5l2 -9l8 2l108 -240l-6 -4l2 -9l4 -1l24 -38l8 -17l-9 -1l6 -21l5 -7v-2
l16 -13v-7h2l3 -5h3l-2 -5l18 -33h-3l-1 -6l7 -9h4l17 -40h2l2 -14l-4 -3l1 -3h4v-3l5 -3l-1 -7l6 -2l-1 -9l6 -9h5l19 -46z" />
    <glyph glyph-name="bracketright" unicode="]" horiz-adv-x="424" 
d="M333 250l-4 3l2 12l-2 3l-4 -2l1 7l7 2v-25zM333 482l-6 -3l-9 -20l12 -4v-9l-6 -4l5 -3v-8l-6 -2v-4h3l-4 -4l-3 -6l5 -2h-13l3 -30l-3 -8l-1 -11l-4 -4l1 -5l-5 -6l-11 -25l6 -3l1 -6h12l10 -3l4 -12l-9 -5l7 -6l-5 -4l6 -7l-2 -11l4 -5l2 2v-2l-4 -1l-5 -24h14
l-4 -139l-7 -61l-11 -38l-11 -12l-9 -6l-9 7l-10 -3l-4 6l-12 1l3 5l-9 4l-4 -2l-6 3v-4h-4v-4l8 -1l-3 -7l-22 -3l3 -10l-5 -3l-78 -4l-62 2l-13 5l-8 35l2 9l32 42l14 72l3 2l5 -4l7 28l-4 8l3 9l-4 7l6 54l9 13l-1 12l-10 15l6 3l-6 8l4 6l-3 7h3l2 24l-2 2v5l-3 3l2 13
l2 -1l4 5v4l-8 10h7l-1 21l7 3l-4 12h8l-2 11l-18 6l-1 -2l-6 4l3 4l-4 1l4 2l-3 6l3 3l-4 3l-2 9l4 2v9l-9 14l3 31l-6 77l-9 37l-31 33l-3 23l5 22l5 5l56 8l8 -10l16 -6l5 6l7 -5l28 3l3 10l53 -2l5 -4l14 -4l4 5v-6h7l5 -12l8 3l5 -4l4 -10v3h8l8 -12l4 -2l-1 -6l-4 -5
v-10l4 -3l-3 -11l1 -13l8 1l-10 -19l11 -5l-1 -5l7 1l-1 -5l2 -2l-5 -12l5 -3l-1 -5l4 -2zM131 616l-4 13h-6l-4 -4l6 -7l-9 -2l13 -9l-1 8zM110 629l-2 19l-11 -18l3 -7v-11l3 -2l4 4v6zM325 215l-1 14l-7 -3l-6 -15l2 -8l10 -3zM108 31l-3 12l-15 3l-4 -9l-6 1v-5l8 -8
l8 7l6 -5z" />
    <glyph glyph-name="asciicircum" unicode="^" 
d="M367 0h-334v667h334v-667zM360 7v653h-320v-653h320z" />
    <glyph glyph-name="underscore" unicode="_" horiz-adv-x="500" 
d="M500 -253h-500v120h500v-120z" />
    <glyph glyph-name="grave" unicode="`" horiz-adv-x="300" 
d="M267 744l-2 -7l-4 -5l-10 -6l1 16l-14 1l-20 -6l-9 1l-4 -4l12 -2v-5h-10l-2 -5h-11l-1 3l-27 -1l-10 3l-34 36l-8 14l7 -1l-9 11l-5 4l-3 13l-5 -7v14l-3 6h-6l-3 -3l7 -15l-14 21h6l-2 7l-5 3v4l-3 1v6l-14 3l-2 6l-15 5l-11 18l5 21l10 4l18 2l10 -2l1 -7l17 3l-1 -6
l3 1l2 -4l14 -1l59 5l-3 11h19l11 -4l7 -7l20 -42l9 -26l-9 2l-3 -3l-1 -16l2 -23l13 7l6 13l4 -16l2 3zM108 837l-4 4l-16 -6v-7l18 -1z" />
    <glyph glyph-name="a" unicode="a" horiz-adv-x="676" 
d="M664 28l-3 -14l-9 -8l-41 -9l-11 -1l-4 8l-9 1l-2 -6l-11 -3l-19 2l-7 10l-14 -3l-10 -6l-3 5l-9 -2l-6 4l-1 -4l-1 4l-13 -1l-20 -4l-14 2l-21 10l-28 -4l-6 -7l-5 4h-7l-8 -4l-23 -7l-20 3l-19 5l-6 2l-7 7l-4 13l1 8l4 12l41 21l8 19l7 7h-4l1 9l5 1l-2 8l-11 6l-5 18
l3 1l-4 16l4 1v4l5 3h-3l1 8l11 -6l3 1l3 3l2 5l-3 7l-10 5l-6 9l-15 -8l-1 10l-25 -11l-47 3v4l-7 3l-5 -2l-1 7l3 5l-1 2l-5 6l-8 2l-7 -2l-6 -5l-2 -3l3 -13l-6 -5l-8 3l-4 4l-1 8l2 15l12 22l6 10h53l26 4l5 4l1 14l-17 63l3 6l-5 11l-1 23l2 1l1 4l-7 4l-1 12l-8 4
l-3 38l2 2l-1 10l4 11h-5l-7 9l2 4l11 3l-2 7h-11l-4 7l6 -1l1 5h-4l-6 10l5 3l2 -3v16l-16 3v14l-5 1l-6 12l3 8l-7 21h-1l-2 6l6 2l-10 12l-2 6l3 12l7 10l9 5l10 2l-4 -15l14 -4l1 4l19 3l18 -4l5 4l4 -5h7l5 10l-1 3l-10 1l-10 -4l5 13l1 -6l8 -1v9l11 1l84 32l10 2
l9 -2l16 -13l7 -14l34 -127l-15 -1l-10 -3l4 -6l6 -2l-4 -22l10 -15l-4 -17l4 -11l14 2l2 -24l3 -1l-1 -23l20 -7l-6 -2l1 -9l6 -7l-10 -13l5 -13l4 1l2 -3l6 -2l1 -21l1 -1l7 -5l1 -28l3 -1l3 -5l9 -2l2 -5l-9 -2l-2 -5l4 -1l1 -17h6l2 -4l7 -1l2 -11l-7 -3l9 -3l13 -52
l-10 1l5 -8l8 -2l14 -56l19 -39l6 -5l34 -21zM243 425l-3 -25l-6 -17l-11 1l-2 -1l-6 -8l-1 -4l7 -12l-6 -2l4 -4l-3 -17l5 2l-70 -239l-9 -1l-3 -9l17 -4l2 3l7 -14l6 -8l37 -15l8 -6l5 -12v-3l-4 -14l-12 -12l-33 -8l-83 4l-1 10l-33 -5l-14 -5l-15 2l-14 5l-6 6l-3 9
l-2 9l1 8l3 6l38 21l18 23l8 7l7 11l2 11l10 2l13 17l4 8l2 11l-5 5l-1 8l-5 3l1 8l8 1l1 12h8l10 29l1 38l9 22v12l9 15l-1 14h14l9 4l1 3l6 55l5 10l-1 7l3 9l5 1l1 13l-7 5l19 63l8 20l4 4l4 1l4 -1l4 -4l7 -19zM490 528h-14l-4 -6l17 -2zM351 626l-1 8l-13 -4l11 -7z
M355 609l-5 7l-1 -14l5 -2zM492 425h-19v-6l2 -3l6 -3l3 1zM514 381l-1 7l-4 -7h5zM588 142v10l-7 3l-2 -5h-4v-9l6 -3zM559 158l-13 1l6 -8zM377 325l-3 5l-7 -3l5 -4zM585 103l-6 2l5 16l-4 -1l4 9l-9 4l-21 4l-3 -6l17 -7l6 -5l-12 2l3 -20l-4 -4l8 -15l-6 -6l3 -6h14
l-2 13zM376 284l-4 7l1 6l-3 5l-16 -3l-2 -7l-8 -4l-1 -14l-7 1l-1 -7l4 -8l4 4l2 -4l6 5l13 -3l-6 4l9 4l4 13z" />
    <glyph glyph-name="b" unicode="b" horiz-adv-x="683" 
d="M663 175l-5 -36l-14 -46l-10 -11l-12 -3l1 -7l-6 -3v-8h-3l-5 -5h-25l-13 -3l1 -7l-11 -2l-23 -7l-11 -6l-11 -3l-10 -7l-11 -1l-1 -7l-2 6h-6v-8l-3 3l-5 -3l1 -8l-6 -2l-8 5l-2 -3l-29 -3l-3 1l2 3l-10 4l-7 -4l1 -4l-31 1l-26 8l-8 8l-2 16l2 21l3 4l35 20l3 -2l17 9
l14 13l-7 4l6 3l6 -5l6 6l-4 1l4 9l4 -1l6 9l-4 14l-13 -3l-2 -10l-11 -1l-6 -7l-1 -12h-3l6 55l-1 32l-5 86l-6 24l-3 7l-43 24l-1 2l-2 12l4 26l34 20l8 8l7 16l7 34l3 11l4 -4l13 1l10 15l-8 5v9l-23 12l-8 69l-4 8l-23 21l-23 12l-2 5l-1 17v8l4 14l7 7l19 5h16l3 -7
l3 -2l5 -2h10l9 13l4 -5l17 5l15 -8l25 4l30 -5l7 -7l9 1l7 -6l9 3l3 -4v-16l18 -5l-2 -17l11 -6l8 -10l3 1v4l16 -7l1 -10l4 -3l1 3l11 -3l1 -4l-3 -2h-7l-1 -4l-7 1l-5 -14l6 -10l-4 -4v-5l6 -6l11 2l16 -1v-11l-9 -4l14 -4l2 -13l-6 -5l6 1l-6 -22l-2 2l-7 -6l-1 -7h-8
v-9l5 -6l-13 -9l9 -4l7 2l-8 -12l-7 8l-1 -6l-4 -2l4 -5l-6 -1l2 -9h6l-8 -8l-27 -20l-22 -10l-35 -9l-7 -9l47 -15l12 -9l1 -4l4 -3l-3 -10l16 -5l-2 -4l14 -12l2 -4l6 -5l5 -8l5 5v15l5 -3l2 -8l5 2l8 -12l15 -34l2 -12l-8 2l-5 -5l15 -3l2 -12zM586 36l-12 3l9 4zM567 27
l-6 -7l-19 -5l14 12h11zM319 61l-2 -17l-1 -25l-10 -10l1 -5l-12 -2h-16l-82 4l-7 14l-8 -1l-2 -13l-1 4h-7v-5h-5l-6 22l-32 -9l2 -5l-13 -2l-4 3l-3 -1l3 -11h-35l-20 3l-23 9l-8 9l-2 9l3 14l42 24l3 3l5 13v17h3l1 10l4 10l-6 14l7 2v22l-7 8l4 18l-2 12v13l5 5v7h3v7
l-4 6l11 9l-1 9l16 -1l2 10l14 5v-4l5 5l-2 12l2 -3l6 13l-9 2l-9 -18v12h2l2 8h3l8 12l1 5l-8 -1l-8 2l-7 -1l-5 5l4 -1l7 18h4l1 -3l6 -1v4h-5l-3 8l6 -1l2 -4h4l-2 8l5 4l-5 11l-5 4l-11 -9l2 -9h-7v-18l-7 -3l2 -3h-9l-10 -7h12v-10l-7 -15l9 -11l-5 -13l-2 3l-4 -8
l-9 -10l-4 28l-1 78l12 -6l6 12l15 11l5 9l7 -3l1 -5l5 -1l-1 -7l5 1v11l7 8l-7 6l2 3l-8 3l-1 -7l-11 2l-1 -5l-8 -13l-3 4l-11 -10l-4 -10l-9 2v27l3 15l-2 2l2 5h4l3 10l2 13l-1 7l-2 3l-10 8l5 40l6 14l-3 9l5 7l2 10l-15 4v20l-3 29l-5 8l-5 4l-35 17l-4 10l-1 7l4 15
l9 8l30 7h29l-9 -6l11 -2l5 -5l11 2v6l9 2l3 -12l18 -2l-5 8l3 3v5l7 -1v-6l6 -3l5 -6l8 1l7 12v-5l8 -2v-7l22 11l-4 3l10 -1l81 7l14 -3l6 -7l2 -58l1 -76l-17 -35l-3 -12l-7 -2l8 -9l8 -4l1 6l8 -3l-2 -12l2 -2v-14l-4 2l4 -7l-1 -9l3 4l1 -12l-4 -8l3 -3v-6l-6 -2l6 -4
l-2 -10l3 -11v-27l-4 -16l4 -4v-45l-2 -20v-40l-4 -18l5 -8l-4 -10h4v-16h-6l-6 -11l-2 -9l-1 -12l-7 -34l-1 -13l7 -1l1 -13l-24 -11l6 -17l10 4l7 8l8 3l4 13zM163 5l-16 -2l-1 5l13 10zM617 517l-8 6l-8 -2zM426 545l-2 6l-2 3l-9 4l2 -33l8 -7zM433 511l-12 4h-5l-2 -9
l8 -6l9 1zM535 210l-14 2l-9 -4l1 -4l-6 -4l21 5zM510 186l-3 12l-9 5l-1 -12l8 -1zM499 183l-9 10l-10 -4l-7 -6l-5 -16h8l-1 -8l10 10l2 -3l11 7zM470 155v5l-5 -1l-3 -5zM138 412l-7 4v-9zM111 354l-6 2v-8zM142 319l-2 6l-13 4l-3 -6zM447 4l-4 13l-8 -3l-1 -2l1 -5z
M101 331l-3 7l-5 -4zM142 254l-17 2l-1 5l-2 -10l8 -1v-5l9 4zM90 273l-2 7l-3 2l-2 -2z" />
    <glyph glyph-name="c" unicode="c" horiz-adv-x="605" 
d="M582 447l-2 -12l-3 -4l-4 -3l-17 -3l-24 3l-8 8l-8 18l-1 13l-7 1l1 7l5 1l3 7l-11 3l-8 5l-27 49l-25 28l-26 21l-54 30l-4 24l2 19l2 6l6 6l16 4l52 -11l11 -4l-9 -15l2 -16h-5l4 -7l6 -1l13 17l4 3l7 1l-1 8l14 -2l-3 -8l-8 -7l-2 3l-7 1v-12l-4 -2l6 -11l6 -2l4 1
l8 7l6 8h-7l-4 6l12 15v2l13 5l24 23h2l22 -6l11 -5l10 -8l1 -3l-3 -85l6 -70l-6 -12v-10l7 -2l2 -27l-4 -2zM520 154h-4l-2 7l4 -1zM590 167l-4 -20l-22 -50l-7 -11l-14 4l-2 -18l-11 -4l-23 -23l-15 -7l-17 -23l-39 -16l-38 -3l-22 4l-5 5l-3 20l1 23l5 10l65 27l26 16
l17 16l23 31l4 -10l8 -3l5 10l3 17l4 1l-1 4l-7 1l-2 6h3v7h5l-2 7l11 1v4l-5 3l11 3l6 1l22 -6l16 -15zM335 24l-4 -20l-5 -5l-28 -5l-54 8l-36 13l-43 23l-35 26l-7 12l4 6l-6 4h-9l-14 13l2 26l-14 7l10 1l-9 2l5 21l-10 5l-10 -1l5 -1l-1 -10l-9 -1l-3 44h-4l3 6l-3 7
l-1 15l-8 4l-3 7h-12l-3 12l-3 16l-5 71l3 63l4 32l15 56l40 78l7 8l8 -8l-1 6l3 5l-6 1l5 9l44 42l51 31l10 4l2 -4h-3l-1 -5l-9 -7l-3 -8l14 -10l15 -5l3 3l-4 7h-9l5 4v7l15 11l6 -1l6 9l13 13l5 2l21 3l25 2l14 -5l4 -5l3 -42l-33 -41l-4 -8l-4 -23l-1 -11l-7 2l-4 -3
v-5l-10 -1l-2 -8l4 -3l-8 -5l-14 10l-7 -1l3 -10l-2 -5l-13 -5l-7 -8l8 -5l3 -9l-11 -5l-3 -4l-1 -4l2 -7l2 -1h10l-8 7l-1 3l10 -2l7 9l-5 5l22 -3l22 31l5 6l3 -25l-6 -43v-6l3 -4l-4 -4l-6 -22l-4 -4l-8 11l5 1l3 12l7 4l-6 5l-10 1l-3 -7l-1 -17l-7 -3v-6l5 -7l2 -9
l5 -2l-5 -13h7l-8 -8l6 -20l10 -1l4 -2l1 -3v-11l7 -14v-18h-3l4 -17l-8 -15l9 -3l-3 -11l3 -33l-3 1v-9l4 -2l6 -106l11 -34l7 -10l-6 -6l5 -6l13 6l7 -9l6 -24v-5zM521 490l-2 17l-17 -1l3 -11zM195 618l-3 4h-4l-1 -6l5 -4zM253 555l-7 7l-5 -6l6 -4zM262 539l-9 6l-2 -3
l5 -5zM243 545l-7 7l-3 -3l7 -7zM183 607l-2 3l-14 -6l-3 -4l10 -3zM236 526l-1 7l-7 1v-3zM535 175l-7 4l-2 -5l4 -5zM225 455l-2 2l-13 -10l-3 -5v-5l6 -5l5 2l-1 6h4zM244 390l-7 7l-1 10l-8 4l-1 -6l9 -20v2zM218 423l-6 1l-1 4h-10l-1 -5l13 -3zM95 535l-6 8h-4l-4 -4
l-8 -19l-4 -14l6 -2l5 16l7 3l3 10zM235 365v7l-2 2l-3 1l-4 -1l-3 -4v-4l4 -5zM96 244l-5 14l-15 7l4 -8l-2 -6zM52 269v5h-4l-3 -7zM97 170l-9 4h-3l-3 -3v-4l5 -4l5 -1z" />
    <glyph glyph-name="d" unicode="d" horiz-adv-x="689" 
d="M436 425l-6 -1v8l6 -1v-6zM665 370h-8l-1 -6l8 -8l-5 -21h4l1 -4l-8 -8l3 -11l-4 -17l1 -9l-8 -11v-3l4 -5l9 -5l-2 -12l-7 -30l-7 -22l-6 -13l-15 6v-9l-7 -2l-11 12l-7 3v-27l-8 -10l-1 -4l1 -5l8 -8h6l5 -3l-3 -7v-13l-11 -4l-4 -10l-5 -9l-3 -2l-9 1l-2 -7l-5 -1
l3 -7l-38 -31l-44 -24l-45 -17l-11 -2l-6 5l5 2l4 7l-13 -6l-12 -12l-27 -2l-19 4l-9 9l-6 23l4 17l3 4l19 10l11 5l-1 -5l9 10l12 24l6 26l7 11l-7 8l6 16l-5 17l5 150h4l-1 4h5l1 11h-6l-2 -2v3l8 8l2 4l1 9l-2 11l2 1l4 8l-5 2l28 23h12l1 4l21 7l-2 3l-5 -4h-18l-16 -5
l-1 4l-8 6l1 7l-9 4l3 14l-2 10l5 23l3 3l-11 7l-1 6l-15 6l-6 50l-9 25l-9 10l-18 12l-6 9l-4 -3l-8 7l-4 7l-2 9l6 19l11 12l21 5l40 -6l58 -19l12 -6l-2 -5l1 -17l28 -16l1 -10l24 -6l2 -15l12 -6l3 -11l9 12l2 -10l11 -5l-6 8l10 7l11 -24l-6 1l2 -4l-2 -6l20 -4l10 -14
l11 -24l18 -59l1 -11h-4l5 -16h2zM322 317l-8 -3l4 -11l-4 -4h5v-50h-6l-5 -13l-8 7l-1 -8l9 -10l11 -4v-9l-5 1l-2 5l-6 1v-4h-8v-4l11 -10l1 -5h-5l-7 7l-2 -9l7 -8l-5 -9l-6 -15l-4 -17l-4 1l-1 -7l5 -15l12 6l-1 9l7 11l2 14l8 5l3 -11v-30l2 -33l-6 -12l5 -8l1 -44
l-4 -19l-5 -6l-20 -3l-36 1l-37 -1l-37 3l-12 5l-4 5l-9 -10l-66 -3l-28 4l-26 7l-9 8l-3 13l1 8l3 8l41 19l11 14l10 10l4 11l-6 3l-1 10l-10 8l1 90l8 1l-4 10l8 38l-5 15l-2 18l-5 9l5 2l-4 9l6 9l-5 9l-2 14l-1 28l1 10l3 10l9 1l4 5l-5 37l1 9l6 13l2 11l-4 20l5 8h-12
l-9 4l1 59l-1 20l-4 5l-43 22l-4 11l-2 10l3 12l8 8l29 9l16 3h22l6 -3h5l6 -7v-4l8 5l-1 6l6 -3h42v-5l-8 -3l9 -4l10 -2l6 1l2 2l3 10l8 1l11 -3l20 -2l10 -2l6 7l42 3l15 -3l8 -8l2 -7v-141l-8 2l-3 -15l12 -12v-47h-9l9 -40l-4 -49l-5 -9l7 -4l-3 -3zM440 504l-1 4l-9 2
v-4zM526 431h-15l-7 -2l-8 -6l4 -4l18 6zM317 568l-13 7l-5 -3l3 -5h4l3 -5l5 1zM455 374l-5 -1l-7 -6h10zM307 537l-1 5l-8 3l1 8l-5 -4l-3 6l-17 4l-5 -9l-5 -24l-5 -9l4 -21l3 -1l-5 -26l6 -10v-5l-3 -24l13 -2l5 5l-2 20l1 8l4 6l-3 8l4 3l-8 2l6 10l-7 6l-1 6l6 4l12 1
l-6 7l-2 6l-5 1l1 13l8 8zM458 322l-8 1l-4 -4l11 -1zM259 497l-3 5l-2 6h-5l-3 -4l-10 1l7 -5l5 -9h10zM241 478l-2 9l-6 6v-5zM314 273v5l-3 2l-3 1l-4 -1l-3 -3v-3l5 -7l7 4zM291 110l-7 13l-3 -5l4 -3l-6 -1v-3l-6 -2l13 -10l-2 8zM123 272l-8 -4v-7l-14 -14l5 -1l12 9z
M197 29l-4 3h-5l-5 -9l-5 1l-3 -4l13 2z" />
    <glyph glyph-name="e" unicode="e" horiz-adv-x="627" 
d="M567 484l-4 -13l-7 -7l-16 -3l-22 5l-4 3l-30 43l-42 46l7 5l-6 5l-2 -3l-7 -1l-12 9l13 -1l-11 3l-9 -1l-56 24l-3 3l-4 10l-4 16l1 14l3 14l3 4l7 3l12 1v-3l10 -3l3 4l5 -4l10 5l11 -7l1 4l7 1l5 -8l4 1l2 -2l10 8l48 1l52 3l5 -1l7 -7l4 -14v-19l-7 -2l-2 -7l4 2
l-6 -9l-4 -15l3 -13l3 -3l9 -3l1 -17l-4 8l-8 -7l-3 14l-3 -12l7 -3l1 -9l10 2zM475 235l-3 -18l-9 -8l-18 -5l-13 3l-5 4l-34 59l-38 35l-6 12l-2 16l7 27l6 8l25 19v-5l9 -2v11l16 5l1 19l-3 6l19 37l3 2l14 3l20 -4l6 -6l4 -28l-2 -54l-3 -37l1 -17l-3 -4l-3 -14h6l2 -11
zM588 205l-8 -118l-1 -71l-3 -8l-6 -5v6l2 3l-2 4l-9 -2l-4 6h-8l-4 -11l-12 11l-14 -7l-34 -5l-13 10l-4 1l-26 -4l1 -4l-9 -1l-1 -3l-21 -1l-30 -7l-12 -1l-12 8l-5 7l-4 25l5 26l4 4l51 21l9 5l3 -7l9 1l7 -3l6 11l13 3l1 6l9 3l16 1l3 3l2 3v11h-8v4l5 5h6v8l9 1l-3 4
l-5 -2l4 10l6 -12l2 9l-6 5l16 25l22 29l8 5l12 2l20 -4l10 -6zM565 7l-3 -5h-10zM320 616l-4 -127l-15 3l1 -8l-15 8v-3h-3l10 -12l24 -3l-1 -6l-4 2l4 -12l-9 2l1 -11l9 -16l1 -4l-2 -39l-9 4l-3 -8h8l5 -9l-1 -5l-7 4l-7 -2l1 -12l-5 -5l1 -8l-3 -5l5 -5l-8 -8l-7 1
l-8 -26l10 -3l18 12l-2 3l4 14l7 7l2 -79l-2 -179h-9l-3 -1l1 -4l-4 -11l5 -4h13l-1 -37l-3 -14l-6 -5l-23 -4l-26 1l-3 11l-4 7l6 15l-1 13l-7 1l2 -3l-5 -1l-5 -9l2 -11l-4 -19l-108 -1l-2 6l1 8l-4 2l-10 -7l-14 -6l-5 -5l-38 3l-24 8l-9 9l-3 13l2 10l2 3l39 19l10 -8
l3 3v4l7 2l5 5h5l8 6l1 15h4l-3 9l-7 7v7l-10 8l-1 31l-11 10l7 1l-3 14l1 25l13 -1l3 4l4 1l4 6l-4 15h-9l4 5l-20 4v38l2 23l-3 80l1 6l7 18l-1 13l3 5h3l-1 17l2 15l-13 8l3 22v-8l10 12l-13 3v24l-5 73l-3 5l-30 15l-9 4l-5 11l-2 9l3 10l11 11l19 6l20 4l101 -3l5 -12
l5 2l1 6l3 2l20 -1l5 -8l9 -2l15 1l2 2l6 10l14 1l6 -12l9 6h7v6l13 -1l11 -3l5 -6zM101 109l-5 -5l-3 -1l-1 8l-2 6v4l5 -1l1 -6zM296 562v4l-12 6l-6 -6l-4 2l-5 -11l7 -9l6 -7l13 4v4l-6 4l-1 4l7 3zM285 373l-7 8l5 -12zM85 473h-5v-6h4zM95 287l-4 1l-2 -8l3 -2z
M239 30v8l-11 5l-3 -4l1 -5l5 -4h8zM239 16v4l-16 4z" />
    <glyph glyph-name="f" unicode="f" horiz-adv-x="580" 
d="M566 477l-2 -6l-6 -6l-16 -3l-25 6l-5 4l-27 42l-31 36l-8 7l7 5l-4 11l-6 8l-5 2l-8 -3l-7 -7l-63 28l-5 7l-5 28l4 23l3 3l12 3l29 1l2 -5l17 2l11 -11l10 1l13 -3l11 3v-5l7 2l8 -3l7 6v8l49 5h7l13 -4l5 -12l2 -9v-4l-13 -27l2 -2l-2 -4l4 -4l5 6l4 -29v-3l-10 -9
l3 -15l-3 -6l6 -6h6v-16zM443 565l-9 -2l-3 1l-1 2l3 4zM476 286l-3 -15l2 -32l-5 -25l-4 -5l-10 -3l-9 -1l-12 3l-11 8l-8 13l-4 19l7 1v6l-3 1l-3 8l-12 -1l-2 9l-8 2l-13 13l-22 19l-3 4l-3 21l2 29l48 48l20 42l7 10l11 3l14 2l11 -3l6 -6l5 -28v-10h-10v-5h2l-3 -6
l2 -12l4 4v-5h3v-8h-4l-2 -5l7 -7l-2 -10l-8 -8l-3 -8l6 -23l-2 -25v-13h4l1 4l3 1zM374 35l-2 -10l-5 -12l-4 -2l-4 2l-11 -8l-23 -5h-28l-9 8l-8 4l-20 -1l-34 6l-3 -5l-10 9l-31 2l-1 -8l-14 3l-2 -9l-11 -3l-42 -1v3h-12l-2 4l-6 -1l-1 -7l-19 1v5l-11 3l-29 5l-2 2
l-5 18l4 15l35 16l7 5l4 5l4 33l-1 44l34 6v8h-2l1 6h6v-6l10 5l1 -4h7l-8 -7l-3 -9h11l9 3l5 22l8 9l-11 1l-28 -10h-18l-10 -3l-4 4l-7 -1l-1 4l11 2l7 6h-18v21h4v12l-6 20l6 45l-3 22l2 22l4 -3v-5h13l-1 19l10 13l-4 7l2 2v7l4 11l-12 6l-5 7l9 2l-4 17l3 14l-9 10
l-1 4l5 30l-15 10l-1 38l1 15l-3 50l-5 8l-43 23l-2 12l1 9l3 10l9 8l19 6l35 2l8 -2l8 -7l12 9l15 -16l30 5l-1 6l42 1l3 -2l3 3l10 -1l-2 -4h6v5l6 -5l24 3v3l27 3l24 -6l6 -6l3 -12v-71l-9 -9l6 -15l-6 -6l-1 -9l-8 -5l6 -9h-8l-2 -7l6 -2v-3h-2l3 -11l-6 -2l-1 -19l12 2
l9 -2l-6 -9l-5 -7l-3 -9l-11 -2v-9h17l-2 -4l5 -9l-1 -8l8 -5l-1 -13l-6 -1v-6h3l1 -10l5 -7l-8 -9l5 1v-179l-6 2l-7 -6l3 -4v-5l2 -5l6 2l2 -4l-1 -53l2 -33l-8 2l-4 25l-5 -17l1 -6l3 -16l19 -2l17 -5l23 -11l7 -8zM280 243l-9 9l-1 -4l9 -10zM310 198l-1 4l-4 4l-3 1
l-4 -1l-3 -7l1 -2l5 -5l3 -1l3 1l2 2zM269 205v6l-5 4l-1 -3zM252 174l-2 13l-7 2v-9l3 -7zM234 171c0 4.66699 -2.33301 7.33301 -7 8v-7zM116 195.999l-1 4l-13 -3l-1 -4l9 -1l4 1zM97 103.999l-15 4l-1 -4l8 -5l7 1z" />
    <glyph glyph-name="g" unicode="g" horiz-adv-x="666" 
d="M596 451l-3 -19l-3 -4l-15 -4l-29 4l-18 21l9 6l-6 13l-5 -1l-4 9l7 5v-3h6l-2 11l-8 7l-5 -8l-9 4l-21 37l-29 33l6 4l-10 7l-83 46l-6 23l-1 9l2 15l2 5l5 5l13 3l17 -3l12 -5l6 -7l7 4l8 -1l-3 -5l8 -9l10 3l1 -5l12 -7l-1 13l18 -6v-4l4 -4l5 4l-1 -9l3 -4l2 -1h8
l2 19l13 5l20 20l13 -1l29 -10l8 -8l2 -12l1 -8l-3 -29v-75l-8 -2v-4l5 -13l-6 -26l2 -4h3l3 4l4 -10zM281 467l-2 -19l-4 3l1 16h5zM650 306l-3 -13l-2 -2l-23 -15l-10 -10l-9 -52v-35l-6 9l1 3l-5 -1l2 -6l-3 -3l6 -10l4 3l-4 -12l-12 -2l2 -13l-1 -3l-5 3v-8l-5 10
l-1 -11l12 -8l8 -14l3 2l-3 6l5 5l2 -8l6 1l2 -12l3 -23l-3 -15l-12 -13l-14 -5l-45 -4l-35 -8l-9 5l-4 -10l-36 -17l-16 4l-7 -9l-10 -6l-40 -10l-6 2l-7 7l-5 16v14l3 24l22 22l4 6l6 23l4 19l1 48l2 20l-2 11l12 12l-5 7h-4l-1 5l10 9l-9 11l-4 -5l-3 11l2 2v8l17 -7
l-3 17l5 15l-14 8v-3l-9 4l-1 -7l8 -5l-7 -1l3 -3l-14 -8l-5 -2l-17 7l-19 10l-2 4l-2 13l3 15l7 6l20 7l46 5l160 -4l59 -12l8 -8zM335 12l-8 -12l-6 5l-9 1l-4 7l-10 -3l1 -5l-12 -6l-40 6l-17 6l10 8v6l6 5l4 -7l12 -6l-15 15h-7l-10 -5l5 -4l-13 4l-1 -10l-10 1l-48 26
l-8 7v5l-5 3v-7l-3 6l-6 2v7l-11 2l-34 37l-10 21l-12 10l-8 20l-6 10l4 10l-3 12l4 3v11l-16 -8l-2 12l21 7l-2 12l-12 7v11l-6 24l-1 2l-17 4l-2 12l-3 60l4 53l2 11l8 10l1 24l11 39l8 -3l3 10l8 19l4 2l3 5l-5 5h5l-1 4l9 -1l-1 3l2 5l6 -2l1 -4l16 5l2 -4l-2 -4l7 -4
v-5l10 7l-8 14l-7 -1l1 5l6 3l-3 10l7 -1l2 4l-8 13l4 12h5l4 4l-4 3l1 7l6 -2l5 5l15 7l-3 6l2 7l-4 5l15 13h10l1 -7l7 -2l2 2l2 6l8 2v16l39 13l-5 -3v-6l11 4l19 14l47 6h6l12 -4l-6 -3l-3 -5l2 -4l2 -2l6 3l-2 8l5 -5h8l2 -30l-3 -17l-32 -35l-9 -35v-15l-9 -1l-4 -14
l6 1l-9 -14l-3 -15l-4 -9l7 -9l-5 -5l-7 1l-2 -6l4 -1v-10l-3 -11v-8l12 -3l2 -4l6 -2l-3 -4l2 -4h4v-10l-7 -1l-3 -10l-3 -2l5 -7l8 -4l1 -31l-4 -115h6l-1 -10l-8 -25h8l-5 -13l4 -6l-1 -2l-1 -14l-2 -3l4 -5v-7h3l4 -48l4 -7l9 -19l26 -27l3 -8l-3 -16zM487 564l-1 5
l-6 -4v-3zM547 438v7l-5 4l-2 -3zM591 194l-1 9l-3 4l-5 -4l-1 -3v-2zM595 173l-9 1l-7 4l-3 8l-5 -1v-17l2 -1l6 5l2 -6l8 1zM569 168h-8l3 -8zM458 189l-11 9v-5l-5 -4l-1 -3v-2l6 -3l4 2v4zM464 165l-3 6l-8 3l-8 -13l3 -3l7 5l6 -1zM436 152l-7 -3v-6l5 -1zM450 124
l-12 9l-11 -8l16 -14h4zM235 221l-2 11l-12 -13l-10 -6v-2l1 -6l5 -5h9l2 14zM228 175l-1 18l-7 4l-6 -8l-1 -7l-3 -3l-1 -4l-7 -3l4 -20l4 -4l6 9l-2 10zM167 71l-1 6l-5 4v-4l3 -6h3zM89 145l-8 1l-1 -3l6 -3z" />
    <glyph glyph-name="h" unicode="h" horiz-adv-x="750" 
d="M726 23l-3 -10l-6 -5l-52 -12l-42 2l6 9l-15 -1h-40l-13 -4v5l-13 -4l-5 1l-6 -2l-3 5l-10 -5l-54 -4l-14 7h-13l2 -6h-7l1 4l3 1l-6 2l-6 -8l1 14l-23 -5l-6 2l-8 9l-4 13l2 10l11 13l18 9l21 5l13 5l-1 5l3 -1l4 5l-2 7v12l-3 4v8l-5 6l4 -1l3 4l-8 11l-8 -16l1 10
l-3 6l5 5l-9 16l1 7l2 1l-2 7l5 24l-9 8l8 -1l-3 13l3 14l4 4l-4 13v5l6 17l-4 7l1 7l-10 8v9h5l2 -7l3 4l-29 23l-18 4l-39 5l-5 5l-4 22l2 13l5 6l5 1l43 6l34 9l14 -5l1 9h5l2 -6l4 15v3l-2 2h-14l1 -5l-3 -6l-5 10l2 11l3 -1l8 11l-21 8v10l18 5l11 -3l-8 18h4l-2 11v14
l-4 2l4 6l1 24l-8 8h-6l-2 3h-7l-4 57l-34 26l-3 3l-3 19l3 13l6 6l34 9l34 1l16 -3l9 -7l5 4l-5 3l15 -2l-3 -4l7 2l9 -5l18 5l4 -1l3 -3l2 -5v-6l-20 1l4 -13l13 4l8 -6l26 16l8 10h4l4 4l4 1l46 2l70 -11l7 -7l3 -11l-3 -17l-41 -22l-4 -6l-5 -21l-1 -14l-9 2l-5 -34
l-4 -11l3 -3l-8 -37l2 -9l6 -1l1 -16l5 -7l-5 -6l2 -6l8 -5l-1 -3h4l-2 -5l-3 3l-4 -15l5 -13l5 3l3 -12l-6 1l-4 -13l2 -11l6 -1l-2 -7l3 -1v-16l-1 -7l3 -9l-1 -14l-6 -5l5 -6l3 -179l-4 -31l-4 -9l7 -8v4l5 2l-1 -15l8 -6l-2 5l6 7l33 -16l3 -4v-17zM361 33l-3 -10
l-15 -14l-38 -10l-20 3v1l12 -1l4 8l-18 2l-3 -3l-13 10l-18 3l-17 7l-13 -1l-5 5h-6l-2 -1l-7 -18l5 -4l-3 -3h-19l-34 4l-83 -5l-28 7l-9 9l-3 14l4 15l45 25l3 14l2 11l8 -3l8 9h4l9 15l-5 4l-3 -1l-13 9l3 3l-5 3l2 2l9 -1l10 -10l-5 9h5l4 11l-6 5v-4l-3 -4l-5 8l-5 -2
l-3 3v-3l-9 -8l-2 51l6 2l-4 6v7l4 1v6l-5 4v29h7l2 4l-5 4h-4v8l10 1v7l-10 5l1 33l7 -3l-1 -8h8l-2 22l4 1l1 10l-6 29l-1 14l-3 6l-6 7l7 14l1 6l-4 37l11 2l3 14l-6 29v18l-2 17l-4 6l-9 5l-1 40l-3 15l-45 27l-3 15l4 13l8 9l23 7l25 3l33 -2l1 -3l12 2l11 -2h19l6 -8
l14 7l17 -2l10 -3v5h25v-10l12 1l3 -6l26 7l2 10l7 -6l7 5l4 -7l6 5l2 -4l11 -2l2 9l11 -1l21 -7l7 -8l5 -20l-1 -7l-34 -25l-5 -5l-3 -10v-406l5 -101l3 -4l31 -25l5 -6zM86 361l-8 -8l3 13zM276 2l-9 4l1 7l8 -7v-4zM520 643l-14 1l7 -5zM453 560l-4 3l-4 -4l6 -2z
M631 205l-10 7l-5 -7l-6 2l-3 -6l-4 -1l-2 -4l9 -7l8 -1v6zM449 305l-3 10l2 5l-2 6l2 3l-2 3l-4 -2l3 -8l-5 -3l-5 3l-2 -7l13 -13zM608 172l-7 1l1 8l-10 -9l-10 -1l5 4l-2 8l5 11l-5 -2l1 -4l-9 -8l-1 -2l-8 -5l-15 -2l11 -7l-4 -5l11 -7l13 13l18 3zM281 436l-13 13
l4 -8l-8 -10l7 -4l5 9l4 -5zM307 396l-1 6l-5 2v3l-5 2l-1 -4l-7 1l-1 -8l6 3l3 -12l8 -2l-3 5zM259 432l-4 4l-5 -6l-3 -1l4 -8zM126 582l-6 9l-15 5l-6 -10l2 -9l-4 3l-11 -9l-1 -3l1 -5l13 -9l9 13l6 6l-1 9l4 -2l3 3zM299 379l-8 13l-7 2l-3 -6l8 2zM278 383l-5 1l-4 -9
zM462 144l-3 7v-6l-4 -3l-2 -9l5 -3l2 4l-4 1v3l4 -1l-1 6zM488 10l-7 5l-8 -3l4 -3l3 3zM114 160l-5 -1l-1 -3l3 -3z" />
    <glyph glyph-name="i" unicode="i" horiz-adv-x="392" 
d="M371 35l-4 -16l-11 -10l-36 -8l-84 3l-106 -2l-11 2l4 3l-7 5l5 2l5 -6l4 4l6 -4l3 10h7l4 5l-7 -2l-7 7l-1 -5l-27 -2l-1 -4l-5 6v-4l-22 -5l-9 7v-7l-28 -3l-6 2l-6 6l-5 18l3 11l38 19l6 4l3 5l4 38v61l6 -1l1 3l6 2l-10 23l4 4l-6 6l-2 6l1 6l5 14l-1 15l-5 1l-1 11
l12 44l-8 16l4 39v11l26 6l3 3v8l-4 12l9 2l4 8l-6 1l-4 -7l-8 3l5 2l-2 3l-10 -6l-10 -8l-6 -1v13l-4 46l-2 122l-6 13l-40 19l-4 11l-1 7l3 12l8 8l26 8l11 1l1 -6l20 -2l8 5l13 -2l-12 -7l2 -11l-6 -11l5 -4l9 5l9 -7h4l6 13l12 2l4 10l14 2l5 5l14 -4l5 6h15l18 4l62 4
l2 -7l12 -3l3 5l8 1l8 3l11 -2l34 -9l5 -4l4 -11l1 -8l-3 -10l-2 -3l-37 -18l-6 -5l-2 -4l-2 -20l-2 -97l-7 -31l4 -18l-5 1l-1 -4l5 -5v-8h5v-16l-6 6l1 7l-5 1l-1 -5l4 -4l1 -8l-4 -3l3 -26l-6 -2l4 -12h-7l-2 -11l1 -12l-7 -3l5 -7l10 -7l1 -9l-10 4l-1 -3l-6 -2l10 -11
l-1 -10l4 1l9 -9l-8 3l-5 -2l-7 12l-4 2l-6 -1l5 -9l-2 -10l-4 -1l-1 -6l10 -9l-6 -9h-5l11 -14l10 4l4 12l-11 2l6 6l7 -7l4 10h6l-1 -10l-13 -22l-1 6l-4 -6l1 -6l-4 -1v-5l7 -4l-6 -7l-14 -6l7 -13l12 -11l-4 -5l4 -15l2 2l4 -2l6 5l3 -7l-2 -5l-2 -1l-13 6l3 -11l5 -3
l3 3l8 -4l-1 -31l4 -16l5 -9l5 -3l34 -17l4 -6zM315 483l-1 12h-3l1 -14zM101 648l-7 1l-8 -4l12 -3zM283 454l-1 3l-4 4l-6 -2l-2 9l-11 -4l2 -26l12 3l5 4l4 5zM294 394l-3 11l-4 -5l-5 -1l-1 -3l8 -3zM271 401l-8 4l-1 -8l8 -3zM115 449l-11 -2l-6 -3l-4 -7l-2 -7l1 -10
l6 1l-2 5h4l2 5l8 -3v12zM164 19l-7 6l-3 -6l5 -2z" />
    <glyph glyph-name="j" unicode="j" horiz-adv-x="560" 
d="M536 622l-3 -6l-31 -15l-10 -10l-8 2l1 3h-11l-11 -6l-2 3l2 2l-11 1l-9 -2l2 -5h9l3 -4h4l-12 -7l8 -4l6 3l9 -4l-2 -2l6 -17h-12l-1 -13l14 -15l3 5l1 -10l-6 5l-5 -3l3 -10l1 -12l9 -16l1 -4l-1 -13l-1 -59l-5 2v-5h6l-1 -240l-9 -56l-24 -40l-14 -15l-19 -9l-8 -7
l-4 4l-13 -7l-24 1l-17 -6l-18 -3l-30 -16l-4 -10l-47 -3l-38 8l-8 7l-4 10l-1 11h8v6l6 2v5l14 12l-9 -2l-6 6l11 10l13 20l5 24l3 171l10 -5l1 17l2 6l-3 2l-2 7l3 2l6 45h3l-3 13v12l5 -7l5 2l3 -3l13 13l7 14l2 10l3 -2l9 6l-3 15l-35 -34l-3 1l-2 5l-1 13l-7 2l1 17
l-9 3v9l-4 1l1 3l-3 3l5 10l1 8l-5 23l5 8l4 14l4 -1l7 4l-18 20l-4 35l-2 7l-6 7l-7 4l-43 16l-7 15v7l2 11l7 7l26 7l32 5l123 -6l83 5l29 -4l13 3l13 -4l-10 -9h23l-1 -9l3 -5l4 3l2 -5h5l4 -1v-12zM177 162l-13 -45l-6 -9l-12 -5l-11 -2l-2 4l-10 -5l11 1l-8 -9l1 -8
l19 -10l16 -10l4 -7l3 -21l-4 -20l-9 -9l-16 -4l-32 5l-13 3l-5 2l-5 7h-12l-18 11l-3 10v-7l-18 13l2 17l-1 5l-10 15l-17 3v-7l-6 10l-11 62l2 31l2 11l24 19l-3 8l2 19l6 6l14 8l25 7l11 1l7 -8l29 2l2 5l10 -3l32 -16l9 -11l5 -15l-9 5h-7l13 -13h7l2 -11zM464 328l-8 3
l5 -23zM451 292l-5 8l-1 -8h6zM268 468l-1 3l-3 3h-5l1 -8l-3 -3l5 -2l3 1l2 3zM288 428l-3 10l-5 -2l-4 -11l4 -1zM466 256l-13 12l-11 -2l-3 -5l9 -8l3 2l7 -3zM463 238l-4 11l-6 -5v-4zM275 417v6l-4 -2v-3zM479 212l-2 7l-3 4l-14 3l-6 9l-5 -13l10 -5l-3 -7l7 1l-5 -14
l-23 2l-1 -4l4 -7l7 -4l5 9l7 -1l8 -6l9 8l-6 9l2 5zM462 162l-12 -3l-6 1l2 -11h12zM288 183l-1 7h-9v5l-4 2l-4 -4l6 -3l-3 -14l-4 -4h-6l16 -8l3 14zM30 236l-1 7l-3 2l-5 -11zM214 21l-7 11l-1 -11h8zM120 99h-4l-2 5l-5 -3l-1 -3l1 -5l6 1zM63 50l-13 3l-7 -1l-3 -2v-2
l2 -5l7 6z" />
    <glyph glyph-name="k" unicode="k" horiz-adv-x="753" 
d="M749 33l-3 -13l-10 -8l-20 -6l-41 -6l-6 2l-5 11l-7 4l-5 -4v-4l-11 -4l-12 7l-1 -8l-35 3l-134 -6l-43 10l-12 10l-4 15l3 12l25 19l6 8l4 19l-3 14l-5 10l7 15l-6 10l1 10l3 6l-11 16l3 9l-6 2l3 8l11 3l-3 9h-13l-13 3l-7 -2l-2 6l-3 2v8l-4 5l3 4l-11 4l-4 9l-7 28
l-9 10l-10 23l-9 38l3 15l31 41l13 14l-1 3l8 -3l6 12l11 4l-3 -17l1 -3l2 -3h5l3 4l6 -3l4 9l-3 15l-9 2l5 9l10 7l4 -4l14 8l3 5l4 10l2 10l9 4l-1 17l2 8l25 38l3 6l2 10l-3 14l-4 8l-5 4l-55 31l-2 18l1 8l4 5l9 7l3 -3l18 3l4 -11l5 9l4 4l15 1l10 4l3 -2l25 -3l1 3
l9 -1l5 3l24 -3l94 5l49 -10l12 -12l4 -13l-1 -7l-4 -6l-10 -8l-7 5l-7 -5v-4l-9 2l-7 7l-11 -6l5 -6l-1 -5l-17 2l-15 -2l-29 -19l-8 -6l7 -20l-8 2l-2 -6l-10 -1l-4 -15l-27 -24l-26 -47l-1 -8l3 -14l6 -22l-7 -11l12 -3l4 -5l-9 2l-10 -14h7l5 -11l9 -1l2 12l6 -12l7 -20
l12 -49l7 -11l-2 -7l5 -1l2 -5h8l3 -10l-8 -4l-1 -6l4 -3l-2 -18l19 -7l-3 -9l1 -5l3 -3l12 -3l3 -8l-10 4l-4 -7l4 -15v-8l7 -7l-4 1l-2 -7l4 -20h-3l1 -10l14 -9l3 9l4 -11l12 -3l6 -7l5 4l2 -3l-4 -2l1 -8l3 -4l4 3l3 -6l-7 -3l11 -3l5 -11l8 -10l3 -2l34 -14l10 -10
l-10 -2v-11l-7 -7l2 -6l8 2l-5 6l7 -1l-3 8zM619 250l-11 1l1 16l5 -1zM652 172l-8 -1v16l-9 6l7 6zM370 35l-2 -10l-5 -8l-7 -5l-10 -3l-3 3l-18 -9l-12 2l-13 -4l-30 4l-31 1h-68l-71 -4l-35 6l4 11l-3 8l-5 1l-5 -5l-14 7l-4 -12l13 -8l-15 4l-6 6l-4 17l1 8l5 7l32 15
h14l-2 6l7 5v3l-5 5v7l5 -1l-4 7l-1 22l7 2l-7 -1v11l10 -2l1 8l6 8v-9l7 -6l7 26l-5 5l4 6l-6 1l-2 -2l-11 4v13l-4 2l4 1l1 5l-11 10l2 22l4 1l-6 8l2 11l-3 6l7 2v6l-6 3l3 27l9 -11l-1 -12l7 -4l5 -9h8v10l-6 1v5h4l6 10l-8 24h-3l2 -7l-8 3l-2 4l1 2l8 8l-7 11l-8 35
l5 1l-1 4l-14 1l-1 164l-5 61l-3 4l-41 22l-4 15l4 16l7 8l31 8l14 1l4 -14l27 6l3 7l8 1l5 -6l14 5l8 -9l10 1l5 7h9l1 -5l-4 -5l18 -3l15 2l11 4v6l10 1l1 -7l7 -9l13 5l12 1l-2 11l61 -1l-1 -3l11 -6l3 8l11 -1l18 -6l7 -7l2 -11l-1 -8l-2 -9l-31 -15l-20 -16l-11 1
l-27 -12l-13 -3v-4l-5 -2l-3 7h-5v5l-10 3l-7 -3l-2 -22l2 -11l3 -3l3 -1l14 4l12 6l-1 -5l5 -5l10 3l-1 6l9 3l1 9l15 2l-7 -8l-4 -8l-3 -11l16 1l-1 -11l10 -4l2 -10l-2 -16h-10l-2 -11l11 -2l-1 -4l2 -2v-7h-6l2 -5h5l-1 -11l3 -39l-1 -18l1 -287l-13 10h-7l5 -22h3
l-9 -5l1 -9l8 -6l-9 -6v-9l16 -4l4 10l-7 3v5l3 -2l5 9l5 -9l7 -8l35 -17l4 -8zM321 107l-9 -13l5 17zM560 355l-2 12l-10 -11l-2 -4v-7l5 -10l5 18zM556 311l-9 7v6l-7 -1l-6 -10l3 3h6l2 3l2 -5zM554 308l-7 -8l5 -2zM248 593l-3 3h-6l-4 -6l12 -2zM307 514l-11 1l5 -3z
M288 517l-3 4h-7l-3 -4h-5l-2 -4h11zM288 498h-4l-3 -4l4 -1zM656 118l-1 4l-11 4v-8h12zM266 513l-4 -1l-2 -9zM658 103l-3 9l-4 -4zM286 482l-7 1l-2 -8l5 -4zM673 15l-5 10l-8 2l-1 -4l9 -8h5zM121 311l-5 13l-6 4l-6 -10l7 -3v-7zM100 128h-5l-2 -9zM69 43l-5 2l-3 -13
l5 4z" />
    <glyph glyph-name="l" unicode="l" horiz-adv-x="592" 
d="M311 364l-6 -11l-2 10l4 -3zM279 370l-3 -3l-4 5v6zM282 355l-8 6h7zM569 200l-2 -27l-6 -3l-9 -2l-1 -13l5 -1l-12 -3l3 7l-10 -9l2 -17l8 3l11 8l1 -2l5 1l-3 -99l-12 -3l-10 -15h9l3 -3l3 5l4 1v-6h4l-2 -12l-4 -5l-5 -3l-14 -2l-53 3v7l-10 5l-16 2l-10 3l-3 -3l6 -3
v-9l-3 2l-16 -3l-65 -5l-7 2l-4 5l-4 18l-1 25l5 12l10 8l24 6h11l5 4l10 -1l9 2l1 16l8 6l41 41l14 24l16 33l11 7l-1 7l5 -1v-5l10 5l1 -3h4l1 16h17l10 -4l3 -4zM369 642l-2 -12l-4 -11l-11 -6l-31 -20l-5 -17v-46l-7 -6l-10 -2l-3 -32l7 2l6 -5l4 4l-3 -6l5 -2l-9 -3
l2 -10h-5l-3 -5l2 -14l12 -1l-10 -7l-1 -10l4 1l-6 -9l-6 -1l-2 6l-8 -1l6 -12l8 -5l6 6l-2 -16l5 -3l-1 -9l2 -16l-4 1l-1 7l-6 8l-6 -2v-4h-5l-4 6l-1 11l-9 3l3 -11h2l-14 -15l5 -15l6 2l-3 -5l3 -13l-12 -14l2 -7l-1 -4l-3 -4l-9 -6l4 -13l9 4l3 15h7l8 5l6 -2l-1 10
l5 1l-2 11l-7 16l-1 9l16 -4v-3l-5 -6l10 -2l2 -6l8 1l-9 -37v-2l9 -7l-1 -9l-5 1l7 -4l3 -24l-1 -10l-4 -1l-1 -13l5 2v-12h-5l-6 -24l11 -1l1 -47l-5 -2l-7 8l-6 -10l2 -9l-3 -6l4 -5l5 8l8 2l3 -8l1 -111l-5 -20l-5 -5l-19 -4l-18 -1l-14 3l-7 5l-5 -5h-3l-2 4l-12 -3
h-14v5l-9 1l-21 -6l-11 -1l1 9l2 -6l4 4l-5 10l-11 -3h-14l-30 -9l-5 2l-8 -4l-6 7l-12 -5l-11 6l-14 -5h-14l-17 4l-5 5l-2 11l2 14l3 5l42 23l4 8l1 12l11 1l-1 4l-6 1v5l13 2l2 7h-4l-2 4l5 5l-1 4l8 5l1 4l-1 5l-10 12l-8 -11l-6 -2l-1 11l2 13l-3 5l6 5l-4 48l4 2
l-3 10l2 30l-2 28l6 16l-8 17v21l5 -2l1 7l-7 6l10 12l-4 13l4 1v5l-5 3l6 11l13 -5l-1 13l-11 4v25l-4 25l5 4l-7 20l4 4l-2 5l2 13l-4 1v6l9 3l4 10l-11 5l1 11v27l4 12l-11 6l1 5l-11 9l5 -2l4 4h12v7l-4 4l-34 -5l-15 5l-11 10l-3 13l4 14l8 8l27 7l48 3l108 -4l33 3
l12 2l3 -2l2 -6l-5 -4l15 2l4 -5l22 4v-4l7 2l9 -4l11 4l9 -6h5v6l5 -4l15 -4zM256 657l-10 1l7 -6zM225 633l-2 10l-19 -2v5h-4l-2 -16l4 2l8 -7l3 -1l6 2l5 4zM288 490l-11 -8l-9 -2l3 -13l12 7l-1 4h5zM544 205v9h-5v-3zM447 99l-3 3h-4l-2 -2l-1 -3v-3l8 -4zM103 365v11
l-5 6l-4 -8l5 -1v-8h4zM286 177l-1 4l-9 7l1 -18l-2 -13l3 -2zM109 333l-7 17l3 2l-4 7l-6 -5l5 -7l-3 -20l6 4v-3h5zM281 142l-2 8l-4 -6zM107 317l-1 5l-8 4v-13zM299 111l-7 6l-1 -1l-1 -3l3 -4zM116 255v11l-4 20l-2 20l-6 7l-10 -10l-2 -13l5 -9l-1 -7l4 -6l7 -3l1 -7z
M309 69l-1 15l-6 3l-1 5l-6 4v-8h-5v-5l5 -1l3 -9l-5 -2l5 -11l5 2zM119 167l-7 5l-4 -10l-3 -2l8 -3zM212 17l-5 8l-2 -10l3 -2zM195 16l-2 5l-8 -5h10z" />
    <glyph glyph-name="m" unicode="m" horiz-adv-x="814" 
d="M794 32l-2 -10l-11 -9l-30 -10l-29 -3l-5 1l-10 3l5 2l-2 12l-5 2v-8l-17 -3v-3h-5l-9 -3l-9 -1l-24 1l-52 1l-3 7l-7 6v3l-11 1l-5 -10l-3 9l-27 -6l1 -8l-6 -1l1 -6h-26l-42 10l-11 11l-4 12l3 12l5 8l33 15l5 3l4 7l4 23v26l2 4l8 2l-2 11l-3 5l-3 -5l-3 18l8 9v6
l12 3v35l4 -3l3 6l-10 9l-1 -4l-4 -1l-3 8l-5 4l9 3l1 21l11 4v-3l5 2l-10 18l-6 2l4 7l-2 7l-4 -3l-4 14l5 8h10l-2 25l-4 -2l1 -15l-4 -3l-3 2l-4 8l-2 9l-5 4l-1 180l5 2v18l-6 2v37l2 13l-3 27l2 13l4 10l-3 1l3 15l12 5l-1 -3l-7 -1l3 -17l7 1l12 12l1 -3l29 13l11 -7
l8 -1l10 2l7 3l8 -4l4 3l9 -4l6 4l6 -4h19l7 -2l8 4l8 1l-2 -7l7 -6l2 13l8 -12l8 11l11 3v4l26 1l34 -6l17 -6l5 -5l5 -20l-1 -6l-4 -5l-39 -21l-4 -3l-3 -5l-3 -28l1 -41h-14l2 -9l3 -3l-1 -10l-5 -18l5 -7l-1 -11l-6 -14l-1 -17l-3 -6l-8 -7l1 -8l-9 -12l4 -8l7 1v-4l6 6
l1 5l-3 2l-3 10l10 -2l3 -12l6 -2l4 3l2 -4v-22l-2 4l-6 -8l6 -5l-9 -12l10 -13l-4 -15l5 -24l-3 -13l-8 -23l4 -4l4 1l-2 -9l4 -2l-3 -11h5l1 -153l-16 11l-7 -8l9 -13l-1 -16l1 -11l6 1l7 13h7l2 -4l7 6l22 -7l12 -7l5 -7zM350 560l-5 -2l-1 -3l-5 4l3 7zM391 446l-1 3
l-8 -2v6l9 -1v-6zM466 411l-2 -25l-8 -36l-20 -60l-8 -15l-2 -11l-4 -1v-14l-2 -10l-6 -15l-4 -12l-12 -22l-3 -10l4 -3l-7 -2l-2 -13l1 -8l-6 1l-19 -22v-8l-11 -7l-3 -5l-18 -14l-1 -10l-3 -2v-5l-3 3l-6 1l-4 -7h-6v-5l4 4l10 -4l-8 -14v-12l6 -1l4 -5l9 2l-2 -7h4l4 10
h5l3 14l7 4v3l8 1l-6 -21l-9 1l-2 -8l-8 -10l-8 -7l-9 6l-5 1l-9 -12l-11 28l5 8l-6 6l13 7l-7 8l9 4v6l-17 -6l-3 7l6 3v7l-12 11l-2 22l-5 8l3 3l-4 22l2 16l-5 3l4 9l-5 5l-1 2h-8l-5 -2l-1 -4l4 -4l-2 -3l1 -10l-18 9l9 3l-1 18l-13 5h-6l-62 164v22l-14 7l1 6l-7 14
l7 -1v8l-8 11l-1 8l-4 1l2 4l-5 9h-1l1 5l-4 5l1 4l-4 7l1 3l-5 7l4 2l-13 30l3 2l-2 8l-10 4l6 2l-3 13l4 7l-5 15l-18 3l-1 -3l5 -2l4 -5h-13l-25 24l-41 18l-8 6l-6 9l-2 11l3 14l5 6l27 7l12 2l-1 -3l-6 -2l-2 -6l-6 4v-17l11 2l15 6l8 -1l4 4h9l-1 5l4 3l30 -12l11 -1
l7 2l9 6l2 -3l7 -2l4 6l21 -3v4l13 1l6 7l5 -1l1 -5l31 -11l5 1l2 9l-6 5l12 2l17 -2l-1 -5l5 2l1 4l12 -1l17 -6l10 -8l16 -35l9 -28l-8 -1v-6l-9 4l1 -13l13 -3l-1 -4h-4l5 -5l-2 -6h3v-6l8 -9l-1 8h4v-5l4 -1l-3 -3h7l-5 -7l-2 2l-2 -6l4 -4l13 5l2 -5h-4l-3 -6l6 -2
l-4 -11l6 -3h3v12l6 -22l-5 7l-9 -3l-3 3l-1 -6l8 -1l5 -30l3 -6l-5 -1l4 -7l-7 -5l9 -12l9 1l3 9l1 -7l10 -1l12 -14l5 3l5 9l29 85h5l-1 11l13 6zM238 27l-2 -11l-9 -8l-23 -7l-24 -3l-61 3l-67 -2l-33 13l-9 11l-2 7l5 18l58 25l5 4l5 8l9 60v35l11 5l-3 19l-8 4l6 2
l3 19l-4 25l1 2l4 1l-4 29l3 1v13l1 20l-10 7v44l9 1l4 4l-13 13l1 24l5 2l-3 9l2 13l-3 3l1 12l7 2l2 -1l5 -12l18 -48l-5 -6l3 -8h4v-4l2 -2l-2 -7l4 -4l5 1l8 -18h-5l-3 -3l13 -6l2 -3l5 -37l-5 -4l3 -16l9 -186l-17 -9l4 -19l-6 -1l17 -9l3 5l10 -1l13 8l2 -5l19 1
l17 -7l11 -11zM724 611l-12 3l2 -3l-5 -6zM683 641l-9 6l-1 -5l3 -5zM675 636l-7 7l-2 6l-10 -2l-8 -4l-4 -7l8 -17v5h8l1 5l5 -1l3 8h6zM704 601l-5 3l-1 6l-3 4h-19l-20 -6l-10 -2v-4l19 -13l12 1l11 -3l11 2l-2 6l-3 2h6zM643 615v14l-4 2l-1 -7zM640 604l-3 6l-1 14
l-6 4l-3 -4l6 -7l-40 1v-9l-11 -2l-9 -3l-6 -9l9 -3l3 -5l4 -3l2 8l5 -2l5 4l6 -2l2 2h8l6 4l5 1l17 -2zM723 469v8l-5 -2l-1 -4zM517 568l-9 5l3 -7l-7 -9l12 2zM355 514v4h-6l1 -5zM527 347h-13v-4l12 -3zM733 108l-3 6l-3 -2v-5l3 -5zM396 420l-4 3l-8 -2v-3l4 -1l-1 -15
zM729 28l-10 1l-9 -8l10 -12v7l4 -1zM186 481l-6 9l6 2l-3 9l-16 3l4 -5v-8l5 -1v-16l2 7h8zM193 451l-2 3l2 1l-9 7h-5l3 3l1 9h-6l1 -6l-6 -17l1 -3l18 -11zM190 421v4l-3 2v6l-7 -10l5 -3zM193 409h-3l-2 5l-7 1l-4 -6l2 -8l4 -4l5 -1l4 6zM193 379v11l-2 1h-4l-2 -2
l-1 -3l1 -4zM271 225l-13 2l9 -5zM275 204l-5 12l-2 1h-5l-2 -2v-6l3 -2zM148 317l-5 5l-7 1l-1 -6h13zM143 58l-10 3l-3 -1l-1 -3l1 -3z" />
    <glyph glyph-name="n" unicode="n" horiz-adv-x="697" 
d="M554 662h-5l-4 -9l-16 -1l-12 2l-2 4v8zM680 634l-1 -8l-5 -7l-50 -22l-12 5l3 6l-3 5h7l5 -6l5 -1l-6 8l-3 1v7l3 5l-2 8l-11 -4v-15l-10 -4l-2 -3l-1 -8l9 -12l-3 -9l-6 -51l1 -50l-4 -4l1 -36l-7 -21l9 -9l-1 -109l-3 -3h-2l-4 1l-43 64l-13 37l-1 153l-5 25l-9 14
l-10 6l-48 20l-4 6l-4 15l3 9l7 8l31 10l20 1l-3 -3l4 -15l24 -2l25 3l7 -4l-2 16l65 4l36 -8l10 -10zM465 415l-6 -1l1 6l4 1zM597 36l-3 -22l-4 -5l-12 -5l-5 9h8l-2 8l2 2l3 11l-17 5l-5 -20l-5 -7v-7l-3 2l-1 -7l-57 -2l-42 9l-6 4l-32 43l-20 31l-6 42l-4 6l-11 8l1 -8
l-3 -1l-2 -6l-4 5h2v6l-5 3v3h2l5 4l3 -2l10 1l-2 9l-8 3l-3 -6l-3 9l17 4l-6 11v19l-10 -5l2 -3h4l-2 -5l-11 -2l-15 2l-4 3l-4 13l-5 9l2 6l-5 8l-15 38l-5 7l-5 3l-18 1l-5 12l-9 17l-5 3l-11 2l-10 14l11 6l2 -4h5l1 8l-17 -2l-5 8l4 2l-13 3l-155 242h11l8 6l7 -1v16
l-15 1l-28 -5l-6 1l-21 7l-15 8l-7 9l-2 11l3 13l9 9l57 9l35 -1l7 -13l1 6l14 -5l11 7l7 -2l11 -1l1 5l25 -2l3 3h4l5 -4h7l1 4l22 2l2 -10l4 2l14 -7l2 10l-6 4l-11 -2v3l38 3l30 -9l33 -43l6 -10l-11 -5l10 -16v-10h15l-3 3v9h-4l1 5l8 -8l1 -11h5l21 -32l-16 -4l3 -4
l7 -2l8 -10l12 -5v-8h7l-9 -5l10 -10l3 -12h5l1 -10l7 -11l7 -13l13 -6l1 -9l-10 -3l1 -5l3 -1l1 -5l5 -4h-5l-4 -9l6 1l2 -5l7 1l5 -3h8l4 -6l11 2l96 -150l17 -35v-6l-10 -72l-3 -1v-31l3 -7l-1 -8l4 -4l4 7zM237 34l-3 -13l-13 -13l-37 -8l-75 3l4 4l1 -2h4l5 6l2 -5l5 1
l3 5l-7 -1l9 11l-5 3v4l-7 -7l-12 -3l-2 -4l-7 -3v-4l-10 -2l-7 -4l-11 -2l-22 2l-32 8l-8 8l-3 13l2 12l5 7l4 3l31 11l24 9l29 3l-3 16l-6 1l-6 7l-1 4l3 37l5 3l2 10l-3 17l4 -4v31h11l-1 11l-3 14l-7 14l-9 9l1 7l9 -1l7 6l-6 5l-4 -1l-3 4l1 15l7 1l4 5v6l4 5l-14 14
l-6 4l2 168l2 2l3 1l5 -2l3 -2l37 -60l15 -43v-13l-4 2l-4 -9l2 -9h-8l-1 -11l10 4l-2 4l8 -3v-237l5 -20l7 -11l47 -22l15 -5l5 -11v-5zM288 653l-8 7l-15 1l-1 -5l20 -13zM335 597l-4 5l2 7l-11 7l-25 1l-1 -19l20 -7l-7 -14l9 -7l13 15zM317 565l-6 4l-10 -2l4 -9z
M436 422l-2 7l-8 7l1 -8h-4l2 -11zM441 404l-7 6l-2 -6l-17 3l5 -7h3zM471 371l-10 8l-3 9l-11 -1l-3 -2l-3 -3v-4l3 -12l4 -3l-2 -5l4 -10l8 2l-1 9l-7 9l8 -4l2 8l7 -5zM486 320l-7 11l2 8l-3 2l1 8l-11 2v7l-3 4l-5 -6l1 -7l7 -15l-4 -11l2 -2zM492 308v6h-10l1 -5z
M502 288v9l-13 7l-4 1v-12l8 -2l3 -4zM496 284l-5 4v-5l-5 -3l9 -3zM504 260l-6 11l-13 -3l4 -4zM592 75l-8 2v-9zM586 49l-8 5l3 -11l4 1zM277 318l-9 24l1 -12zM150 326v11l-11 -4l7 -1zM155 25l-11 9v-7l10 -7zM122 53l-3 5l-13 3l2 -10l6 3zM144 13l-2 10l-4 -6z" />
    <glyph glyph-name="o" unicode="o" horiz-adv-x="696" 
d="M439 477l-3 -9l-2 -11h-4l-3 6l1 6l-3 6l2 16h6zM673 300l-4 -33l-8 -41l-17 -52l-9 -19l-7 -11l-3 3l2 9l-11 11l-6 -5v-7l-10 -7l-2 -12l-13 -15v-6l-9 -3l1 -17h5l-4 -9h-12l-1 6l-18 6l-10 -8l-4 -9h-3v-4l-10 -12l7 -8l2 -7l-2 -9l-5 -7l-24 -15l-42 -16l-36 -8
l-23 -2l-19 5l-10 9l-3 17l3 27l27 28l13 41l9 5l-5 3l5 4l1 13h6v20l3 17l-3 2l3 13l-1 17l4 6l2 9l7 8l-4 3l2 3l3 9l6 12l-7 12l6 8l-7 13l12 16l-5 5l-5 -1l-4 6l2 3l-15 2l-4 5l-2 -12l-2 17l5 1v9l3 -1l1 33l-4 12l-7 10l2 1l6 -1l2 6l-3 6l-5 -7l-2 57h4l-1 -8l3 -3
v-15l-3 -3v-5l9 -4l2 9l-2 13l9 6l10 -4l5 1l-1 5l3 3l-3 5l3 3v13l-4 4l4 9l-1 15l3 9l-3 6l-11 6l-11 2l-2 -7l6 -9l-5 -3l-2 -14l-12 7l-1 2l-3 44l-6 25l-7 13l-26 27l-3 5l-2 15l1 9l4 23l5 5l7 1l5 -1l10 -10l3 3h4l6 -9l5 -3h1l7 12h6l6 7l4 -6l11 -2l-4 -2l8 -10
l6 -2l6 2l8 6l53 -23l-6 -3l8 -4h6l3 -2l-6 -7l4 -2l-2 -8l7 -2l2 -5l-2 -3l2 -7l17 -2l6 -5l3 3l4 -7l11 -6v-9l10 -2l10 -11l3 -9l-1 -15l7 -6l5 -6l1 -3l-1 -4l9 -3l5 -22l7 -5v-5l-3 -1l3 -4l5 3l7 -10l1 -22l3 -10l4 -1v-29h8v-18l3 -16l-3 -24l4 -2l-3 -24zM563 78
l-9 -3l-3 3l11 2zM542 78h-7v4zM334 20l-4 -14l-8 -9l-13 -3l-14 4v-3l-17 2l-6 4l-6 -3l-8 9l-9 -5l-6 1l-2 8l6 1l7 11l13 -15l1 7l-10 7l-1 4l2 5l1 1l5 -1l-1 14l-10 -1l-5 -5l3 -11h-6l-4 -5l4 -3l-3 -9l-8 2v-7l-15 5l-37 17l-37 25l-13 11h8l-2 7l-7 -3l-1 5l3 8
l-19 6l4 17l-15 7v8l3 1l-6 6l-5 1l-2 -7l-5 1l1 8l-3 4l4 1l6 4h-6l4 7l-1 17l4 1l1 7l-5 5l2 2l-10 12l-14 2l1 4l-6 11h2l-1 7l-5 2l-12 -2l-12 -1l-2 12l-12 78v27l4 78l10 37l10 12l2 -5l9 -4l1 13l-2 11l5 2l-5 1l-2 4h7l2 6l9 5l5 -5l-1 -5l14 -4v6l3 3h5l2 8l-5 2
l-1 10l-8 -2l-6 -8h-8l2 11l-1 8h7l1 18l7 1l6 8l6 2l17 -1l-9 11l-2 7l3 12l10 -1l-1 12l2 1l-1 5h9l6 15l3 1v4l4 -2l4 7l-5 4l9 7l25 16l52 23l68 13l13 -1l14 -4l4 -5l4 -38l-1 -7l-32 -38l-4 -7l-12 -184l-15 2l-1 -6l4 -12l-2 -4l3 -7l-3 -10l1 -13l-1 -12l4 -8
l-5 -13l8 -3l-3 -6v-4l-6 -4l-2 -6l4 -4l-7 -11l-1 -9l9 -2l-1 -7l5 -3l-1 -6l2 -5v-12l5 -4l-4 -9l7 -3l6 -69l-2 -8l-10 -27l7 -10l7 10l3 -11l5 -13l29 -31zM84 468l-12 -2l4 -2l1 -6l4 1v-5zM49 418l-1 3l-6 4l-7 -12h10l2 1zM45 365l-2 31l-8 8l-7 -15h12l2 -4l-4 -10
h-4l1 -16l3 5zM52 349l-11 8l-8 -3l13 -5h6zM281 25l-9 8v-9l-3 -3l4 -3l2 6zM145 126v5l-5 2l-11 -2l-2 -6l6 -3l2 -7l4 -1l-2 -10l6 7l-1 7l-5 1zM157 85l-2 6l2 2l-7 11l-8 -2l-2 -5h-6l5 -2l-6 -5l-2 -7l8 -2l13 3v-5zM144 96l-2 -8h-5v3l4 1v4h3z" />
    <glyph glyph-name="p" unicode="p" horiz-adv-x="665" 
d="M642 468l-11 -31l6 -4l-5 -7v-17l7 -1l-2 -19l-5 -6l3 -3l-4 -6v-7l-8 -9l5 -1l-5 -13l-16 -5l-6 16l-8 -2l-15 -8l-2 -6l-23 -11l3 -3l8 2l10 -5l6 6l3 -10l-12 -6l-2 -4l-4 -3l-2 -5l2 -4l-8 6l-5 -4l-3 -7h-4v-3l11 -3l3 -3v-5l-2 -2l-21 -6l-6 7l-9 -8l-13 -3l-10 -4
l1 -3l-12 -3l-62 -5l-30 2l-34 8l-8 8l-4 17l4 23l40 28l3 3l8 30l2 12l8 -1l2 24l8 5l-7 6h-8l7 16l1 -11h12l-2 14l7 3l-9 8l-1 9h6l-2 9h4l2 4l5 3l-5 37l-4 2l-2 6l-10 1l4 7l3 1l2 5l5 3l6 -5l11 3l1 10l-1 19l-2 6l-9 7v5l-9 1l-6 -12l-12 8l-12 -5l-13 22l-29 13
l-4 8l-3 17l6 24l7 7l51 6h43l67 -10l25 -7l11 -4l-1 -5l4 -5l-3 -17l6 -1l-5 -3l-2 -7l8 -3h18l-3 5h6l2 6l-11 7l-3 15l9 -5l31 -30l21 -52l3 -20l1 -10l-10 1l-5 -13l7 -7l-2 -7l10 -7v-6l-3 -3zM95 539l-8 -4v6zM370 32l-4 -14l-12 -11l-38 -9l-106 6l-5 11h-10l-5 -9
l8 4l1 -6l-13 -1v9l-2 -2l-3 4l-4 -4l-10 2l5 -9l-77 -2l-33 2l-25 6l-8 9l-4 14l3 13l4 5l46 13l-1 4h-7l1 4l24 6v4l-7 2l2 6l-7 4l3 6l-3 2v7l-5 1l4 69l-4 3l1 42l-2 34l2 8l6 13l8 -2l2 16l-3 5l-11 7l11 3l-2 8h-11l1 9h5l5 -6l-1 6l5 9l-6 7l1 18l-5 -7h-5v18l12 1
l-1 11l2 5l-10 29h-2l-1 6h4l1 7l-3 5l2 13l16 2l2 14l-6 8l-1 6l-6 3l-4 -11h-4v20l9 -3l-1 -2h9l10 4l-3 3l1 14l-9 3l-4 10l-12 -11v16l8 3l18 1l-5 25l2 9l-3 2v10l-2 4l-3 2l-15 4l-5 10l-6 6l-40 22l-2 14l3 14l10 9l40 9h12l-1 -10l15 -2l15 7l-13 4h17l6 -13l11 2
l15 8l4 -9l10 3h11l1 -4l8 4l13 1l2 -6l5 2l12 -3l4 4l3 -3l6 4l14 -4l6 3l7 8l4 -6l8 3l4 5h11l2 -13l13 -22v-9l-3 -10l6 1l-1 6l5 3l5 -4v-111l-7 -5l6 -8v-9l-7 -1l-2 -17l10 -7l-1 -265l-12 -20l-4 -18l1 -3l2 -3h5l2 1l2 10l4 1l-1 -8l1 -8l-7 -7l1 -12l-3 -11l-3 -3
l-8 3v-4l8 -7l-5 -19v-8l-10 -1l1 7l-5 3l9 4l1 7l3 1v8l-12 -4l1 -12l-5 -1l-4 3l-4 -6l1 -13l11 -5l-12 -5l2 -4l4 -3l15 13l2 -3l7 3l-4 -7l17 -4l6 11l8 -5l30 -13l3 -2l3 -5zM84 384l-5 -9v10zM569 590l-6 8l-3 -5zM594 555l-7 11l-3 -5l4 -5zM588 514l-2 18l-4 -2
l-2 -7l-4 -7h6zM450 390l-7 4l-6 -3l-1 -4l7 -1zM447 372v4l-7 2l-5 -3zM409 357l-6 -6v-5l5 -4zM232 493l-5 4v8l-4 1v3l-14 -3l-5 -15l12 -6l15 2zM207 470h-5l-13 -15l9 -3l7 5zM179 452l-8 15l-11 -11l4 -4l-5 -8l15 -2zM173 430v5l-6 2l-3 -5zM155 418h-5l-4 -6l-7 1
l-3 -3l18 -3zM193 22l-8 10l-9 1l3 -7l-24 2l-6 -1l-3 -3l-1 -4l4 -3l-1 -7l9 -1l2 -5l6 1l-1 6l-5 3l19 6z" />
    <glyph glyph-name="q" unicode="q" horiz-adv-x="696" 
d="M734 38l-3 -14l-16 -21l-15 -12l-31 -17l-13 -4l-4 5l-13 -2l1 -7l-11 -2l-4 10h8l-15 5l-4 8l-9 6l-22 -8l-17 -2l-23 3l-5 -3l-9 4l-35 21l-8 7l-38 -16l-53 -6l-20 3l-7 7l-3 19l3 23l3 9l16 19l6 1v8l7 -1l7 3l1 5l-5 6l-12 -5l-7 4l-7 -4l-21 10l-14 9l-5 9l-3 13
l2 12l6 8l16 8l24 8l7 -7l12 6l5 1l4 5l2 7l8 -2l-1 14l4 26l5 1v6l-14 4v92l5 4l4 -1v12l5 6v10l-5 27l5 28l-5 9l3 3l-7 21l3 17l-9 3l-7 101l-4 15l-2 4l-33 41l-3 27l1 12l3 7l5 5l24 4l13 -1l44 -10v-7l38 -12l3 -3l4 -9l2 -9l16 -3l-1 -3h4l3 -9l10 -2l3 -5l5 1
l12 -12l10 1l13 -4l3 2l3 -7l11 -7l9 -10l19 -28l6 -10l-6 -1l-4 -7l5 -6l-7 -9v8l-10 -3l-3 -6l4 -5h7l7 -5l5 -1l-1 14h7l3 7l10 -19l3 -17l5 -11l-15 2l6 -9l-2 -10l6 -14v-8l5 -13l-2 -18v-10l12 -4v9l7 -5v-11l-4 -12l1 -10l-7 -9l4 -4l-3 -12l-1 -19l-3 -8l4 -25
l-6 -13l12 -12v-4h-8l2 -8l-7 -7l9 -5l-9 -36l-26 -55l-26 -39l-2 -2h-9l3 16h-5l-3 -5l-7 2l-9 -4l3 -8l-14 -6l2 -13l6 3l5 -5h8l5 10l8 -4l6 -12l11 -8l46 -9h16l3 -3l-7 -2l6 -9l-2 -6l17 2l-3 3l4 1l5 -4l13 5l3 3l2 4l-1 10h12l5 -2l3 -5zM333 20l-5 -18l-5 -6l-33 -3
h-6l-22 3l-10 5l5 2l-2 9l-9 -6l-9 -2l-19 5l-36 18l-15 8l-16 18l-10 6l-2 11l-8 4l3 4l-3 1l1 4h12l3 -2l1 7l-5 8v7l-15 1l-13 6l-4 -1l8 -7h-8l-5 19l-10 1l-5 -1l2 -4l-5 -7l-6 8l-7 18l-2 25l-5 9l3 3l-1 11l-7 -2v5l-4 1l-1 15l2 3l-12 7l5 5v14l3 1l5 9l-9 9h5l1 7
l5 1l-15 12l-12 -9v14l-7 1l-4 21l3 17l-1 7l4 7l-2 3l3 2l-4 18l11 7l-2 14l-8 -2l-1 6h6l-4 16l2 8l9 6l-1 25l-3 8l5 1v11l5 2l1 14l10 1v6l6 3l-2 15l-6 -6l3 10l13 1l-8 12l8 -4v9l-8 3l3 8l5 -1l-3 -6l6 -3l7 9l6 -2l2 15l-11 4l16 24l32 35l14 12l32 23l13 4l3 -11
l3 5l10 3l27 13l20 7l35 17l8 1l18 -2l14 -3l5 -9l2 -17l-2 -26l-24 -25l-10 -18l-13 1l-7 -24l6 -1l-8 -12l4 -3l-2 -6l-5 -1l-5 -18l7 -10l1 -9h-4l1 -7l-14 -11l1 -7l-9 -8l4 -8h-14l-2 -9l-3 -2v-6h12l6 5l7 1l7 -9l9 8v14l9 -1v-12l-5 -22l4 -2l-5 -11l6 -4l-3 -4l3 -4
l-2 -9v-24l-5 -19l6 -5l-1 -25l6 -175l5 -33l5 -18l19 -23l13 -14zM136 65l-2 2l-4 -3l-5 10l9 -3zM614 470l-2 15l-12 -3l-2 2l-10 -5l1 -13h4l-1 -6l11 7l-2 -6zM615 450l-3 5l-12 -4l-4 -4v-4l7 -8l-2 -5l8 -9l5 5l-2 9zM593 446v5h-6l-3 -5h9zM580 449l-18 -6h-9l-3 -10
l10 -7l9 -1l1 7l8 6zM599 397l-11 -4l-5 -6l5 -8l8 3zM638 164l-7 14l-6 -13l1 -11l-5 1l-2 -3l1 -7l10 7l-1 5zM619 136l-6 11l-6 -6l4 -8l-9 -7l5 -6l2 9zM430 282l-7 13l-4 -13l10 -7zM433 262l-7 6l-7 -6h14zM434 247l-16 1l1 -13l9 -1zM223 414l-2 5l-9 -4l6 -11z
M386 105l-10 -3l6 -6zM446 2l-2 10l-14 -1v-4l5 -9h4l3 5zM288 10l-5 10l-19 -3l-2 -2l-4 -8l9 -1l6 4h15zM272 25v8l-9 4h-7l-4 -3l-3 -7l-7 2l-3 -5l6 -7l-3 -5l7 4l1 4l7 -1zM158 110l-7 6l-4 -6h11zM163 72l-4 3l-20 5v-4l2 -3l5 -4l4 -1z" />
    <glyph glyph-name="r" unicode="r" horiz-adv-x="736" 
d="M423 520h-8l4 4h4v-4zM732 34l-4 -16l-10 -10l-36 -9h-12v7l-4 6l-8 -2h-10l-10 -1l-3 14l-17 -2l-11 3l-3 -3l-3 6l-10 4v-10h-8l3 -17l-49 3l2 3l-4 3l-2 -2l-12 -1l-15 -3l-1 -6l-40 -2l-20 2l-29 8l-10 9l-3 19l1 8l33 27l3 4l4 13v24l11 1l2 14l-6 9l-10 22v7l-6 9
l-9 27l-6 6h3v11l-10 1l2 5l3 2l-3 17l4 1l-1 3l-5 4l-8 31l-10 3l-2 -6l4 -4l5 -1l-2 -14l4 2l7 -4l-7 -3l-9 9l2 8h-4l-6 10l-35 34l-1 10l1 14l4 16l5 5l31 20l18 39l2 -3l5 5l1 12l-7 -1l-2 11l1 6l10 26l-3 3v3l5 2l3 11h3l1 -11l-2 -13l-2 -3l1 -4l-3 -4l1 -5l-5 -5
l1 -5l-3 -8h5l3 5l3 13l10 9l2 14l-3 39l7 3l2 6l8 3l6 5l7 -2l-9 16l-19 -7l-14 5l-4 -2l-3 -2l-2 -14l-9 -1l2 8l-4 9l-5 22l-6 13l-14 15l-25 13l-4 11l-2 18l4 17l7 7l48 8l61 -4l3 -9l13 -3l3 -5l20 3l-1 -2l18 2l11 -4l10 -3v6l5 -8l14 -3l5 -12l3 3l-4 4h9l2 -19
l20 -12l-2 -3l9 -5l3 -13l4 -5l-1 -8l7 -3l1 -8l5 -1l3 -4l-4 -7h4l-3 -9h8l2 -5l6 -2v-3h-7v4l-31 5l-2 -7l3 -8l-4 -6l2 -12h-7l3 -13l2 -3v-5l12 -3v5h-5v6h5v-4l14 1v13l-3 -1v4l-6 2l-1 4l14 -1l-3 7l-8 4h13l1 -13l-3 -15l2 -3l8 3v-21l-8 -39l-10 -23l-9 -9l-3 5
l-5 -1l-3 -9l-2 7l-11 -6v3l4 4l-5 2l-19 -12l-5 -4l-1 -4l1 -6l-8 9l-10 -9l4 -5l-4 -5l7 -17l-12 -4l-5 -8l11 -7l27 -20l18 -24l12 -24l-7 -1l5 -11l8 -10l-2 -15l6 -2l-4 -2l6 -12l-1 -5l7 -7l-2 -10l5 -5l-2 -4l3 -1l1 -9h4l2 -9l-4 -6l1 -4l-8 -4l7 -3v-2h4l4 -8
l-3 -3l1 -5l14 3l4 15l1 -12l10 -15l18 -37l4 -7l8 -6l34 -19l1 -3zM370 31l-2 -12l-9 -8l-17 -7l-24 -5l-123 6l-41 -1l4 5l-1 12l5 1l-23 -2l-8 9l-26 -8l-18 -10l-3 4l-9 -13l-10 1l-29 7l-6 7l-4 17l1 11l4 3l32 15l8 6l14 53v5l4 12l-5 6l4 5l14 -3l6 14l-6 3l6 7l2 11
l-4 5v5l-10 3l-2 -12h-8l7 2l-14 6v78l4 2h-3v7l10 3l-2 16l-3 3l3 7l-3 4l14 -4l-9 8l5 9l-7 1l7 10l-5 4v13l4 4l-4 13v11l-4 1l2 2v8l5 1l-2 11l-3 9l-9 7v56l5 1l1 13h2l-1 8l-6 -2l-1 25l5 4l2 1l7 -3l5 10l1 5l-1 6l-2 4l-7 8l8 3l-7 3l-1 7l5 -1l-2 7l8 9h4l-21 19
l-2 1l-14 -3l-10 7l-26 9l-6 18l3 15l8 8l21 6l12 1l4 -14l6 5l-2 10l10 2l46 -3l2 -4l2 3h6l7 -6l1 5h8l7 -7l-9 -6l5 -6l2 4h5l3 4l7 -3l7 7l11 5v-3l18 -5l3 4l11 -1l7 3l8 -9l7 -1v7l11 -3l6 -5l3 4l-1 13l11 1l25 -3l9 -10l1 -4l2 -196l-7 -6h6v-10l-4 -6v-10l-15 -5
l3 -10l6 1l7 11l3 -239h-5l5 -6l-3 -59l-3 -3l-6 -16l-10 4l-2 -9l8 -3l-2 -19l-9 3l8 9l-4 6l-6 -12l-12 -2l6 -3l-1 -6l6 -7h4l1 7h5l11 -6l1 12l14 -3l1 -6l12 -3l5 5l11 -7l13 -6zM623 472l-1 5l-5 3l1 -3zM548 354l-2 9l-11 7l1 -9l4 -11zM260 595v5h-4v-5h4zM256 593
l-5 1l-3 -6h6zM233 603l-3 6l-14 -10v-4l2 -3l2 -2l3 -1l9 4l-2 6zM251 580l-3 4l-5 -2l-5 -14l6 -3h6v4l-5 2zM243 558l-8 5l2 -6l-11 3l-3 -10l9 -9l-9 -2l-4 -7l8 -4l8 11l1 8h-2l-2 5l4 -4h6zM103 661h-7v-9l6 2zM650 114l-5 -1l2 -11zM630 128h-4l1 7l-7 2l2 9l-7 -5
l-4 -15l9 2l-5 -8l14 1zM94 655l-4 4l-9 -3l8 -3zM111 608l-8 5l3 5h3l-3 6l-7 5l-7 -19l-2 4l-8 -1l-4 11l-6 -3l1 -3l12 -12l14 -2v-8l6 -3l2 12zM406 297l-7 8l-1 10l-8 2l-5 -3l1 -11l-4 -3v-7zM297 400v4l-4 5l-19 -14l-2 -11l7 -1l3 1l2 4l-4 8l11 -3zM630 31l-1 9h-8
l-2 -8zM576 27l-15 1l-1 -6zM559 18l-1 3l-2 2l-6 -1v-5l-7 1l-3 -5l10 -2l6 2l2 3zM268 22l-7 8h-5l-2 -3l2 -5h12zM226 27l-8 5l-11 -9h5l6 -5l7 4zM181 24l-5 4l-10 -8h11z" />
    <glyph glyph-name="s" unicode="s" horiz-adv-x="618" 
d="M529 652l-3 -4l-7 11l6 3zM540 471l-1 -6l-5 -5l-13 -4l-15 -2h-3l-16 11l4 4h8l-3 3v4l-8 4l-5 -7l-1 -5l-31 56l-24 30l-14 14l-23 16l-64 28l-2 3l-5 30l4 20l6 6l13 4l52 -10l17 -7l9 -6l1 3l13 -4l4 -6l11 -22l10 -5l-3 26l4 1l-3 4l23 18l6 4l9 1l9 -2l5 -4l4 -10
l3 -3l-1 -6l7 -6h7l4 -9l2 -11l-4 -34l-12 -12l7 -4v-20l-7 -11h7l2 -8h5zM162 646l-3 -7h-8zM582 209l-5 -46l-3 -9h-5l-4 -8l-4 8l-5 -2v-5l6 2l-2 -15l-13 -9l1 -5l4 -2l5 9l9 3l-4 -10l-15 -27l-7 -8l-5 10l5 2v9l8 1l-2 13l-12 -4l-3 -3l-6 -1v-5l-3 -2v-7l-8 6h-7
l-21 -20l-13 -5l1 -7l9 -8l-9 1l-1 -4h-2l7 -20l-13 2v-4l-6 -1l-6 -6l-4 2l-5 -2v-3l-23 -5l2 -12l21 4l-13 -6l-56 -12l-11 -1l4 9l-22 -1l1 -8l-10 3l4 2v17l-19 4l-1 10l3 19l2 4l3 3l43 24l5 4l14 23l4 24l-5 24l-18 26l-30 20l-50 21l3 3l-19 2l-8 4v5h6l7 4l4 -2l4 4
l-2 5h6l3 9l2 3l-3 6h-4v-12l-16 -8v9l-5 8l-10 -2l-5 2l-9 -2l-39 3v10l9 1v5l6 2v8l-6 5l19 10l-8 13l-9 -1l-5 -5l-18 -6l2 -11l-2 -9l-3 1l3 -17l-10 -1l-1 4l-16 4l5 3h5v7l-28 3l-7 -6l-5 9l-15 6l1 5l13 1l1 6h11v15l10 -11v-8l22 6l6 -7l3 3l-15 25l-33 -8l-2 1
l-16 -7l1 -9l-16 1l-20 21l-10 17l-10 10l-15 37l-2 9l-6 37l4 47l8 2v6l-5 2l2 1l-1 4l6 5l1 5l-4 2l5 9l9 7l8 10l-5 3l14 20l5 -1l22 23l5 10l5 7l-6 7v4h15v10l13 -6l-5 -1l-3 -12l7 5l4 12l13 5l6 6l8 1l2 5h-6v4h20l13 4l1 5l17 -1v10h10v8l25 3l18 -5l8 -8l4 -16
l-3 -19l-3 -11l-52 -32l-8 -12l-4 -25l7 -33l21 -29l35 -22l139 -45l39 -15l24 -13l6 -9h8v-11l6 -4l3 -7l-5 -2l-1 -13l14 -4l5 -4l3 -6l2 -11l-3 -10l10 -5l7 -7l9 -6l1 11l-14 3l-4 11l10 -8l12 8h4l2 -4l-2 -4l8 -9l-3 -3l8 -11l3 -11zM531 92l-7 2v-6l-3 -1l-3 4l3 6h6
zM492 77l-3 -5l-6 2l1 4zM496 62l-5 1l-1 -4l-2 10zM290 27l-1 -3l-10 -7l-1 -12l-4 -2v-6l-19 -1l-10 2l-11 3l5 10l-7 1l-10 -9l-2 10l-17 4h-8l-1 2l-18 1l-4 11l-38 -16l-27 -18l-19 3l-15 4l-8 6l-6 10l4 2l-1 16l3 2l-2 6l4 5l-2 6l4 8l-3 13l8 5l-4 9l-10 3v12l1 25
l-7 52l-7 39l2 8l5 5l20 3l20 -2l6 -3l13 -25l8 -24l-2 -10l-5 -10h-6v-11h8l3 -11h10l4 19l9 -9l25 -33l28 -24l24 -14l59 -25l12 -22v-8zM396 637l-1 7l-8 -1l-2 -4zM222 647l-9 4v-6zM194 643l-6 1l-3 -5l6 -2zM216 609l-1 13l-10 -12zM528 284l-4 10v-12zM520 301l-7 6
l-11 -4l-7 11l-4 -1l-1 -6l-5 -3l-2 -6l6 -6l2 -7l7 6l-1 5l2 -4h5l5 8l7 -3zM520 272v7l-6 -2v-8zM483 288l-7 8l-4 -6l7 -8zM497 269l-5 5l3 -11zM534 240l-14 13l-6 -7l-12 -1l1 -5l14 -11l-3 -17l1 -15l-2 -2l-2 4l-3 -12l5 -6l4 12l12 9l1 4l-2 7l-7 13l10 1zM310 251
l-7 1l-8 -6l10 -1zM207 332v7l-13 -5l4 -3zM192 332l-6 8l-8 -3l1 -5l3 -4zM189 289l-6 -1l-3 -4l8 -3zM144 331l-7 15l-8 5l-4 -5l-13 1l-1 -5l7 1l5 -10l2 3l10 -4zM90 359h-5l-4 -5l7 -1zM119 322l-4 2l-3 -8zM268 12l-9 2l-12 -2l-2 -3l1 -5l6 -2l5 7l7 -3z" />
    <glyph glyph-name="t" unicode="t" horiz-adv-x="649" 
d="M632 450l-1 -11l-3 -5l-10 -5l-23 -4l-15 2l-5 4l-3 5l-23 59l-23 48v7l-3 15h3l5 7l-13 6l-26 10l-15 35l-1 13l3 15l11 11l4 1l55 -5l59 4l12 -6l3 -3l2 -52v-80l-2 -7l-2 -5l-12 -15l-6 -11l7 -2v-3l13 -1l-5 -11l7 2l3 -3l-6 -21l6 1v4zM512 29l-2 -9l-11 -10
l-48 -12l-102 6h-53l-7 1v7l-23 2l-21 -3l-51 -9l-40 8l-6 3l-5 6l-1 6l2 21l57 25l2 3l4 38l2 36l5 -3l2 19l4 14l-5 9l-5 1l1 9l7 1v9l-10 -3l2 49l4 -4l-2 8h6l2 -5h4l3 9l-6 39l-3 9l3 4l-3 22l4 1l-4 14l3 3l2 13l-11 4l6 19l-4 9l-7 11l5 4l-3 2l4 5v4l-6 1l1 214
l30 15l-2 9l62 -6l112 6l25 -5l5 -5l4 -21l-2 -9l-8 -9l1 -11l-1 -9l6 -15l-3 -3l7 -7v-4h-8l-3 -7l4 -1l1 -4l-5 -6l11 -15v-15l-7 -5l5 -11l-1 -9l4 -6l-1 -48l-13 4l-3 -4l9 -6l-3 -2l2 -13l-1 -12l3 -11l-7 -15l4 -9v-10l3 -10h-3l-4 -8l4 -2l-2 -9l12 -4v-4h-7l-1 -6
l3 -3l-5 -3l1 -4h7l-1 -4l3 3v-4l-10 -2l8 -7v-7l-6 7l1 -9l7 -1l-1 -3l-8 -2l3 -9l1 5l7 -11v-3l-3 -48l1 -24l-5 -2l-3 1l-3 -21l1 -7l3 -11h4l1 -13l2 -6h-4l-1 -5l-7 -5l8 -5v-3l-5 -3l4 -15l-17 1l3 -7l-2 -5l-8 2l-5 -3l10 -15l13 -5l7 -7h-15l4 -7l7 1l7 3l-2 8h6
l3 13l12 -8l43 -15l3 -8zM171 614l-2 -6l-10 -13l-3 5l-9 -4l-12 -8l-3 -5l-14 -32l-6 -6l-1 -11l-13 -22l6 -6l-21 -66l-5 -4l-12 -5l3 5h-6l3 7l-10 3l-6 -10l-5 -2l-2 -5l-19 7l-4 5l-3 17l11 103l-4 43l3 9l-3 7l4 4l-4 -2v10l7 -4l6 5l-3 2l3 3l4 -2l4 12l-6 3l-2 6
l-5 3l82 -4l10 5l8 -12l4 9l7 2l1 5l8 -11l-8 -1l-9 -7l8 -8l-1 5l4 4l5 -10l-10 -7l3 -6l5 -2l3 1l19 9v-18zM612 465l-3 10h-11l1 -9zM602 459l-8 -3l5 -3zM416 605l-8 6l-2 -15l7 -2zM426 546l-5 12h-4l-1 6h5l1 4l-6 -1l-2 16l-4 -4l-5 4l-10 -12v-14l10 -6l-2 -8l14 -3
zM413 510v7l-5 -8zM248 485l-18 -4v-6l12 2zM228 486l-13 -2v-2l1 -9l7 11zM219 220l-6 -7l5 -1zM252 170l-1 9l-4 -7l-1 -7zM255 162l-21 -24l4 -5l5 4v8l11 4zM216 126l-2 11l-3 -11h5zM216 110v10h-4l-3 -7z" />
    <glyph glyph-name="u" unicode="u" horiz-adv-x="699" 
d="M690 634l-3 -15l-56 -26l-10 -7l-7 -10l-5 -37v-41l-4 -25l2 -11l-4 -3l1 -8l-8 -18l-1 -9l14 -8v-3h-8l-4 -18l4 -7v-4l-3 1l3 -12l9 3v-228l-5 -7l1 -5l-3 -5l2 -9l-8 -17h-3l-5 -9l-8 3l-6 -6l-16 -3l-13 2l1 -5l8 -9l-7 -11l2 -10l8 -7l-7 -8l-55 -31l-50 -12l-8 1
l-10 2l-5 5l-5 15l-1 10l4 23l4 4l60 26l16 11l9 8l4 -7l7 -1l-7 14l9 13l11 23l5 56l-1 50l9 -4l-4 -2v-3l3 -3l7 8l3 1l-7 17l-11 -3l-1 41l2 21l5 15h12l1 7l-7 11h9l-1 6l-9 4h8l-6 10l4 -1l-1 5l-6 5l8 1l1 3v13l-3 6l-9 5l-7 -1l-1 6h6l-1 11h-4l-1 12h8l-3 8l-3 -3
l-1 63l5 2v13l5 21l-4 11h7l-1 24l-4 2l2 6l-5 4v4l-4 4l-3 8h-4l-5 -6l9 -3l-2 -8l-25 7l-4 4l5 9h5l-2 -3l7 -3l1 6l-4 4h-6v3l-6 -4l-2 -13l-10 1l-23 7l-10 11l-4 12l3 10l9 8l21 8l18 3l63 -2l73 3l35 -8l10 -10zM382 34l-6 -21l-10 -10l-37 -5l-51 2l-59 6l-12 3l1 6
l-20 16l8 -1l1 -4l8 2l2 7l-6 4l4 -6h-6l-1 6l-12 8v9l-18 9l-3 -18l-6 -4l-3 -4l11 -13l-17 6l-31 23l-33 48l-12 52l1 42h3l2 -4l6 -2l2 11l-9 13l-2 19l4 1v6l-6 8l9 20l-1 19l-4 17v8l20 7l3 3l1 4l-1 11l4 3v4l6 3l2 4l-23 11l-5 20l3 1l-4 14l3 1v4l-6 7l6 1l-1 11
l-4 1l2 5l-1 7l5 10l-2 12l-11 1l-3 12l9 2l-1 5l4 3l-11 4v84l-1 12l-5 13l-8 6l-33 15l-5 12l-1 6l4 14l10 10l48 10l29 -3l2 -10l27 -4l3 9l-4 1l5 3l2 -10l22 3v4h24l8 -3l8 3l2 -2l-1 -6l5 -4l-1 12l7 2l3 -9l8 2l2 6l3 -1l1 -5l16 3l-2 -8l6 1l1 8l3 -1l1 -6l7 -2h4
l19 10l10 -3l5 7l12 -1l34 -8l8 -8l3 -16l-1 -11l-12 -7l-34 -23l-5 -8l-1 -149l-8 -1l-1 -17l-11 -37l2 -5l7 -8v-5h-7l2 -4l13 -8l1 -12l-8 2l-2 -8l5 -6l-3 -9l8 -5l-4 -9l7 -9l-12 -13l-2 -15h7l3 -7l-14 -10l3 -4h3l-4 -9h-17v-3l-8 9l-9 -6l13 -19l-12 -8l5 -16l-5 1
l-9 -5l5 -6l7 -2v5l8 -2l-9 -8l5 -6h5v3h14l8 11h7l10 -15l-3 -17l2 -18l13 -38l13 -16l38 -24l3 -13zM555 323l-1 7l-4 2l5 4h-11l3 -2l-3 -6l3 -3zM556 319l-11 1v-6l8 -2zM552 300l-4 9l-5 -7l4 -4zM592 112l-10 9l4 -12zM116 579l-2 5l-8 2l-4 -2zM93 586l-8 4l2 -5
l-6 1l-4 -6l10 -6l3 3v7zM282 238l-4 10l-4 -3l4 -7h4zM258 174l-4 10h-2l-11 -11l-6 -3v-5l9 -2zM223 14l-13 10l-5 -4z" />
    <glyph glyph-name="v" unicode="v" horiz-adv-x="611" 
d="M616 639l-3 -17l-39 -24l-10 -8l1 6l-14 6l4 -14l-9 2l-17 -24l6 -5l7 -12l-6 -2v-5l-7 -5l7 -12l-12 -42l-3 -3l-3 -17l-10 -19l-3 -12l3 -3l-41 -139l-14 -31l-4 -1l-8 7l-14 43l-8 30l2 20l4 12h4l-2 -13l5 -5l6 2l-9 29l7 5l10 12l-3 16l8 1l4 22l8 -3l4 17l-11 6v13
l24 93l-5 20l-7 11l-6 4l-45 17l-1 2l-3 16l2 16l8 8l24 9l25 -8l15 3l26 2l9 -2l1 2l43 2l20 -2l20 -6l8 -8zM427 166l-14 -11l-9 -12l-3 -1l-1 4l-5 -3l-1 -5l-3 -1l4 -14l-1 6h5v-10h-8v-3l-17 -16l3 -3l-13 -7l-7 -9l7 -1l2 -5l-5 -5l5 -14l6 4l3 -12l16 -2l-2 -12
l-11 -19l-11 -9l-41 -7l-42 2l-19 3l-17 5l-9 6l-20 45l-13 46l-8 25l8 4l6 -8l7 4l-8 17l-4 14l3 18l3 1v8l4 1l3 12l-4 3l-8 -3v6l-20 -9l-4 2l-7 10l4 3l-7 13l7 3l-2 11l-6 3l-3 17l-5 11l-12 9l2 6l4 -3l-3 12l-6 12l-4 20l-6 9v4l-15 27l3 6l-2 8l-22 38l-58 165h6
l1 4l-8 6l-6 -1l-8 8l6 -4l-7 10l-11 -2l-19 11l-2 3l-2 12l3 16l6 6l19 7l10 1l1 -9l6 -1l8 5l2 -5l14 1l13 -10l-1 6h6l-1 8l19 -4l23 7h64l106 9l29 -3l11 -3l7 -13l11 1l5 -2l2 -3l2 -9l-3 -18l-41 -21l-4 -6l-3 -8l2 -20l-9 1v-13l5 -12l-2 -12l3 -8l1 -20l6 -10l10 5
l3 -3h4l2 -6h-6v-4l8 -9l8 -16l3 -14l1 -20l-5 -12l10 -21l14 -9l55 -172l4 -21l-5 -13l5 -6v-3zM454 652l-9 -1l-2 -7zM298 644v3l-7 6l1 3l-14 3l-6 -4l-8 -8l7 2l15 -4zM262 645h-6l-4 -4l6 1zM305 584l-1 7l-9 -3l-9 4l-9 -5l-13 1l-3 -2l-2 -3v-4l4 -5l-2 -2h11l8 3v-3
l6 -2l6 5l1 6l4 5zM260 609l-4 4l-20 -7l-8 1l4 -10h8l3 3v4l15 -1zM253 596l-3 6h-5v-4l3 -3zM233 579l-4 5l-6 -6l5 -5zM258 568l-22 -6l-1 5h-6v4h-4l-2 -4l-10 -1l1 -4l-7 -6l14 -9l22 11l11 4zM80 593l-3 10l-6 5h-2l-2 -4l1 -4l3 -4l3 -2zM229 91l-10 13l-3 -7l5 -7z
" />
    <glyph glyph-name="w" unicode="w" horiz-adv-x="846" 
d="M850 629l-3 -12l-2 -3l-49 -31l-18 -38l-12 -13l-11 -9l-1 -14l-13 1l-9 -6l4 -7l-1 -9l4 -1l4 4l11 -2l1 -3l4 1v5l4 2l-4 -8l-12 -3l1 -12h6v4l4 -6l-48 -156l-3 -2l-3 -1l-4 1l-3 3l-9 31l-15 60l38 137l3 19l-4 18l-13 15l-10 7l12 1l6 5l-14 13h-2l-26 -2l-1 -9
l-10 5l-6 17l3 14l12 10l18 6l87 -2l-3 -11l2 -7l15 -7l1 7h4l-1 -6h5v14l-18 -5l-3 10l6 -2l5 -5v4l10 2l13 -6l6 2v11l12 -1l21 -7l6 -6zM684 223l-1 -8l-20 -72l-4 3l-9 -15l4 -3l-1 -5l-4 -1v-6l-5 -3l-2 -5h2l-9 -6l-9 -12l-3 -11l1 -5l8 -8l9 1l-8 -28l-12 -29l-7 -5
l-50 -8l-30 2l-12 2l9 4l-4 10h-3l-4 -14l-10 4l-9 9l-10 29l-1 12h19l-14 18l-11 -6l-38 130l19 2v-5h7l1 14l-3 13l-4 6l-2 1l-9 -4l-18 5l-2 3l-1 5l1 23l-12 18l5 3l-3 8h-5l-3 9l4 6l-9 14l-22 76l-4 32l3 17l8 14v11l7 15l4 -1l1 22l5 1l1 18l4 1v13l3 1l2 16l-2 2
l6 8l3 9h4l3 -5l8 6v14l-11 -7l-1 4l8 7l7 -1l6 10l-5 1l-6 -4h-12l16 58l4 3l33 9l63 -4l14 -10l4 -7l30 -103l-16 -20l11 -6l6 6l-4 5l7 3l11 -42l-11 -4l-5 -13l4 -1l1 -5l7 -1l4 -12l11 -1l59 -204zM397 226l-3 -20l2 -3l-5 -7l-4 -22l-15 -54l-10 -15l-3 -12l-8 -3
l-13 -15l-9 -9l-22 9l1 -10l3 -6l20 -1l2 3l16 -5l3 4l-1 -10l-8 -34l-13 -11l-23 -6h-32l-51 5l-7 6l-7 15l-2 12h4v5l9 -2l5 3v5l-16 -3l-3 7l7 6l-5 15l-11 -4l-12 40l10 -5l4 -10l8 3l1 20l-13 16l-10 -2l-1 -16l-5 13l-1 9h12l6 3l-1 7l-10 4l-2 15l-15 4l-2 3l12 1v7
l7 -2l1 5l-8 9l-2 8l-5 5l-7 9l-2 11l-1 13l-6 8v13l-13 12l3 3l-1 4l3 3l-9 18l-4 3l1 4h-4l7 10l-7 5l2 10l-5 14l-1 10l-12 23l1 6l-3 8l6 -1l11 16l9 7v6l11 7l1 7l10 1l6 2l14 19l-3 3l-33 -29l-3 3l-7 -3l-15 -1l-15 -8l-9 11l-12 30l-2 24l-5 9l4 7l-6 14l-7 8h4v1
l-5 4l2 8l-13 20l-17 34l-8 7l-32 16l-2 5l-2 13l3 13l7 7l60 12l51 -4l1 -3l13 1l2 -2l23 1l8 -7l10 3v-4h19l19 6l9 -4l10 6l3 -6l13 7l4 -8l4 5l8 -4h10v12l28 1l41 -9l13 -12l3 -14l-1 -9l-3 -4l-4 -3l-36 -16l-8 -12l-1 -10l3 -22v-11l4 -2l-5 -6l1 -8l4 -1v-12l4 -1
l-7 -1l4 -12l-1 -11l4 -3l4 -14l12 -3l63 -234l-3 -9h5zM121 415l-6 -8l-4 6zM185 151l-6 -1l-3 -4l-6 19l15 -8v-6zM715 605l-1 4l-3 -6l-5 8l-1 -14l2 -3zM731 505l-26 -4l-5 -25l14 4l4 6l2 -3h4v8l-5 3l-1 8l9 -2zM581 511l-2 9l-5 -5v-7zM481 621l-2 10l-10 -1l2 -7
l-10 -3l-7 1l-10 -7l7 -2l2 -3l15 3zM298 483v12l-4 22l4 11l-3 -1l-7 14l-19 -3l8 -10l2 -4v-4l-10 -10l9 4l-1 -8l5 -6l-7 -11l11 -7zM298 458v15l-8 3l-1 -5h-2v6l-7 -2l-4 -3v-5l4 -5l4 -2zM301 416l-8 10h-5v-6l9 -8zM620 52l-4 4l-9 -5l-6 -8zM470 186l-3 -1l-2 5
l-4 -1l-1 -13h5zM501 80l-1 11l-9 12l4 15l-8 8l2 4l-13 1v-9l10 -10l-5 -10v-14h5l2 -8h13zM246 45l-3 3l-4 -1l-3 3l-4 -4z" />
    <glyph glyph-name="x" unicode="x" horiz-adv-x="662" 
d="M610 635l-3 -12l-33 -21l-12 -10l-11 1l-4 -3l1 -5h-6v-6l-14 -5l-2 -12l-5 -9l3 -3l-14 -18l-5 4l-7 -7l7 -4l-22 -31l-9 2l2 -11l-10 -15l-13 -13l-5 -2l-4 2l-10 10l-18 38l1 7l5 8l7 7l4 -4l12 -4v3l4 2l-3 10l1 10l-3 2l4 9l8 2l8 -10l7 8l-12 13l7 1v5l-5 1l2 15
l-3 8l-36 23l-2 22l5 9l9 7l26 5l55 -2l2 -4l17 4v-6l7 -6l2 3l6 1l2 -1l11 9l4 -8l6 1l7 6l10 -1l10 -5l7 -9zM658 25l-3 -9l-6 -7l-19 -6l-12 -2l-2 4l-18 -4v-2l-9 2l-2 5l-9 3l-2 -4l-13 5l-14 -6l-11 6l-10 6l-3 -3h-11l-12 -5l-10 1l-27 -4l-7 1l-14 -1l-3 2l-9 -3
l-7 5l-10 1l-2 -8l-17 -2l-6 -3v13l-30 -1l-13 -7l-22 -3l-23 6l-12 10l-4 9l2 21l29 16l9 13l8 -1l2 -2l13 6l-5 9l-5 4l4 2l-3 9l-3 7l-16 12v14l-11 8l3 3l-18 25l-9 24l-12 -3l1 7l4 1v6l-6 9l-9 -4l-5 10l-2 8l-10 13l-31 53h3v9l6 1l5 -8l15 -1l6 -10l10 -3l1 11l-8 8
l3 10l-27 7l-7 -1l-5 12l-3 -1l-11 6l-2 11v6l9 -2l-2 9l31 4v6l-5 4l7 3v4l-4 7l2 7l-14 -1l2 -11l4 -2l-5 -3l-3 -8l-5 -1l-9 19l-10 11l-3 -2l-1 -10l-5 17h4l-1 10l-9 25l-7 15l-8 10l5 6l1 3l-3 13l-3 8l-6 7l-12 1l-6 6l3 2l6 -3l6 9l-6 3v5l-4 6l-1 6l-18 -1l-2 -4
l8 -3l4 -23l-12 -2l-3 18l-6 9l-9 -11l4 -1l4 -19l-11 8l-4 12l-16 29l-3 11l-13 -1l-6 11l-17 23l-12 11l-30 19l-3 12l3 14l7 8l33 8l33 1l-1 -7l2 -2l-1 -11l5 -7l4 5l16 4v5l25 5l2 -3l13 -2l27 3v-5l7 -1l3 -4l9 3l6 -3l5 2l10 1l16 -2l34 7l15 -2v6l3 3l12 -3v6h7l4 4
l8 -1l-5 -5l21 -2l2 5l12 -1l18 -7l11 -13l4 -13l-2 -8l-17 -14l-15 -11l-4 -11l-10 -4l1 -7l5 2l5 -3l-9 -13l2 -4l9 -1l-2 -10l5 1l12 -4l106 -195l-15 -1l9 -11v-8h-6l1 -12h5l5 -6l7 1l5 -9l-5 2l-1 -8l7 -2v-8l3 -2l3 -8h4l-2 -6l4 -2v-6l3 -7l3 -1l4 -6l6 -5l-5 -28
l15 1l9 -3l4 -4l2 -11l-1 -10l13 -11l2 -9l8 -1l3 -13l10 -9v-6l6 2l1 7l5 2l4 -10l-14 -1l-3 -15l6 -6l7 -3l9 6l9 -15l25 -36l23 -15l13 -6l4 -9zM234 193l-60 -88l-8 -15l-1 -10l2 -10l4 -6l45 -21l2 -11l-6 -19l-11 -11l-24 -5l-82 5l-4 10l-12 -3l-8 3l-19 -4l-2 -5
l4 -5l-11 1l-16 5l-8 9l-3 13l2 11l2 5l43 25l3 -4l-7 -5l11 -11l4 1l5 12l-4 2h7l5 5l6 1l-4 16l-5 3v6l5 5l4 -3l8 1v9h-7l4 6l6 -5l4 4l-5 6l6 6l2 12h6l7 -2l-8 6l39 55l13 -2l5 10l16 4v13l4 5l10 6l-4 8l-8 2l10 6l3 -1l7 -5l18 -34zM246 635l-12 3v-6zM526 121
c0.666992 10 -2.33301 16 -9 18l-4 -18l-7 1l2 -9zM594 86l-5 14l-1 -8l-15 3l1 -9h-4l-4 5h-21l-5 7h-8l-1 -7l-14 -3l1 -9l-3 -5l5 -12l23 9l-3 5l-15 -1l-2 4l10 7l2 -4l17 -2l1 -4l10 -2l-7 10l9 -2l7 -4zM263 301v6l-4 -5l2 -3zM272 265l-11 7l-9 -2l-1 -6l14 -8l-1 2z
M293 220l-7 24l-11 1l-2 -7l-10 -3l-2 -11l19 -6l2 -5z" />
    <glyph glyph-name="y" unicode="y" horiz-adv-x="653" 
d="M650 641l-4 -18l-46 -28l-17 -18l-8 8l-23 -13l6 -14l-4 -9l-11 -11l2 -16h6l-2 -5h-5l-2 -13l-16 -11l-2 -5l6 -11h-4v-7l-5 -3l2 -6l-9 -4l-8 -17l5 -3l-29 -60l-5 -3l-3 -1l-3 1l-5 3l-5 8l-19 45v3l4 15l49 104l6 25l-4 15l-4 7l-44 20l-4 10l-1 10l2 10l7 7l13 7
l16 4l48 -1h56l-10 -5v-7l12 2l5 -4l15 -3v7l5 -3l-1 -7l6 -3l4 3l7 -5l9 3v14l10 -8l1 -3zM521 33l-3 -13l-8 -7l-18 -6l-40 -6l-22 1l-3 13l-10 -5h-9l-3 4l-16 -1v-10l-5 9l-7 5l-12 -1l-17 1l-23 -6l1 -3l7 2l3 -2l2 4l19 -7l-45 2l6 2l-5 5l-16 -8l-36 -6l-18 4v-4h-25
l-4 8l-8 -2l-1 5l6 2l-4 3l1 6l-8 2l-7 -4v3h-7v-9h-6l-1 -7l-16 3l-7 6l-5 7l-2 9l2 10l6 9l43 15l12 7l2 -2l2 1v-7l5 -4l-4 -9h14l6 3l-9 4h7l-7 4v4l6 1l-5 1l-3 11l4 -2l1 7l10 5v8l-5 -1v14l4 4l-4 5l3 4v8l7 8l-7 9l-7 -4h5l-10 -7l-3 -4l-1 -6l3 -12l-1 -3l-2 -3
l-7 -1l-1 47l2 24l-5 86l-33 73l-10 38l-10 15l4 8l-12 14l5 3l-6 14l-8 6l1 4l-4 6l-1 5l-9 7l-16 18l-5 10l12 5l-1 13l-20 -1l-9 16l-2 12l-10 8l-26 51l-16 11l-27 14l-4 18l2 12l3 5l7 4l15 3l1 -7l4 -4l2 9l-6 4l7 1l6 -13l9 -3l1 4h14l19 4h4l3 3h16l1 7l41 -3v-4
l10 -1l1 -5h18l-7 9h13l11 -10l13 6l4 -2l10 10l12 -7l3 -6l10 9l-1 3l10 3l41 3l43 -4l12 -3v-7l18 -7l1 -1l1 -16l-1 -7l-4 -5l-34 -19l-5 -14l5 -23l14 -34l2 -10l-4 -1l-2 6l-1 -13l-5 -10l-16 2l-2 -11h24l9 -6l17 1l5 -10l-5 -1l-8 6l4 -13l15 -1l12 -28l44 -83
l12 -46v-11l-13 -1l-9 3l-6 -3l-3 -9l5 -5l-10 -3l1 -11l7 1l8 -5l-1 -15l4 -4v-6l6 9l-4 12l12 -6l-3 -10l2 -5l-4 -8h-4l-2 7h-5l5 -8l-10 -5l8 -7l7 3l3 -7l-4 -11l9 2l2 -5l-5 -4l-3 -11l2 -3l-4 -6l-1 -9l-6 -2l-2 -7l5 -5l5 8l8 -1v-8l-4 -4l-3 -9l-9 -1l3 -3l-1 -13
l7 -9l-1 -7l8 -3l-7 -6h9v-12l4 -10l4 -6l52 -18l5 -12zM222 102l-1 -5h-4l-1 8zM304 458l-4 8l-6 -2l2 -8zM141 537l-10 -2l1 8l-19 1v-14l11 -3l4 -9h9zM217 287v4l-3 3l-5 -1l-1 -9l7 -1zM239 2l-3 6h-9l8 -7z" />
    <glyph glyph-name="z" unicode="z" horiz-adv-x="578" 
d="M488 535l-10 -17v13zM268 651l-10 -29l-7 -11l-51 -22l-8 2l-8 -4l1 -7h-8l5 5h-15v-15l-1 -2l-27 -19l-20 -21l-44 -58l-18 -3l-23 7l-4 3l-1 6l2 10l5 7l5 2l1 14l7 1l5 15l5 1v7l8 7l-8 7l-4 -8l-6 -4l1 9l-6 -1l-10 -10l3 12l6 10h-7l-1 19l2 16l-2 48l7 14l4 3
l74 -1l101 3l17 -6l28 5zM560 646l-15 -38l-15 -29l-10 5l-9 -3l3 -7l-11 -4l-4 -4l5 -4l-11 -13l2 -11l-15 10l-6 -4l-2 -5l-11 -7l3 -11l-5 -8l5 1l-5 -9l-12 -9l-3 -10h4l4 -8l8 -3l-5 -5l4 -2l-4 -10l-16 -28v-13l-4 -10l-4 -2l-4 -11l-5 -7l-1 -9l-16 -26v-5l-7 -4
l-1 -17l-6 -7l-1 -9l-6 -5l-4 -8l6 -6l-5 -6l3 -2l-6 -6l4 -9l-5 -1l-9 5l-8 -7l3 -2l-3 -6l-9 6l7 16l-1 5l4 -2l4 8l-5 1v5l-8 1l-11 -8l-8 -1l3 -7l-2 -14l-5 -4l2 -5l-10 -4l-13 -23l-15 -6l4 -2l-1 -5l5 1l-4 -3l-2 -9l-6 -2l6 -6l-11 -3l-5 -5l7 -13l27 24l3 1l1 6
l21 8l3 6l-3 4l21 -4l-3 -3l4 -7l-72 -151l-34 -54l-12 -8l-20 -2l-68 4l-12 3l-10 -1l-3 6l-8 -1l-8 1l-8 -3l-5 10l-4 2l-16 1l-21 -2l-4 -2l-7 -10l-10 3l-5 -8l-13 5l-4 6l-2 8l7 27l41 83l11 -6v3l6 4l-3 7l9 4l-5 -17l6 -2l14 2v24l-4 5h11l4 10v9l-11 -3l-7 7l6 8
l-1 12l9 -8l3 1l1 5l4 1l-1 5l11 -1l5 3l-7 5h-8l-2 -2l-3 3l5 11l-4 2l-2 12l9 -2l-4 -4l3 -7l6 -3l4 13l-4 -1v14l-4 2l5 3l10 15l-2 -18l8 13l-4 18l9 -1l2 6l7 4l-2 14l12 3v14l6 -2l3 11l8 13l1 11l13 6l3 7l6 3l1 -4l14 7l2 8l8 14v14l-6 2v5l12 5l-2 11l16 3l4 6
l-4 6h-6l-1 5l-10 -1l-2 6h6l-1 14l-3 2v6l11 8l-2 15l-5 1l2 2l12 -1v3l-8 7l10 -1l2 4l5 -1v9l-11 7l59 119l9 10l11 6l15 -10l16 3h11l7 9l-1 -8l10 -4l11 7l14 -1l8 3v-5l14 1l9 3h38l2 -4l11 4l-1 -4h6v5l6 -8h5l-2 8l14 2l31 -5l6 -6zM218 376l-4 -7l-5 11h-5l12 7z
M562 184l-8 -73l-3 -60l-21 -4l-1 -6l8 -11l14 5l2 -10l-6 -14l-9 -9l-21 -4l-106 8l-62 -4l5 5l24 5l2 6l-1 3l-2 2l-4 1l-18 -6l-31 -4l-19 -5l3 21l24 38l11 6l32 12l16 7h8l6 7l10 1l8 6l-13 -17l13 8l2 7l5 2l1 4l12 1l2 5l5 -1l-1 -5h13l5 8l4 3l9 -4l3 9l-7 7l7 -4
l6 1l-7 12h-4v3l-3 -2v-7l-5 -1l2 11l20 40l21 17l20 4l21 -5l5 -5zM340 1h-10l10 4v-4zM91 156l-5 -8l-3 4zM162 581v5l-11 14l-3 -9l-9 -11l-3 -5v-5l3 -13l7 2l3 14zM251 461l-1 16l-8 -1v-6l4 -11zM367 305l-1 7l-6 2l-5 -8l9 -4zM60 579l-8 6l2 7l-6 -1v-5l-6 -5l-2 -5
l3 -10l12 5zM505 28l-7 1l-5 -9l-10 7l-12 -4l2 -5h14l7 -2zM289 213h-11l-2 -4l4 -3h4zM119 185l-10 4l-4 -4l3 -3h6l2 -4z" />
    <glyph glyph-name="braceleft" unicode="{" 
d="M367 0h-334v667h334v-667zM360 7v653h-320v-653h320z" />
    <glyph glyph-name="bar" unicode="|" 
d="M367 0h-334v667h334v-667zM360 7v653h-320v-653h320z" />
    <glyph glyph-name="braceright" unicode="}" 
d="M367 0h-334v667h334v-667zM360 7v653h-320v-653h320z" />
    <glyph glyph-name="asciitilde" unicode="~" 
d="M367 0h-334v667h334v-667zM360 7v653h-320v-653h320z" />
    <glyph glyph-name="nonbreakingspace" unicode="&#xa0;" horiz-adv-x="247" 
 />
    <glyph glyph-name="exclamdown" unicode="&#xa1;" horiz-adv-x="393" 
d="M287 539l-10 -15l3 9l-6 6h-6l5 -21l-21 -11l2 -6l-8 2l-5 8l-10 -5l-9 -1l-2 -2l-2 4h-12v-14l-27 -1l-49 11l-20 24l-10 34l1 21l22 5l9 6l7 1l11 9h9l5 4l-8 2l-4 -4l-12 1l-7 -2l-15 3l-5 -1l-1 -13l-11 -1l1 16l11 3l5 11l4 1l3 -3l10 7l2 12l7 -9l15 4l-3 13l9 5h8
l5 9l9 -3l38 3l28 -9l21 -16l6 -8l-4 -2v-4l7 1l3 -8l-2 -9l-4 1l-3 -6l3 -1l5 -11v-34zM302 97l-5 -3l-1 -16l-4 -1l-1 -5l4 -6l-5 -1v-20h-8l-4 -4l-1 -4l4 -16l-11 -8l-38 -12l-15 -1v5l-7 4l2 -8l-13 -2v5l-6 -1l4 -3l-12 -2l-4 9l-10 -4l3 8l-4 4l-6 -6l-12 11v11
l-10 1v-4l-7 -3v-7l-6 -2v-3l-9 2l-12 9l6 -1l2 8l-5 8l3 5l4 -1v-9l6 -4l2 11l20 21v3l-3 4l-8 -7l-19 -11l-5 -1l-2 -8l-5 2l-5 -6l-4 10h4l1 10l13 -2l-15 12v22l3 8l-10 8v26l5 38l13 60l5 16l12 1v14l6 1l1 30l-3 3h5l1 6l6 7l1 5l-7 1l7 7l-5 5h7l3 11l-6 2l7 9l-1 16
l5 5l-3 9l5 28h4l3 28l-3 -1l2 11l4 5l12 7l19 4l24 -5l9 -6l4 -10l17 -104l6 -9l-8 -11l2 -3l-2 -4h-4l2 -5h-5l3 -14l12 -10l2 -10l9 -23l5 -16l6 -9l8 2l4 -27h-9l1 -13l8 -26l-3 -9l4 3l4 -15l6 -2v-22h-12v-5l8 -3zM258 629v8l-6 6l2 -12zM213 644l-4 12h-5l3 -13z
M154 499l-1 7l-4 1v-5l3 -3h2zM280 214l-9 2l-1 -7l7 -2zM271 172l-9 3l-3 -3l-2 13h-4l-3 -16l15 -8zM285 139l-7 8l4 9l-7 6l-6 -10l3 -9l-8 1l1 4h-8l-2 -4l4 -5l-5 -22l1 -5l6 -9l5 2l-1 -2l3 -2l4 16l5 9l-4 11h5l2 3zM251 147l-11 5l-2 -9l3 -2zM191 23l-14 -2l3 -10
l3 3h5zM172 29l-17 6l6 -11l7 2z" />
    <glyph glyph-name="cent" unicode="&#xa2;" horiz-adv-x="559" 
d="M524 401l-2 -4l-4 -2l-15 -3l-15 3l-10 7l-6 10l-1 10l-4 2l-1 5l7 1l-1 5l-11 4l-25 37l-31 30l-24 19l-5 16l-1 8l3 13l5 11l39 -8l-10 -15l5 -8h-6l4 -5h6l11 13l6 2v5l11 -1l-9 -10l-9 -1l3 -6l-3 -1l-1 -4l9 -7l14 12h-5l-3 6l10 12l12 5l15 14l11 -1l12 -4l16 -10
l-1 -21l-3 -37v-17l5 -37l-6 -13l7 -4l1 -17l-2 -2zM515 208l-8 -30l-13 -24l-8 -8l-2 5h-6v-12h-10v-7l-9 -3l-8 -12l-10 -3l-24 -20l-44 -12l-19 -4l-5 -6l-1 -37l-2 -9l-5 -7l-9 -8l-9 3l-7 -8h-6l-3 11l-7 10l3 80l5 11l-6 3l3 3l-1 111l5 26l-2 2l-1 78l2 7l6 4v4l-8 5
l-5 -8l-1 10l10 2l3 7l-6 9l-1 4l3 19l-5 60l3 48l-2 26l-14 -3l-18 -11l-15 -16l-6 -18l-1 -12h-10l2 -5l-9 -1l-2 -5l4 -3l-7 -2l-14 6l-2 -11l-11 -3l-4 -7l6 -2l2 -6l-12 -10l3 -6l9 -1l-8 8l8 -2l5 5l-3 5l16 -2l18 22l5 4l1 -31l-5 -21l3 -3l-3 -5l-6 -17h-3l-3 7
l9 15l-12 3l-3 -9l-1 -10l-4 -1v-5l5 -4l4 -9l-3 -7l6 -1l-9 -10l5 -5v-6l13 -1v-11l6 -14v-9l-3 -1l4 -15l-7 -7l7 -3l-2 -6l3 -24h-3l2 -46l-2 -6l-5 -10v-3l4 -1v-6l-3 -3l6 -9l3 -14l13 -14l1 -11l10 -15v-16l-3 -8l-5 -5l-13 -3l-100 32l-33 25v2l2 6l-11 3l-11 8l1 20
l-11 3l3 2h-3l4 16l-11 4l-4 -12l-4 3l-3 19l2 8l-4 5l1 2l-4 18l-5 1l-1 6l-11 1l-3 10l-6 73l2 33l13 56l15 36l24 33l4 -1v-4l4 1v7l-5 -1l9 12l45 35l25 12l8 1l-11 -14l13 -7l13 -4l-3 8h-6l7 8l12 7l17 16l3 2l51 6l12 3l5 6l3 11l-4 14l8 8l-7 3l-2 7l2 10l2 2l29 8
l-2 8l9 2l9 -11l5 -9l-5 -9l9 -13l2 1l1 -6l-4 -2l3 -23l-5 -32l1 -52l-4 -12l-6 -4l4 -3h11l-1 -12l-4 -20l3 -26l-3 -211l-4 1l-1 -4l6 -4l2 5l3 1v-10l-4 -2l-1 -35l-2 -20l3 -10l3 -3l3 -1l11 4l43 19l8 5l17 19l7 11h5l1 -8l7 -1l4 17l4 7h-7l2 7l4 3l-3 5l9 2l-2 4
l11 2l21 -4l9 -9zM348 393l-6 8l-2 -4l1 -8zM223 486l-7 5l-2 -5h9zM177 532l-6 3l-1 -4l6 -4zM167 521v4l-10 -1l-4 -7h7zM201 416l-10 -6l-5 -6l4 -6l7 7zM215 368l-4 4l-2 9l-6 1l5 -19zM196 391l-14 5l-2 -5l8 1l2 -2zM209 354l-5 3l-5 -6l4 -4l5 3zM97 472l-3 6l-10 -7
l-3 -9l-3 -11l4 -3l3 13l6 3zM100 262l-7 12l-10 3l2 -9zM181 124l-11 7l-1 -7h12zM99 207v5l-8 1l-4 -5l8 -5z" />
    <glyph glyph-name="sterling" unicode="&#xa3;" horiz-adv-x="585" 
d="M522 506l-10 -7l8 -9l-3 -17l-2 -8l-11 -20l-8 -9l-4 3l-11 -8l-11 -2l-6 -8l-2 -1l-36 -2l-42 5l-15 7l-22 21l-6 19v10l4 2v8l7 7v7l6 3v7l8 -1v9l-7 2l-1 5l-16 2l4 14l4 5l10 11l-8 -1l-5 -5l8 14l11 -4l10 5l17 -2l4 6l-2 5l-5 -4l-5 8l5 2l9 -4l3 6l-2 8v-6l-48 26
l-4 6l-3 19l5 27l5 5l5 2l12 -1l-7 -17l9 -8l-1 -3h11v6l5 5v15l12 -2l59 -23l40 -36l6 -10l-6 -7l8 -3l-1 -6l3 -7l5 2l3 -14l-9 -14l8 -8l-21 -14l-14 -6l-4 5v-6l-5 -2v-6l-4 -4l-1 -7l4 1l3 -6l8 6l1 5l9 -1l4 8l-9 -2l14 11l9 3l1 -4h7v-13h3v-5zM437 321l-3 -13l-8 -9
l-27 -9l-11 -2l-10 12l-4 1l-7 -2l-7 -7l-7 1l1 5l-10 10l-6 -4l-2 -6h3v-6l-20 1l-1 6h3l-5 8l-3 12l5 27l4 4l18 3l24 -1l-9 -10h6l5 5l6 -6l7 4l-1 7l11 -1l37 -10l8 -8zM312 643l-2 -21l-33 -30l-17 -55l-5 -10l6 -9v-12l-9 7l2 -10l-2 -4l2 -8l-11 12l-9 -7l-1 -5l1 -3
l18 -2v-5l-7 -11l5 -2l4 10l9 1l4 -47l-11 4l-2 -10l8 -2l4 -5h4l1 -9l-7 2l-2 4l-7 -2l-6 6l-3 -1l1 -8l-3 -5l6 -8l10 9l1 -8h12l3 -18v-25l-5 1l-6 -6l2 -8l6 -5h-10l-1 -5l6 -5h6l2 3l5 -11l3 -28l-8 -51l-6 -8l-3 -10l-6 -1l-5 -7l-11 -1l1 15l-5 -2l-7 2l-1 -7h-5
l8 -14l-62 -10l-45 -19l-6 -2l-4 1l-5 5l-1 5l12 47v11h-4l1 7l8 -1l4 9l-13 6l8 -1v9l7 -1l21 16l-13 4l-30 -6l-11 1l1 -3l-32 6l-24 8l-7 8l-3 14l3 11l35 16l4 3l3 5l2 6l-4 16l-16 62l-2 15l12 1l-6 19l-4 6l2 6l-6 6l14 6l3 17l10 10l-5 7l1 7l8 3l4 9l8 -1l-1 5l7 6
l-1 9l-5 2l-1 6l-3 1l6 3v5l3 4l-1 7l15 28l9 8l10 -5l14 12l3 -1l10 10l2 5l42 11l42 5h7l41 -5l6 -6zM563 194l-12 -6l5 -7v-6l6 -5v-9l-3 -21l-14 -39l-11 -23l-16 2l1 -7l-7 -6h-7l-7 6l-11 -2v-6l-15 -5l-11 -9l1 -6l-7 -7h-5l-5 3l-19 -12l-5 8l-2 -4l-8 2v-10l-9 -2
v-3l9 -4l4 -6l22 -1v8l2 5l20 9l7 -6l10 4l1 -7l-4 2l-1 -5l-13 -6l-7 -7l-50 -9l-1 -2l-4 10l7 -3l3 4l-9 2l-11 8l-26 -4l1 5l-7 -2l-14 3l-19 -1v-7l-39 8l3 3l-2 3h-28l-15 1l-7 4l-10 2v7l-12 2l-11 19l-5 2l-7 2l-12 -6l-5 -15l4 -4l3 -16l-15 -2l-4 1l-9 10h-8l-5 -4
l4 -6l-13 -11l2 -3l-9 -8l-18 3l-19 7l-10 7l-5 6l-3 12l6 31l7 18l16 -4l-5 9l-5 2l1 11l13 -9l3 3h5l3 10l-14 9l10 10l57 35l86 19l52 -4l12 -2l4 -10l27 2v-5l27 -2l2 -16l7 4l5 -5l2 2h10l22 8l8 -7l10 3l19 -3l11 3l2 3l10 2l4 6l-5 10l13 13l16 27l12 5l17 3l13 -3
l8 -4l3 -4zM502 600l-5 6l-2 -5zM405 490l-4 10l2 6l-14 1l3 -4v-8l-4 5h-7v-8l4 -8l2 4l6 -1l-5 -8l9 -1l1 10zM238 480l-9 6l-2 -6l2 -8l6 -4zM254 456l-5 3l-7 -3l5 -8l-10 2l4 -6h-7l14 -13l3 7v8zM232 458h-8l-4 -11zM267 321l-4 7l-6 1l-2 -8l-9 -1l12 -6l-1 3l4 7z
M372 146l-5 6l-1 -7l4 -2zM366 137l-4 17l-6 -3l2 -13zM449 43l-7 6l-4 -7zM168 270l-1 6l-6 3v-6l3 -7zM124 11l-5 16l-4 -9z" />
    <glyph glyph-name="currency" unicode="&#xa4;" horiz-adv-x="606" 
d="M565 207l-35 -35.999l-100 101c-36.667 -28.667 -79 -43 -127 -43c-46.667 0 -88.334 14.333 -125.001 43l-101 -101l-35 36l101 100c-28.667 38 -43 79.667 -43 125s14.333 87 43 125l-101 100l35 36l101 -101c38.667 29.333 80.334 44 125.001 44
c46 0 88.333 -14.667 127 -44l100 101l35 -36l-100 -100c28 -36.667 42 -78.334 42 -125.001c0 -46 -14 -87.667 -42 -125zM457 433.001c0 42.667 -14.832 78.834 -44.499 108.501s-65.834 44.5 -108.501 44.5s-78.834 -14.833 -108.501 -44.5s-44.5 -65.834 -44.5 -108.501
s14.833 -79 44.5 -109s65.834 -45 108.501 -45c42 0 78 15.167 108 45.5s45 66.5 45 108.5z" />
    <glyph glyph-name="yen" unicode="&#xa5;" horiz-adv-x="706" 
d="M671 638l-2 -7l-3 -6l-10 -7l-37 -23l-17 -18l-7 9l-9 -2l-2 -4l-13 -9l6 -12l-4 -10l-11 -11l2 -16h6l-2 -5h-5l-2 -13l-16 -11l-3 -4l8 -10l-6 -4v-6l-4 -2l2 -6l-9 -4l-8 -17l5 -2l-10 -23l11 1l70 3l36 -10v7l9 -6l-1 -27l-3 -16l-5 -5l-33 -7l-13 -2v6l-38 -4l-13 1
l-17 11l-4 -1l-1 -18l-6 3l2 5l-2 9l-14 3l-7 -12l-11 3l4 20l-7 6l-6 13l-4 25l14 59l34 72l5 22l-4 17l-2 5l-3 2l-42 19l-6 15v5l3 12l10 9l23 6l43 2l62 -2l-9 -5v-7l12 2l7 -5l12 -2l2 7l4 -5l-2 -4l7 -4l3 3l8 -5l9 4v13l10 -8l3 -5zM650 280l-7 -40l-5 -5l-33 -5
l-10 -1l-1 4l-85 -3l-14 2l-7 4l-9 8l6 22l4 17l2 3l3 2l56 5l34 -1l20 4l8 -9h28l1 4zM540 33l-4 -13l-7 -7l-18 -6l-40 -6l-22 1l-3 13l-10 -5h-11l-1 4l-16 -1l-1 -10l-5 8l-6 6l-12 -1l-17 1l-23 -6l1 -3l7 2l3 -2l2 4l19 -7l-45 2l6 2l-5 5l-10 -5l-42 -9l-19 4v-4h-24
l-4 9l-7 -2l-2 4l6 2l-4 3l1 6l-8 2l-8 -4v3h-6v-9l-6 -1l-1 -6l-16 4l-7 4l-5 7l-2 9l2 11l6 9l45 17l10 5l2 -2l2 1v-7l5 -4l-4 -9h14l6 3l-9 4h6l-7 3v5l7 1l-6 1l-2 11l4 -2l2 11l9 1v8l-6 -1l1 13l3 5l-3 5l3 4v8l7 8l-7 9l-7 -4h5l-10 -6l-5 -14l3 -5l-2 -10l-7 -1
l-1 122l-25 -2l-1 4l-21 -1l-9 -3l-11 4l-47 -4h-12l-19 5l-8 7v3l8 39l7 6l5 1l107 4l11 2l-23 46l-1 13l-15 1l-8 -4l-10 4h-11l-47 -3l-20 4l-9 9l-1 4l6 25l2 12l14 7l35 3h43l1 7l-14 12l1 6l-6 5v6l-7 6l-15 14l-7 16l13 4l-2 12l-21 -1l-9 17l-1 10l-10 9l-16 36
l-7 10l-19 16l-28 14l-3 19l1 11l2 3l11 6l12 4l6 -12l2 10l-5 3l4 4l8 -16l9 -3l1 4h14l19 4h4l2 3h17l1 7l40 -3l1 -4l10 -1l2 -6l17 1l-7 9h13l3 -8l12 -2l8 6l5 -2l10 10l4 -4l8 -3l3 -5l10 8l-1 3l10 3l42 3l42 -4l12 -3v-7l17 -4l3 -10l1 -16l-4 -4l-37 -21l-2 -3
l-2 -11l12 -42l8 -25l-3 -1l-2 6l-1 -13l-5 -10l-14 2l-5 -10h25l9 -7l17 1l5 -10l-5 -1l-8 6l4 -13l14 -1l14 -29l45 -86l10 -42v-11l-13 -1l-10 3l-6 -3l-2 -9l5 -5l-11 -4l2 -10l6 1l9 -5l-1 -15l4 -4v-6l6 9l-2 12l9 -6l-2 -10l2 -6l-4 -7h-4l-2 7h-5l4 -7l-8 -7l7 -6
l3 3h4l3 -6l-3 -12l6 2l4 -5l-4 -2l-4 -13l2 -2l-1 -5l-5 -5v-7l-5 -1l-2 -7l5 -5l4 8l9 -1v-8l-4 -4l-3 -9l-9 -1l3 -3l-1 -13l7 -9l-1 -7l8 -3l-7 -6h9v-13l3 -8l7 -8l4 -2l46 -15l5 -12zM160 537l-10 -2l1 8l-19 1v-14l11 -4l2 -7l11 -1z" />
    <glyph glyph-name="section" unicode="&#xa7;" 
d="M367 0h-334v667h334v-667zM360 7v653h-320v-653h320z" />
    <glyph glyph-name="dieresis" unicode="&#xa8;" horiz-adv-x="469" 
d="M432 804l-3 -19l-6 -11l-6 -1l-1 -9l-8 -6l-5 -11l-4 6l-2 -15l-5 -1l4 -6l-26 -4l-1 5l6 2l-6 2l-7 -10l-2 5l-3 -4l-38 1l-1 8l13 3v4l-11 -1l-1 4l-10 -1l-7 6l-8 1l-5 6h-10l-4 26l4 66l11 10l-3 1l15 5v-5l3 1l6 -5l-5 -7l-10 -2l3 -10l12 7l6 11l30 4v-2l9 4l-16 2
l-1 9l4 2l-1 4l26 1l40 -8l12 -11l6 -16zM212 823l-8 -1l1 -14l-18 -27l-3 6l-3 -12l4 -14l9 -14l-8 -14l-26 -5l-8 14l-12 4v-6l-16 1l-14 5l-14 2l-2 -8l-6 -2l-1 7h-7l-1 3h-8v5l-10 1l-6 27h10l1 11l-3 13l12 16l4 12l-8 -6l-12 -19l1 -10l-3 -6l-4 4l12 64l10 12l11 6
l16 2l1 -4l10 5l5 -5h6l2 -4h14l3 10h16l-7 -3l-3 -12l8 -1v-3l2 3l-3 9l11 -8l2 13l10 -2l18 -9l13 -18l-3 -16l1 -11l2 3zM407 861l-2 5h-8v-3l-16 4h-14l-1 -4l-6 3v-7l6 -2l13 2l20 -1l2 -5h4zM186 739l-6 4v5l-4 3l-18 -5v-3l6 -3l2 -6h5l3 -3z" />
    <glyph glyph-name="copyright" unicode="&#xa9;" 
d="M367 0h-334v667h334v-667zM360 7v653h-320v-653h320z" />
    <glyph glyph-name="ordfeminine" unicode="&#xaa;" 
d="M367 0h-334v667h334v-667zM360 7v653h-320v-653h320z" />
    <glyph glyph-name="guillemotleft" unicode="&#xab;" horiz-adv-x="478" 
d="M436 465l-3 -14l-4 -10l2 -10l-5 -1l-11 -15l10 3l-8 -17l-13 -12l-5 8l-14 -5l1 -10l-9 -2l2 -10l-13 -5l3 9l-10 -7l3 -9l-24 -13v-4l4 -1l-1 -8l2 -5l-7 -2l2 6l-6 3l1 9l-3 1l-3 7h-3v-24l5 -2l2 -9l3 -1l16 4l5 -2l11 -9l8 -8l-9 -3l3 -14h4l2 4l18 -6l1 8l4 -1
l2 -8l8 -1l-3 -3l3 -1v-8l11 3l5 -8l4 -13l6 -47v-7l-6 -45l-5 -6l-6 -2l-5 1l-33 17l-54 39l-11 9v5h-5l-15 13l17 -2l-1 7l-4 7l-10 -3l-6 11l-9 1l-1 3l-10 1l-7 6l-22 29l-8 41l2 30l9 35l11 10l9 5v4l7 7l1 5l8 2l14 14l12 -7l-2 3l9 3l9 -5l3 3l-1 4l13 10l-9 10
l-12 -16l-3 6h-3l1 9l18 8v5l8 2l5 3v5l52 39l11 4l9 3l6 -2l3 -3l11 -33zM233 481l-4 -44l-2 -10l-10 -2l-21 -21l3 -11l-9 -6l-1 -7l-10 -1l4 -4l-36 -20l1 -6l-9 -9l-1 -3l2 -5l9 -11l39 -29l-11 4l-3 -4v-7l14 -3l2 -7l-5 -2l-5 7l-9 5l-3 -11l9 -5l2 -13l6 2v9l22 -4
v15l10 -9l6 -12l-5 -2l-6 3l-1 -8l5 -11v4h9l3 -11l3 -49l-1 -15l-1 -11l-8 1l-2 7l-11 -1l-6 4l-14 2l-3 4l-10 1l-11 4l-12 -2l-1 4l-15 7l-45 40l2 4l-6 9h-4v-5l-8 8l25 4l2 3l-9 8l-7 -1l-9 7l-5 15l-30 -1l-5 9l-6 46l6 47l7 12l7 7l1 -5l7 2l7 9l-5 13l5 2l6 -9l6 -5
l5 -1l5 4v7l-11 -5l-2 3l3 3v5l-9 2l19 15l-1 -7h-4l-2 -12h7l1 5l8 4l-2 8l6 -3l2 6l11 7l4 11l1 -7l11 13l13 11l9 8l27 12l9 10l14 7l4 8l7 1l4 4l7 -8l4 -9zM388 480v7l-4 2l-2 -5h-4v-4h10zM367 467l-1 9l-4 -1v-3l-6 -4l-2 -2l5 -4zM348 306h-5v-8l3 -5zM55 324v8
l-7 6l1 -4z" />
    <glyph glyph-name="logicalnot" unicode="&#xac;" horiz-adv-x="833" 
d="M709 174h-56v188h-529v57h585v-245z" />
    <glyph glyph-name="registered" unicode="&#xae;" 
d="M367 0h-334v667h334v-667zM360 7v653h-320v-653h320z" />
    <glyph glyph-name="macron" unicode="&#xaf;" 
d="M367 0h-334v667h334v-667zM360 7v653h-320v-653h320z" />
    <glyph glyph-name="macron" unicode="&#x2c9;" 
d="M367 0h-334v667h334v-667zM360 7v653h-320v-653h320z" />
    <glyph glyph-name="degree" unicode="&#xb0;" 
d="M367 0h-334v667h334v-667zM360 7v653h-320v-653h320z" />
    <glyph glyph-name="plusminus" unicode="&#xb1;" horiz-adv-x="549" 
d="M503 276h-197v-152h-62v152h-197v62h197v152h62v-152h197v-62zM503 0h-456v62h456v-62z" />
    <glyph glyph-name="acute" unicode="&#xb4;" horiz-adv-x="482" 
d="M367 880l-2 -9l-7 -13l-8 -8l-1 3l-7 1v-6l-11 -2l-2 -8h-4l-10 -7l-2 -10l-3 -3v-4l-8 -11l-3 -8h5l-4 -8l-8 -3v-7l-24 -30l-4 6l-6 -1l-8 -7l1 -6l4 -1l-7 -12l-39 -7h-26l-1 13l-12 4l-5 7h-5l4 -14l5 -3v-6l-11 1l-16 6l-4 5l-2 8l3 12l10 19l4 -17l9 4l-1 8l4 1v-8
l4 -1l21 9l-3 14h-10l-14 30l10 12l-3 2v5l7 2v7l4 5l-3 9l11 8l2 6l-4 4l2 7l7 3l4 10l4 -5l2 5l5 -2l5 3l15 -1l7 3l1 -5l9 -2l3 5l8 1l-3 4l28 1l4 -4v3l8 -1l5 -3l5 4l2 -3h9l1 5l12 -3l16 4l12 -3l7 -7zM229 739l-8 13h-9l-11 -6l-5 2v-4l-10 1l-2 -3l2 -6l11 1l14 -2z
" />
    <glyph glyph-name="mu" unicode="&#xb5;" horiz-adv-x="551" 
d="M513 522l-78.999 -368c-7.33301 -34 -11 -56 -11 -66c0 -21.333 11.667 -32 35 -32c5.33301 0 11 0.333008 17 1l-13 -61c-14 -3.33301 -29 -5 -45 -5c-43.333 0 -67 24 -71 72c-28 -48 -75 -72 -141 -72c-56.667 0 -99.334 22.333 -128.001 67l-55 -266h-76l154 730h77
l-62 -291c-4.66699 -22 -7 -44.333 -7 -67c0 -74 35.333 -111 106 -111c80 0 134.667 66.667 164 200l59 269h76z" />
    <glyph glyph-name="mu" unicode="&#x3bc;" horiz-adv-x="551" 
d="M513 522l-78.999 -368c-7.33301 -34 -11 -56 -11 -66c0 -21.333 11.667 -32 35 -32c5.33301 0 11 0.333008 17 1l-13 -61c-14 -3.33301 -29 -5 -45 -5c-43.333 0 -67 24 -71 72c-28 -48 -75 -72 -141 -72c-56.667 0 -99.334 22.333 -128.001 67l-55 -266h-76l154 730h77
l-62 -291c-4.66699 -22 -7 -44.333 -7 -67c0 -74 35.333 -111 106 -111c80 0 134.667 66.667 164 200l59 269h76z" />
    <glyph glyph-name="paragraph" unicode="&#xb6;" 
d="M367 0h-334v667h334v-667zM360 7v653h-320v-653h320z" />
    <glyph glyph-name="periodcentered" unicode="&#xb7;" horiz-adv-x="366" 
d="M276 316l-3 -9l-2 -13l-7 -13l-6 -8l-2 8l-6 -1l2 -13l-15 -9l8 8l-3 16l-9 -1v-7l-15 -8v-5l-24 -5l-21 2l-5 -6v5l-33 -3v4h-9l-7 3l-2 -6l-3 11l-13 2l3 10h-4v6l-9 2l-6 27l1 40h5v5l4 7l-3 2l7 8l5 3v10l11 3v11l7 3l21 1l2 2l10 2l14 7l18 -5l11 3l25 -2l24 -17
l13 -13v8l9 -13l6 -29v-10l-15 -1l2 -14l9 -8l2 11zM237 258l-8 -5l-20 -4l1 5l17 5zM267 360l-2 6l-6 3v-9l-6 -4l-2 -5h9l3 2l3 3zM239 373l-14 9l-1 -5l7 -6zM259 336l-7 -3l-3 -4l-1 -4l1 -3l5 -6zM245 324l-3 -3v7l-5 -5v-8l5 1l1 -4zM232 319l-3 1l-1 6l-5 -1l-4 -14
h12zM218 314v8l-6 -1v-11zM97 324l-7 8l-3 -4l9 -7zM116 270l-3 15l-7 5l-1 -11z" />
    <glyph glyph-name="periodcentered" unicode="&#x2219;" horiz-adv-x="366" 
d="M276 316l-3 -9l-2 -13l-7 -13l-6 -8l-2 8l-6 -1l2 -13l-15 -9l8 8l-3 16l-9 -1v-7l-15 -8v-5l-24 -5l-21 2l-5 -6v5l-33 -3v4h-9l-7 3l-2 -6l-3 11l-13 2l3 10h-4v6l-9 2l-6 27l1 40h5v5l4 7l-3 2l7 8l5 3v10l11 3v11l7 3l21 1l2 2l10 2l14 7l18 -5l11 3l25 -2l24 -17
l13 -13v8l9 -13l6 -29v-10l-15 -1l2 -14l9 -8l2 11zM237 258l-8 -5l-20 -4l1 5l17 5zM267 360l-2 6l-6 3v-9l-6 -4l-2 -5h9l3 2l3 3zM239 373l-14 9l-1 -5l7 -6zM259 336l-7 -3l-3 -4l-1 -4l1 -3l5 -6zM245 324l-3 -3v7l-5 -5v-8l5 1l1 -4zM232 319l-3 1l-1 6l-5 -1l-4 -14
h12zM218 314v8l-6 -1v-11zM97 324l-7 8l-3 -4l9 -7zM116 270l-3 15l-7 5l-1 -11z" />
    <glyph glyph-name="cedilla" unicode="&#xb8;" 
d="M367 0h-334v667h334v-667zM360 7v653h-320v-653h320z" />
    <glyph glyph-name="ordmasculine" unicode="&#xba;" 
d="M367 0h-334v667h334v-667zM360 7v653h-320v-653h320z" />
    <glyph glyph-name="guillemotright" unicode="&#xbb;" horiz-adv-x="477" 
d="M426 275l-4 -9l-7 -3v4l5 8h6zM446 354l-4 -49l-2 -12l-6 -2v10l-4 9l-4 -5v-3l-8 -3l8 -4l-3 -14l-9 -9l-10 -4l-12 -7l-5 -6l-2 -7l-35 -26l-2 -4l3 -14h-6l-1 4l-10 -1l-1 -12h5l1 -8l-7 3l-15 -7v-11l-9 -7l-35 -22l-5 -1l-7 2l-6 6l-8 46l4 37l7 24l14 22l6 4l30 12
l11 6l3 12l3 4l9 6l9 5l-5 -6l-1 -9l19 1l-2 6l3 5l-4 2l1 8h-10l-17 19l-58 39l-10 11l-9 47l-1 43l3 22l3 5l11 5l-2 -11l1 -3l24 -21l6 1l1 5l6 -9l15 -3l2 -4h10l2 7l7 -4l-2 -7h9l12 -9l-5 -1v-8l5 -5l5 8l6 -8l8 -3l13 -13l7 -15l13 -4l16 -10l14 -23zM244 359l-3 -67
l-2 -8l-15 -22l-19 -18v9l-6 -1l-8 -11l-21 -10l1 -4l-3 -5l-5 2l-12 -10l1 -11h-10l4 5l3 16l-5 5l-5 -2l-3 4l-10 -5l3 -13l-6 -6l2 -17l-18 -7l-12 -11h-5l-3 -3l4 -16l-15 -8l-10 -2l-7 2l-5 6l-9 44l-1 10l7 13l5 -1l11 6l8 -7l1 8l-4 7l9 8l6 10l1 3l-4 9l-3 -2
l-4 -13l-2 4l-4 -1l-1 4l-7 -3l-10 -12l1 -4l-1 -8l-5 10l2 7l8 19l7 9l2 -4l5 2l4 10l6 1l1 -5l12 6l5 10l-5 3l7 5l5 -6h4l-3 11l18 13l25 6l6 5l9 11l-7 -2l2 6l6 2l-5 7l-7 4l-3 -3l-20 3l1 3l-3 4l-1 -7l-3 -1l-59 40l-10 11l-10 66v35l2 9l7 8v-7l20 -9l16 -5l-4 7
l-8 4l-2 7l13 -4l8 -8l-4 -4h5l1 -6l25 -7v-6l-20 4l12 -8v-2l10 -3l3 -3l9 2l9 -5l10 -5l70 -64l11 -17zM348 460l-2 7l-8 3v-5l6 -8zM336 456l-1 12l-5 6zM386 405v13h-4l-1 -11zM350 440h-8l-3 -4l6 -1zM336 437v3l-3 3l-11 -1l-6 7l-2 -13l8 3l9 -5zM375 315l-13 7v-5z
M356 310l-7 -3l4 -8zM199 423l-9 1v12l-8 1l-1 -3l-7 1v-18h18l1 4zM358 239l-9 2v-4l5 -4zM347 225l-1 9l-10 -2l-5 -6zM327 222l-2 4l-7 -5l-1 -4l3 -3zM327 195v6l-13 -6v-4l9 -4zM137 298l-15 -6l1 -6l1 -1h6zM104 264l-9 1l-5 -9l10 2z" />
    <glyph glyph-name="questiondown" unicode="&#xbf;" horiz-adv-x="542" 
d="M423 552h-5v-5h4l-1 -3l-7 -2l-1 -7l-14 -3v-5l-24 -10l-2 -4h-7l-12 -4l-12 11l-8 -5l-9 -9l-6 5l-1 6h-6l4 -18l-12 3h4v7h-19l3 -8h-5l-2 7l-7 6l-6 -7l-9 6l-17 20l-12 55l3 34l7 14l9 9l-1 4h16l26 4l4 -4l7 2l8 -14l10 -7l11 -3l-9 11l-7 3l-2 9l7 -6l6 -1l-4 11
l5 5v7h7v3l29 -1l17 -14l3 7l6 -9v-11l2 -3l3 -1v3l-5 3l1 6l6 4l10 -8l5 -10l-10 -2v-9l11 -6l5 -6zM251 251l-10 9h6l4 -6v-3zM494 101l-3 -20l-8 -15v-6h-5l-7 -11l-5 2l-7 -3l-3 -11l-5 2l-11 -6l1 -6l-9 -6l-28 -6l-17 -13l-3 13l-14 -3l-11 1v-12h-34l-20 6l-5 6l1 37
l4 4l23 10l9 -6l7 9v11l-15 5l-10 7l-5 6l-3 22l4 41l5 12l16 19l34 13l13 2l8 -15l20 8l15 -2l-2 8l16 -2l16 -6l-3 -3l2 -14l-3 -5l1 -7l-4 -4l3 -8l11 2v9l10 2l5 9l7 -13l7 -20l-2 -30l4 -1v-12zM378 436l-4 -41h-5l1 -7l-8 2l-3 -7l-3 -1l-2 -7l-15 -8l-8 -8l-9 -12
l-4 2l-3 -9l9 -19l-8 -11l-4 5l-3 -7l-6 3l-8 -4l1 -6h-4l-2 -4h-6l-1 -5l-11 -13v-11l-5 1l2 13l-16 13l-13 -14l-7 -4l2 -6l-9 -8l4 -11l4 -5h13l3 -8l-6 -1v-9l-6 -1v-4l8 -4l-6 -12l-9 -54l1 -34l8 -44l21 -23l3 -5l3 -16l-1 -6l-4 -18l-3 -3l-30 -7l-32 3l-11 2l-1 12
l-13 -3l-15 12l-21 -2l-4 4h-5v5l4 3l-5 5l-4 -4l-14 -3l-5 23l10 1v5l-10 1l-3 -3l-4 1l-13 11l2 4l-7 14l-6 2v20h-7l1 17l-3 -1l1 14l-5 2l7 14l2 6l-2 31l8 30l5 3l8 -3l2 4l-7 2l-1 5l3 2l-1 8l6 18h7l-8 12l8 12l-4 3l10 14l-1 7l10 10h15l31 16v5l4 1l1 6l22 8l8 11
l42 20l23 13l6 6l26 41l5 4l43 7l23 -2l7 -3l9 -8zM401 631l-5 3l-9 -1l5 -6l5 -2l3 2zM413 588l-3 4l-9 -7l8 -3zM289 637l-9 11l-2 -12zM307 319l-1 5l-4 7l-4 -4l2 -8h7zM490 101v3l-6 8l-1 -8zM384 197l-4 4l-6 -1v-9h7zM274 295l-5 11l-5 2l-3 -4l6 -7zM225 226l-1 6
l-5 -1l1 -5h5zM371 77l-6 6l-4 -1l-3 2l-6 -3l9 -2l2 -6l7 1zM105 291l-6 -6l1 -9zM107 235l-4 -1l-2 9l-8 4v-7l5 -11z" />
    <glyph glyph-name="Agrave" unicode="&#xc0;" horiz-adv-x="676" 
d="M664 28l-3 -14l-9 -8l-41 -9l-11 -1l-4 8l-9 1l-2 -6l-11 -3l-19 2l-7 10l-14 -3l-10 -6l-3 5l-9 -2l-6 4l-1 -4l-1 4l-13 -1l-20 -4l-14 2l-21 10l-28 -4l-6 -7l-5 4h-7l-8 -4l-23 -7l-20 3l-19 5l-6 2l-7 7l-4 13l1 8l4 12l41 21l8 19l7 7h-4l1 9l5 1l-2 8l-11 6l-5 18
l3 1l-4 16l4 1v4l5 3h-3l1 8l11 -6l3 1l3 3l2 5l-3 7l-10 5l-6 9l-15 -8l-1 10l-25 -11l-47 3v4l-7 3l-5 -2l-1 7l3 5l-1 2l-5 6l-8 2l-7 -2l-6 -5l-2 -3l3 -13l-6 -5l-8 3l-4 4l-1 8l2 15l12 22l6 10h53l26 4l5 4l1 14l-17 63l3 6l-5 11l-1 23l2 1l1 4l-7 4l-1 12l-8 4
l-3 38l2 2l-1 10l4 11h-5l-7 9l2 4l11 3l-2 7h-11l-4 7l6 -1l1 5h-4l-6 10l5 3l2 -3v16l-16 3v14l-5 1l-6 12l3 8l-7 21h-1l-2 6l6 2l-10 12l-2 6l3 12l7 10l9 5l10 2l-4 -15l14 -4l1 4l19 3l18 -4l5 4l4 -5h7l5 10l-1 3l-10 1l-10 -4l5 13l1 -6l8 -1v9l11 1l84 32l10 2
l9 -2l16 -13l7 -14l34 -127l-15 -1l-10 -3l4 -6l6 -2l-4 -22l10 -15l-4 -17l4 -11l14 2l2 -24l3 -1l-1 -23l20 -7l-6 -2l1 -9l6 -7l-10 -13l5 -13l4 1l2 -3l6 -2l1 -21l1 -1l7 -5l1 -28l3 -1l3 -5l9 -2l2 -5l-9 -2l-2 -5l4 -1l1 -17h6l2 -4l7 -1l2 -11l-7 -3l9 -3l13 -52
l-10 1l5 -8l8 -2l14 -56l19 -39l6 -5l34 -21zM243 425l-3 -25l-6 -17l-11 1l-2 -1l-6 -8l-1 -4l7 -12l-6 -2l4 -4l-3 -17l5 2l-70 -239l-9 -1l-3 -9l17 -4l2 3l7 -14l6 -8l37 -15l8 -6l5 -12v-3l-4 -14l-12 -12l-33 -8l-83 4l-1 10l-33 -5l-14 -5l-15 2l-14 5l-6 6l-3 9
l-2 9l1 8l3 6l38 21l18 23l8 7l7 11l2 11l10 2l13 17l4 8l2 11l-5 5l-1 8l-5 3l1 8l8 1l1 12h8l10 29l1 38l9 22v12l9 15l-1 14h14l9 4l1 3l6 55l5 10l-1 7l3 9l5 1l1 13l-7 5l19 63l8 20l4 4l4 1l4 -1l4 -4l7 -19zM490 528h-14l-4 -6l17 -2zM351 626l-1 8l-13 -4l11 -7z
M355 609l-5 7l-1 -14l5 -2zM492 425h-19v-6l2 -3l6 -3l3 1zM514 381l-1 7l-4 -7h5zM588 142v10l-7 3l-2 -5h-4v-9l6 -3zM559 158l-13 1l6 -8zM377 325l-3 5l-7 -3l5 -4zM585 103l-6 2l5 16l-4 -1l4 9l-9 4l-21 4l-3 -6l17 -7l6 -5l-12 2l3 -20l-4 -4l8 -15l-6 -6l3 -6h14
l-2 13zM376 284l-4 7l1 6l-3 5l-16 -3l-2 -7l-8 -4l-1 -14l-7 1l-1 -7l4 -8l4 4l2 -4l6 5l13 -3l-6 4l9 4l4 13zM366 744l-2 -7l-4 -5l-10 -6l1 16l-14 1l-20 -6l-9 1l-4 -4l12 -2v-5h-10l-2 -5h-11l-1 3l-27 -1l-10 3l-34 36l-8 14l7 -1l-9 11l-5 4l-3 13l-5 -7v14l-3 6h-6
l-3 -3l7 -15l-14 21h6l-2 7l-5 3v4l-3 1v6l-14 3l-2 6l-15 5l-11 18l5 21l10 4l18 2l10 -2l1 -7l17 3l-1 -6l3 1l2 -4l14 -1l59 5l-3 11h19l11 -4l7 -7l20 -42l9 -26l-9 2l-3 -3l-1 -16l2 -23l13 7l6 13l4 -16l2 3zM207 837l-4 4l-16 -6v-7l18 -1z" />
    <glyph glyph-name="Aacute" unicode="&#xc1;" horiz-adv-x="676" 
d="M664 28l-3 -14l-9 -8l-41 -9l-11 -1l-4 8l-9 1l-2 -6l-11 -3l-19 2l-7 10l-14 -3l-10 -6l-3 5l-9 -2l-6 4l-1 -4l-1 4l-13 -1l-20 -4l-14 2l-21 10l-28 -4l-6 -7l-5 4h-7l-8 -4l-23 -7l-20 3l-19 5l-6 2l-7 7l-4 13l1 8l4 12l41 21l8 19l7 7h-4l1 9l5 1l-2 8l-11 6l-5 18
l3 1l-4 16l4 1v4l5 3h-3l1 8l11 -6l3 1l3 3l2 5l-3 7l-10 5l-6 9l-15 -8l-1 10l-25 -11l-47 3v4l-7 3l-5 -2l-1 7l3 5l-1 2l-5 6l-8 2l-7 -2l-6 -5l-2 -3l3 -13l-6 -5l-8 3l-4 4l-1 8l2 15l12 22l6 10h53l26 4l5 4l1 14l-17 63l3 6l-5 11l-1 23l2 1l1 4l-7 4l-1 12l-8 4
l-3 38l2 2l-1 10l4 11h-5l-7 9l2 4l11 3l-2 7h-11l-4 7l6 -1l1 5h-4l-6 10l5 3l2 -3v16l-16 3v14l-5 1l-6 12l3 8l-7 21h-1l-2 6l6 2l-10 12l-2 6l3 12l7 10l9 5l10 2l-4 -15l14 -4l1 4l19 3l18 -4l5 4l4 -5h7l5 10l-1 3l-10 1l-10 -4l5 13l1 -6l8 -1v9l11 1l84 32l10 2
l9 -2l16 -13l7 -14l34 -127l-15 -1l-10 -3l4 -6l6 -2l-4 -22l10 -15l-4 -17l4 -11l14 2l2 -24l3 -1l-1 -23l20 -7l-6 -2l1 -9l6 -7l-10 -13l5 -13l4 1l2 -3l6 -2l1 -21l1 -1l7 -5l1 -28l3 -1l3 -5l9 -2l2 -5l-9 -2l-2 -5l4 -1l1 -17h6l2 -4l7 -1l2 -11l-7 -3l9 -3l13 -52
l-10 1l5 -8l8 -2l14 -56l19 -39l6 -5l34 -21zM243 425l-3 -25l-6 -17l-11 1l-2 -1l-6 -8l-1 -4l7 -12l-6 -2l4 -4l-3 -17l5 2l-70 -239l-9 -1l-3 -9l17 -4l2 3l7 -14l6 -8l37 -15l8 -6l5 -12v-3l-4 -14l-12 -12l-33 -8l-83 4l-1 10l-33 -5l-14 -5l-15 2l-14 5l-6 6l-3 9
l-2 9l1 8l3 6l38 21l18 23l8 7l7 11l2 11l10 2l13 17l4 8l2 11l-5 5l-1 8l-5 3l1 8l8 1l1 12h8l10 29l1 38l9 22v12l9 15l-1 14h14l9 4l1 3l6 55l5 10l-1 7l3 9l5 1l1 13l-7 5l19 63l8 20l4 4l4 1l4 -1l4 -4l7 -19zM490 528h-14l-4 -6l17 -2zM351 626l-1 8l-13 -4l11 -7z
M355 609l-5 7l-1 -14l5 -2zM492 425h-19v-6l2 -3l6 -3l3 1zM514 381l-1 7l-4 -7h5zM588 142v10l-7 3l-2 -5h-4v-9l6 -3zM559 158l-13 1l6 -8zM377 325l-3 5l-7 -3l5 -4zM585 103l-6 2l5 16l-4 -1l4 9l-9 4l-21 4l-3 -6l17 -7l6 -5l-12 2l3 -20l-4 -4l8 -15l-6 -6l3 -6h14
l-2 13zM376 284l-4 7l1 6l-3 5l-16 -3l-2 -7l-8 -4l-1 -14l-7 1l-1 -7l4 -8l4 4l2 -4l6 5l13 -3l-6 4l9 4l4 13zM508 880l-2 -9l-7 -13l-8 -8l-1 3l-7 1v-6l-11 -2l-2 -8h-4l-10 -7l-2 -10l-3 -3v-4l-8 -11l-3 -8h5l-4 -8l-8 -3v-7l-24 -30l-4 6l-6 -1l-8 -7l1 -6l4 -1
l-7 -12l-39 -7h-26l-1 13l-12 4l-5 7h-5l4 -14l5 -3v-6l-11 1l-16 6l-4 5l-2 8l3 12l10 19l4 -17l9 4l-1 8l4 1v-8l4 -1l21 9l-3 14h-10l-14 30l10 12l-3 2v5l7 2v7l4 5l-3 9l11 8l2 6l-4 4l2 7l7 3l4 10l4 -5l2 5l5 -2l5 3l15 -1l7 3l1 -5l9 -2l3 5l8 1l-3 4l28 1l4 -4v3
l8 -1l5 -3l5 4l2 -3h9l1 5l12 -3l16 4l12 -3l7 -7zM370 739l-8 13h-9l-11 -6l-5 2v-4l-10 1l-2 -3l2 -6l11 1l14 -2z" />
    <glyph glyph-name="Acircumflex" unicode="&#xc2;" horiz-adv-x="676" 
d="M664 28l-3 -14l-9 -8l-41 -9l-11 -1l-4 8l-9 1l-2 -6l-11 -3l-19 2l-7 10l-14 -3l-10 -6l-3 5l-9 -2l-6 4l-1 -4l-1 4l-13 -1l-20 -4l-14 2l-21 10l-28 -4l-6 -7l-5 4h-7l-8 -4l-23 -7l-20 3l-19 5l-6 2l-7 7l-4 13l1 8l4 12l41 21l8 19l7 7h-4l1 9l5 1l-2 8l-11 6l-5 18
l3 1l-4 16l4 1v4l5 3h-3l1 8l11 -6l3 1l3 3l2 5l-3 7l-10 5l-6 9l-15 -8l-1 10l-25 -11l-47 3v4l-7 3l-5 -2l-1 7l3 5l-1 2l-5 6l-8 2l-7 -2l-6 -5l-2 -3l3 -13l-6 -5l-8 3l-4 4l-1 8l2 15l12 22l6 10h53l26 4l5 4l1 14l-17 63l3 6l-5 11l-1 23l2 1l1 4l-7 4l-1 12l-8 4
l-3 38l2 2l-1 10l4 11h-5l-7 9l2 4l11 3l-2 7h-11l-4 7l6 -1l1 5h-4l-6 10l5 3l2 -3v16l-16 3v14l-5 1l-6 12l3 8l-7 21h-1l-2 6l6 2l-10 12l-2 6l3 12l7 10l9 5l10 2l-4 -15l14 -4l1 4l19 3l18 -4l5 4l4 -5h7l5 10l-1 3l-10 1l-10 -4l5 13l1 -6l8 -1v9l11 1l84 32l10 2
l9 -2l16 -13l7 -14l34 -127l-15 -1l-10 -3l4 -6l6 -2l-4 -22l10 -15l-4 -17l4 -11l14 2l2 -24l3 -1l-1 -23l20 -7l-6 -2l1 -9l6 -7l-10 -13l5 -13l4 1l2 -3l6 -2l1 -21l1 -1l7 -5l1 -28l3 -1l3 -5l9 -2l2 -5l-9 -2l-2 -5l4 -1l1 -17h6l2 -4l7 -1l2 -11l-7 -3l9 -3l13 -52
l-10 1l5 -8l8 -2l14 -56l19 -39l6 -5l34 -21zM243 425l-3 -25l-6 -17l-11 1l-2 -1l-6 -8l-1 -4l7 -12l-6 -2l4 -4l-3 -17l5 2l-70 -239l-9 -1l-3 -9l17 -4l2 3l7 -14l6 -8l37 -15l8 -6l5 -12v-3l-4 -14l-12 -12l-33 -8l-83 4l-1 10l-33 -5l-14 -5l-15 2l-14 5l-6 6l-3 9
l-2 9l1 8l3 6l38 21l18 23l8 7l7 11l2 11l10 2l13 17l4 8l2 11l-5 5l-1 8l-5 3l1 8l8 1l1 12h8l10 29l1 38l9 22v12l9 15l-1 14h14l9 4l1 3l6 55l5 10l-1 7l3 9l5 1l1 13l-7 5l19 63l8 20l4 4l4 1l4 -1l4 -4l7 -19zM490 528h-14l-4 -6l17 -2zM351 626l-1 8l-13 -4l11 -7z
M355 609l-5 7l-1 -14l5 -2zM492 425h-19v-6l2 -3l6 -3l3 1zM514 381l-1 7l-4 -7h5zM588 142v10l-7 3l-2 -5h-4v-9l6 -3zM559 158l-13 1l6 -8zM377 325l-3 5l-7 -3l5 -4zM585 103l-6 2l5 16l-4 -1l4 9l-9 4l-21 4l-3 -6l17 -7l6 -5l-12 2l3 -20l-4 -4l8 -15l-6 -6l3 -6h14
l-2 13zM376 284l-4 7l1 6l-3 5l-16 -3l-2 -7l-8 -4l-1 -14l-7 1l-1 -7l4 -8l4 4l2 -4l6 5l13 -3l-6 4l9 4l4 13zM537 740l-8 -11l-19 -6l-49 -1v4l6 -1l2 6l-5 3v-4l-15 3l-10 -1l-13 4l1 -5l-13 8l-47 58h8l3 5l-4 6l17 11l-3 3l-23 -9l-1 1l-17 -6l-8 -2l-11 -6l-17 -5
l4 -12l7 1l-23 -30l-6 13l1 -8l-6 -9l4 -3l-9 -9l-10 -5l-3 8l-6 -2l6 -8l-5 -3l-2 7l-10 6l-15 -7l-2 4l-4 -5l-5 4l-3 -3l6 -4l-7 -3l-18 18h-8l-3 -11l-6 8l-7 -3v-2l5 -11l4 1l3 -3l-13 -2l1 8l-14 11l-7 -3l19 27l-3 10l6 14h4l1 -5h4l7 11l7 4l-6 -1l-8 6h10l13 21
l9 5l3 9l8 2l-2 -9l4 -4l7 5l-2 7l-5 3l-1 12l5 14l11 13l19 15l79 11l48 -1l13 -24l10 2l6 -10l6 -1l-6 14l-11 2l-8 11l1 5l10 -2l22 -9l12 -11l39 -54l4 -11l-12 -5l-11 -13l1 -2l5 4l11 -10l13 6l4 6l5 -5l-3 -3v-5l15 -9l-4 -4l3 -5l9 -5l5 -13l-23 -7l-2 -12l5 -1l5 4
l8 -4zM508 731l-2 11l-7 4l-6 -10l6 -7zM394 813h-6l-8 -10h12z" />
    <glyph glyph-name="Atilde" unicode="&#xc3;" horiz-adv-x="676" 
d="M664 28l-3 -14l-9 -8l-41 -9l-11 -1l-4 8l-9 1l-2 -6l-11 -3l-19 2l-7 10l-14 -3l-10 -6l-3 5l-9 -2l-6 4l-1 -4l-1 4l-13 -1l-20 -4l-14 2l-21 10l-28 -4l-6 -7l-5 4h-7l-8 -4l-23 -7l-20 3l-19 5l-6 2l-7 7l-4 13l1 8l4 12l41 21l8 19l7 7h-4l1 9l5 1l-2 8l-11 6l-5 18
l3 1l-4 16l4 1v4l5 3h-3l1 8l11 -6l3 1l3 3l2 5l-3 7l-10 5l-6 9l-15 -8l-1 10l-25 -11l-47 3v4l-7 3l-5 -2l-1 7l3 5l-1 2l-5 6l-8 2l-7 -2l-6 -5l-2 -3l3 -13l-6 -5l-8 3l-4 4l-1 8l2 15l12 22l6 10h53l26 4l5 4l1 14l-17 63l3 6l-5 11l-1 23l2 1l1 4l-7 4l-1 12l-8 4
l-3 38l2 2l-1 10l4 11h-5l-7 9l2 4l11 3l-2 7h-11l-4 7l6 -1l1 5h-4l-6 10l5 3l2 -3v16l-16 3v14l-5 1l-6 12l3 8l-7 21h-1l-2 6l6 2l-10 12l-2 6l3 12l7 10l9 5l10 2l-4 -15l14 -4l1 4l19 3l18 -4l5 4l4 -5h7l5 10l-1 3l-10 1l-10 -4l5 13l1 -6l8 -1v9l11 1l84 32l10 2
l9 -2l16 -13l7 -14l34 -127l-15 -1l-10 -3l4 -6l6 -2l-4 -22l10 -15l-4 -17l4 -11l14 2l2 -24l3 -1l-1 -23l20 -7l-6 -2l1 -9l6 -7l-10 -13l5 -13l4 1l2 -3l6 -2l1 -21l1 -1l7 -5l1 -28l3 -1l3 -5l9 -2l2 -5l-9 -2l-2 -5l4 -1l1 -17h6l2 -4l7 -1l2 -11l-7 -3l9 -3l13 -52
l-10 1l5 -8l8 -2l14 -56l19 -39l6 -5l34 -21zM243 425l-3 -25l-6 -17l-11 1l-2 -1l-6 -8l-1 -4l7 -12l-6 -2l4 -4l-3 -17l5 2l-70 -239l-9 -1l-3 -9l17 -4l2 3l7 -14l6 -8l37 -15l8 -6l5 -12v-3l-4 -14l-12 -12l-33 -8l-83 4l-1 10l-33 -5l-14 -5l-15 2l-14 5l-6 6l-3 9
l-2 9l1 8l3 6l38 21l18 23l8 7l7 11l2 11l10 2l13 17l4 8l2 11l-5 5l-1 8l-5 3l1 8l8 1l1 12h8l10 29l1 38l9 22v12l9 15l-1 14h14l9 4l1 3l6 55l5 10l-1 7l3 9l5 1l1 13l-7 5l19 63l8 20l4 4l4 1l4 -1l4 -4l7 -19zM490 528h-14l-4 -6l17 -2zM351 626l-1 8l-13 -4l11 -7z
M355 609l-5 7l-1 -14l5 -2zM492 425h-19v-6l2 -3l6 -3l3 1zM514 381l-1 7l-4 -7h5zM588 142v10l-7 3l-2 -5h-4v-9l6 -3zM559 158l-13 1l6 -8zM377 325l-3 5l-7 -3l5 -4zM585 103l-6 2l5 16l-4 -1l4 9l-9 4l-21 4l-3 -6l17 -7l6 -5l-12 2l3 -20l-4 -4l8 -15l-6 -6l3 -6h14
l-2 13zM376 284l-4 7l1 6l-3 5l-16 -3l-2 -7l-8 -4l-1 -14l-7 1l-1 -7l4 -8l4 4l2 -4l6 5l13 -3l-6 4l9 4l4 13zM323 867l-12 -2v9l-27 4l1 8l35 -9h-6l1 -7l7 5zM537 861l-24 -58l-29 -31l-24 -12l-8 -6l-7 2l-9 -1v-6l-5 3l-9 -1l-4 6l-7 -1l-4 -4l-2 2l-3 -2l-2 6l-2 -5
l-9 5l-1 -4h-5v-8l16 -1l6 -3l-42 1l-34 9l-10 7l10 2l10 6l-7 8h-11l-9 20l-9 1l-8 -4l1 -13l4 -1l-3 -11l-49 8l-25 -4l-11 -6l-12 -13l-4 3l-1 7l-4 3l-3 -7l-11 1l-13 -7l-9 -1l-2 -8l-16 3l-3 4l-3 12l3 19l15 31l7 12l7 -4l1 7l10 7l14 16v8h9l-7 -2h14l1 7l8 2l3 8h3
l1 -7l20 10l3 -5l11 5l1 -6l17 3l4 5l8 -1l7 -22l6 -6l-1 5l14 -5l1 -2h4l1 6l9 -6l20 -2l10 -4v7l3 -6h11l21 -8l18 -1l-2 5l-10 2l10 2v5l-17 -2l-3 4h-7l-3 7l-16 3l-11 -2l-1 -5l-5 9l21 5l30 -10l34 -3l-12 -1l-4 -2l8 -7l13 5h9l2 10l6 -2l2 4l20 10l9 -1l6 6l9 1l2 5
l4 -4l-4 7l-8 -2l-4 4l15 5l21 -2v-9l10 -4h5v-15z" />
    <glyph glyph-name="Adieresis" unicode="&#xc4;" horiz-adv-x="676" 
d="M664 28l-3 -14l-9 -8l-41 -9l-11 -1l-4 8l-9 1l-2 -6l-11 -3l-19 2l-7 10l-14 -3l-10 -6l-3 5l-9 -2l-6 4l-1 -4l-1 4l-13 -1l-20 -4l-14 2l-21 10l-28 -4l-6 -7l-5 4h-7l-8 -4l-23 -7l-20 3l-19 5l-6 2l-7 7l-4 13l1 8l4 12l41 21l8 19l7 7h-4l1 9l5 1l-2 8l-11 6l-5 18
l3 1l-4 16l4 1v4l5 3h-3l1 8l11 -6l3 1l3 3l2 5l-3 7l-10 5l-6 9l-15 -8l-1 10l-25 -11l-47 3v4l-7 3l-5 -2l-1 7l3 5l-1 2l-5 6l-8 2l-7 -2l-6 -5l-2 -3l3 -13l-6 -5l-8 3l-4 4l-1 8l2 15l12 22l6 10h53l26 4l5 4l1 14l-17 63l3 6l-5 11l-1 23l2 1l1 4l-7 4l-1 12l-8 4
l-3 38l2 2l-1 10l4 11h-5l-7 9l2 4l11 3l-2 7h-11l-4 7l6 -1l1 5h-4l-6 10l5 3l2 -3v16l-16 3v14l-5 1l-6 12l3 8l-7 21h-1l-2 6l6 2l-10 12l-2 6l3 12l7 10l9 5l10 2l-4 -15l14 -4l1 4l19 3l18 -4l5 4l4 -5h7l5 10l-1 3l-10 1l-10 -4l5 13l1 -6l8 -1v9l11 1l84 32l10 2
l9 -2l16 -13l7 -14l34 -127l-15 -1l-10 -3l4 -6l6 -2l-4 -22l10 -15l-4 -17l4 -11l14 2l2 -24l3 -1l-1 -23l20 -7l-6 -2l1 -9l6 -7l-10 -13l5 -13l4 1l2 -3l6 -2l1 -21l1 -1l7 -5l1 -28l3 -1l3 -5l9 -2l2 -5l-9 -2l-2 -5l4 -1l1 -17h6l2 -4l7 -1l2 -11l-7 -3l9 -3l13 -52
l-10 1l5 -8l8 -2l14 -56l19 -39l6 -5l34 -21zM243 425l-3 -25l-6 -17l-11 1l-2 -1l-6 -8l-1 -4l7 -12l-6 -2l4 -4l-3 -17l5 2l-70 -239l-9 -1l-3 -9l17 -4l2 3l7 -14l6 -8l37 -15l8 -6l5 -12v-3l-4 -14l-12 -12l-33 -8l-83 4l-1 10l-33 -5l-14 -5l-15 2l-14 5l-6 6l-3 9
l-2 9l1 8l3 6l38 21l18 23l8 7l7 11l2 11l10 2l13 17l4 8l2 11l-5 5l-1 8l-5 3l1 8l8 1l1 12h8l10 29l1 38l9 22v12l9 15l-1 14h14l9 4l1 3l6 55l5 10l-1 7l3 9l5 1l1 13l-7 5l19 63l8 20l4 4l4 1l4 -1l4 -4l7 -19zM490 528h-14l-4 -6l17 -2zM351 626l-1 8l-13 -4l11 -7z
M355 609l-5 7l-1 -14l5 -2zM492 425h-19v-6l2 -3l6 -3l3 1zM514 381l-1 7l-4 -7h5zM588 142v10l-7 3l-2 -5h-4v-9l6 -3zM559 158l-13 1l6 -8zM377 325l-3 5l-7 -3l5 -4zM585 103l-6 2l5 16l-4 -1l4 9l-9 4l-21 4l-3 -6l17 -7l6 -5l-12 2l3 -20l-4 -4l8 -15l-6 -6l3 -6h14
l-2 13zM376 284l-4 7l1 6l-3 5l-16 -3l-2 -7l-8 -4l-1 -14l-7 1l-1 -7l4 -8l4 4l2 -4l6 5l13 -3l-6 4l9 4l4 13zM552 804l-3 -19l-6 -11l-6 -1l-1 -9l-8 -6l-5 -11l-4 6l-2 -15l-5 -1l4 -6l-26 -4l-1 5l6 2l-6 2l-7 -10l-2 5l-3 -4l-38 1l-1 8l13 3v4l-11 -1l-1 4l-10 -1
l-7 6l-8 1l-5 6h-10l-4 26l4 66l11 10l-3 1l15 5v-5l3 1l6 -5l-5 -7l-10 -2l3 -10l12 7l6 11l30 4v-2l9 4l-16 2l-1 9l4 2l-1 4l26 1l40 -8l12 -11l6 -16zM332 823l-8 -1l1 -14l-18 -27l-3 6l-3 -12l4 -14l9 -14l-8 -14l-26 -5l-8 14l-12 4v-6l-16 1l-14 5l-14 2l-2 -8
l-6 -2l-1 7h-7l-1 3h-8v5l-10 1l-6 27h10l1 11l-3 13l12 16l4 12l-8 -6l-12 -19l1 -10l-3 -6l-4 4l12 64l10 12l11 6l16 2l1 -4l10 5l5 -5h6l2 -4h14l3 10h16l-7 -3l-3 -12l8 -1v-3l2 3l-3 9l11 -8l2 13l10 -2l18 -9l13 -18l-3 -16l1 -11l2 3zM527 861l-2 5h-8v-3l-16 4h-14
l-1 -4l-6 3v-7l6 -2l13 2l20 -1l2 -5h4zM306 739l-6 4v5l-4 3l-18 -5v-3l6 -3l2 -6h5l3 -3z" />
    <glyph glyph-name="Aring" unicode="&#xc5;" horiz-adv-x="676" 
d="M664 28l-3 -14l-9 -8l-41 -9l-11 -1l-4 8l-9 1l-2 -6l-11 -3l-19 2l-7 10l-14 -3l-10 -6l-3 5l-9 -2l-6 4l-1 -4l-1 4l-13 -1l-20 -4l-14 2l-21 10l-28 -4l-6 -7l-5 4h-7l-8 -4l-23 -7l-20 3l-19 5l-6 2l-7 7l-4 13l1 8l4 12l41 21l8 19l7 7h-4l1 9l5 1l-2 8l-11 6l-5 18
l3 1l-4 16l4 1v4l5 3h-3l1 8l11 -6l3 1l3 3l2 5l-3 7l-10 5l-6 9l-15 -8l-1 10l-25 -11l-47 3v4l-7 3l-5 -2l-1 7l3 5l-1 2l-5 6l-8 2l-7 -2l-6 -5l-2 -3l3 -13l-6 -5l-8 3l-4 4l-1 8l2 15l12 22l6 10h53l26 4l5 4l1 14l-17 63l3 6l-5 11l-1 23l2 1l1 4l-7 4l-1 12l-8 4
l-3 38l2 2l-1 10l4 11h-5l-7 9l2 4l11 3l-2 7h-11l-4 7l6 -1l1 5h-4l-6 10l5 3l2 -3v16l-16 3v14l-5 1l-6 12l3 8l-7 21h-1l-2 6l6 2l-10 12l-2 6l3 12l7 10l9 5l10 2l-4 -15l14 -4l1 4l19 3l18 -4l5 4l4 -5h7l5 10l-1 3l-10 1l-10 -4l5 13l1 -6l8 -1v9l11 1l84 32l10 2
l9 -2l16 -13l7 -14l34 -127l-15 -1l-10 -3l4 -6l6 -2l-4 -22l10 -15l-4 -17l4 -11l14 2l2 -24l3 -1l-1 -23l20 -7l-6 -2l1 -9l6 -7l-10 -13l5 -13l4 1l2 -3l6 -2l1 -21l1 -1l7 -5l1 -28l3 -1l3 -5l9 -2l2 -5l-9 -2l-2 -5l4 -1l1 -17h6l2 -4l7 -1l2 -11l-7 -3l9 -3l13 -52
l-10 1l5 -8l8 -2l14 -56l19 -39l6 -5l34 -21zM243 425l-3 -25l-6 -17l-11 1l-2 -1l-6 -8l-1 -4l7 -12l-6 -2l4 -4l-3 -17l5 2l-70 -239l-9 -1l-3 -9l17 -4l2 3l7 -14l6 -8l37 -15l8 -6l5 -12v-3l-4 -14l-12 -12l-33 -8l-83 4l-1 10l-33 -5l-14 -5l-15 2l-14 5l-6 6l-3 9
l-2 9l1 8l3 6l38 21l18 23l8 7l7 11l2 11l10 2l13 17l4 8l2 11l-5 5l-1 8l-5 3l1 8l8 1l1 12h8l10 29l1 38l9 22v12l9 15l-1 14h14l9 4l1 3l6 55l5 10l-1 7l3 9l5 1l1 13l-7 5l19 63l8 20l4 4l4 1l4 -1l4 -4l7 -19zM490 528h-14l-4 -6l17 -2zM351 626l-1 8l-13 -4l11 -7z
M355 609l-5 7l-1 -14l5 -2zM492 425h-19v-6l2 -3l6 -3l3 1zM514 381l-1 7l-4 -7h5zM588 142v10l-7 3l-2 -5h-4v-9l6 -3zM559 158l-13 1l6 -8zM377 325l-3 5l-7 -3l5 -4zM585 103l-6 2l5 16l-4 -1l4 9l-9 4l-21 4l-3 -6l17 -7l6 -5l-12 2l3 -20l-4 -4l8 -15l-6 -6l3 -6h14
l-2 13zM376 284l-4 7l1 6l-3 5l-16 -3l-2 -7l-8 -4l-1 -14l-7 1l-1 -7l4 -8l4 4l2 -4l6 5l13 -3l-6 4l9 4l4 13zM440 812l-3 -2l-2 -36l2 -1l-7 -10l-2 -6l-9 -5l-1 -8l-18 -17l-23 -4v19l-6 -14l-6 3l-16 -3l8 -4l7 4l2 -7l-24 1l2 5l3 1l-24 1l9 -4l-7 -4l-1 5h-7l-1 -5
l-6 15l-6 3l-2 -1l-2 7l-6 -3l-3 6l-23 8l-4 3l-2 -8l-7 9l-8 35l-1 14l4 1l3 5l-6 9l-2 12l4 27l13 13v6l9 4l7 7l18 9l9 8l13 -1v3l12 -3l2 -3l12 1l15 -2l22 7l5 -6l1 3l13 -4l32 -60l2 -10l5 -1l-4 -14zM399 858l-8.00098 10l-4 -1l-1 6l-18 4l-2 -5l5 2l2 -9h-8l13 -14
c-6 0 -11.667 4.33301 -17 13l6 -11l-10 -6v7c-5.33301 -1.33301 -8.66602 -2 -9.99902 -2c-12 -4.66699 -19.667 -7 -23 -7c-6 0.666992 -11.667 2 -17 4c-4 -6 -6 -10 -6 -12s3 -6.66699 9 -14l-1 -6h-4l-5 -14l9 -4l-2 7c3.33301 -4 6.33301 -8 9 -12
s7.33398 -6.33301 14.001 -7l14 -2h3c17.333 0 26.666 10.333 27.999 31c7.33301 7.33301 11 13.333 11 18l-4 10h7v4l6 1v8zM316.999 784l-5 9l-9 -2z" />
    <glyph glyph-name="AE" unicode="&#xc6;" horiz-adv-x="848" 
d="M787 481l-2 -9l-4 -4l-15 -6l-11 -2l-11 3l-9 6l-46 60l-19 17l-24 18l-33 15l-106 22l-4 2l-6 8l-7 22l-1 7v7l4 9l4 5l18 3l27 -2v-5l26 2l2 -4l3 3l5 -5l14 4l15 -1l14 3l16 -4l2 5l49 -1l52 -4l7 5l19 -8l3 9l6 -10l2 -11l-5 -2v-12l5 -1v-54l-6 -2l-3 -11h4l-3 -10
l6 -14l-7 -2l7 -10l5 5zM810 195h-8l-3 -9l1 -10l-10 2l-5 20l3 3l1 7l15 3zM697 233l-4 -18l-9 -9l-17 -4l-18 4l-4 3l-10 25l-20 31l-36 40l-7 17l-4 22l3 11l42 41l32 57l11 7l12 2l13 -3l6 -7l5 -11l4 -15l-6 -28l-3 -20l-4 -9l3 -1l-8 -26l11 -13zM313 646l-5 -6l-3 1
l1 4zM505 431l-1 -11l-1 2l-5 -4h-8l1 9l4 1l-3 1v3l3 -2zM517 403l-6 1v5h4zM528 360l-10 3l3 7l5 -1zM244 605l-11 -6v6h11zM801 91l-2 -80l-7 -7l-7 -3l-13 -2l-12 1l-3 2l-5 8h-7v-6l-56 -2l-25 4l-9 9l-11 31l-5 29l1 8l35 28l37 38l36 53l6 5l4 3l16 3l4 -8l6 -1
l-8 -12l2 -9l9 -3l-1 -6l3 -4l-1 -5l6 -5l-1 -11l-7 -27v-7l10 -4l2 -3zM619 18l-2 -7l-7 -7l-16 -5h-13l-4 9l-4 4l-2 1l-12 -1l-8 3l-47 -5h-11l1 -5l-5 5l-10 -2l-6 2l-28 -8l-43 -3l2 5l-16 4l-1 -7l10 -3l-38 -3l-48 11l-11 11l-3 15l2 13l16 8l28 18l5 8l2 12l-13 68
l2 2l-4 5l-4 11l6 -5l8 2l7 -4l6 3l-10 14l2 4l-15 1l12 4l-1 3l5 3l-8 -1l-4 -5l-14 2l-34 -7l-12 1v-5h-33v7h-9l-2 -2l-8 4l-1 10l-9 -2l1 -9l-5 -5l-7 2v3l-2 8l12 34l8 11l27 4l25 -1l25 1l6 12l1 6l-4 17l6 1l-4 10l-4 -1l-63 258h23l8 13l5 -2l4 4l14 1l8 10l-8 3
l-12 -2l-3 -10l-6 9h-14l-10 4l-8 -4l-8 4l9 7l8 -1l4 10l-4 1v3l6 2l-10 5h-9l-4 1l-3 2l-1 4l1 5l3 4l8 5l12 4l2 -11l8 -2v5l19 -4l-2 3l4 2l1 5l6 -5l1 -10l4 -3v18l5 -8l2 9h2v-2l12 5l12 4l7 8l8 -4l9 6l10 1l2 8l14 -1l-2 5l20 7l28 7l7 -2l13 -11l8 -15l46 -176
l-6 -2l4 -5l-5 -4l-1 -14l4 1l-1 7h5l1 -8l-2 -3l-24 -23v-10l-3 4l-8 -5l-7 -9l-20 -11l-10 -7l10 -5l6 -2l12 11l16 2l4 -1l-1 5l-5 4l5 6l-1 3l4 1h2l4 -4l1 -3l-1 -3l-5 -3l7 1l7 -3l14 8l-1 6h4v-5l3 -1l-2 -7h6l-8 -3l6 -13l8 -4l-7 -5l-1 -11l1 -9l3 -4l4 -2l12 1
l60 -230l-12 -9h10l4 3zM235 424l-1 -11l-41 -135h-6l-9 -11l1 -12v10l8 -5l-35 -125l-1 -44l1 -6l17 -18l38 -18l5 -7l2 -13l-3 -13l-11 -10l-33 -7l-61 3l-78 1l-24 8l-7 7l-3 14l5 17l23 12l14 8l11 1l3 -8l15 -7l4 10l-4 11l6 -1l2 11l-7 1l-1 6l6 2l-7 5l7 1l-3 5l3 3
l-2 7l4 6l4 -1l5 12v9l3 3l1 24l7 12l-2 3l5 10v3l7 7l-4 4l45 143l6 -2l5 14v7l6 4v10l4 3l5 21l14 21l-13 5l27 86l4 4h3l3 -1l6 -7l21 -75v-17zM768 637l-1 4h-18l-8 -2l-6 -6l8 -4l9 6zM755 624l-6 -5l3 -6zM729 635l-14 -1v-6l13 2zM479 446l-3 14l-5 -7l4 -7h4z
M470 440l-3 10l-7 -2l-7 -13zM510 377v4h-4l-2 -8zM363 524v5l-6 -1l-4 -6zM527 338l-3 3l-6 -1l-1 -7h5v4zM345 517l-6 5l-3 -5v-8h5zM298 540l-2 10l-13 4l1 -12zM422 386l-8 4l-21 -19l5 -3l7 10l11 3zM575 122l-5 -12l4 -5zM571 99l-2 6h-2v4l-6 1l2 -13zM373 194v4
l-3 4l-9 5l4 -9l-11 -8h9l8 2zM367 169l-5 2l-2 -7zM413 9l-3 1l-2 -4l4 -3zM386 10l-1 6l-9 2l-4 8l-2 -9l3 -10l5 -1v4h8zM54 32l-1 4l-3 3l-6 -2l1 -11l7 1l1 1zM53 10v7h-10v-4z" />
    </font>
</defs>
</svg>
